<?xml version="1.0" encoding="utf-8"?>
<!-- Generator: Adobe Illustrator 27.2.0, SVG Export Plug-In . SVG Version: 6.00 Build 0)  -->
<svg version="1.1"
	 id="location" xmlns:inkscape="http://www.inkscape.org/namespaces/inkscape" xmlns:sodipodi="http://sodipodi.sourceforge.net/DTD/sodipodi-0.dtd" xmlns:svg="http://www.w3.org/2000/svg" xmlns:rdf="http://www.w3.org/1999/02/22-rdf-syntax-ns#" xmlns:dc="http://purl.org/dc/elements/1.1/" xmlns:cc="http://creativecommons.org/ns#"
	 xmlns="http://www.w3.org/2000/svg" xmlns:xlink="http://www.w3.org/1999/xlink" x="0px" y="0px" viewBox="0 0 772.5 772.5"
	 style="enable-background:new 0 0 772.5 772.5;" xml:space="preserve">
<style type="text/css">
	.st0{fill:#E52626;stroke:#000000;stroke-width:2;stroke-miterlimit:10;}
	.st1{fill:none;stroke:#E52626;stroke-width:35;stroke-linejoin:round;}
	.st2{fill:none;stroke:#000000;stroke-width:2;stroke-linejoin:round;}
</style>
<g id="layer1" transform="translate(-68.027863,-23.250854)">
	<path id="pin" inkscape:connector-curvature="0" class="st0" d="M454.3,160.5c-99.5,0-179.8,80.4-179.8,179.6
		c0,31.2,8,60.5,21.9,86.1l157.9,264.3l157.9-264.3c14-25.6,21.9-54.9,21.9-86.1C634.1,240.9,553.8,160.5,454.3,160.5L454.3,160.5z
		 M452.3,264.9c0.7,0,1.3,0,2,0c43,0,77.8,34.8,77.8,77.8s-34.8,77.8-77.8,77.8c-43,0-77.8-34.8-77.8-77.8
		C376.5,300.4,410.2,265.9,452.3,264.9z"/>
</g>
<g id="circle" transform="translate(-68.027863,-23.250854)">
	<circle id="red" class="st1" cx="454.3" cy="409.5" r="368.8"/>
	<circle id="stroke" class="st2" cx="454.3" cy="409.5" r="386.3"/>
	<ellipse id="inner-stroke" class="st2" cx="454" cy="410.2" rx="351" ry="351"/>
</g>
</svg>
