<?xml version="1.0" encoding="utf-8"?>
<?xml-stylesheet type="text/css" href="../styles.css"?>

<!-- Generator: Adobe Illustrator 27.2.0, SVG Export Plug-In . SVG Version: 6.00 Build 0)  -->
<svg version="1.1" id="luffy" xmlns="http://www.w3.org/2000/svg" xmlns:xlink="http://www.w3.org/1999/xlink" x="0px" y="0px"
	 viewBox="0 0 154.9 318.5" style="enable-background:new 0 0 154.9 318.5;" xml:space="preserve">
<style type="text/css">
	.st0{fill:#EBBDA2;}
	.st1{fill:#BF8574;}
	.st2{fill:#F0E8E7;}
	.st3{fill:#353033;}
	.st4{fill:#506FAE;}
	.st5{fill:#A68867;}
	.st6{fill:#EABCA1;}
	.st7{fill:#D94947;}
	.st8{fill:#DAB38C;}
	.st9{fill:#D64A48;}
	.st10{fill:#D9DBDE;}
	.st11{fill:#E3AC50;}
	.st12{fill:#D14D4A;}
	.st13{fill:#544C48;}
	.st14{fill:#82614B;}
	.st15{fill:#89272A;}
	.st16{fill:#A31F1C;}
	.st17{fill:#E1A75C;}
	.st18{fill:#A3AFB6;}
	.st19{fill:#772E2C;}
	.st20{fill:#858688;}
	.st21{fill:#415283;}
	.st22{fill:#201915;}
	.st23{fill:#DEA66E;}
	.st24{fill:#BBBABA;}
	.st25{fill:#E58042;}
	.st26{fill:#0E0C0B;}
	.st27{fill:none;stroke:#000000;stroke-width:0.5;stroke-miterlimit:10;}
	.st28{fill:#ED803A;}
	.st29{fill:#5E4E3B;}
	.st30{fill:#332C23;}
	.st31{fill:#4F524C;}
	.st32{fill:#95886B;}
	.st33{fill:#C7B78F;}
	.st34{fill:#525550;}
	.st35{fill:#614B37;}
	.st36{fill:#362F26;}
	.st37{fill:#C7B68F;}
	.st38{fill:#4F514B;}
</style>
<path class="st2" d="M24,537.2c1.9-0.2,3.8-0.4,5.7-0.6c0,0.2,0,0.4,0,0.6H24L24,537.2z"/>
<path class="st3" d="M22.3,537.2c0-0.1,0-0.3,0-0.4c0.2,0.1,0.4,0.3,0.5,0.4H22.3z"/>
<path class="st4" d="M37.9,210.8c0.4-2.1,0.6-4.3,1.2-6.3c1.6-6.2,3.3-12.5,5.1-18.7c0.7-2.4,1.6-4.8,2.4-7.2
	c0.7-0.6,1.5-1.2,2.2-1.7c2.3,0,4.6,0,6.8,0c3.1,1,6.1,2,9.7,3.2c-1.4,0.9-2.2,1.3-2.5,1.5c2,0,4.3,0,6.6,0c2.1,0,2.6,0.8,1.4,2.7
	c2.8,0.1,2.9,1.2,1.5,3.2c-2.2,3.1-4.3,6.2-6.3,9.4c-1.7,2.8-3.2,5.8-4.8,8.7c0.3,0.2,0.5,0.4,0.8,0.5c2.2-2.3,4.4-4.7,6.6-7
	c0.5,1,0.5,1.7,0.3,2.2c-0.9,2-2,3.9-2.9,5.9c-1.9,4.6-1.8,4.6-6.5,4.7C52.3,211.6,45.1,211.2,37.9,210.8L37.9,210.8z"/>
<path class="st5" d="M64.8,66c-5.8-2.6-11.7-5-15.5-10.5c-0.5-0.7-0.5-1.6-0.8-2.3c0.1-0.3,0.2-0.6,0.2-0.8
	c-0.4-7.9,4.7-12,10.7-15.1c2.8-1.5,6.2-1.7,9.3-2.7c1.1-0.3,2-1.2,3-1.8c0.6-0.3,1.2-0.7,1.8-1c0.3,0,0.7,0,1.1,0
	c0.8,0.2,1.5,0.3,2.3,0.5c1,0.6,2,1.3,3.1,1.7c2.3,0.7,4.8,1.1,7.1,1.7c1.6,0.4,2.8,0.7,4.6-0.5c1.6-1.1,1.7-2.5,2.6-3.7
	c0.4-0.5,1-0.9,1.5-1.4c0.4,2.5,2.8,4.6,1.2,7.5c-1.4-0.4-2.8-0.9-4.2-1.3c-0.1,0.3-0.2,0.5-0.3,0.8c2.2,1.7,4.2,3.5,6.6,4.9
	c4.8,2.8,7.4,6.8,7.7,12.3c-0.5,4.3-2.9,7.3-6.6,9.1c-2.7,1.3-5.6,2.1-8.4,3.1V66c-0.6-0.1-1.1-0.3-1.7-0.4c0-2.2,0.8-3.8,3.7-3.8
	c-1.1-1.5-1.9-2.7-2.7-3.8c1.3-0.3,2.7-0.6,4.1-1c-0.3-0.9-0.6-1.8-0.9-2.9c1-0.3,2-0.7,2.9-1c-0.3-2.5-4.7-4.3-1.4-7.2
	c-1.4-1.4-2.8-2.8-4.2-4.3c1.2-0.8,1.9-1.2,2.6-1.7c-5.9-1.5-10.9-5.1-17.2-5.1c-6.9,0-10.6,5.4-16.1,7.9c0.5,0.5,1,0.9,1.3,1.2
	c-1.2,1.5-2.4,3-3.6,4.4c0.7,0.1,1.7,0.2,2.8,0.4c-0.6,1.4-1.2,2.7-1.6,4c-0.5,1.5,0.4,1.9,1.7,1.8c0.2,1.4,0.4,2.8,0.6,4.1
	c0.3,0,0.7,0,1,0c-0.3-0.8-0.7-1.5-1-2.3c0.4-0.4,0.8-0.8,1.2-1.1l1.2,0l-0.1,0.1c0.1,0.2,0.1,0.4,0.1,0.6c-0.1,0.1-0.2,0.2-0.3,0.2
	c0.1,0,0.3,0.1,0.4,0.1c0.4,0.4,0.8,0.8,0.9,1c-0.2,1-0.4,1.9-0.5,2.7C64.9,62,64.9,64,64.8,66L64.8,66z M91.2,64.8
	c0.1-0.1,0.1-0.1,0.2-0.1c-0.1-0.1-0.2-0.2-0.2-0.2c-0.1,0.1-0.2,0.1-0.3,0.2C91.1,64.8,91.2,64.8,91.2,64.8L91.2,64.8z"/>
<path class="st4" d="M109.5,182.2c0.1,1.5,0.1,3.1,0.1,4.6c0.2,0.2,0.3,0.4,0.5,0.6c0.4,3.1,0.8,6.1,1.2,9.2
	c0.2,0.6,0.3,1.1,0.5,1.7c0,0.8,0.1,1.6,0.1,2.3c0.2,0.2,0.3,0.4,0.4,0.5l0,0c0,0.2,0,0.4,0.1,0.6c0.2,2.1,0.4,4.2,0.6,6.4
	c0.2,0.2,0.3,0.4,0.4,0.6c0,0.6,0,1.1,0,1.7c-2.7,0.6-5.3,1.3-7.9,1.9c-0.6,0.1-1.2-0.1-1.8-0.2c-1.2-1.8-2.6-1.3-4-0.4l0.1,0
	c-0.8-0.2-1.5-0.4-2.3-0.6c-0.2-0.4-0.4-0.8-0.6-1.1c0-0.4-0.1-0.9-0.1-1.3c-0.1,0-0.3,0.1-0.4,0.1c0.2,0.4,0.3,0.8,0.5,1.2
	c0.2,0.4,0.4,0.8,0.6,1.2c-1.1-0.1-2.9,0.2-3.2-0.3c-1.8-3.2-3.2-6.6-4.7-10l0.7-0.4c1.2,1.4,2.5,2.9,3.8,4.3l0.7-0.5
	c-2.8-6.1-5.5-12.1-8.3-18.3c4-0.9,5.7,3.5,9.6,4.3c-1.5-4.1-4.1-6.7-6.9-8.4c2.4-0.8,4.8-1.6,7.2-2.4c1.6-0.2,3.3-0.1,4.7-0.8
	c2.7-1.3,5.2-1.2,7.8,0.2l0.2,1.7C109.2,181,109.4,181.6,109.5,182.2L109.5,182.2z"/>
<path class="st6" d="M46.6,169c-0.2-0.3-0.3-0.9-0.5-1c-6.7-3.5-7.5-10.6-10.2-16.6c-2.7-5.9-5.3-11.8-7.6-17.9
	c-1.2-3.2-2.5-6.6-2.6-9.9c-0.1-2.4,1.9-4.8,2.9-7.2c1.5,4.1,3.7,7.4,8.7,7.6c0.6,4,1.2,8.1,1.8,12.1c0.4,1.2,0.8,2.3,1.1,3.5
	c0.8,1.2-1.6,3.7,1.7,3.8c0.2,0.2,0.4,0.4,0.6,0.6c0.2,2,0.4,4,0.5,6c0.2,0.7,0.3,1.4,0.5,2.2c0.2,0.2,0.4,0.3,0.7,0.5
	c0.3,2.9,1.6,3.7,5.7,3.5c0.2,0,0.4,0.1,0.6,0.1c2.3,0.2,4.6,0.4,6.9,0.6c1,1.1,2,2.3,3,3.4c0.2,0.8,0.3,1.5,0.5,2.2
	c-1-0.5-2.2-0.8-3-1.5c-1.8-1.6-3.5-2.4-5.5-1.1c1.2,1.4,2.2,2.6,3.3,3.9c0.2,0.4,0.3,0.7,0.5,1.1c0.6,0.4,1.1,0.8,1.7,1.2
	c0,0.3,0,0.7,0,1c-1.3,0.7-2.5,1.4-3.6-0.4c-0.3-0.4-1-0.6-1.5-0.9c-0.3,0.7-0.7,1.4-1.1,2c-1.2-0.9-2.3-1.8-3.5-2.7
	c-0.1,0.2-0.3,0.4-0.4,0.6c0.4,1,0.7,2.1,1.1,3.1C48,169,47.3,169,46.6,169L46.6,169z"/>
<path class="st6" d="M121,116.1c3.2,5.2,3.9,10.8,3.1,16.9c-1.1,7.8-1.3,15.7-1.9,23.5c-0.2,2.6-0.7,5.3-1,7.9
	c-0.2,0.4-0.4,0.7-0.6,1.1c-1,1.3-2,2.6-3,4c-0.2,0.2-0.3,0.4-0.5,0.6c-0.8,0.6-1.5,1.2-2.3,1.7c-3.1,0.3-3-2.2-3.6-4.1
	c0.6-1.1,1.1-2.1,2-3.7c-1.2,0.4-1.8,0.6-2.4,0.9c-0.8-0.1-1.6-0.2-1.8-0.3c-1.4,0.8-2.3,1.4-3.2,1.9c-0.4-0.7-0.8-1.5-1.2-2.2
	c0.6-1.5,1.1-3.1,1.7-4.6c0.2,0,0.4,0,0.6-0.1c3.1,0.3,5.8-0.2,7.5-3.2c1.1-1.6,2-3.1,0-4.7c2.1-5.1,1.3-10.1-0.6-15
	c-0.2-2.7-0.3-5.4-0.5-8.1c0.7-1,1.5-2,2.1-3.1C117.2,122.4,119.1,119.2,121,116.1L121,116.1z"/>
<path class="st7" d="M86.6,75.9c0.4,0,0.8,0,1.2,0c0.2,0.5,0.4,1.1,0.5,1.6l-0.1,2.9c-0.2,0.2-0.3,0.4-0.5,0.6c0,0.2,0,0.4-0.1,0.6
	c-1.1,0.3-2.2,0.5-3.1,1.1c-0.6,0.4-0.9,1.4-1.3,2.2c0.8,0.2,1.5,0.4,2.2,0.6c0.6,0.1,1.2,0.2,1.8,0.2c0,0.5-0.1,1.1-0.1,1.6
	c-0.3,0.8-0.7,1.6-1.1,2.3c0.4,0.2,0.7,0.4,1.1,0.5c0.2-0.2,0.4-0.4,0.5-0.6c0.2-0.4,0.4-0.7,0.7-1.1c0.2-0.2,0.3-0.4,0.5-0.6
	c0-0.4,0.1-0.7,0.1-1.1c1.1-0.4,2.2-0.8,3.3-1.2c0.2,1.3,0.4,2.7,0.5,4c-0.2,0.7-0.5,1.4-0.5,2.1c0.3,4.8,0.7,9.6,1.1,14.3
	c0,0.4,0.3,0.9,0.5,1.3c0,0.8,0,1.6,0,2.3c-1.1-0.8-2.2-1.5-3.3-2.3c0-0.2-0.1-0.3-0.1-0.5c0-0.2,0.1-0.4,0.1-0.6
	c0.5-0.4,1.6-1.1,1.5-1.3c-0.3-0.8-1-1.4-1.5-2.1c0-0.2,0-0.4,0-0.6c-0.1-0.6-0.1-1.1-0.2-1.7c-0.4-0.6-0.7-1.1-1.1-1.7
	c-0.4-0.6-0.8-1.2-1.1-1.8l0,0c0.2-1.9-1.1-1.8-2.3-1.7v0c-0.4-0.6-0.7-1.6-1.2-1.7c-2.1-0.7-4.2-1.4-6.3-1.5
	c-1.1-0.1-2.7,0.8-1.6,2.7c-0.4,0.2-0.8,0.3-1.2,0.5c-0.4,0-0.8,0.1-1.2,0.1l0,0c-0.2,0.2-0.4,0.4-0.6,0.6c-0.8,0.8-1.6,1.5-2.4,2.3
	c-0.2,0.2-0.3,0.4-0.5,0.6l0,0c-0.2,0.4-0.4,0.8-0.6,1.2c0,0.2,0,0.4-0.1,0.6c-3.1,1.3-6.2,2.7-9.8,4.2c-0.5-1.4-1.1-3.1-1.7-4.8
	c0-0.4,0.1-0.8,0.1-1.2c1.3-1.6,1.5-3.3,0.5-5.2c0-0.4,0-0.7,0-1.1c2.2-1.2,1.1-2.9,0.7-4.6c0.2-0.4,0.3-0.8,0.5-1.2
	c0-0.2,0-0.4,0-0.6l0,0c0-0.2,0-0.4,0-0.6c0-0.2,0.1-0.4,0.1-0.6c0.3-0.5,1-1,1-1.5c0-1.8,1-2,2.3-1.9c0.1,0.2,0.1,0.3,0.1,0.5
	c0.3,1.2,0.4,2.7,1.1,3.7c1.3,1.7,2.9,3.2,4.5,4.7c0.7,0.6,1.7,1,2.6,1.3c0.1,0,1-1.1,0.8-1.5c-0.4-1-1-2-1.7-2.7
	c-0.6-0.6-1.5-1-2.5-1.6c1-0.8,1.5-1.1,2-1.5c0.4,0.2,0.8,0.4,1.2,0.6c0.3,0.6,0.7,1.1,1,1.7c0.4-0.3,0.8-0.7,1.2-1.1
	c0.6,0,1.1,0,1.7,0c1,2.1,2.4,0.9,3.6,0.9l0.1-0.8c-0.9-0.1-1.8-0.1-2.6-0.2c-0.2-0.2-0.3-0.3-0.5-0.5c-0.4-0.2-0.8-0.3-1.2-0.5
	l-1.1-0.1c-0.8-0.4-1.6-0.7-2.3-1.1L71,82.9c-0.6-0.4-1.2-0.8-1.8-1.2c-0.4,0-0.7,0-1.1-0.1l0,0c-0.4-0.2-0.8-0.4-1.2-0.6l0,0
	c-0.6-0.6-1.1-1.2-1.7-1.8c0-0.4-0.1-0.7-0.1-1.1c1.2-0.2,2.4-0.4,3.5-0.6c0.6,0.6,1.1,1.1,1.7,1.7c1.4,2.2,4,3.2,6.3,2.3
	c0.4,0,0.7,0,1.1,0c1.9,1.8,3.2,1.2,4-1c0.2-0.1,0.4-0.1,0.6-0.1c0.2-0.2,0.4-0.4,0.6-0.6l0.2-0.1c2.2,0.2,2.1-1.3,2-2.8h0
	C85.8,76.7,86.2,76.3,86.6,75.9L86.6,75.9z"/>
<path class="st8" d="M95.8,29.9c-0.5,0.5-1.1,0.8-1.5,1.4c-0.8,1.2-1,2.6-2.6,3.7c-1.8,1.2-2.9,1-4.6,0.5c-2.4-0.6-4.8-1-7.1-1.7
	c-1.1-0.3-2.1-1.1-3.1-1.7c0.8-0.2,1.6-0.4,2.3-0.5c1.7,0.2,3.4,0.4,5.1,0.6c1.9,1,3.9,1.8,6.1,1.3c0.1-0.3,0.2-0.6,0.3-0.9
	c-1.3-0.6-2.7-1.1-4-1.7l0,0c-0.4-0.2-0.8-0.4-1.2-0.6h0c-0.8-0.2-1.5-0.4-2.3-0.6c-5.8-1-11.5-1.1-17.2,2.3H70
	c0.6,0.2,1.2,0.3,1.8,0.5c-1,0.6-1.9,1.4-3,1.8c-3.1,1-6.5,1.2-9.3,2.7c-6,3.2-11.1,7.3-10.7,15.1c0,0.3-0.1,0.6-0.2,0.8
	c-2.4-3.4,0-10.8,3.7-13.5c2.1-1.5,4.1-3,6.5-4.1c0.5-0.2,1-1.3,1-1.9c-0.6-4.9,3.3-7.3,5.9-10.3c2.6-3.1,6.5-4.2,10.2-4.1
	c3.9,0,7.9,0.7,11.6,1.8C91.8,22.2,94.5,25.5,95.8,29.9L95.8,29.9z"/>
<path class="st9" d="M120.9,111.4c0,1.2,0,2.3,0,3.4c-2.5,1.4-4.9,2.7-7.4,4.1c-0.7-0.8-1.7-1.4-2.2-2.3c-1.3-2.3-1.9-5.2-3.7-6.9
	c-1.5-1.5-1.7-2.8-1.5-4.5c0.2-3,0.6-6,0.8-8.3c-1.4-1.1-2.3-1.8-3.6-2.8v3.7c-0.1,1.3-0.1,2.7-0.2,4c-0.8-4.4-1.4-8.8,0.9-12.7
	c0.9,0.8,1.7,1.6,2.5,2.3c0.5,0,1,0,1.5-0.1c0.7-0.1,1.3-0.3,2-0.5c1.9,3.8,3.8,7.7,5.7,11.5c0,0.6,0,1.2,0,1.8c0,0.2,0,0.3-0.1,0.5
	c-0.5,0.3-1,0.7-1.6,1c-0.3,0.4-0.6,0.8-0.9,1.3l0,0c-0.3,0.4-0.6,0.8-0.9,1.2c0.6,0.7,1.1,1.5,1.7,2.2c0.2,0.1,0.4,0.1,0.7,0.2
	c0.4,0.5,0.8,1.1,1.2,1.6l0,0.1c-0.1,0-0.2,0.1-0.2,0.1c0,0.1,0.1,0.3,0.2,0.4c0.4,0,0.8,0,1.2,0
	C118.3,112.2,119.6,111.8,120.9,111.4L120.9,111.4z"/>
<path class="st10" d="M37.9,210.8c7.2,0.4,14.4,0.9,21.6,1.3c1.9,0.4,3.9,0.9,5.8,1.3v3c-1.6,1.1-2.8,1.8-4,2.6c-0.2,0-0.3,0-0.5,0
	c-0.1-0.3-0.2-0.7-0.3-1.4c-0.2,0.7-0.3,1-0.5,1.3c-1.9-0.1-4,0.3-5.7-0.4c-2.4-1.1-3.4,0-4.5,1.6c-1-0.1-2-0.3-3-0.3
	c-2.5-0.1-4.9-0.1-7.3-0.2C35.1,216.4,34.9,215.4,37.9,210.8L37.9,210.8z"/>
<path class="st10" d="M103.8,211.9c0.6,0.1,1.2,0.3,1.8,0.2c2.7-0.6,5.3-1.2,7.9-1.9c0.6,0.4,1.2,0.7,1.8,1.1
	c0.4,0.2,0.8,0.4,1.1,0.6c0,1.4,0,2.7,0.1,4c-0.1,0.4-0.1,0.7-0.1,1.1c-0.2,0.2-0.3,0.4-0.5,0.6l0,0c-0.6,0.2-1.1,0.4-1.7,0.6
	c-0.2,0-0.3,0-0.5,0c-0.7-0.1-1.3-0.3-1.9-0.4c-0.5,0-1.1,0-1.6,0c-1.9-1-6.2-0.2-8.1,1.5c-0.2,0-0.4,0.1-0.5,0.1
	c-1.7,0-3.4-0.1-5.1-0.1l0-0.1c-1.7-0.2-3.4-0.5-5.1-0.7c-0.6-1.9-1.1-3.9-1.7-5.8c1.8-1.1,3.6-1.3,5.8-0.6c1.2,0.4,2.9-0.5,4.4-0.8
	l-0.1,0C101.1,211.6,102.5,211.8,103.8,211.9L103.8,211.9z"/>
<path class="st7" d="M106.7,91.4c-0.8-0.8-1.6-1.5-2.5-2.3c-2.4,3.9-1.7,8.3-0.9,12.7c0,0.4,0,0.8,0,1.2c-0.2,0.2-0.3,0.4-0.5,0.6
	c0,2.5,0,5,0,7.4c-0.9-0.8-1.9-1.5-2.8-2.3c0-1.3,0-2.7,0-4c-0.2-2.3-0.4-4.6-0.7-6.9c0-0.3,0-0.7-0.1-1.1c-0.4-1.2-0.7-2.3-1.1-3.5
	c-0.2-1.3-0.4-2.7-0.6-4c-0.4-1.2-0.7-2.3-1.1-3.5c0-0.2,0-0.3-0.1-0.5l0-1.1c-0.2-0.4-0.3-0.8-0.5-1.2c0-1.1,0-2.2,0-3.4
	c3.7,0.3,7.2,0.9,9.8,3.9c0.2,0.2,0.4,0.4,0.6,0.6v0C106.3,86.4,106.5,88.9,106.7,91.4L106.7,91.4z"/>
<path class="st9" d="M53.3,77.7c1.3-0.2,2.7-0.5,4-0.7l0,0.2l-1.8,11.4c-0.7,0-1.4,0-2.1,0c-0.1-0.6-0.2-1.1-0.3-1.8
	c-0.9,3.4-1.7,6.7-2.5,9.9c-0.4-0.1-0.8-0.1-1.2-0.1c-0.2-0.9-0.4-1.9-0.6-2.8c0.2-0.2,0.5-0.5,0.4-0.7c-1.3-3.2-2.6-6.3-3.9-9.5
	c-0.2-0.6-0.3-1.2-0.5-1.9l0,0c2.4-0.9,5.7,0,6.8-3.5l0,0C52.1,77.9,52.7,77.8,53.3,77.7L53.3,77.7z"/>
<path class="st11" d="M97.5,89.1c0.2,1.3,0.4,2.7,0.6,4c0.4,1.2,0.7,2.3,1.1,3.5c0,0.3,0,0.7,0.1,1.1c0.2,2.3,0.4,4.6,0.7,6.9
	c0,1.3,0,2.7,0,4c0,0.8-0.1,1.5-0.1,2.3c-0.2,0.2-0.3,0.4-0.5,0.6c0,0.2,0,0.3,0,0.5c-1,0.2-2,0.4-3,0.6c-0.2-2.1-0.3-4.2-0.5-6.3
	c-0.3-1.9-0.7-3.8-1.1-5.8c0-0.4,0-0.8,0-1.2c0.5-2.3,1.5-4.6-1.2-6.3c0-0.2,0-0.4,0-0.6c0.2-1.1,0.6-2.2,0.4-3.3
	c-0.8-4.1-1.8-8.1-2.7-12.2c0.8,0.2,1.5,0.4,2.3,0.6c0.8,1.7,1.6,3.4,2.3,5.1c0.2,0.4,0.3,0.8,0.5,1.2c0,0.4,0,0.8,0,1.1
	c0,0.2,0.1,0.3,0.1,0.5C96.8,86.7,97.1,87.9,97.5,89.1L97.5,89.1z"/>
<path class="st11" d="M59.7,75.7c0.2,0,0.4,0,0.6,0c0.3,0,0.7,0,1,0.1c0.2,0,0.4,0,0.6,0c0,0.2,0.1,0.3,0.1,0.5c0,0.2,0,0.5,0,0.7
	c0,0.2-0.1,0.3-0.2,0.5c-0.6,1.8-1.6,3.5-1.8,5.3c-0.5,3.6-0.6,7.2-0.9,10.8c0,0.2,0,0.4,0,0.6c-2.1,1.7-1.1,3.8-0.5,5.7
	c0,1,0.1,1.9,0.1,2.9c-0.2,2.9-0.5,5.7-0.7,8.6c-1.8,0.9-2.8,0.9-2.8-1.6c0-8.9,0.6-17.7,2.7-26.3c0.6-2.4,0.9-4.8,1.3-7.3
	C59.2,76.1,59.4,75.9,59.7,75.7L59.7,75.7z"/>
<path class="st12" d="M46.5,176.4c-2.5-3.1-2.5-4.7-0.1-6.3c0.8,0.9,1.6,1.8,2.3,2.7c0.4,0.3,0.7,0.5,1.1,0.8
	c0.1,0.2,0.2,0.4,0.4,0.6c0.1-0.4,0.1-0.8,0.2-1.2l-0.5-1.7c-0.2-0.8-0.4-1.5-0.6-2.3c1,0.2,1.9,0.3,2.9,0.5l0,0l0.6,1.2l0,0
	c0.2,0.4,0.4,0.8,0.6,1.2c1.5,0.8,3.1,1.6,4.6,0c0.2-0.6,0.4-1.2,0.5-1.8c0.4,0.2,0.7,0.4,1.1,0.6c0,2.8,1.4,4.6,4.1,5.3
	c0.6,0.1,1.1,0.3,1.6,0.5c0,0.2,0,0.5,0,0.7c-0.8,0-1.5-0.1-2.3-0.1l0,0c-0.4-0.2-0.8-0.3-1.1-0.5l-6.4-0.1c-2.3,0-4.6,0-6.9,0
	L46.5,176.4L46.5,176.4z"/>
<path class="st1" d="M70.8,70c-0.4-0.9-0.9-1.8-1.4-2.8c0.2-0.4,0.3-0.8,0.5-1.1c0.4,0,0.9-0.1,1.1,0.1c3.5,3.4,7.4,3.4,11.6,1.6
	l0,0c-0.2,1.9-0.3,3.8-0.5,5.7c-1.4,0.4-2.7,0.8-4.1,1.3C75.6,73.2,73.2,71.6,70.8,70L70.8,70z"/>
<path class="st0" d="M78,74.8c1.4-0.4,2.7-0.8,4.1-1.3c1.1,0.8,2.3,1.6,3.4,2.4c0,0.4,0,0.7-0.1,1.1c0,0,0,0,0,0
	c-0.7,0.9-1.3,1.9-2,2.8l-0.2,0.1c-0.2,0.2-0.4,0.4-0.6,0.6c-0.2,0-0.4,0.1-0.6,0.1c-1.3,0.3-2.7,0.7-4,1c-0.4,0-0.7,0-1.1,0
	c-2.1-0.8-4.2-1.6-6.3-2.3c-0.6-0.6-1.1-1.1-1.7-1.7c-0.4-1-0.8-1.9-1.1-2.9c0.5-0.2,1.1-0.4,1.6-0.6c0.2,4.2,4,5.5,9.4,4.2
	C78.5,77.1,78.3,76,78,74.8L78,74.8z"/>
<path class="st12" d="M44.8,81.6c0.2,0.6,0.3,1.3,0.5,1.9c1.3,3.2,2.6,6.3,3.9,9.5c0.1,0.1-0.3,0.4-0.4,0.7c-2.4-0.4-3.1,0.9-2.8,3
	c0.2,2.1,0.4,4.1,0.6,6.2c-0.4-3-1.8-6.4-0.8-8.8c1.5-3.8-0.9-5.9-1.4-9.7c-0.9,1.9-1.3,3-2,4c-2,3-4,5.9-6.1,8.8
	c-0.4,0.5-1.1,0.8-1.6,1.2l-0.1-0.1c3-4.8,5.9-9.6,8.9-14.4C43.7,83.1,44.3,82.3,44.8,81.6L44.8,81.6z"/>
<path class="st1" d="M37.2,124.1c-5-0.1-7.2-3.4-8.7-7.6c0.2-1.3,0.4-2.6,0.7-3.9c1.6,0.9,3.1,1.9,4.7,2.8l0,0
	c0.6,1.3,1.2,2.7,1.7,4l0,0c1.2,0.9,2.3,1.8,3.5,2.8C38.4,122.9,37.8,123.5,37.2,124.1L37.2,124.1z"/>
<path class="st1" d="M111.2,167.7c0.6,1.9,0.5,4.4,3.6,4.1c-0.2,0.2-0.4,0.4-0.7,0.6c-0.2,0.2-0.4,0.3-0.7,0.5
	c-1.1,1.2-2.2,2.3-3.3,3.5c-0.4,0-0.7,0-1.1,0c-0.7-0.4-1.3-0.7-2-1c0.6-1.1,1.2-2.2,1.8-3.4c-1.5-0.6-2.4-0.9-3.3-1.2
	c0-0.4,0-0.8-0.1-1.1c0.1-1,0.1-2,0.2-3c0.9-0.6,1.9-1.1,3.2-1.9c0.1,0,0.9,0.1,1.8,0.3c-0.8,1.8-1.7,3.5-2.5,5.2
	c0.2,0.1,0.4,0.1,0.6,0.2C109.6,169.5,110.4,168.6,111.2,167.7L111.2,167.7z"/>
<path class="st6" d="M78,74.8c0.2,1.2,0.5,2.3,0.8,3.5c-5.4,1.3-9.1-0.1-9.4-4.2c0.5-1.4,1-2.7,1.5-4.1C73.2,71.6,75.6,73.2,78,74.8
	L78,74.8z"/>
<path class="st1" d="M113.6,119c2.5-1.4,4.9-2.7,7.4-4.1c0,0.4,0.1,0.8,0.1,1.2c-1.9,3.2-3.8,6.4-5.8,9.6c-0.7,1.1-1.4,2.1-2.1,3.1
	l-0.2,0.1c0-1.4,0.1-2.7,0.1-4.1c-0.6-1-1.2-1.9-1.8-2.9C112,120.9,112.8,119.9,113.6,119z"/>
<path class="st8" d="M106.8,54.1c-0.3-5.5-2.9-9.5-7.7-12.3c-2.3-1.4-4.4-3.3-6.6-4.9c0.1-0.3,0.2-0.5,0.3-0.8
	c1.4,0.4,2.8,0.9,4.2,1.3c4.6,1.7,7,5.7,9.2,9.6C107.4,49.1,108.1,51.6,106.8,54.1L106.8,54.1z"/>
<path class="st13" d="M107,175.4c0.7,0.4,1.3,0.7,2,1c0,0.4,0,0.8,0,1.1c-0.1,0.4-0.1,0.8-0.2,1.1c-2.6-1.4-5.1-1.5-7.8-0.2
	c-1.4,0.7-3.1,0.6-4.7,0.8c-2-2-4.2-1.8-6.8-1.4c-2.7,0.5-5.2,2.7-8.1,1.3c2.3-0.7,4.6-1.6,7-1.9c2.3-0.4,4.7-0.2,7.1-0.2
	c1.3,0,2.7,0.6,4,0.3c2.4-0.5,4.8-1.5,7.2-2.3C106.8,175.3,106.9,175.3,107,175.4L107,175.4z"/>
<path class="st14" d="M91.1,58c0.8,1.2,1.7,2.3,2.7,3.8c-2.9,0-3.7,1.6-3.7,3.8c0,0.1,0,0.3,0,0.4c-0.4,0.1-0.8,0.1-1.2,0.2
	c-0.6,0.3-1.2,0.7-1.8,1c-1.5,0.2-3,0.4-4.5,0.6l0,0c0-0.3,0-0.7,0.1-0.8c3.5-1.4,5.3-4.2,6.6-7.5c0.2-0.6,0.9-1,1.3-1.4l0.2,0
	L91.1,58L91.1,58z"/>
<path class="st15" d="M88.4,88.5c-0.2,0.4-0.4,0.7-0.7,1.1c-0.2,0.2-0.4,0.4-0.5,0.6c-0.4-0.2-0.7-0.4-1.1-0.5
	c0.3-0.8,0.7-1.6,1.1-2.3c0-0.5,0.1-1.1,0.1-1.6c0.1-1.4,0.3-2.8,0.4-4.1c0-0.2,0.1-0.4,0.1-0.6c0.2-0.2,0.3-0.4,0.5-0.6
	c0-1,0-1.9,0.1-2.9c0-0.5,0.1-1.1,0.1-1.6c0.6,0.3,1.2,0.7,1.8,1c0,0.8,0.1,1.6,0.1,2.3c-0.4,2.5-0.8,5-1.2,7.5
	c0,0.4-0.1,0.7-0.1,1.1C88.8,88.1,88.6,88.3,88.4,88.5L88.4,88.5z"/>
<path class="st16" d="M115.8,102.3c-1.9-3.8-3.8-7.7-5.7-11.5c0.2-0.4,0.4-0.8,0.6-1.2c2.8,3.9,5.7,7.7,6.4,12.7
	C116.6,102.2,116.2,102.3,115.8,102.3z"/>
<path class="st15" d="M62,76.4c0-0.2-0.1-0.3-0.1-0.5c0.1-0.2,0.1-0.3,0.1-0.5c0.6-0.2,1.1-0.5,1.7-0.7c0.6,1.2,1.1,2.3,1.7,3.5
	c0,0.4,0.1,0.7,0.1,1.1c0.1,0.6,0.3,1.1,0.4,1.7c0.8,1.9,1.6,3.9,2.4,5.8l0,0c-1.3-1.6-2.6-3.1-4-4.7c0-0.2,0-0.3-0.1-0.5
	c-0.7-0.8-1.4-1.6-2.1-2.4c-0.1-0.6-0.2-1.1-0.3-1.6c0.1-0.2,0.2-0.3,0.2-0.5C62,76.8,62,76.6,62,76.4L62,76.4z"/>
<path class="st12" d="M33.8,115.5c-1.6-0.9-3.1-1.9-4.7-2.8c-0.2-0.2-0.4-0.4-0.6-0.7l0.2,0.1c1,0,2,0,2.4,0c1.5-3.8,2.8-7,4.1-10.2
	c0.3,0.1,0.5,0.2,0.8,0.3c-0.3,1.7-0.3,3.6-1,5.1C33.8,109.9,32.1,112.4,33.8,115.5L33.8,115.5z"/>
<path class="st12" d="M28.1,111.5c0.2-1.4,0-2.9,0.6-4.1c1.7-3.2,3.7-6.2,5.6-9.2c0,0,0.1,0.1,0.1,0.1c-0.6,1.6-1.1,3.2-1.8,4.8
	c-1.3,2.8-2.7,5.6-4.1,8.4C28.5,111.5,28.3,111.5,28.1,111.5z"/>
<path class="st12" d="M110.7,89.6c-0.2,0.4-0.4,0.8-0.6,1.2c-0.7,0.2-1.3,0.4-2,0.5c-0.5,0.1-1,0.1-1.5,0.1c-0.2-2.5-0.3-5-0.5-7.5
	C107.7,85.8,109.2,87.7,110.7,89.6z"/>
<path class="st14" d="M64.8,66c0-2,0-4,0-6c1.5,2,3,4.1,4.5,6.1c-0.4,0.1-0.8,0.1-1.1,0.1C67.1,66.1,66,66.1,64.8,66z"/>
<path class="st17" d="M90.2,79.3c0-0.8-0.1-1.6-0.1-2.3c0.4,0.1,0.7,0.1,1.1,0.1c0.9,4.1,1.9,8.1,2.7,12.2c0.2,1-0.2,2.2-0.4,3.3
	c-0.2-0.9-0.5-1.9-0.7-2.9c-0.2-1.3-0.4-2.7-0.5-4C91.6,83.5,90.9,81.4,90.2,79.3L90.2,79.3z"/>
<path class="st12" d="M65.4,78.2c-0.6-1.2-1.1-2.3-1.7-3.5c1.4,0,2.7,0,4.1,0c0.4,1,0.7,1.9,1.1,2.9C67.7,77.7,66.5,77.9,65.4,78.2
	L65.4,78.2z"/>
<path class="st12" d="M51.6,78.1c-1.1,3.5-4.4,2.6-6.8,3.5C47,80.4,49.3,79.2,51.6,78.1z"/>
<path class="st15" d="M115.8,102.3c0.4,0,0.8-0.1,1.3-0.1l0,0c0.2,0.4,0.3,0.8,0.4,1.2c0.6,1.5,1.2,3.1,1.8,4.6
	c-0.3,0.4-0.6,0.8-0.9,1.1c-0.2-0.8-0.5-1.5-0.8-2.2c-0.2-0.2-0.4-0.4-0.6-0.6c-0.1-0.6-0.1-1.1-0.2-1.7c-0.3-0.2-0.7-0.4-1-0.6
	C115.8,103.5,115.8,102.9,115.8,102.3L115.8,102.3z"/>
<path class="st14" d="M120.9,111.4c-1.3,0.4-2.6,0.8-4,1.2c0.1-0.8,0.1-1.5,0.2-2.3c0.2-0.2,0.4-0.5,0.6-0.7
	c0.3,0.1,0.5,0.1,0.8,0.2c0.5-0.2,1-0.4,1.5-0.7C120.3,109.9,120.6,110.7,120.9,111.4z"/>
<path class="st17" d="M95.8,82.7c-0.8-1.7-1.6-3.4-2.3-5.1c0.8,0.6,1.5,1.1,2.3,1.7C95.8,80.5,95.8,81.6,95.8,82.7L95.8,82.7z"/>
<path class="st1" d="M49.3,169c0.2,0.8,0.4,1.5,0.6,2.3c-0.4,0.5-0.8,1-1.1,1.5c-0.8-0.9-1.6-1.8-2.3-2.7c0.1-0.3,0.1-0.7,0.2-1
	c0.7,0,1.5-0.1,2.2-0.1C49,168.9,49.1,168.9,49.3,169L49.3,169z"/>
<path class="st18" d="M111.7,218c0.7,0.1,1.3,0.3,1.9,0.4c-0.2,0.4-0.4,0.7-0.7,1.1c-0.4,0.1-0.8,0.1-1.2,0.1l0-0.2
	C111.8,218.9,111.8,218.5,111.7,218L111.7,218z"/>
<path class="st19" d="M120,109.1c-0.5,0.2-1,0.4-1.5,0.7c0-0.2-0.1-0.4-0.1-0.6c0.3-0.4,0.6-0.8,0.9-1.1
	C119.5,108.4,119.7,108.7,120,109.1z"/>
<path class="st20" d="M46.5,176.4c0.7,0,1.5,0.1,2.2,0.1c0,0.1,0,0.3,0,0.4c-0.7,0.6-1.5,1.2-2.2,1.7
	C46.5,177.9,46.5,177.1,46.5,176.4L46.5,176.4z"/>
<path class="st12" d="M85.4,77c0-0.4,0-0.7,0.1-1.1c0.2,0,0.4-0.1,0.5-0.2c0.2,0,0.4,0,0.6,0l-0.1,0.2C86.2,76.3,85.8,76.6,85.4,77
	L85.4,77z"/>
<path class="st13" d="M91.8,66c-0.4,0.1-0.8,0.2-1.1,0.2c-0.2-0.1-0.3-0.1-0.5-0.2c0-0.1,0-0.3,0-0.4C90.6,65.7,91.2,65.8,91.8,66
	L91.8,66z"/>
<path class="st12" d="M88.4,75.9c0,0.5,0,1.1-0.1,1.6c-0.2-0.5-0.4-1.1-0.5-1.6C88,75.9,88.2,76,88.4,75.9L88.4,75.9z"/>
<path class="st12" d="M53.3,77.7c-0.6,0.2-1.2,0.3-1.8,0.4C52.2,78,52.7,77.8,53.3,77.7z"/>
<path class="st16" d="M117.5,103.4c-0.2-0.4-0.3-0.8-0.4-1.2C117.2,102.6,117.4,103,117.5,103.4z"/>
<path class="st17" d="M61.3,75.8c0-0.2,0.1-0.4,0.1-0.6c0.2,0,0.4,0.1,0.6,0.1c0,0.2-0.1,0.3-0.1,0.5C61.7,75.8,61.5,75.8,61.3,75.8
	z"/>
<path class="st12" d="M106.2,83.9c-0.2-0.2-0.4-0.4-0.6-0.6C105.8,83.5,106,83.7,106.2,83.9z"/>
<path class="st21" d="M81.4,179.2c3,1.4,5.4-0.8,8.1-1.3c2.6-0.5,4.8-0.6,6.8,1.4c-2.4,0.8-4.8,1.6-7.2,2.4c2.8,1.8,5.3,4.3,6.9,8.4
	c-3.9-0.8-5.6-5.2-9.6-4.3c2.8,6.1,5.5,12.2,8.3,18.3l-0.7,0.5c-1.2-1.4-2.5-2.9-3.8-4.3l-0.7,0.4c1.5,3.4,2.9,6.8,4.7,10
	c0.3,0.5,2.1,0.2,3.2,0.3l0.1-0.1c0.8,0.2,1.5,0.4,2.3,0.6c-1.5,0.3-3.2,1.2-4.4,0.8c-2.2-0.7-4-0.5-5.8,0.6
	c-1.6,0.1-3.1,0.2-4.7,0.2c-1.1-5.8-2.1-11.6-3.3-17.3c-0.5-2.6-1.1-5.2-2-7.7c-0.4-1.3-1.5-2.4-2.3-3.6c-0.4,1-0.9,2-1.1,3.1
	c-2.1,8.5-4.2,17.1-6.3,25.6c-1.6,0.1-3.1,0.1-4.7,0.1c-1.9-0.4-3.9-0.9-5.8-1.3c4.7-0.1,4.6-0.1,6.5-4.7c0.8-2,1.9-3.9,2.9-5.9
	c0.2-0.5,0.2-1.2-0.3-2.2c-2.2,2.3-4.4,4.7-6.7,7c-0.3-0.2-0.5-0.4-0.8-0.5c1.6-2.9,3.1-5.9,4.8-8.7c2-3.2,4.1-6.4,6.3-9.4
	c1.4-2,1.3-3.1-1.5-3.2c1.2-2,0.6-2.8-1.4-2.7c-2.3,0-4.5,0-6.6,0c0.3-0.2,1.1-0.6,2.5-1.5c-3.6-1.2-6.7-2.2-9.7-3.2
	c0-0.1,0-0.3,0-0.4c2.1,0,4.2,0.1,6.4,0.1c0.4,0.1,0.8,0.3,1.1,0.4l0,0c1.1,0.4,2.3,0.8,3.4,1.2l0,0c1.8,2.5,4.4,1.9,6.9,1.6
	c0.6-0.1,1.1-0.1,1.7-0.2l2.8,0.1c0.4-0.1,0.8-0.2,1.2-0.4C79.9,179.3,80.7,179.3,81.4,179.2L81.4,179.2z"/>
<path class="st18" d="M65.3,213.3c1.6-0.1,3.1-0.1,4.7-0.1c1.1,1.3,1.8,5.9,0.8,6.5c-1,0.6-2.4,0.4-3.6,0.5
	c-0.4,0.2-0.8,0.3-1.1,0.5c-1.6-0.5-4,1.2-4.6-1.8c1.2-0.8,2.3-1.5,3.9-2.6V213.3L65.3,213.3z"/>
<path class="st18" d="M84.9,213.1c1.6-0.1,3.1-0.2,4.7-0.2c0.6,1.9,1.1,3.9,1.7,5.8c-0.4,0.6-0.8,1.3-1.3,1.9c-1.5,0-3.1,0.4-4.4,0
	c-2-0.6-1.3-2.3-0.9-3.8C85,215.7,84.9,214.4,84.9,213.1L84.9,213.1z"/>
<path class="st18" d="M55.1,220.7c-1.7-0.2-3.5-0.4-5.2-0.6c1.1-1.6,2.2-2.7,4.5-1.6c1.6,0.7,3.8,0.3,5.7,0.4c0,0.2,0.1,0.5,0.1,0.7
	C58.5,219.9,56.8,220.3,55.1,220.7L55.1,220.7z"/>
<path class="st20" d="M90.1,220.6c0.4-0.6,0.8-1.3,1.3-1.9c1.7,0.2,3.4,0.5,5.1,0.7c-1.2,0.4-2.3,0.8-3.5,1.2
	C92,220.6,91,220.6,90.1,220.6z"/>
<path class="st18" d="M92.9,220.6c1.2-0.4,2.3-0.8,3.5-1.2l0,0.1c0,0.2,0,0.5,0,0.7C95.2,220.3,94.1,220.4,92.9,220.6L92.9,220.6z"
	/>
<path class="st14" d="M96.4,220.2c0-0.2,0-0.5,0-0.7c1.7,0,3.4,0.1,5.1,0.1c-1.5,0.2-3.1,0.4-4.6,0.6l-0.2,0L96.4,220.2L96.4,220.2z
	"/>
<path class="st20" d="M60.2,219.5c0-0.2-0.1-0.5-0.1-0.7c0.1-0.3,0.2-0.6,0.5-1.3c0.2,0.7,0.3,1.1,0.3,1.4
	C60.7,219.1,60.5,219.3,60.2,219.5z"/>
<path class="st13" d="M55.6,176.4c0,0.1,0,0.3,0,0.4c-2.3,0-4.6,0-6.8,0c0-0.1,0-0.3,0-0.4C51,176.5,53.3,176.5,55.6,176.4
	L55.6,176.4z"/>
<path class="st6" d="M70,66.1c-0.2,0-0.4,0-0.6,0c-1.5-2-3-4.1-4.5-6.1c0.2-0.9,0.3-1.8,0.5-2.7c-0.2-0.2-0.6-0.6-0.9-1
	c0-0.1,0-0.2-0.1-0.4c-0.1-0.2-0.1-0.4-0.1-0.6c0.2-0.9,0.4-1.7,0.6-2.6c0.1-0.7-0.1-1.7,0.3-1.9c3-1.8,3-5.2,4.5-7.8
	c0.6-1.1,1.8-1.9,2.9-2.9c0.5,2.5,1,4.4,1.6,7c1.5-3.3,0.3-6.8,4-8.8c2.3,3.1,4.6,6.1,7,9.4c0.3-1.3,0.5-2.6,0.9-4.4
	c1.6,2.5,3.3,4.5,4,6.7c0.8,2.5,0.6,5.4,0.8,8.1c-0.5,0.5-1.1,0.9-1.3,1.4c-1.3,3.3-3.1,6.1-6.6,7.5c-0.1,0.1-0.1,0.5-0.1,0.8
	c-4.2,1.8-8.1,1.8-11.6-1.6C70.9,66,70.4,66.1,70,66.1z M84.9,61.5c-0.2,0-0.3-0.1-0.5-0.1c-0.6,0.2-1.2,0.3-1.8,0.5
	c-0.2,0-0.4,0-0.6,0c-0.3-0.3-0.5-0.9-0.8-1c-3.8-0.5-7.6-1-12.3-1.5c1.3,2,2.2,3.7,3.4,5.1c2.2,2.6,7.2,2.7,9.2,0.3
	c0.2,0,0.4,0,0.6,0c0.3-0.3,0.7-0.7,1-1c0.4-0.1,0.8-0.1,1.2-0.2c0.4-0.4,0.7-0.8,1.1-1.2c0.2-0.4,0.4-0.8,0.7-1.3
	C85.6,61.4,85.2,61.4,84.9,61.5L84.9,61.5z M82.7,58.7l1.8,0.5c0.3-0.3,0.6-0.8,1-1c1.4-1,3.2-2.3,2.2-4c-0.6-1-2.7-1.2-4.1-1.8
	c-0.2-0.1-0.6,0-0.8,0c-0.3-0.4-0.6-0.8-1.1-1.4c-0.1,0.6-0.1,1-0.1,1.5c-3.8,0.5-2,4-3.6,6.5C79.8,58.8,81.2,58.7,82.7,58.7
	L82.7,58.7L82.7,58.7z M70.5,57.4c2.7-0.3,3.5-1.8,3.5-3.3c0-1.7-0.8-3.4-2.9-2.9c-1.2,0.3-3.2,1.7-3.1,2.5
	C68.1,55,69.6,56.2,70.5,57.4z"/>
<path class="st22" d="M90.7,58c-0.2-2.7,0-5.6-0.8-8.1c-0.7-2.3-2.5-4.2-4-6.7c-0.4,1.8-0.6,3.1-0.9,4.4c-2.4-3.3-4.7-6.3-7-9.4
	c-3.6,2-2.5,5.5-4,8.8c-0.6-2.6-1-4.6-1.6-7c-1,1-2.2,1.8-2.9,2.9c-1.5,2.6-1.5,6-4.5,7.8c-0.3,0.2-0.2,1.3-0.3,1.9
	c-0.2,0.9-0.4,1.7-0.6,2.6l0.1-0.1c-0.4-0.2-0.8-0.4-1.2-0.6c-0.5,0-1.1,0-1.6,0c-1.3,0.1-2.2-0.2-1.7-1.8c0.4-1.3,1-2.6,1.6-4
	c-1.1-0.2-2.1-0.3-2.8-0.4c1.2-1.5,2.4-3,3.6-4.4c-0.3-0.2-0.7-0.7-1.3-1.2c5.5-2.5,9.2-7.9,16.1-7.9c6.4,0,11.4,3.6,17.2,5.1
	c-0.7,0.4-1.4,0.9-2.6,1.7c1.5,1.5,2.8,2.9,4.2,4.3c-3.3,2.9,1.1,4.7,1.4,7.2c-1,0.3-2,0.7-2.9,1c0.3,1.1,0.6,2,0.9,2.9
	c-1.4,0.3-2.7,0.7-4.1,1l-0.2,0L90.7,58L90.7,58z"/>
<path class="st12" d="M70,32.1h-3.9c5.6-3.4,11.3-3.3,17.2-2.3c0.8,0.2,1.5,0.4,2.3,0.6l0,0c0.4,0.2,0.8,0.4,1.2,0.6l0,0
	c0.3,2.4-1.7,0.6-2.4,1.2c-1.7-0.2-3.4-0.4-5.1-0.6c-1.5,0-3.1,0-4.6,0c-0.3,0-0.7,0-1.1,0C72.4,31.8,71.2,32,70,32.1z"/>
<path class="st14" d="M61.5,54.5c0.5,0,1.1,0,1.6,0c0,0.2,0,0.4,0.1,0.6c-0.4,0.4-0.8,0.8-1.2,1.1c0,0.8,0,1.5,0.1,2.3
	C61.8,57.2,61.6,55.9,61.5,54.5L61.5,54.5z"/>
<path class="st1" d="M74.6,31.6c1.5,0,3.1,0,4.6,0c-0.8,0.2-1.6,0.4-2.3,0.5C76.1,32,75.4,31.8,74.6,31.6L74.6,31.6z"/>
<path class="st8" d="M62,58.6c0-0.8,0-1.5-0.1-2.3c0.3,0.8,0.7,1.5,1,2.3C62.7,58.6,62.3,58.6,62,58.6z"/>
<path class="st19" d="M70,32.1c1.2-0.2,2.4-0.3,3.5-0.5c-0.6,0.3-1.2,0.7-1.8,1C71.2,32.5,70.6,32.3,70,32.1z"/>
<path class="st1" d="M63.1,55.2c0-0.2,0-0.4-0.1-0.6c0.4,0.2,0.8,0.4,1.2,0.6C63.9,55.2,63.5,55.2,63.1,55.2L63.1,55.2z"/>
<path class="st13" d="M91.2,64.8c-0.1,0-0.2-0.1-0.2-0.1c0.1-0.1,0.2-0.2,0.3-0.2c0,0,0.1,0.1,0.2,0.2
	C91.4,64.7,91.3,64.8,91.2,64.8L91.2,64.8z"/>
<path class="st1" d="M64.4,55.8c0,0.1,0.1,0.2,0.1,0.4c-0.1,0-0.3-0.1-0.4-0.1C64.2,56,64.3,55.9,64.4,55.8L64.4,55.8z"/>
<path class="st21" d="M103.8,211.9c-1.3-0.1-2.7-0.3-4-0.4C101.2,210.7,102.7,210.1,103.8,211.9z"/>
<path class="st21" d="M96.9,209.8c-0.2-0.4-0.3-0.8-0.5-1.2c0.1,0,0.3-0.1,0.4-0.1C96.9,208.9,96.9,209.3,96.9,209.8L96.9,209.8
	L96.9,209.8z"/>
<path class="st21" d="M97.5,210.9c-0.2-0.4-0.4-0.8-0.6-1.2l0.1,0C97.2,210.1,97.4,210.5,97.5,210.9
	C97.6,210.8,97.5,210.9,97.5,210.9z"/>
<path class="st15" d="M61.4,152.9c0.1-0.2,0.3-0.4,0.4-0.6c0.4-2.7,0.8-5.4,1.2-8c0.6,0,1.2,0,1.8,0c0,0.4,0,0.8,0,1.1
	c0,0.6,0,1.1,0,1.7c0.2,3.3,0.4,6.6,0.6,9.8c-0.6-0.2-1.2-0.4-2-0.6c-1.1,2.7,0.1,3.7,2.5,3.9c1.5,1,3.1,2,4.6,3
	c0,0.1,0,0.3,0.1,0.4c0.2,0.2,0.4,0.3,0.6,0.5c1.4,0.3,3.1,0.2,2.2,2.5c-2.9-1-5.8-2.1-8.7-3.1c-0.7-0.2-1.5-0.4-2.2-0.6
	c-0.2,0-0.3,0-0.5,0.1c-0.4,0-0.8,0-1.1,0.1c0-0.2,0-0.4,0-0.6c-0.2-0.8-0.3-1.5-0.5-2.2C60.7,157.8,61.1,155.3,61.4,152.9
	L61.4,152.9z"/>
<path class="st1" d="M58,171.8c-1.6,1.5-3.1,0.8-4.6,0c-0.2-0.4-0.4-0.8-0.6-1.2l0,0c-0.2-0.4-0.4-0.8-0.6-1.2l0,0
	c-0.2-0.5-0.4-1.1-0.6-1.6c0.3-0.7,0.7-1.4,1.1-2c0.5,0.3,1.3,0.4,1.5,0.9c1.1,1.8,2.3,1,3.6,0.4c0,0.2,0.1,0.4,0.1,0.6
	c0,0.4,0,0.8,0,1.1C58,169.9,58,170.9,58,171.8L58,171.8z"/>
<path class="st19" d="M60.8,162.6c0,0.2,0,0.4,0,0.6c-0.2,0.4-0.4,0.8-0.6,1.1c-1.3-0.4-2.7-0.8-4-1.1c0-0.4-0.1-0.8-0.1-1.1
	c-0.1,0-0.2,0.1-0.4,0.1c0.2,0.4,0.3,0.7,0.5,1.1c0,0.2-0.1,0.4-0.1,0.6c-0.2,0-0.3,0.1-0.4,0.2c-1.1-1.3-2.2-2.6-3.3-3.9
	c2-1.3,3.7-0.5,5.5,1.1C58.6,161.8,59.8,162.1,60.8,162.6L60.8,162.6z"/>
<path class="st9" d="M60.2,164.3c0.2-0.4,0.4-0.8,0.6-1.1c0.4,0,0.8,0,1.1-0.1c-0.3,1.7-0.5,3.4-1,5.1c-0.2,0.9-0.9,1.6-1.3,2.4
	c-0.4-0.2-0.7-0.4-1.1-0.6c0-0.4,0-0.7-0.1-1.1c-0.2-0.4-0.3-0.8-0.5-1.2c0-0.2-0.1-0.4-0.1-0.6c0-0.3,0-0.7,0-1
	c0.6-0.2,1.2-0.4,1.8-0.6C59.9,165.1,60,164.7,60.2,164.3L60.2,164.3z"/>
<path class="st19" d="M51.6,167.9c0.2,0.5,0.4,1.1,0.6,1.6c-1-0.2-1.9-0.3-2.9-0.5c-0.2-0.1-0.3-0.1-0.5-0.1c-0.4-1-0.7-2.1-1.1-3.1
	c0.1-0.2,0.3-0.4,0.4-0.6C49.3,166.1,50.4,167,51.6,167.9L51.6,167.9z"/>
<path class="st12" d="M59.7,165.5c-0.6,0.2-1.2,0.4-1.8,0.6c-0.6-0.4-1.1-0.8-1.7-1.2l0.1-0.1C57.4,165.1,58.5,165.3,59.7,165.5
	L59.7,165.5z"/>
<path class="st12" d="M55.7,163.9c0.1-0.1,0.2-0.2,0.4-0.2c0.1,0.4,0.1,0.8,0.2,1.2l-0.1,0.1C56,164.6,55.8,164.2,55.7,163.9
	L55.7,163.9z"/>
<path class="st16" d="M113.6,136.7c-1.2-0.9-2.3-1.9-3.4-2.9c-0.6-0.9-1.1-1.9-1.7-2.8c1-2.1-0.8-2.9-1.8-4
	c-0.2-0.6-0.3-1.2-0.5-1.7c0.1-0.6,0.2-1.2,0.3-1.8c1.6-0.6,3.2-1.1,4.8-1.7c0.6,1,1.2,1.9,1.8,2.9c-1.4,0.1-3.1-0.1-2.8,2.1
	c0.2,1.2,0.6,3,2.7,2l0.2-0.1C113.3,131.4,113.4,134.1,113.6,136.7L113.6,136.7z"/>
<path class="st12" d="M111.4,153.5c0.7-0.2,1.4-0.5,2.1-0.7c0.3,1.2,0.5,2.4,0.8,3.6c-1.7,3-4.4,3.5-7.5,3.2
	c-0.4-0.9-0.8-1.7-1.2-2.6c0.7-0.2,1.4-0.7,2.1-0.7C109.8,156.6,110.8,155.4,111.4,153.5L111.4,153.5z"/>
<path class="st15" d="M102.1,164.9c0.8-0.2,1.6-0.4,2.4-0.6c0.4,0.7,0.8,1.5,1.2,2.2c-0.1,1-0.1,2-0.2,3c-2.5,1-5,1.9-7.3,2.9
	C99.5,169.8,100.8,167.4,102.1,164.9z"/>
<path class="st19" d="M111.2,167.7c-0.8,0.9-1.6,1.8-2.4,2.7c-0.2-0.1-0.4-0.1-0.6-0.2c0.8-1.8,1.7-3.5,2.5-5.2
	c0.7-0.2,1.3-0.5,2.4-0.9C112.3,165.6,111.8,166.7,111.2,167.7L111.2,167.7z"/>
<path class="st16" d="M114.2,156.4c-0.2-1.2-0.5-2.4-0.8-3.6c0.2-0.4,0.5-0.7,0.7-1.1C116.2,153.3,115.3,154.8,114.2,156.4
	L114.2,156.4z"/>
<path class="st23" d="M75.7,95.3c0.4-0.2,0.8-0.3,1.2-0.5c0.4-0.2,0.8-0.3,1.2-0.5l0.6,0c0.9,0,1.9,0,2.8,0c0.2,0.1,0.4,0.3,0.6,0.4
	c1.3,0.2,2.7,0.4,4,0.6v0c0.8,0.6,1.5,1.2,2.3,1.7l0,0c0.4,0.6,0.8,1.2,1.1,1.8c0.4,0.6,0.7,1.1,1.1,1.7c0.1,0.6,0.1,1.1,0.2,1.7
	c0,0.2,0,0.4,0,0.6c0,1.2,0,2.3,0,3.5c0,0.2-0.1,0.4-0.1,0.6c-0.6-0.2-1.2-0.2-1.6-0.5c-1.2-0.8-2.2-2.1-3.6-2.7
	c-2.6-1.1-5.3-1.7-8.1-2.5c-1.3,0-2.6,0-3.9,0c-0.2,0.1-0.4,0.2-0.7,0.4c-0.8,0-1.5,0-2.2,0c0-0.3,0-0.7-0.1-1.1
	c0-0.2,0.1-0.4,0.1-0.6c0.2-0.4,0.4-0.8,0.6-1.2l0,0c0.2-0.2,0.3-0.4,0.5-0.6c0.8-0.8,1.6-1.5,2.4-2.3c0.2-0.2,0.4-0.4,0.6-0.6l0,0
	C75,95.4,75.3,95.3,75.7,95.3L75.7,95.3z"/>
<path class="st9" d="M70.5,100.6c0,0.3,0,0.7,0.1,1.1c-0.4,0.6-0.8,1.2-1.2,1.8c-1.5,0.2-3,0.3-4.4,0.7c-0.7,0.2-1.5,0.8-1.8,1.5
	c-0.2,0.4,0.4,1.4,0.9,1.8c1.9,1.2,4,2.3,6,3.5c-1.4,3.5-2.8,7-4.2,10.5c-0.1,0-0.2,0-0.3,0c-0.2,0-0.5,0-0.7,0c-0.2,0-0.4,0-0.6,0
	c-0.9-1-1.8-1.9-2.8-2.9c-0.2-0.8-0.4-1.5-0.6-2.2h-0.1c-0.6-3.1-1.2-6.2-1.7-9.4c-0.2-1.3-0.3-2.6-0.5-3.9c0-1-0.1-1.9-0.1-2.9h0.3
	H59c0.6,1.7,1.2,3.3,1.7,4.8C64.3,103.2,67.4,101.9,70.5,100.6z"/>
<path class="st15" d="M72.8,101.6c0.2-0.1,0.4-0.2,0.7-0.4c1.3,0,2.6,0,3.9,0c2.7,0.8,5.4,1.5,8.1,2.5c1.3,0.5,2.3,1.8,3.6,2.7
	c0.4,0.3,1.1,0.3,1.6,0.5c0,0.2,0,0.4,0.1,0.5c-0.2,0.8-0.4,1.5-0.6,2.3c-0.5-0.2-1-0.4-1.5-0.6c-3.3-1.4-6.7-2.7-10-4.1
	c-1.1-0.5-2.2-1-3.3-1.6C74.4,102.9,73.7,102.2,72.8,101.6L72.8,101.6z"/>
<path class="st9" d="M64.3,82.1c1.3,1.6,2.6,3.1,4,4.7c0.1,0.1,0.2,0.2,0.3,0.2c-0.1-0.1-0.2-0.2-0.3-0.3c-0.8-1.9-1.6-3.9-2.4-5.8
	c0.4,0,0.8,0.1,1.3,0.1l0,0c0.4,0.2,0.8,0.4,1.2,0.6l0,0c0.4,0.4,0.8,0.8,1.2,1.2l0,0c0.6,0.6,1.2,1.1,1.8,1.6c-0.5,0.4-1,0.8-2,1.5
	c1,0.6,1.9,0.9,2.5,1.6c0.7,0.8,1.3,1.7,1.7,2.7c0.1,0.4-0.7,1.6-0.8,1.5c-0.9-0.3-1.9-0.6-2.6-1.3c-1.6-1.4-3.2-2.9-4.5-4.7
	C64.7,84.8,64.6,83.3,64.3,82.1z"/>
<path class="st19" d="M95.8,106.3c0.2,2.1,0.3,4.2,0.5,6.3c-0.4,1.1-0.7,2.3-1.1,3.4c-0.4-0.2-0.8-0.3-1.1-0.5
	c-0.2-1.1-0.5-2.3-0.7-3.4c0.2-0.8,0.4-1.6,0.7-2.3c0-0.8,0-1.6,0-2.3c0.2-1.5,0.4-3.1,0.7-4.6C95,104,95.4,105.1,95.8,106.3z"/>
<path class="st17" d="M61.8,77.6c0.1,0.6,0.2,1.1,0.3,1.6c-0.4,1.9-0.8,3.9-1.2,5.8c0,0.2-0.1,0.4-0.1,0.6c0,0.2,0,0.4,0,0.6l0,0
	c0,0.2,0,0.4,0,0.6c-0.2,0.4-0.3,0.8-0.5,1.2c-0.2,1.5-0.5,3.1-0.7,4.6c0,0.4,0,0.7,0,1.1c-0.2,0-0.4,0-0.5,0
	c0.3-3.6,0.4-7.2,0.9-10.8C60.2,81,61.2,79.3,61.8,77.6L61.8,77.6z"/>
<path class="st12" d="M94.7,102.8c-0.2,1.5-0.4,3.1-0.7,4.6c-0.2-0.4-0.4-0.8-0.5-1.3c-0.4-4.8-0.8-9.6-1.1-14.3
	c-0.1-0.7,0.3-1.4,0.5-2.1c0.2,0.9,0.5,1.9,0.7,2.9c0,0.2,0,0.4,0,0.6c0.4,2.1,0.8,4.2,1.2,6.3c0,0.4,0,0.8,0,1.2
	C94.7,101.3,94.7,102.1,94.7,102.8z"/>
<path class="st12" d="M81.4,94.3c-0.9,0-1.9,0-2.8,0c-0.2-0.1-0.4-0.1-0.6,0c-0.4,0.2-0.8,0.3-1.2,0.5c-1.1-1.9,0.4-2.7,1.6-2.7
	c2.1,0.1,4.3,0.8,6.3,1.5c0.5,0.2,0.8,1.1,1.2,1.7c-1.3-0.2-2.7-0.4-4-0.6C81.8,94.6,81.6,94.5,81.4,94.3z"/>
<path class="st12" d="M87.7,81.6c-0.1,1.4-0.3,2.8-0.4,4.1c-0.6-0.1-1.2-0.1-1.8-0.2c-0.8-0.2-1.5-0.4-2.2-0.6
	c0.4-0.8,0.7-1.8,1.3-2.2C85.5,82.1,86.6,81.9,87.7,81.6L87.7,81.6z"/>
<path class="st12" d="M90.2,79.3c0.7,2.1,1.4,4.2,2.1,6.3c-1.1,0.4-2.2,0.8-3.3,1.2C89.4,84.3,89.8,81.8,90.2,79.3L90.2,79.3z"/>
<path class="st9" d="M60.9,85c0.4-1.9,0.8-3.9,1.2-5.8c0.7,0.8,1.4,1.6,2.1,2.4c-1.4-0.1-2.4,0.1-2.3,1.9C61.9,84,61.2,84.5,60.9,85
	z"/>
<path class="st12" d="M94,109.8c-0.2,0.8-0.4,1.6-0.7,2.3c-1.1-0.8-2.2-1.6-3.3-2.4c0.2-0.8,0.4-1.5,0.6-2.3
	C91.8,108.2,92.9,109,94,109.8z"/>
<path class="st16" d="M71.2,84.4c-0.6-0.6-1.2-1.1-1.8-1.6c0.6,0,1.1,0.1,1.7,0.1c0.4,0.2,0.8,0.4,1.1,0.6c0.8,0.4,1.6,0.7,2.3,1.1
	c0.4,0,0.7,0.1,1.1,0.1c0.4,0.2,0.8,0.3,1.2,0.5c0.2,0.2,0.3,0.3,0.5,0.5c-0.3,0-0.7,0-1.1,0.1c-0.6,0-1.1,0-1.7,0
	c-0.8-0.2-1.5-0.4-2.2-0.7C72,84.8,71.6,84.6,71.2,84.4L71.2,84.4z"/>
<path class="st12" d="M70.6,79.2c2.1,0.8,4.2,1.6,6.3,2.3C74.6,82.4,72,81.4,70.6,79.2z"/>
<path class="st17" d="M59,100h-0.3h-0.3c-0.6-2-1.5-4,0.5-5.7c0,1.5,0.1,3.1,0.1,4.6C59.1,99.2,59.1,99.6,59,100L59,100z"/>
<path class="st9" d="M59.6,92.5c0.2-1.5,0.5-3.1,0.7-4.6C60.8,89.6,61.8,91.3,59.6,92.5z"/>
<path class="st12" d="M90.7,106.3c0-1.2,0-2.3,0-3.5c0.6,0.7,1.2,1.3,1.5,2.1C92.3,105.2,91.3,105.8,90.7,106.3L90.7,106.3z"/>
<path class="st9" d="M59.2,98.8c0-1.5-0.1-3.1-0.1-4.6c0-0.2,0-0.4,0-0.6c0.2,0,0.4,0,0.5,0C60.7,95.5,60.5,97.2,59.2,98.8
	L59.2,98.8z"/>
<path class="st12" d="M78,81.5c1.3-0.3,2.7-0.7,4-1C81.2,82.8,79.9,83.3,78,81.5z"/>
<path class="st9" d="M76.3,85.6c0.3,0,0.7,0,1.1-0.1c0.9,0.1,1.8,0.1,2.6,0.2l-0.1,0.8C78.6,86.6,77.3,87.7,76.3,85.6L76.3,85.6z"/>
<path class="st9" d="M72.3,84.9c0.8,0.2,1.5,0.4,2.2,0.7c-0.4,0.3-0.8,0.7-1.2,1.1C73,86.1,72.7,85.5,72.3,84.9L72.3,84.9z"/>
<path class="st12" d="M83.4,79.8c0.7-0.9,1.3-1.9,2-2.8C85.5,78.4,85.6,80,83.4,79.8z"/>
<path class="st16" d="M67.1,81c-0.4,0-0.8-0.1-1.3-0.1c-0.1-0.6-0.3-1.1-0.4-1.7C66,79.8,66.6,80.4,67.1,81z"/>
<path class="st12" d="M88.3,97.1c-0.8-0.6-1.5-1.2-2.3-1.7C87.3,95.3,88.5,95.2,88.3,97.1z"/>
<path class="st12" d="M87.2,87.3c-0.3,0.8-0.7,1.6-1.1,2.3C86.5,88.9,86.8,88.1,87.2,87.3z"/>
<path class="st12" d="M74.6,84.5c-0.8-0.4-1.6-0.7-2.3-1.1C73,83.8,73.8,84.1,74.6,84.5z"/>
<path class="st12" d="M71.1,82.9c-0.6,0-1.1-0.1-1.7-0.1l0,0c0-0.4-0.1-0.8-0.1-1.1C69.9,82,70.5,82.5,71.1,82.9L71.1,82.9z"/>
<path class="st12" d="M89.4,98.9c-0.4-0.6-0.8-1.2-1.1-1.8C88.7,97.7,89.1,98.3,89.4,98.9z"/>
<path class="st12" d="M76.9,85.1c-0.4-0.2-0.8-0.3-1.2-0.5C76.1,84.7,76.5,84.9,76.9,85.1z"/>
<path class="st9" d="M71.2,98.8c-0.2,0.4-0.4,0.8-0.6,1.2C70.8,99.6,71,99.2,71.2,98.8z"/>
<path class="st16" d="M69.3,81.6c0,0.4,0.1,0.8,0.1,1.1c-0.4-0.4-0.8-0.8-1.2-1.2C68.6,81.6,69,81.6,69.3,81.6z"/>
<path class="st12" d="M90.7,102.2c-0.1-0.6-0.1-1.1-0.2-1.7C90.6,101.1,90.7,101.7,90.7,102.2z"/>
<path class="st16" d="M68.3,81.6c-0.4-0.2-0.8-0.4-1.2-0.6C67.5,81.2,67.9,81.4,68.3,81.6z"/>
<path class="st15" d="M75.7,95.3c-0.4,0-0.8,0.1-1.2,0.1C74.9,95.4,75.3,95.3,75.7,95.3z"/>
<path class="st12" d="M82.6,80.4c0.2-0.2,0.4-0.4,0.6-0.6C83,80,82.8,80.2,82.6,80.4z"/>
<path class="st15" d="M74.6,95.4c-0.2,0.2-0.4,0.4-0.6,0.6C74.2,95.8,74.4,95.6,74.6,95.4z"/>
<path class="st9" d="M60.8,86.8c0-0.2,0-0.4,0-0.6C60.8,86.4,60.8,86.6,60.8,86.8z"/>
<path class="st12" d="M88.4,88.5c0.2-0.2,0.3-0.4,0.5-0.6C88.7,88.1,88.6,88.3,88.4,88.5z"/>
<path class="st9" d="M60.8,86.2c0-0.2,0-0.4,0-0.6C60.8,85.8,60.8,86,60.8,86.2z"/>
<path class="st12" d="M87.2,90.2c0.2-0.2,0.4-0.4,0.5-0.6C87.6,89.8,87.4,90,87.2,90.2z"/>
<path class="st12" d="M88.2,80.5c-0.2,0.2-0.3,0.4-0.5,0.6C87.9,80.8,88.1,80.7,88.2,80.5z"/>
<path class="st9" d="M71.6,98.3c-0.2,0.2-0.3,0.4-0.5,0.6C71.3,98.7,71.5,98.5,71.6,98.3z"/>
<path class="st14" d="M84.3,32.2c0.7-0.6,2.6,1.2,2.4-1.2c1.3,0.6,2.7,1.1,4,1.7c-0.1,0.3-0.2,0.6-0.3,0.9
	C88.2,34,86.2,33.2,84.3,32.2L84.3,32.2z"/>
<path class="st14" d="M85.5,30.4c-0.8-0.2-1.5-0.4-2.3-0.6C84,30,84.7,30.2,85.5,30.4z"/>
<path class="st14" d="M86.7,31c-0.4-0.2-0.8-0.4-1.2-0.6C85.9,30.6,86.3,30.8,86.7,31z"/>
<path class="st15" d="M111.2,121.8c-1.6,0.6-3.2,1.1-4.8,1.7c-0.9-1.5-1.8-3.1-2.7-4.6c0.5-2.2,1.3-4.5,1.4-6.8
	c0.1-4.4-0.3-8.8-0.6-13.2c0-0.4-0.8-0.8-1.2-1.2V94c1.3,1,2.2,1.7,3.6,2.8c-0.2,2.4-0.6,5.3-0.8,8.3c-0.1,1.7,0,3,1.5,4.5
	c1.8,1.8,2.4,4.6,3.7,6.9c0.5,0.9,1.4,1.6,2.2,2.3C112.8,119.9,112,120.9,111.2,121.8L111.2,121.8z"/>
<path class="st19" d="M103.4,97.7c0.4,0.4,1.2,0.8,1.2,1.2c0.3,4.4,0.7,8.8,0.6,13.2c0,2.3-0.9,4.5-1.4,6.8
	c-0.2,0.1-0.4,0.1-0.6,0.2c-0.6-1-1.1-2.1-1.7-3.1c0-0.2,0-0.3,0-0.5c0.2,0,0.3,0,0.5-0.1c0.6-0.2,1.1-0.4,1.7-0.6
	c-0.3-0.4-0.6-0.7-1-1.1l-0.2,0c0-0.4,0-0.8,0-1.2c0.1-0.4,0.1-0.8,0.2-1.1c2-2.6,1.1-5.3,0.5-8.1c0-0.2,0-0.4-0.1-0.6
	c0-0.4,0-0.8,0-1.2C103.3,100.4,103.3,99,103.4,97.7L103.4,97.7z"/>
<path class="st0" d="M114,110.3c-0.6-0.7-1.1-1.5-1.7-2.2l0.2-0.1h0.2c0.2,0.2,0.5,0.4,0.7,0.6l0,0c0.3,0,0.6,0,0.9,0l0.1,0l1.3,0.2
	c0.3,0.1,0.6,0.2,0.8,0.3c0,0.2,0.1,0.4,0.1,0.6c-0.2,0.1-0.4,0.1-0.6,0.2l-0.3,0.1C115.3,110.1,114.7,110.2,114,110.3L114,110.3z"
	/>
<path class="st2" d="M116.2,109.9c0.2-0.1,0.4-0.1,0.6-0.2c0.1,0.2,0.2,0.4,0.3,0.6c-0.1,0.8-0.1,1.5-0.2,2.3c-0.4,0-0.8,0-1.2,0
	c0.1-0.2,0.1-0.3,0.1-0.5l0-0.1C116,111.3,116.1,110.6,116.2,109.9L116.2,109.9z"/>
<path class="st15" d="M114.2,105.6c0.5-0.3,1-0.7,1.6-1l0.1,0.1l0.1-0.1c0,0.6-0.1,1.2-0.1,1.8c-0.5-0.1-0.9-0.1-1.4-0.1
	C114.3,106,114.3,105.8,114.2,105.6z"/>
<path class="st12" d="M116.2,109.9c-0.1,0.7-0.2,1.4-0.3,2.2c-0.4-0.5-0.8-1.1-1.2-1.6c0.4-0.2,0.8-0.4,1.2-0.5L116.2,109.9z"/>
<path class="st14" d="M113.6,108.7c-0.2-0.2-0.5-0.4-0.7-0.6c0.2-0.4,0.3-0.8,0.5-1.2l0,0c0.3,0,0.6-0.1,0.8-0.1
	C114,107.4,113.8,108,113.6,108.7L113.6,108.7z"/>
<path class="st14" d="M115.9,109.9c-0.4,0.2-0.8,0.4-1.2,0.5c-0.2-0.1-0.4-0.1-0.7-0.2C114.7,110.2,115.3,110.1,115.9,109.9z"/>
<path class="st10" d="M113.3,106.9c-0.2,0.4-0.3,0.8-0.5,1.2h-0.2l-0.2,0.1C112.7,107.7,113,107.3,113.3,106.9z"/>
<path class="st8" d="M115.8,104.1c0.3,0.2,0.7,0.4,1,0.6c-0.3,0-0.6,0-0.9,0l-0.1,0.1l-0.1-0.1C115.8,104.4,115.9,104.2,115.8,104.1
	z"/>
<path class="st1" d="M114.2,106.7c-0.3,0-0.6,0.1-0.8,0.1c0.3-0.4,0.6-0.8,0.9-1.3c0.1,0.2,0.2,0.4,0.2,0.6
	C114.3,106.4,114.3,106.5,114.2,106.7z"/>
<path class="st12" d="M115.9,112.1c0.1,0.2,0,0.4-0.1,0.5c-0.1-0.1-0.1-0.3-0.2-0.4C115.7,112.2,115.8,112.1,115.9,112.1
	L115.9,112.1z"/>
<path class="st18" d="M107.8,219.4c-1.9,0-3.9,0-5.8,0c1.8-1.7,6.2-2.5,8.1-1.5C109.3,218.4,108.6,218.9,107.8,219.4z"/>
<path class="st20" d="M107.8,219.4c0.8-0.5,1.5-1,2.2-1.5c0.5,0,1.1,0,1.6,0c0,0.5,0.1,0.9,0.1,1.4c-0.5,0.1-1.1,0.1-1.6,0.2
	C109.5,219.5,108.6,219.5,107.8,219.4L107.8,219.4z"/>
<path class="st12" d="M102,115.4c-0.2,0-0.3,0-0.5,0.1c-0.8-1.2-1.5-2.3-2.2-3.5c0-0.2,0-0.3,0-0.5c0.2-0.2,0.3-0.4,0.5-0.6
	c0-0.8,0.1-1.5,0.1-2.3c0.9,0.8,1.9,1.5,2.8,2.3c0,0.2,0.1,0.4,0.1,0.6c-0.1,0.4-0.1,0.8-0.2,1.1c-0.3,0.2-0.6,0.4-0.8,0.6
	c0.3,0.2,0.5,0.4,0.8,0.6l0.2,0C102.5,114.3,102.3,114.9,102,115.4L102,115.4z"/>
<path class="st15" d="M102.8,111.5c0-0.2-0.1-0.4-0.1-0.6c0-2.5,0-5,0-7.4c0.2,0,0.4,0,0.6,0C103.9,106.2,104.8,108.9,102.8,111.5
	L102.8,111.5z"/>
<path class="st12" d="M99.9,104.6c-0.2-2.3-0.4-4.6-0.7-6.9C99.4,100,99.6,102.3,99.9,104.6z"/>
<path class="st12" d="M99.2,96.6c-0.4-1.2-0.7-2.3-1.1-3.5C98.4,94.3,98.8,95.4,99.2,96.6z"/>
<path class="st17" d="M97.5,89.1c-0.4-1.2-0.7-2.3-1.1-3.5C96.8,86.7,97.1,87.9,97.5,89.1z"/>
<path class="st17" d="M96.3,85c0-0.4,0-0.8,0-1.1C96.3,84.3,96.3,84.7,96.3,85z"/>
<path class="st9" d="M103.2,103.4c-0.2,0-0.4,0-0.6,0c0.2-0.2,0.3-0.4,0.5-0.6C103.2,103,103.3,103.2,103.2,103.4L103.2,103.4z"/>
<path class="st15" d="M45.9,122.6c-1.2-0.1-2.3-0.2-3.5-0.3c0-0.5,0-1.1,0-1.6c1.3-4.4,2.7-8.8,4-13.2c0-0.2,0-0.4,0-0.6
	c0-1.3,0-2.7,0-4c-0.2-2.1-0.4-4.1-0.6-6.2c-0.2-2.1,0.5-3.3,2.8-3c0.2,0.9,0.4,1.9,0.6,2.8c0.4,0.1,0.8,0.1,1.2,0.1
	c0.8-3.2,1.7-6.5,2.5-9.9c0.1,0.7,0.2,1.3,0.3,1.8c-0.6,4.2-1.2,8.4-1.8,12.7c-0.8,0.5-2.2,1-2.3,1.6c-0.4,3.8-0.6,7.7-0.6,11.6
	c0,3.1,0,6-2.9,7.9C45.8,122.4,45.8,122.5,45.9,122.6L45.9,122.6z"/>
<path class="st17" d="M57.3,77.1c0.6-0.2,1.1-0.5,1.7-0.8c-0.4,2.4-0.7,4.9-1.3,7.3c-2.1,8.7-2.7,17.4-2.7,26.3
	c0,2.5,1.1,2.5,2.8,1.6c0.4,1.3,0.8,2.7,1.2,4c-0.2,1-0.5,1.9-0.7,2.9c-1.7,0-3.3,0-5,0c0-0.8-0.1-1.6-0.1-2.4
	c0.2-4.2,0.3-8.3,0.5-12.5c0.2-0.7,0.5-1.4,0.6-2.1c0.4-4.3,0.8-8.6,1.1-12.9C56.2,84.7,56.8,80.9,57.3,77.1L57.3,77.1z"/>
<path class="st12" d="M55.6,88.5c-0.4,4.3-0.7,8.6-1.1,12.9c-0.1,0.7-0.4,1.4-0.6,2.1c-0.5,2.1-1,4.1-1.7,6.2
	c-0.2,0.7-1.1,1.2-1.6,1.8c0-0.9,0-1.9,0-2.8c0.2-1.3,0.3-2.7,0.5-4c0-0.2,0-0.4,0.1-0.6c0.2-0.4,0.3-0.8,0.5-1.2l0.1-1.7
	c0.6-4.2,1.2-8.4,1.7-12.7C54.1,88.5,54.9,88.5,55.6,88.5L55.6,88.5z"/>
<path class="st17" d="M99.3,112c0.8,1.2,1.5,2.3,2.2,3.5c0,0.2,0,0.3,0,0.5c-0.2,0.6-0.4,1.2-0.7,1.9c-1.5,0.2-2.9,0.3-4.4,0.4
	c0,0.2-0.1,0.4-0.1,0.7c-0.4-1-0.8-2-1.1-3c0.4-1.1,0.7-2.3,1.1-3.4C97.3,112.4,98.3,112.2,99.3,112L99.3,112z"/>
<path class="st17" d="M94.7,99.4c-0.4-2.1-0.8-4.2-1.2-6.3C96.3,94.7,95.2,97.1,94.7,99.4z"/>
<path class="st17" d="M94.7,102.8c0-0.8,0.1-1.5,0.1-2.2c0.3,1.9,0.7,3.8,1.1,5.8C95.4,105.1,95,104,94.7,102.8z"/>
<path class="st17" d="M99.8,110.9c-0.2,0.2-0.3,0.4-0.5,0.6C99.4,111.3,99.6,111.1,99.8,110.9z"/>
<path class="st12" d="M59.1,115.5c-0.4-1.3-0.8-2.7-1.2-4c0.2-2.9,0.5-5.7,0.7-8.6c0.2,1.3,0.3,2.6,0.5,3.9c0.5,3.1,1.1,6.2,1.7,9.4
	C60.2,115.9,59.7,115.7,59.1,115.5L59.1,115.5z"/>
<path class="st17" d="M62,76.4c0,0.2,0,0.5,0,0.7C62,76.8,62,76.6,62,76.4z"/>
<path class="st7" d="M59.7,170.7c0.5-0.8,1.1-1.6,1.3-2.4c0.4-1.7,0.7-3.4,1-5.1c0.2,0,0.3-0.1,0.5-0.1c1.4,1.4,2.6,3.4,4.3,3.9
	c2,0.6,4.4-0.1,6.6-0.2c0.8-2.2-0.9-2.2-2.2-2.5c-0.2-0.2-0.4-0.3-0.6-0.5c-0.1-0.1-0.1-0.3-0.1-0.4c-0.4-2.7-2.3-3.2-4.6-3
	c-2.4-0.3-3.6-1.3-2.5-3.9c0.7,0.2,1.3,0.4,2,0.6c0.8,0,1.6,0,2.3,0c0.6-1,1.5-2,1.7-3c0.6-2.8,0.9-5.7,1.3-8.6
	c0.3-0.2,0.7-0.3,1-0.5c0,0.1,0,0.3,0.1,0.4c0.4,1.7,0.9,3.3,1.1,5c0.2,2.6,0.7,2.9,3.4,2c0.2-0.4,0.4-0.8,0.6-1.2l-0.1-0.1
	c0.1-0.2,0.1-0.3,0.2-0.5c0-0.4,0-0.8,0-1.2c1.9,0.6,3.8,1.1,5.7,1.7c1.5,0.2,3.1,0.5,4.6,0.7c0.2,0.1,0.4,0.3,0.6,0.5
	c0.2,0,0.3,0,0.5-0.1c0.4,2.4,0.7,4.8,1.2,7.2c0.7,3.1-0.5,6.8,2.8,9.8c-5.2,2.1-10.4,4-16,4.4c-1.6-0.2-3.1-0.4-4.7-0.4
	c-0.3,0-1,1.4-0.9,1.5c1,1.1,2.2,2,3.2,3c0.5,0.6,0.8,1.3,1.2,2c-0.6,0.1-1.1,0.1-1.7,0.2c-0.8-0.2-1.5-0.4-2.3-0.6
	c-1.9-0.9-3.8-1.9-5.7-2.8c-0.5-0.2-1.1-0.3-1.6-0.5C61,175.2,59.7,173.5,59.7,170.7L59.7,170.7z M81.1,166.1
	c-2.6,0.3-4.4,0.6-6.2,0.8c0.1,0.3,0.1,0.6,0.1,0.9C76.8,166.8,79.1,169.8,81.1,166.1L81.1,166.1z"/>
<path class="st9" d="M65.4,176.4c1.9,0.9,3.8,1.9,5.7,2.8c-1.5-0.4-3.1-0.7-4.6-1l0,0c-0.4-0.4-0.8-0.7-1.1-1.1
	C65.4,176.8,65.4,176.6,65.4,176.4L65.4,176.4z"/>
<path class="st13" d="M65.4,177.1c0.4,0.4,0.8,0.7,1.1,1.1c-1.1-0.4-2.3-0.8-3.4-1.2C63.8,177,64.6,177.1,65.4,177.1z"/>
<path class="st14" d="M48.8,172.8c0.4-0.5,0.8-1,1.1-1.5c0.2,0.6,0.3,1.1,0.5,1.7c-0.2,0.2-0.4,0.4-0.6,0.6
	C49.5,173.3,49.1,173,48.8,172.8L48.8,172.8z"/>
<path class="st15" d="M58.5,169c0,0.4,0,0.7,0.1,1.1c-0.2,0.6-0.4,1.2-0.5,1.8c0-1,0-1.9,0-2.9C58.1,168.9,58.3,169,58.5,169z"/>
<path class="st1" d="M49.9,173.6c0.2-0.2,0.4-0.4,0.6-0.6c-0.1,0.4-0.1,0.8-0.2,1.2C50.1,174,50,173.8,49.9,173.6z"/>
<path class="st19" d="M52.2,169.5c0.2,0.4,0.4,0.8,0.6,1.2C52.6,170.3,52.4,169.9,52.2,169.5z"/>
<path class="st19" d="M52.8,170.6c0.2,0.4,0.4,0.8,0.6,1.2C53.2,171.4,53,171,52.8,170.6z"/>
<path class="st13" d="M63.1,177c-0.4-0.1-0.8-0.3-1.1-0.4C62.3,176.7,62.7,176.8,63.1,177z"/>
<path class="st7" d="M46.5,102.8c0,1.3,0,2.7,0,4c0,0.2,0,0.4,0,0.6c-1.3,4.4-2.7,8.8-4,13.2c-2.3-0.4-4.6-0.8-6.9-1.1l0,0
	c-0.6-1.3-1.2-2.7-1.7-4l0,0c-1.7-3.1,0-5.6,1.2-8.3c0.7-1.5,0.7-3.4,1-5.1c-0.3-0.1-0.5-0.2-0.8-0.3c-1.3,3.2-2.6,6.4-4,10.2
	c-0.4,0-1.4,0-2.4,0c-0.1-0.2-0.1-0.3-0.1-0.5c1.4-2.8,2.8-5.6,4.1-8.4c0.7-1.6,1.2-3.2,1.8-4.8c0.5-0.4,1.2-0.7,1.6-1.2
	c2.1-2.9,4.1-5.8,6.1-8.8c0.7-1,1-2.1,2-4c0.5,3.7,3,5.9,1.4,9.7C44.6,96.5,46.1,99.9,46.5,102.8L46.5,102.8z"/>
<path class="st12" d="M35.6,119.5c2.3,0.4,4.6,0.8,6.9,1.1c0,0.5,0,1.1,0,1.6c-1.1,0-2.3,0-3.4,0C37.9,121.4,36.7,120.4,35.6,119.5
	L35.6,119.5z"/>
<path class="st12" d="M33.8,115.5c0.6,1.3,1.2,2.7,1.7,4C35,118.2,34.4,116.8,33.8,115.5z"/>
<path class="st9" d="M75.1,179.6c-0.4-0.7-0.7-1.4-1.2-2c-1-1.1-2.2-1.9-3.2-3c-0.1-0.2,0.6-1.5,0.9-1.5c1.6,0,3.1,0.2,4.7,0.4
	c-1.1,0.2-2.2,0.4-3.4,0.6c0.1,0.3,0.1,0.7,0.2,1c4.3,1.2,8.7,1.3,12.8-0.8c1.9-0.9,3.8-2,5.7-3.1c2-1.1,4-2.3,6-3.4
	c0.9-0.8,1.8-1.6,2.8-2.3c0.6-0.2,1.1-0.4,1.7-0.6c-1.3,2.5-2.6,4.9-3.9,7.5c2.4-0.9,4.8-1.9,7.3-2.9c0,0.4,0,0.8,0.1,1.1
	c0.4,1.5,0.7,3,1.1,4.6c-2.4,0.8-4.8,1.7-7.2,2.3c-1.2,0.3-2.6-0.3-4-0.3c-2.3,0-4.8-0.2-7.1,0.2c-2.4,0.4-4.7,1.2-7,1.9
	c-0.8,0-1.5,0.1-2.2,0.1c-0.4,0.1-0.8,0.2-1.2,0.4L75.1,179.6L75.1,179.6z"/>
<path class="st5" d="M106.7,175.2c-0.4-1.5-0.7-3-1.1-4.6c0.9,0.3,1.8,0.7,3.3,1.2c-0.6,1.2-1.2,2.3-1.8,3.4
	C106.9,175.3,106.8,175.3,106.7,175.2z"/>
<path class="st7" d="M112.9,128.8c-2.1,1-2.5-0.8-2.7-2c-0.4-2.1,1.3-2,2.8-2.1C113,126.1,113,127.4,112.9,128.8z"/>
<path class="st24" d="M116.7,109.2c-0.3-0.1-0.6-0.2-0.8-0.3c0.1-0.3,0.1-0.6,0.2-0.9l-0.1-0.2c0.2-0.1,0.4-0.2,0.6-0.3l0.2,0l0.2,0
	c0.2-0.2,0.4-0.3,0.7-0.5c0.2,0.8,0.5,1.5,0.8,2.2c0,0.2,0.1,0.4,0.1,0.6c-0.3-0.1-0.5-0.1-0.8-0.2
	C117.4,109.5,117,109.3,116.7,109.2L116.7,109.2z"/>
<path class="st10" d="M117,107.4l-0.2,0l-0.2,0c-0.2-0.3-0.4-0.6-0.7-0.9l0.1-0.1l-0.1-0.1c0-0.6,0.1-1.2,0.1-1.8c0.3,0,0.6,0,0.9,0
	c0.1,0.6,0.1,1.1,0.2,1.7C117,106.7,117,107.1,117,107.4L117,107.4z"/>
<path class="st13" d="M117,107.4c0-0.4,0.1-0.8,0.1-1.1c0.2,0.2,0.4,0.4,0.6,0.6C117.4,107.1,117.2,107.3,117,107.4z"/>
<path class="st13" d="M116.7,109.2c0.3,0.1,0.7,0.3,1,0.4c-0.2,0.2-0.4,0.5-0.6,0.7c-0.1-0.2-0.2-0.4-0.3-0.6
	C116.8,109.5,116.7,109.4,116.7,109.2L116.7,109.2z"/>
<path class="st13" d="M66.5,178.2c1.5,0.4,3.1,0.7,4.6,1c0.8,0.2,1.5,0.4,2.3,0.6C70.9,180.1,68.4,180.7,66.5,178.2L66.5,178.2z"/>
<path class="st14" d="M78,179.7c0.4-0.1,0.8-0.2,1.2-0.4C78.8,179.5,78.4,179.6,78,179.7z"/>
<path class="st2" d="M81.5,64.9c-2,2.4-7,2.3-9.2-0.3c-1.2-1.5-2.1-3.1-3.4-5.1c4.8,0.6,8.6,1,12.3,1.5c0.3,0,0.6,0.6,0.8,1
	c0,0.3-0.1,0.5-0.1,0.8c-1.6,0.2-3.1,0.5-4.2,0.6C78.7,63.8,80.1,64.3,81.5,64.9L81.5,64.9z"/>
<path class="st2" d="M82.6,52.3c0.3,0,0.6-0.1,0.8,0c1.4,0.5,3.5,0.8,4.1,1.8c1,1.8-0.7,3-2.2,4c-0.4,0.3-0.6,0.7-1,1
	c-0.6-0.2-1.2-0.3-1.8-0.5v0c-0.4-1.8-0.8-3.5-1.2-5.2C81.8,53,82.2,52.7,82.6,52.3L82.6,52.3z"/>
<path class="st2" d="M70.4,57.4c-0.9-1.2-2.3-2.4-2.5-3.7c-0.1-0.7,1.8-2.2,3.1-2.5c2-0.5,2.9,1.1,2.9,2.9
	C73.9,55.7,73.2,57.1,70.4,57.4z"/>
<path class="st1" d="M81.4,53.4c0.4,1.8,0.8,3.5,1.2,5.2c-1.4,0.1-2.8,0.2-4.8,0.3c1.6-2.5-0.3-6,3.6-6.5
	C81.4,52.7,81.4,53,81.4,53.4L81.4,53.4z"/>
<path class="st20" d="M81.5,64.9c-1.4-0.6-2.7-1.2-3.7-1.6c1.1-0.2,2.6-0.4,4.2-0.6c0.1,0.4,0.2,0.8,0.3,1.2c0,0.3-0.1,0.7-0.1,1
	C81.9,64.9,81.7,64.9,81.5,64.9z"/>
<path class="st18" d="M82.2,63.9c-0.1-0.4-0.2-0.8-0.3-1.2c0-0.3,0.1-0.5,0.1-0.8c0.2,0,0.4,0,0.6,0c0.4,0.2,0.8,0.5,1.2,0.7l0.5,1
	c-0.4,0.1-0.8,0.1-1.2,0.2C82.8,63.9,82.5,63.9,82.2,63.9L82.2,63.9z"/>
<path class="st8" d="M81.4,53.4c0-0.3,0-0.7,0-1c0-0.4,0.1-0.9,0.1-1.5c0.4,0.6,0.8,1,1.1,1.4C82.2,52.6,81.8,53,81.4,53.4
	L81.4,53.4z"/>
<path class="st13" d="M84.3,63.7c-0.2-0.3-0.3-0.7-0.5-1c0.2-0.2,0.5-0.3,0.7-0.5l0.2,0c0.2,0,0.4,0,0.7,0c0,0.1,0,0.2,0,0.3
	C85,62.9,84.7,63.3,84.3,63.7L84.3,63.7z"/>
<path class="st2" d="M84.5,62.2c-0.2,0.2-0.5,0.3-0.7,0.5c-0.4-0.2-0.8-0.5-1.2-0.7c0.6-0.2,1.2-0.3,1.8-0.5
	C84.4,61.7,84.5,61.9,84.5,62.2L84.5,62.2z"/>
<path class="st14" d="M82.7,58.7c0.6,0.2,1.2,0.3,1.8,0.5C83.8,59,83.2,58.8,82.7,58.7z"/>
<path class="st2" d="M82.2,63.9c0.3,0,0.6,0,0.9,0c-0.3,0.3-0.7,0.7-1,1C82.1,64.6,82.1,64.2,82.2,63.9L82.2,63.9z"/>
<path class="st18" d="M85.4,62.3c-0.2,0-0.4,0-0.7,0c0.1-0.2,0.1-0.5,0.1-0.7c0.4-0.1,0.8-0.2,1.2-0.3
	C85.8,61.6,85.6,61.9,85.4,62.3z"/>
<path class="st20" d="M85.4,62.3c0.2-0.3,0.4-0.7,0.7-1c-0.2,0.4-0.4,0.8-0.7,1.3C85.3,62.5,85.3,62.4,85.4,62.3L85.4,62.3z"/>
<path class="st20" d="M84.9,61.5c-0.1,0.2-0.1,0.5-0.1,0.7l-0.2,0c-0.1-0.2-0.1-0.5-0.2-0.7C84.6,61.5,84.7,61.5,84.9,61.5
	L84.9,61.5z"/>
<path class="st3" d="M63.6,136.7c0.2-2.5,0.5-4.9,0.7-7.4c0.4-0.2,0.8-0.4,1.1-0.6c0.3,0,0.7,0.1,1.1,0.1c0,0.1,0.1,0.2,0.1,0.4
	c0.1,0.9,0.2,1.9,0.4,2.8c0.6,2.8,1.3,5.5,1.9,8.2c-0.4,5.6-0.8,11.1-1.2,16.7c-0.8,0-1.6,0-2.3,0c-0.2-3.3-0.4-6.6-0.6-9.8
	c0-0.6,0-1.1,0-1.7c0-0.4,0-0.8,0-1.1C64.4,141.7,64,139.2,63.6,136.7L63.6,136.7z"/>
<path class="st9" d="M73.4,166.8c-2.2,0.1-4.6,0.8-6.6,0.2c-1.7-0.5-2.9-2.5-4.3-3.9c0.7,0.2,1.5,0.4,2.2,0.6
	C67.6,164.7,70.4,165.7,73.4,166.8z"/>
<path class="st19" d="M63.6,136.7c0.4,2.5,0.8,5,1.2,7.5c-0.6,0-1.2,0-1.8,0C63.2,141.7,63.4,139.2,63.6,136.7L63.6,136.7z"/>
<path class="st9" d="M65.9,160.3c2.3-0.2,4.2,0.3,4.6,3C69,162.3,67.4,161.3,65.9,160.3z"/>
<path class="st19" d="M64.8,145.4c0,0.6,0,1.1,0,1.7C64.8,146.5,64.8,146,64.8,145.4z"/>
<path class="st9" d="M70.6,163.8c0.2,0.2,0.4,0.3,0.6,0.5C70.9,164.1,70.7,163.9,70.6,163.8z"/>
<path class="st12" d="M58.5,169c-0.2,0-0.3,0-0.5-0.1c0-0.4,0-0.8,0-1.1C58.1,168.2,58.3,168.6,58.5,169z"/>
<path class="st25" d="M56.2,164.9c-0.1-0.4-0.1-0.8-0.2-1.2c0-0.2,0.1-0.4,0.1-0.6h0c1.3,0.4,2.7,0.8,4,1.1
	c-0.2,0.4-0.4,0.8-0.6,1.2C58.5,165.3,57.4,165.1,56.2,164.9L56.2,164.9z"/>
<path class="st12" d="M56.2,163.2c-0.2-0.4-0.3-0.7-0.5-1.1c0.1,0,0.2-0.1,0.4-0.1C56.1,162.4,56.2,162.8,56.2,163.2L56.2,163.2
	L56.2,163.2z"/>
<path class="st19" d="M105.6,131.5c0.8,0.3,1.5,0.6,2.2,0.9c0,0.1,0,0.3,0,0.4c-1.5-0.2-3.1-0.4-4.6-0.6
	C104,131.9,104.8,131.7,105.6,131.5L105.6,131.5z"/>
<path class="st15" d="M92.9,124.7c0.2-0.8,0.4-1.5,0.5-2.2c0.1,0.4,0.1,0.8,0.1,1.1c0,1.3-0.1,2.7-0.1,4
	C93.3,126.6,93.1,125.6,92.9,124.7z"/>
<path class="st9" d="M93.4,116.7c0,0.6,0,1.1,0,1.7c-2.1,0.6-2.6,2.2-2.8,4.2c-0.2,2.5-0.4,4.9-0.6,7.4c-0.6,0.7-1.4,1.3-1.7,2
	c-1.4,3.7-2.8,7.4-4.1,11.2c-0.6,0.7-1.4,1.4-1.6,2.2c-0.3,1.3-0.1,2.7-0.1,4c0,0.6,0.1,1.2,0.1,1.7c-1.9-0.6-3.8-1.1-5.7-1.7
	c-0.2-1.8-0.3-3.3,2.3-3.6c1.3-0.2,2.5-1.4,2.3-3.5c-0.2-2.1,0.7-4.2,0.9-6.4c0.2-1.5,0.2-3.1,0.3-4.7c0.3-0.7,0.7-1.4,1-2.1
	c0-1.3,0-2.6,0-3.8l-0.1,0c0.4-0.6,0.8-1.2,1.3-1.8c0.3-0.7,0.7-1.5,1-2.2c0.2-0.6,0.3-1.2,0.5-1.8c0.2-0.8,0.4-1.5,0.6-2.3
	c0.2-0.2,0.4-0.4,0.6-0.6L93.4,116.7L93.4,116.7z M78.3,147.9c0.1,0.3,0.1,0.6,0.2,0.9c0.9-0.2,1.9-0.4,2.8-0.5
	c-0.1-0.3-0.1-0.6-0.2-0.9C80.2,147.5,79.2,147.7,78.3,147.9L78.3,147.9z"/>
<path class="st15" d="M97.6,167.9c-2,1.1-4,2.3-6,3.4c-1.9,1.1-3.7,2.1-5.7,3.1c-4.2,2.1-8.5,1.9-12.8,0.8c-0.1-0.3-0.1-0.7-0.2-1
	c1.1-0.2,2.2-0.4,3.4-0.6c5.7-0.4,10.8-2.2,16-4.4c-3.3-3-2.1-6.6-2.8-9.8c-0.5-2.4-0.8-4.8-1.2-7.2c0.7-0.1,1.4-0.3,2-0.1
	s1,0.9,1.5,1.3c0.2,3.1,0.4,6.1,0.5,9.2c0.2,0.8,0.4,1.6,0.6,2.3l0,0C94.5,165.9,96,166.9,97.6,167.9L97.6,167.9z"/>
<path class="st19" d="M91.8,153.4c-0.5-0.5-0.9-1.1-1.5-1.3c-0.6-0.2-1.3,0.1-2,0.1c-0.2,0.1-0.3,0.1-0.5,0.1
	c-0.2-0.1-0.4-0.3-0.6-0.5c-1.5-0.2-3.1-0.5-4.6-0.7c0-0.6-0.1-1.2-0.1-1.7c2.1,0.5,4.4,2,6.1,0.2c0.8-0.9,0.2-3.2,0.2-4.8
	c-0.2-0.9-0.4-1.8-0.6-2.7v0c0.8-2.7,1.6-5.4,2.3-8c0.2,0.5,0.5,1,0.5,1.5C91.4,141.4,91.6,147.4,91.8,153.4L91.8,153.4z"/>
<path class="st3" d="M84.3,143.1c1.3-3.7,2.7-7.5,4.1-11.2c0.3-0.8,1.1-1.4,1.7-2c0.2,1.1,0.3,2.3,0.5,3.5c-0.7,2.8-1.5,5.7-2.2,8.5
	l0,0c-0.8,1.5-0.5,4.2-3.5,3.5C84.7,144.6,84.5,143.9,84.3,143.1L84.3,143.1z"/>
<path class="st19" d="M97.6,167.9c-1.6-1-3.1-2-4.7-3c2.5,0.2,4.9,0.4,7.4,0.6C99.4,166.3,98.5,167.1,97.6,167.9z"/>
<path class="st22" d="M88.3,141.9c0.7-2.8,1.5-5.7,2.2-8.5c0.1,0.2,0.1,0.3,0.1,0.5C89.9,136.6,89.1,139.2,88.3,141.9L88.3,141.9z"
	/>
<path class="st19" d="M93,164.9c-0.2-0.8-0.4-1.6-0.6-2.3C92.6,163.3,92.8,164.1,93,164.9z"/>
<path class="st14" d="M107.8,132.8c0-0.1,0-0.3,0-0.4c0.2-0.4,0.4-0.9,0.7-1.3c0.6,0.9,1.1,1.9,1.7,2.8c-0.2,0-0.4,0-0.6-0.1
	C109,133.4,108.4,133.1,107.8,132.8L107.8,132.8z"/>
<path class="st13" d="M114,146.4c0-0.9,0-1.8,0-2.6C114.1,144.6,114.1,145.5,114,146.4z"/>
<path class="st19" d="M107.8,132.8c0.6,0.4,1.2,0.7,1.7,1.1c-0.6,0-1.1,0.1-1.6,0.1C107.9,133.5,107.9,133.1,107.8,132.8
	L107.8,132.8z"/>
<path class="st19" d="M72.8,101.6c0.8,0.6,1.6,1.3,2.5,1.8c1.1,0.6,2.2,1.1,3.3,1.6c-3.1-0.5-6.2-1.1-9.2-1.6
	c0.4-0.6,0.8-1.2,1.2-1.8C71.3,101.6,72.1,101.6,72.8,101.6L72.8,101.6z"/>
<path class="st19" d="M77.4,101.3c-1.3,0-2.6,0-3.9,0C74.8,101.2,76.1,101.3,77.4,101.3z"/>
<path class="st1" d="M81.4,94.3c0.2,0.1,0.4,0.3,0.6,0.4C81.8,94.6,81.6,94.5,81.4,94.3z"/>
<path class="st1" d="M78,94.3c0.2,0,0.4,0,0.6,0C78.4,94.3,78.2,94.3,78,94.3z"/>
<path class="st24" d="M87.8,116.6c-0.2,0.2-0.4,0.4-0.6,0.6c-2.4-1.9-4.9-3.8-7.2-5.9c-1.8-1.5-3.4-1.3-4.9-0.6
	c3.8,2.9,7.7,5.8,11.5,8.8c-0.2,0.6-0.3,1.2-0.5,1.8c-1.6-1.3-3.2-2.6-4.8-4c-2.2-2-4.6-3.1-7.7-1.9c5.2,0.9,7.8,5.3,11.5,8.1
	c-0.4,0.6-0.8,1.2-1.3,1.8c-1.4-3.8-7-7.2-10.8-6.6c0.1,0.3,0,0.7,0.2,0.8c2.9,2.1,5.9,4.1,8.9,6.1c0.4,0.2,1.1-0.2,1.7-0.3
	c0,1.3,0,2.6,0,3.8c-1.8-1.4-3.6-2.7-5.3-4.2c-2.5-2.1-3.9-2.4-6.2-1.6c3.4,2.5,6.9,5.2,10.5,7.9c-0.1,1.6-0.1,3.1-0.3,4.7
	c-0.3,2.1-1.1,4.3-0.9,6.4c0.2,2.1-1,3.3-2.3,3.5c-2.6,0.4-2.5,1.8-2.3,3.6c0,0.4,0,0.8,0,1.2c-0.1,0.2-0.1,0.3-0.2,0.5
	c0,0,0.1,0.1,0.1,0.1c-0.4,0-0.8,0-1.2,0c-0.7-0.2-1.4-0.4-2.2-0.6c0-0.4,0.1-0.7,0.1-1.1c0.1-0.2,0.2-0.4,0.3-0.6
	c0-1.1,0-2.3,0-3.5c0-0.4,0.1-0.7,0.1-1.1c0.2-0.1,0.5-0.2,0.7-0.3c-0.2-0.1-0.5-0.2-0.7-0.3c-0.3-0.8-0.6-1.5-0.9-2.3
	c-0.3,0.7-0.5,1.5-0.8,2.2c-0.1,0.1,0.1,0.4,0.1,0.6c-0.3,0.2-0.6,0.5-0.8,0.7c-0.3,0.2-0.7,0.3-1,0.5c-0.1-1.5-0.1-3-0.2-4.5
	c0.1-0.2,0.1-0.3,0.1-0.5l0-0.6c0.4-2.3,0.8-4.6,1.2-6.9h4.2c-0.5-0.6-0.9-1.2-1.3-1.8c-0.1-0.9-0.1-1.9-0.2-2.6
	c-0.8,0.2-1.5,0.3-2.2,0.5c-0.7-0.1-1.4-0.1-2.1-0.2l0.1,0c-0.5,0-1,0-1.5,0c0.1,0.4,0.1,0.8,0.2,1.2c-0.8-0.2-1.5-0.4-2.3-0.6
	c0-0.1-0.1-0.2-0.1-0.4c-0.3-1.4-0.7-2.7-1-4.1c1.2-0.3,2.3-0.6,3.4-0.9c0-0.2,0-0.4-0.1-0.6c-0.9-0.1-1.9-0.2-2.8-0.2
	c-0.1-0.5-0.1-1.1-0.2-1.6c1.4-3.5,2.8-7,4.2-10.5c0.2-1.5,0.1-3.3,2.5-3.4c4.5-0.1,8.7,0.5,12.7,3.2
	C87.4,112.3,88.6,113.9,87.8,116.6L87.8,116.6z M76.9,132.2c-0.2-0.1-0.3-0.1-0.4-0.2C76.6,132,76.7,132.1,76.9,132.2
	c0.5,0.1,0.9,0.3,1.3,0.5c0-0.3,0.1-0.5,0.1-0.8C77.8,132,77.3,132.1,76.9,132.2L76.9,132.2z"/>
<path class="st23" d="M87.8,116.6c0.9-2.8-0.3-4.4-2.7-6c-3.9-2.6-8.1-3.3-12.7-3.2c-2.4,0.1-2.2,1.8-2.5,3.4c-2-1.1-4.1-2.2-6-3.5
	c-0.5-0.3-1.1-1.4-0.9-1.8c0.3-0.7,1.1-1.3,1.8-1.5c1.4-0.4,2.9-0.5,4.4-0.7c3.1,0.5,6.2,1.1,9.2,1.6c3.3,1.4,6.7,2.7,10,4.1
	c0.5,0.2,1,0.4,1.5,0.6c1.1,0.8,2.2,1.6,3.3,2.4c0.2,1.1,0.5,2.3,0.7,3.4c-0.2,0.4-0.4,0.8-0.7,1.1
	C91.5,116.6,89.7,116.6,87.8,116.6L87.8,116.6z"/>
<path class="st15" d="M64.3,127c0-1.9,0-3.8-0.1-5.7c0.2,0,0.4,0,0.6,0c0,0.9,0.1,1.9,0.1,2.8c0,1,0,1.9-0.1,2.9
	C64.7,127,64.5,127,64.3,127L64.3,127z"/>
<path class="st12" d="M64.9,124.1c0-0.9-0.1-1.9-0.1-2.8c0.2,0,0.5,0,0.7,0c0,0.6,0,1.2,0,1.8c-0.1,0.3-0.1,0.7-0.2,1.1
	C65.2,124.1,65,124.1,64.9,124.1L64.9,124.1z"/>
<path class="st15" d="M60.9,118.9c0-0.9,0-1.8-0.1-2.8c0.2,0.8,0.4,1.5,0.6,2.2c-0.1,0.2-0.1,0.3-0.2,0.5
	C61.1,118.9,61,118.9,60.9,118.9z"/>
<path class="st15" d="M65.5,123c0-0.6,0-1.2,0-1.8c0.1,0,0.2,0,0.3,0c0.1,0.5,0.1,1.1,0.2,1.6C65.9,123,65.7,123,65.5,123L65.5,123z
	"/>
<path class="st15" d="M68.3,86.8c0.1,0.1,0.2,0.2,0.3,0.3C68.4,86.9,68.3,86.9,68.3,86.8L68.3,86.8z"/>
<path class="st15" d="M102,115.4c0.2-0.6,0.5-1.1,0.7-1.7c0.3,0.4,0.6,0.7,1,1.1C103.2,115,102.6,115.2,102,115.4L102,115.4z"/>
<path class="st7" d="M102.6,113.8c-0.3-0.2-0.5-0.4-0.8-0.6c0.3-0.2,0.6-0.4,0.8-0.6C102.6,113,102.6,113.4,102.6,113.8L102.6,113.8
	z"/>
<path class="st12" d="M115.9,106.3l0.1,0.1l-0.1,0.1c0,0.4,0,0.8,0.1,1.2l0.1,0.2c-0.5,0.2-1,0.5-1.5,0.7l-0.1,0c-0.3,0-0.6,0-0.9,0
	l0,0c0.2-0.6,0.4-1.3,0.6-1.9c0.1-0.2,0.2-0.4,0.3-0.6C114.9,106.3,115.4,106.3,115.9,106.3L115.9,106.3z"/>
<path class="st14" d="M114.6,108.7c0.5-0.2,1-0.5,1.5-0.7c-0.1,0.3-0.1,0.6-0.2,0.9C115.5,108.8,115,108.8,114.6,108.7L114.6,108.7z
	"/>
<path class="st14" d="M113.6,108.6c0.3,0,0.6,0,0.9,0C114.2,108.6,113.9,108.6,113.6,108.6z"/>
<path class="st19" d="M50.5,119.5c-1.4,1.1-2.3,3.1-4.6,2.8c2.9-1.9,2.9-4.8,2.9-7.9c0-3.9,0.2-7.8,0.6-11.6
	c0.1-0.6,1.5-1.1,2.3-1.6c0,0.6-0.1,1.1-0.1,1.7c-0.2,0.4-0.3,0.8-0.5,1.2c0,0.2,0,0.4-0.1,0.6c-0.2,1.3-0.3,2.7-0.5,4
	c0,0.9,0,1.9,0,2.8C49.8,114.1,48.6,116.8,50.5,119.5L50.5,119.5z"/>
<path class="st12" d="M46.5,107.5c0-0.2,0-0.4,0-0.6C46.5,107.1,46.5,107.3,46.5,107.5z"/>
<path class="st15" d="M50.5,119.5c-1.9-2.7-0.7-5.3,0-8c0.6-0.6,1.4-1.1,1.6-1.8c0.7-2,1.2-4.1,1.7-6.2c-0.2,4.2-0.3,8.3-0.5,12.5
	c-2.6-0.1-1.5,2.4-2.4,3.5C50.8,119.5,50.6,119.5,50.5,119.5L50.5,119.5z"/>
<path class="st12" d="M58.4,118.4c-0.1,0.2-0.3,0.4-0.4,0.6c-1.4,0-2.8,0-4.2,0c-0.1-0.2-0.3-0.4-0.4-0.6
	C55.1,118.4,56.8,118.4,58.4,118.4L58.4,118.4z"/>
<path class="st15" d="M50.5,108.6c0.2-1.3,0.3-2.7,0.5-4C50.8,105.9,50.7,107.3,50.5,108.6z"/>
<path class="st15" d="M51.1,104c0.2-0.4,0.3-0.8,0.5-1.2C51.4,103.2,51.2,103.6,51.1,104z"/>
<path class="st15" d="M100.8,118.4c-1.4,0-2.9-0.1-4.4-0.1c1.5-0.2,2.9-0.3,4.4-0.4C100.9,118,100.9,118.2,100.8,118.4z"/>
<path class="st19" d="M70.5,140.8c0.1,1.5,0.1,3,0.2,4.5c-0.4,2.9-0.7,5.7-1.3,8.6c-0.2,1.1-1.1,2-1.7,3c0.4-5.6,0.8-11.1,1.2-16.7
	C69.4,140.4,70,140.6,70.5,140.8z"/>
<path class="st14" d="M73.9,145.3c0,1.1,0,2.3,0,3.5c-0.1,0.2-0.2,0.4-0.3,0.6c0,0.4-0.1,0.7-0.1,1.1c0.2,0.4,0.3,0.8,0.5,1.2
	c0.7,0.1,1.4,0.3,2.1,0.5l0.1,0.1c-2.7,0.9-3.2,0.6-3.4-2c-0.2-1.7-0.7-3.4-1.1-5c0.5,0,0.9,0.1,1.4,0.1
	C73.4,145.3,73.7,145.3,73.9,145.3L73.9,145.3z"/>
<path class="st9" d="M81.1,166.1c-1.9,3.7-4.3,0.7-6.1,1.7c-0.1-0.3-0.1-0.6-0.1-0.9C76.7,166.7,78.6,166.5,81.1,166.1L81.1,166.1z"
	/>
<path class="st14" d="M75.7,151.1c0.4,0,0.8,0,1.2,0c-0.2,0.4-0.4,0.8-0.6,1.2l-0.1-0.1c-0.1-0.2-0.3-0.4-0.4-0.5
	C75.8,151.4,75.8,151.3,75.7,151.1L75.7,151.1z"/>
<path class="st1" d="M73.2,145.3c-0.5,0-0.9,0-1.4-0.1c0-0.1-0.1-0.3-0.1-0.4c0.3-0.2,0.6-0.5,0.8-0.7
	C72.7,144.5,72.9,144.9,73.2,145.3z"/>
<path class="st9" d="M87.2,151.8c0.2,0.1,0.4,0.3,0.6,0.5C87.6,152.1,87.4,152,87.2,151.8z"/>
<path class="st20" d="M76.8,151.1c0.1-0.2,0.1-0.3,0.2-0.5C76.9,150.7,76.9,150.9,76.8,151.1z"/>
<path class="st14" d="M116,107.8c0-0.4,0-0.8-0.1-1.2c0.2,0.3,0.4,0.6,0.7,0.9C116.4,107.5,116.2,107.7,116,107.8L116,107.8z"/>
<path class="st19" d="M64.3,127c0.2,0,0.4,0,0.5,0c0.2,0.6,0.4,1.1,0.6,1.7c-0.4,0.2-0.8,0.4-1.1,0.6
	C64.3,128.5,64.3,127.8,64.3,127L64.3,127z"/>
<path class="st14" d="M60.9,118.9c0.1,0,0.2,0,0.3,0c-0.1,0.8-0.3,1.6-0.4,2.3C60.9,120.4,60.9,119.7,60.9,118.9L60.9,118.9z"/>
<path class="st12" d="M70.5,140.8c-0.5-0.2-1.1-0.4-1.6-0.6c-0.6-2.7-1.3-5.5-1.9-8.2c-0.2-0.9-0.3-1.9-0.4-2.8
	c0.8,0.2,1.5,0.4,2.3,0.6c1,1,1.9,1.9,2.9,2.9c-0.4,2.3-0.8,4.6-1.2,6.9c0,0.2,0,0.4,0,0.6C70.6,140.4,70.6,140.6,70.5,140.8
	L70.5,140.8z"/>
<path class="st14" d="M65.4,128.7c-0.2-0.6-0.4-1.1-0.6-1.7c0-1,0-1.9,0.1-2.9c0.2,0,0.3,0,0.5,0c0,0.2,0.1,0.4,0.1,0.6
	c0.3,1.4,0.7,2.7,1,4.1C66.1,128.8,65.8,128.7,65.4,128.7L65.4,128.7z"/>
<path class="st3" d="M101.6,150.8c0.2,0.3,0.4,0.6,0.6,0.9C102,151.4,101.8,151.1,101.6,150.8z"/>
<path class="st14" d="M100.4,121.9c0.8,0,1.5,0,2.3,0c-0.8,0.2-1.6,0.3-2.3,0.5l0,0C100.4,122.2,100.4,122,100.4,121.9L100.4,121.9z
	"/>
<path class="st5" d="M96.4,120.1c1.3,0,2.7,0,4.1,0.1C99.1,120.1,97.7,120.1,96.4,120.1z"/>
<path class="st18" d="M100.4,121.9c0,0.2-0.1,0.3-0.1,0.5c-0.3,0-0.7-0.1-1-0.1C99.7,122.1,100.1,122,100.4,121.9z"/>
<path class="st26" d="M86.5,119.5c-3.8-2.9-7.6-5.8-11.5-8.8c1.4-0.7,3.1-0.9,4.9,0.6c2.3,2,4.8,3.9,7.2,5.9
	C86.9,118,86.7,118.7,86.5,119.5L86.5,119.5z"/>
<path class="st26" d="M82.8,131.2c-3.6-2.7-7.1-5.3-10.5-7.9c2.4-0.9,3.8-0.6,6.2,1.6c1.7,1.5,3.5,2.8,5.3,4.2
	C83.5,129.8,83.1,130.5,82.8,131.2L82.8,131.2z"/>
<path class="st26" d="M85,123.5c-3.7-2.8-6.3-7.2-11.5-8.1c3.2-1.2,5.5-0.1,7.7,1.9c1.5,1.4,3.2,2.7,4.8,4
	C85.7,122,85.3,122.8,85,123.5L85,123.5z"/>
<path class="st24" d="M84.3,143.1c0.2,0.8,0.4,1.5,0.6,2.3c0.1,0.3,0.1,0.7,0.2,1c0.1,0.4,0.3,0.8,0.4,1.2c1,0.7,1.9,1.4,2.2-0.6
	c0.1-0.2,0.1-0.4,0.1-0.5c0.4-0.6,0.7-1.2,1.1-1.9c0,1.6,0.6,3.9-0.2,4.8c-1.7,1.9-4.1,0.3-6.1-0.2c0-1.3-0.2-2.7,0.1-4
	C82.8,144.5,83.7,143.9,84.3,143.1L84.3,143.1z"/>
<path class="st7" d="M78.3,147.9c0.9-0.2,1.9-0.4,2.8-0.6c0.1,0.3,0.1,0.6,0.2,0.9c-0.9,0.2-1.9,0.4-2.8,0.5
	C78.4,148.5,78.3,148.2,78.3,147.9L78.3,147.9z"/>
<path class="st22" d="M88.9,144.7c-0.4,0.6-0.7,1.2-1.1,1.9c-0.4,0-0.8,0-1.2,0c-0.4,0-0.8,0-1.1,0c-0.2-0.1-0.3-0.1-0.5-0.1
	c-0.1-0.3-0.1-0.7-0.2-1c3,0.7,2.7-2,3.5-3.5C88.5,142.8,88.7,143.8,88.9,144.7L88.9,144.7z"/>
<path class="st26" d="M83.8,125.2c-0.6,0.1-1.3,0.5-1.7,0.3c-3-1.9-6-4-8.9-6.1c-0.2-0.1-0.1-0.5-0.2-0.8
	C76.7,118,82.3,121.5,83.8,125.2C83.7,125.3,83.8,125.2,83.8,125.2z"/>
<path class="st22" d="M71.8,132.7c-1-1-1.9-1.9-2.9-2.9c-0.1-0.4-0.1-0.8-0.2-1.2c0.5,0,1,0,1.5,0c0,0.1-0.1,0.2-0.1,0.2
	c0,0.1,0.1,0.1,0.1,0.2c0-0.1-0.1-0.3-0.1-0.4c0.7,0.1,1.4,0.1,2.1,0.2c0.2,0.6,0.4,1.1,0.7,1.6c-0.5-0.1-1-0.2-1.5-0.3
	c0.1,0.3,0.2,0.6,0.3,0.9c0.4-0.2,0.8-0.4,1.2-0.6l1.8,0.5c0.4,0.6,0.8,1.1,1.3,1.8L71.8,132.7L71.8,132.7z"/>
<path class="st26" d="M73.2,145.3c-0.2-0.4-0.4-0.8-0.6-1.2c0-0.2-0.2-0.4-0.1-0.6c0.2-0.8,0.5-1.5,0.8-2.2c0.3,0.8,0.6,1.5,0.9,2.3
	c0,0.2,0,0.4,0,0.6c0,0.4-0.1,0.7-0.1,1.1C73.7,145.3,73.4,145.3,73.2,145.3L73.2,145.3z"/>
<path class="st26" d="M65.4,124.7c0-0.2-0.1-0.4-0.1-0.6c0.1-0.3,0.1-0.7,0.2-1.1c0.2,0,0.3-0.1,0.5-0.1c0.9,0.1,1.9,0.2,2.8,0.2
	c0,0.2,0,0.4,0.1,0.6C67.7,124.1,66.6,124.4,65.4,124.7z"/>
<path class="st20" d="M72.9,130.4c-0.2-0.6-0.4-1.1-0.7-1.6c0.7-0.1,1.4-0.3,2.2-0.5c0.1,0.8,0.1,1.7,0.2,2.6
	C74,130.8,73.5,130.6,72.9,130.4L72.9,130.4L72.9,130.4z"/>
<path class="st20" d="M75.7,151.1c0,0.2,0,0.4,0,0.5c-0.6,0-1.1,0.1-1.7,0.1c-0.2-0.4-0.3-0.8-0.5-1.2
	C74.3,150.7,75,150.9,75.7,151.1L75.7,151.1z"/>
<path class="st22" d="M76.9,132.2c0.5-0.1,0.9-0.2,1.4-0.3c0,0.3-0.1,0.5-0.1,0.8C77.8,132.5,77.3,132.3,76.9,132.2L76.9,132.2
	L76.9,132.2z"/>
<path class="st20" d="M74.1,144.2c0-0.2,0-0.4,0-0.6c0.2,0.1,0.5,0.2,0.7,0.3C74.5,144.1,74.3,144.1,74.1,144.2z"/>
<path class="st20" d="M73.6,149.4c0.1-0.2,0.2-0.4,0.3-0.6C73.8,149,73.7,149.2,73.6,149.4z"/>
<path class="st14" d="M76.9,132.1c-0.2-0.1-0.3-0.1-0.5-0.2C76.6,132,76.7,132.1,76.9,132.1L76.9,132.1L76.9,132.1z"/>
<path class="st1" d="M70.6,140.2c0-0.2,0-0.4,0-0.6C70.6,139.8,70.6,140,70.6,140.2z"/>
<path class="st20" d="M70.2,128.6c0,0.1,0.1,0.3,0.1,0.4c-0.1-0.1-0.1-0.1-0.1-0.2C70.1,128.8,70.2,128.7,70.2,128.6L70.2,128.6
	L70.2,128.6z"/>
<path class="st24" d="M74,151.7c0.6,0,1.1-0.1,1.7-0.1c0.1,0.2,0.3,0.4,0.4,0.5C75.5,152,74.8,151.8,74,151.7L74,151.7z"/>
<path class="st12" d="M85.5,146.6c0.4,0,0.8,0,1.1,0c0.3,0.2,0.7,0.4,1,0.5c-0.3,2-1.2,1.3-2.2,0.6
	C85.5,147.3,85.5,146.9,85.5,146.6z"/>
<path class="st15" d="M85.5,146.6c0,0.4,0,0.7-0.1,1.1c-0.1-0.4-0.3-0.8-0.4-1.2C85.2,146.4,85.4,146.5,85.5,146.6z"/>
<path class="st15" d="M87.7,147.1c-0.3-0.2-0.7-0.4-1-0.5c0.4,0,0.8,0,1.2,0C87.8,146.7,87.7,146.9,87.7,147.1z"/>
<path class="st14" d="M72.9,130.4c-0.2,0.1-0.4,0.2-0.6,0.3s-0.4,0.2-0.6,0.3c-0.1-0.1-0.1-0.3-0.2-0.4s-0.1-0.3-0.2-0.4
	c0.2,0.1,0.5,0.1,0.7,0.2S72.6,130.4,72.9,130.4L72.9,130.4L72.9,130.4L72.9,130.4z"/>
<circle id="_Path_" cx="71.1" cy="54.3" r="0.7"/>
<circle id="_Path_-2" cx="84.3" cy="55.7" r="0.7"/>
<line class="st27" x1="76.6" y1="50.9" x2="69.1" y2="46.5"/>
<line class="st27" x1="81" y1="50.6" x2="88" y2="47.3"/>
<g class="speaker">
	<path class="st28" d="M57.3,156.9c-2.3-0.2-4.6-0.4-6.9-0.6c0.5-0.4,1-0.9,1.5-1.2c7.6-5.9,8.5-19.6-1.4-23.6
		c-0.3-0.6-0.9-1.2-0.8-1.7c0.5-2.3,1.3-4.6,1.9-6.9l1.1,0.2c1.9,0.2,3.8,0.5,5.6,0.4c1.9-0.1,2.6,0.6,2.5,2.5
		c-0.4,4.5-0.8,9.1-1,13.6c-0.2,3,0,5.9,0,8.9c0.2,0,0.4,0,0.6,0.1c0.2-0.7,0.5-1.3,0.7-2.1c0.2,2.1,0.5,3.9,0.7,5.8
		c-0.1,0.2-0.3,0.4-0.4,0.6c-0.6-1-1.3-2.1-1.8-2.9C58.9,152.2,58.1,154.6,57.3,156.9L57.3,156.9z"/>
	<path class="st24" d="M44.2,152.7c-0.2-0.2-0.4-0.3-0.7-0.5c2.7-2.1,4.1-4.6,2.5-8.1c-0.1-0.1,1.3-1.1,2-1.3c0.4-0.1,1,0.5,2.2,1.2
		c-0.4-1.7-0.6-2.7-0.8-3.8c-0.4-1-0.8-1.9-1.2-2.9c-1.7-2.1-3.5-2.1-5.5-0.4c-1,0.8-1.7,1.9-2.6,2.8c-0.4-1.2-0.8-2.3-1.2-3.5
		c0.9-0.4,1.9-0.8,2.8-1.2c0.6-0.4,1.1-0.8,1.7-1.2c2,0.4,4,0.7,6,1.2c2.7,0.6,4.3,2.7,4.3,5.5c0,1.8,0,3.6,0,5.4
		c-0.8-0.3-1.7-0.5-2.1-0.6c-1.5,2.6-2.9,5-4.3,7.5l0,0c-0.2-0.1-0.3,0-0.5,0.1C46.1,152.8,45.1,152.8,44.2,152.7L44.2,152.7z"/>
	<path class="st13" d="M53.9,145.9c0-1.8,0-3.6,0-5.4c0-2.8-1.6-4.9-4.3-5.5c-2-0.4-4-0.8-6-1.2c2.3-0.8,4.6-1.5,6.9-2.3
		c9.9,3.9,9.1,17.6,1.4,23.6c-0.5,0.4-1,0.8-1.5,1.2c-0.2,0-0.4-0.1-0.6-0.1c0.4-1.6,0.8-3.2,1.1-4.8c0.1-0.2,0.2-0.3,0.3-0.3
		c0.3-0.3,0.5-0.6,0.8-0.8C52.7,148.8,53.3,147.4,53.9,145.9L53.9,145.9z"/>
	<path class="st3" d="M44.2,141.3c-0.8,0.7-1.5,1.4-2.3,2.2c-3.3-0.1-0.9-2.7-1.7-3.8c0.9-0.9,1.7-2,2.6-2.8
		c1.9-1.7,3.8-1.7,5.5,0.4l0,0C44.5,137.4,44.1,137.8,44.2,141.3L44.2,141.3z"/>
	<path class="st3" d="M51,151.4c-0.4,1.6-0.8,3.2-1.1,4.8c-4.1,0.2-5.4-0.5-5.7-3.5c1,0,1.9,0.1,2.9,0.1c0.1,0.1,0.2,0.3,0.3,0.4
		c0.1-0.1,0.1-0.3,0.2-0.4l0,0C48.7,152.3,49.9,151.9,51,151.4L51,151.4z"/>
	<path class="st24" d="M42.5,144.1c1.4,0.4,2.5,0.9,2.3,2.7c-0.2,1.3,0.5,3-1.7,3.3C42.9,148.1,42.7,146.1,42.5,144.1z"/>
	<path class="st25" d="M61.5,118.4c0.9,1,1.8,1.9,2.8,2.9c0,1.9,0,3.8,0.1,5.7c0,0.8,0,1.5,0,2.3c-0.2,2.5-0.5,4.9-0.7,7.4
		c-0.2,2.5-0.4,5-0.6,7.5c-0.4,2.7-0.8,5.4-1.2,8c-0.2-1.9-0.5-3.7-0.7-5.8c-0.3,0.8-0.5,1.4-0.7,2.1c-0.2,0-0.4,0-0.6-0.1
		c0-3-0.1-5.9,0-8.9c0.2-4.5,0.6-9.1,1-13.6c0.2-1.9-0.6-2.5-2.5-2.5c-1.9,0.1-3.7-0.2-5.6-0.4c1.9,0,3.8,0.1,5.7-0.2
		c0.9-0.1,1.6-1.1,2.4-1.7c0.1-0.8,0.3-1.6,0.4-2.3C61.3,118.7,61.4,118.5,61.5,118.4L61.5,118.4z"/>
	<path class="st25" d="M41.9,135c-0.8-2.3-0.8-4.3,1.7-5.8c1.2-0.7,2-2.2,3-3.4c0-0.8,0-1.5,0-2.3c-0.2-0.3-0.4-0.7-0.7-1
		c-0.1-0.1-0.1-0.2,0-0.3c2.2,0.2,3.2-1.7,4.6-2.8c0.2,0,0.3,0.1,0.5,0.1c0.2,1.1,0.5,2.3,0.7,3.4c-0.7,2.3-1.4,4.6-1.9,6.9
		c-0.1,0.5,0.5,1.1,0.8,1.7c-2.3,0.8-4.6,1.5-6.9,2.3C43,134.2,42.5,134.6,41.9,135z"/>
	<path class="st24" d="M51.6,122.9c-0.2-1.1-0.5-2.3-0.7-3.4c1-1.1-0.2-3.6,2.4-3.5c0,0.8,0.1,1.6,0.1,2.4c0.1,0.2,0.3,0.4,0.4,0.6
		c1.4,1.8,2.8,1.7,4.2,0c0.1-0.2,0.3-0.4,0.4-0.6c0.2-1,0.5-1.9,0.7-2.9c0.6,0.2,1.1,0.4,1.7,0.6h0.1c0,0.9,0,1.8,0.1,2.8
		c0,0.8,0,1.5,0,2.3c-0.8,0.6-1.5,1.6-2.4,1.7c-1.9,0.3-3.8,0.2-5.7,0.2C52.4,123,52,123,51.6,122.9L51.6,122.9z"/>
	<path class="st20" d="M48.2,137.3c0.1,0.8,0.2,1.5,0.2,2.3c-1.4,0.6-2.8,1.1-4.3,1.7C44.1,137.8,44.5,137.4,48.2,137.3L48.2,137.3z
		"/>
	<path class="st25" d="M53.9,119c1.4,0,2.8,0,4.2,0C56.6,120.7,55.2,120.8,53.9,119z"/>
	<path class="st13" d="M49.4,140.2c0.2,1,0.4,2.1,0.8,3.8c-1.2-0.7-1.8-1.3-2.2-1.2c-0.8,0.2-2.1,1.2-2,1.3c1.6,3.5,0.2,6-2.5,8.1
		c-0.2-0.7-0.3-1.4-0.5-2.2c2.2-0.3,1.5-2,1.7-3.3c0.2-1.8-0.9-2.3-2.3-2.7c-0.2-0.2-0.4-0.4-0.6-0.6c0.8-0.7,1.5-1.4,2.3-2.2
		c1.4-0.6,2.8-1.1,4.3-1.7C48.8,139.8,49.1,140,49.4,140.2L49.4,140.2z"/>
	<path class="st25" d="M61.4,152.9c-0.4,2.5-0.7,5-1.1,7.4c-1-1.1-2-2.3-3-3.4c0.8-2.3,1.5-4.7,2.3-6.9
		C60.1,150.8,60.8,151.8,61.4,152.9L61.4,152.9z"/>
	<path class="st20" d="M51,151.4c-1.2,0.4-2.3,0.9-3.5,1.4c1.4-2.5,2.8-4.9,4.3-7.5c0.4,0.1,1.2,0.4,2.1,0.6
		c-0.6,1.4-1.1,2.9-1.7,4.4c-0.3,0.3-0.5,0.6-0.8,0.8C51.2,151.1,51.1,151.2,51,151.4z"/>
	<path class="st3" d="M49.4,140.2c-0.3-0.2-0.6-0.4-1-0.6c-0.1-0.8-0.2-1.5-0.2-2.3l0,0C48.6,138.3,49,139.2,49.4,140.2L49.4,140.2z
		"/>
	<path class="st20" d="M47.5,152.8c-0.1,0.1-0.1,0.3-0.2,0.4c-0.1-0.1-0.2-0.3-0.3-0.4C47.2,152.7,47.4,152.7,47.5,152.8L47.5,152.8
		z"/>
	<path class="st3" d="M51.4,151.1c0.3-0.3,0.5-0.6,0.8-0.8C51.9,150.6,51.6,150.8,51.4,151.1z"/>
	<path class="st15" d="M46.6,123.6c0,0.8,0,1.5,0,2.3C46.6,125.1,46.6,124.3,46.6,123.6z"/>
</g>
<g class="speaker">
	<path class="st28" d="M106.7,159.6c-0.2,0.1-0.4,0.1-0.6,0.1c-2.3,0.4-4.7,0.7-7,1c-1.7,0.3-2.7-0.1-2.8-2.1
		c-0.5-5.2-1.2-10.4-1.7-15.7c-0.3-3.1-0.6-6.2-0.8-9.3c-0.6,0.1-1.2,0.3-2.4,0.6c0.6-3.5,1-6.5,1.5-9.5c0.2,0.9,0.4,1.9,0.6,2.9
		c0.1,0,0.2,0.1,0.2,0.1c0.1,0,0.2-0.1,0.2-0.1c-0.1-1.3-0.2-2.7-0.4-4c-0.1-0.4-0.1-0.8-0.1-1.1c0.2,0,0.4,0,0.7-0.1
		c0.2,0.1,0.4,0.1,0.6,0.2c0.2,0.1,0.4,0.3,0.6,0.4c1.7,0,3.3,0,5,0c1.1,0.1,2.2,0.1,3,0.2c0.1,1.7-0.1,3.2,0.3,4.4
		c0.4,1.4,1.3,2.6,1.9,4c-0.8,0.2-1.5,0.4-2.3,0.6c-1,0.5-2.1,0.8-2.9,1.6c-4.2,4-4.6,9-2.9,14.2c1,3.3,2.4,6.4,5.8,7.9
		c0.8,0.4,1.6,0.9,2.3,1.3C106,157.9,106.4,158.8,106.7,159.6L106.7,159.6z"/>
	<path class="st25" d="M92.9,124.7c-0.5,3-1,6.1-1.5,9.5c1.2-0.3,1.8-0.4,2.4-0.6c0.3,3.1,0.5,6.2,0.8,9.3
		c0.6,5.2,1.2,10.4,1.7,15.7c0.2,2,1.2,2.4,2.8,2.1c2.3-0.4,4.7-0.7,7-1c-0.6,1.5-1.1,3.1-1.7,4.6c-0.8,0.2-1.6,0.4-2.4,0.6
		c-0.6,0.2-1.1,0.4-1.7,0.6c-2.5-0.2-4.9-0.4-7.4-0.6l0,0c-0.2-0.8-0.4-1.6-0.6-2.3c-0.2-3.1-0.4-6.1-0.5-9.2c-0.2-6-0.4-12-0.6-18
		c0-0.5-0.3-1-0.5-1.5c0-0.2-0.1-0.3-0.1-0.5c-0.2-1.1-0.3-2.3-0.5-3.5c0.2-2.5,0.5-4.9,0.6-7.4c0.1-1.9,0.6-3.6,2.8-4.2
		c0.2,1.3,0.4,2.7,0.7,4c-0.2,0-0.4,0-0.7,0.1C93.2,123.2,93.1,123.9,92.9,124.7L92.9,124.7z M92.5,140.8c0.1,0,0.2,0,0.3,0v-2.9
		c-0.1,0-0.2,0-0.3,0V140.8z"/>
	<path class="st24" d="M113.6,136.7c1.9,4.9,2.7,9.9,0.6,15c-0.2,0.4-0.5,0.7-0.7,1.1c-0.7,0.2-1.4,0.5-2.1,0.7
		c-1.5-0.1-3.1-0.2-4.6-0.3c-1-1.8-2.4-3.5-2.8-5.4c-0.6-2.8-1.8-2.6-3.8-1.7c-0.6-3.7-1.5-7.6,2.2-10.3c1.5-1.1,3.7-1.3,5.6-1.9
		c0.6,0,1.1-0.1,1.6-0.1c0.2,0,0.4,0,0.6,0.1C111.3,134.8,112.4,135.8,113.6,136.7L113.6,136.7z M114,146.4c0-0.9,0-1.8,0-2.6
		c-0.1-0.4-0.2-0.8-0.3-1.2c-0.4-0.8-0.9-1.5-1.4-2.3c-0.7-1-1.4-1.9-2.1-2.9c-1.5-1.9-3.2-1.7-4.3,0.1c-0.7,1.1-0.7,2.6-1.1,3.9
		c-1.2,2.9-0.6,5.6,1.5,7.9c0.2,0.2,0.3,0.3,0.5,0.5c1,1.5,2.3,3,4,1.7c1.3-1,1.9-2.8,2.8-4.3C113.8,146.8,113.9,146.6,114,146.4
		L114,146.4z"/>
	<path class="st13" d="M107.9,133.9c-1.9,0.6-4.1,0.8-5.6,2c-3.6,2.7-2.8,6.6-2.2,10.3c0.4,1.6,0.9,3.1,1.3,4.6
		c0.2,0.3,0.4,0.6,0.6,0.9v-0.1c0.4,1.4,0.7,2.8,1.1,4.1c-3.4-1.5-4.8-4.6-5.8-7.9c-1.6-5.2-1.2-10.2,2.9-14.2
		c0.8-0.7,1.9-1.1,2.9-1.6c1.5,0.2,3.1,0.4,4.6,0.6h0C107.9,133.2,107.9,133.6,107.9,133.9L107.9,133.9z"/>
	<path class="st3" d="M103.2,155.8c-0.4-1.4-0.7-2.8-1.1-4.1c1.6,0.5,3.1,1.1,4.6,1.6c1.5,0.1,3.1,0.2,4.6,0.3
		c-0.6,1.9-1.6,3.1-3.8,2.9c-0.7-0.1-1.4,0.4-2.1,0.7C104.8,156.6,104,156.2,103.2,155.8L103.2,155.8z"/>
	<path class="st13" d="M112.4,140.2c0.4,0.8,0.9,1.5,1.4,2.3c-0.2,0-0.4,0-0.6,0c-0.3,0.2-0.5,0.4-0.8,0.6c-0.7,0.9-1.5,1.9-2.2,2.8
		c0.6,1.9,1.1,0.9,1.7,0c0.2,0,0.3-0.1,0.4-0.1c0.2,0.2,0.4,0.4,0.7,0.6c0.2,0.2,0.5,0.4,0.8,0.6c-0.9,1.5-1.5,3.3-2.8,4.3
		c-1.7,1.3-3.1-0.1-4-1.7c0.2-0.1,0.3-0.2,0.4-0.4c0.7,0,1.4-0.1,2.2-0.1c-0.3-1.4-0.5-2.6-0.8-4.1c-1.2,1.1-3.3,1.3-1.8,3.5
		c-0.2,0.2-0.3,0.4-0.5,0.5c-2.1-2.3-2.7-4.9-1.5-7.9c0.8,0.2,1.7,0.4,2.5,0.6C109.1,141.3,110.7,140.8,112.4,140.2L112.4,140.2z"/>
	<path class="st20" d="M106.8,153.2c-1.6-0.5-3.1-1.1-4.6-1.6v0.1c-0.2-0.3-0.4-0.6-0.6-0.9c-0.4-1.6-0.9-3.1-1.3-4.6
		c1.9-0.9,3.2-1.1,3.8,1.7C104.4,149.8,105.8,151.4,106.8,153.2L106.8,153.2z"/>
	<path class="st20" d="M112.4,140.2c-1.7,0.6-3.3,1.1-5,1.7c-0.8-2.6,0.1-4.2,2.9-4.6C111,138.3,111.7,139.3,112.4,140.2z"/>
	<path class="st3" d="M110.3,137.3c-2.8,0.4-3.7,2-2.9,4.6c-0.8-0.2-1.7-0.4-2.5-0.6c0.3-1.3,0.3-2.9,1.1-3.9
		C107.1,135.7,108.8,135.5,110.3,137.3z"/>
	<path class="st28" d="M106.7,127c-0.1,0.5-0.2,1-0.5,2.3c-0.8-2.1-1.4-3.4-1.9-4.7c0.2-0.1,0.4-0.2,0.6-0.3
		c0.4,0.3,0.8,0.6,1.2,0.9C106.3,125.9,106.5,126.4,106.7,127L106.7,127z"/>
	<path class="st24" d="M107.3,149.3c-0.2-0.2-0.3-0.4-0.5-0.7c-1.5-2.2,0.7-2.4,1.8-3.5c0.3,1.5,0.5,2.6,0.8,4.1
		C108.7,149.2,108,149.3,107.3,149.3L107.3,149.3z"/>
	<path class="st14" d="M112.3,145.9c-0.2,0-0.3,0-0.4,0.1c-0.6,0-1.1,0-1.7,0c0.7-0.9,1.5-1.9,2.2-2.8
		C112.3,144.1,112.3,145,112.3,145.9L112.3,145.9z"/>
	<path class="st3" d="M112.3,145.9c0-0.9,0-1.8,0-2.7c0.3-0.2,0.5-0.4,0.8-0.6c-0.1,1.3-0.1,2.7-0.2,4
		C112.8,146.3,112.5,146.1,112.3,145.9L112.3,145.9z"/>
	<path class="st25" d="M103.2,119.1c0.2-0.1,0.4-0.1,0.6-0.2c0.9,1.5,1.8,3.1,2.7,4.6c-0.1,0.6-0.2,1.2-0.3,1.8
		c-0.4-0.3-0.8-0.6-1.2-0.9c-0.2,0.1-0.4,0.2-0.6,0.3c0.5,1.3,1,2.6,1.9,4.7c0.3-1.4,0.4-1.9,0.5-2.3c1,1.2,2.8,2,1.8,4
		c-0.2,0.4-0.4,0.9-0.7,1.3c-0.8-0.3-1.5-0.6-2.2-0.9c-0.7-1.3-1.5-2.6-1.9-4c-0.4-1.3-0.2-2.7-0.3-4.4c-0.9-0.1-1.9-0.1-3-0.2
		c0-0.2,0.1-0.4,0.1-0.6c0.8-0.2,1.6-0.3,2.3-0.5C102.9,120.9,103.1,120,103.2,119.1L103.2,119.1z"/>
	<path class="st24" d="M103.2,119.1c-0.2,0.9-0.4,1.9-0.6,2.8c-0.8,0-1.5,0-2.3,0c-0.4,0.1-0.7,0.2-1.1,0.3
		c-1.4,0.1-2.7,0.1-4.1,0.2c-0.2,0-0.4,0.1-0.6,0.1c-0.2-0.1-0.4-0.1-0.6-0.2c-0.2-1.3-0.4-2.7-0.7-4c0-0.6,0-1.1,0-1.7
		c0.2-0.4,0.4-0.8,0.7-1.1c0.4,0.2,0.8,0.3,1.1,0.5c0.4,1,0.8,2,1.1,3c0,0.4,0,0.7,0.1,1.1c1.3,0,2.7,0,4.1,0.1
		c0.1-0.6,0.3-1.2,0.4-1.8c0.1-0.2,0.1-0.3,0.1-0.5c0.2-0.6,0.4-1.2,0.7-1.9C102.1,117,102.7,118,103.2,119.1L103.2,119.1z"/>
	<path class="st14" d="M95.2,122.4c1.4-0.1,2.7-0.1,4.1-0.2c0.3,0,0.7,0.1,1,0.1l0,0c0,0.2,0,0.4-0.1,0.6c-1.7,0-3.3,0-5,0
		C95.2,122.8,95.2,122.6,95.2,122.4z"/>
	<path class="st25" d="M93.5,127.5c0-1.3,0.1-2.7,0.1-4c0.1,1.3,0.3,2.7,0.4,4c0,0-0.1,0.1-0.2,0.1
		C93.7,127.7,93.6,127.6,93.5,127.5z"/>
	<path class="st25" d="M95.2,122.4c0,0.2,0,0.4,0,0.5c-0.2-0.1-0.4-0.3-0.6-0.4C94.9,122.5,95,122.4,95.2,122.4L95.2,122.4z"/>
	<path class="st28" d="M92.5,140.8v-2.9c0.1,0,0.2,0,0.3,0v2.9C92.7,140.8,92.6,140.8,92.5,140.8z"/>
	<path class="st20" d="M113.1,142.5c0.2,0,0.4,0,0.6,0c0.1,0.4,0.2,0.8,0.3,1.2c0,0.9,0,1.8,0,2.6c-0.1,0.2-0.2,0.5-0.3,0.7
		c-0.2-0.2-0.5-0.4-0.8-0.6C113,145.2,113.1,143.8,113.1,142.5L113.1,142.5z"/>
	<path class="st13" d="M106.9,149.7c-0.2-0.2-0.3-0.3-0.5-0.5c0.2-0.2,0.3-0.4,0.5-0.5c0.2,0.2,0.3,0.4,0.5,0.7
		C107.2,149.5,107.1,149.6,106.9,149.7L106.9,149.7z"/>
	<path class="st25" d="M100.8,118.4c-0.1,0.6-0.3,1.2-0.4,1.8c-1.3,0-2.7,0-4.1-0.1c0-0.4,0-0.7-0.1-1.1c0-0.2,0.1-0.4,0.1-0.7
		C97.9,118.3,99.4,118.3,100.8,118.4z"/>
	<path class="st3" d="M110.2,145.9c0.6,0,1.1,0,1.7,0C111.3,146.8,110.7,147.8,110.2,145.9z"/>
</g>
<g class="music-note" transform="translate(0,0)">
	<path d="M15.7,141.6c-0.5,0-1.1,0.1-1.7,0.2l3.1,11c-0.7-0.2-1.4-0.3-2.2-0.1c-1.8,0.3-3.1,1.6-2.9,2.8c0.2,1.2,1.9,1.9,3.7,1.6
		c1.8-0.3,3.1-1.6,2.9-2.8c-1-3.7-2-7.5-3.1-11.3c2.3,0.2,3.3,1.5,4.2,2.8C19.7,142.9,18,141.6,15.7,141.6z M35.6,143.2
		c-0.6,0-1.3,0.1-2,0.3l4,10.7c-0.7-0.2-1.5-0.2-2.2,0c-1.8,0.5-3,1.8-2.7,3c0.3,1.2,2,1.8,3.8,1.3c1.8-0.5,3-1.8,2.7-3
		c-1.3-3.6-2.6-7.3-4-11c2.3,0,3.5,1.2,4.4,2.4C39.4,144.3,37.7,143.2,35.6,143.2L35.6,143.2z"/>
	<path d="M27.1,150.7c-1.6,0-3.2,0.3-4.1,0.7c-0.6,2-0.8,5.9-0.3,8.3c-0.4-0.2-0.8-0.3-1.3-0.3c-1.3,0-2.4,0.8-2.4,1.8
		s1.1,1.8,2.4,1.8c1.3,0,2.4-0.8,2.4-1.8c-0.3-2.3-0.6-5.3-0.4-7.6c1.7-0.4,3.6-0.8,5.3-0.5c-0.2,1.8-0.1,3.8,0.2,5.4
		c-0.4-0.2-0.8-0.3-1.3-0.3c-1.3,0-2.4,0.8-2.4,1.8c0,1,1.1,1.8,2.4,1.8c1.3,0,2.4-0.8,2.4-1.8c-0.2-3.3-0.9-6.1,0-9.1
		C29.1,150.8,28.1,150.7,27.1,150.7L27.1,150.7z"/>
</g>
<g class="music-note" transform="translate(0,0)">
	<path d="M121.3,132.6c-0.5,0-1.1,0.1-1.7,0.2l3.1,11c-0.7-0.2-1.4-0.3-2.2-0.1c-1.8,0.3-3.1,1.6-2.9,2.8c0.2,1.2,1.9,1.9,3.7,1.6
		c1.8-0.3,3.1-1.6,2.9-2.8c-1-3.7-2-7.5-3.1-11.3c2.3,0.2,3.3,1.5,4.2,2.8C125.3,133.9,123.6,132.6,121.3,132.6z M141.2,134.2
		c-0.6,0-1.3,0.1-2,0.3l4,10.7c-0.7-0.2-1.5-0.2-2.2,0c-1.8,0.5-3,1.8-2.7,3c0.3,1.2,2,1.8,3.8,1.3c1.8-0.5,3-1.8,2.7-3
		c-1.3-3.6-2.6-7.3-4-11c2.3,0,3.5,1.2,4.4,2.4C145,135.3,143.3,134.2,141.2,134.2L141.2,134.2z"/>
	<path d="M132.7,141.7c-1.6,0-3.2,0.3-4.1,0.7c-0.6,2-0.8,5.9-0.3,8.3c-0.4-0.2-0.8-0.3-1.3-0.3c-1.3,0-2.4,0.8-2.4,1.8
		s1.1,1.8,2.4,1.8s2.4-0.8,2.4-1.8c-0.3-2.3-0.6-5.3-0.4-7.6c1.7-0.4,3.6-0.8,5.3-0.5c-0.2,1.8-0.1,3.8,0.2,5.4
		c-0.4-0.2-0.8-0.3-1.3-0.3c-1.3,0-2.4,0.8-2.4,1.8c0,1,1.1,1.8,2.4,1.8c1.3,0,2.4-0.8,2.4-1.8c-0.2-3.3-0.9-6.1,0-9.1
		C134.7,141.8,133.7,141.7,132.7,141.7L132.7,141.7z"/>
</g>
<g id="left-feet">
	<path class="st29" d="M40.3,286.2c-5.4,2.5-11.3,4.5-17.2,3.6c-1.5-0.2-2.3-0.3-3.4-1.4c-0.2-0.2-1-0.9-1.1-2.2
		c-0.1-2.3,1.2-3.2,1.3-3.3c1.1-0.2,2.1,0.6,2.7-0.6c0.1-0.2,1.3-0.8,1.6-0.9c1.3-0.4,2.2-1.5,3.1-2.4c0.4,0.7-0.7,1-1.2,1.4
		c-0.6,0.5-1.2,0.8-1.9,1c-0.8,0.3-1.4,0.8-1.9,1.7c0.6-0.1,0.8-0.5,1-0.8c0.3-0.4,0.7-0.8,1.2-0.9c0.5-0.1,1-0.3,1.2,0.2
		c0.2,0.4-0.4,0.6-0.7,0.7c-0.8,0.4-1.3,1-1.8,1.9c0.9,0.1,1.3-0.4,1.5-0.9c0.3-0.6,0.8-1,1.4-1.3c0.3-0.1,0.8-0.4,1,0.1
		c0.2,0.4-0.2,0.6-0.5,0.8c-1.1,0.6-1.6,1.5-1.8,2.7c-0.4,0.6-1,0.9-1.8,0.8c0.4,0.5,0.8,0.9,1.2,0c0.2-0.4,0.5-0.6,0.7-0.9
		c0.6-0.6,1.2-1.1,1.5-1.9c0.2-0.4,0.5-0.6,0.8-0.8c0.4-0.3,1-0.8,1.4-0.3c0.5,0.6-0.3,0.8-0.7,1.1c-0.6,0.5-1,1-0.2,1.7
		c0.6,0.5,0.4,1.2-0.1,1.8c-0.1,0.1-0.2,0.1-0.3,0.2c-0.6,0.2-1.2-0.5-1.8-0.2c1,0.8,2,0.6,3.1,0.3c0.4-0.1,0.5-0.4,0.4-0.8
		c-0.4-1.8,0-2.5,1.5-3.1c0.2,0,0.3,0.2,0.4,0.4c0.2,0.2-0.7,0.7,0.2,0.7c0.6,0,1.1,0.2,1.6,0.5c0.2,0.1,0.6,0.2,0.7-0.1
		c0.2-0.4-0.2-0.5-0.5-0.6c-0.3-0.1-0.6-0.1-0.9-0.2c-0.4-0.2-0.7-0.4-0.3-0.9c1-0.4,1.8,0,2.5,0.6c0.5,0.5,0.7,1.1,0.3,1.8
		c-0.4,0.6-0.9,0.9-1.6,0.6c-0.6-0.2-1.3-0.5-2-0.4c-0.3,0-0.6-0.1-0.7,0.4c0.2,1.1,1,1.6,2.1,1.5c1.5-0.1,3-0.5,3.8-2
		c0.1-0.2,0.3-0.5,0.5-0.5c2.1,0,3-1.6,4.3-2.8c0.1-0.1,0.1-0.1,0.2-0.1c0.3,0.1,0.4,0.3,0.4,0.6c-0.4,1.7-1.9,2.4-3.2,3.1
		c-0.9,0.5-1.7,1.1-2.6,1.7c-1.5,1.1-3.2,1.7-5.1,0.9c-0.5-0.2-0.9-0.2-1.4,0c-1.2,0.5-2.3,0.4-3.5,0c-1.2-0.4-2.4-0.3-3.5-1.1
		c-0.6-0.4-1.3-0.8-1.8-1.4c-0.6-0.9-1.2-0.7-1.6,0.2c-0.4,1.3,0.3,2.1,1.3,2.8c1.2,0.7,2.5,0.9,3.8,1c5.8,0.6,11.3-0.7,16.5-3.3
		c3.7-1.8,7.3-3.8,11.2-5.1c1.2-0.4,1.9-1.1,1.9-2.5"/>
	<path class="st0" d="M51.5,277.1c0.1-0.4,0.2-0.9,0.3-1.3c0.1,0.5,0.2,1.6-0.4,2.7c-0.1,0.3-0.4,0.7-0.9,1.2
		c-1,0.9-2.2,1.2-3.6,1.3c-1,0.1-2,0.4-3,0.7c-0.5,0.2-0.9,0.5-1.5,0.3c-0.1-0.2-0.2-0.4-0.1-0.6c1.3-1.3,3-1.4,4.6-1.6
		c1.6-0.2,3-0.5,3.6-2.2c0.5-1.1,0.7-2.3-0.1-3.3c-0.8-1.1-0.9-2.9-2.8-3c-0.4,0-0.2-0.7-0.1-1c0.2-0.6,0.3-1.3-0.3-1.8
		c-0.7-0.9-1.7-1.6-0.9-3c-0.8-7.7,0.6-15.2,2.2-22.6c1-4.7,2.9-9.2,4.4-13.8c0.1-0.2,0.2-0.5,0.5-0.6c0.3,0,0.4,0.1,0.5,0.4
		c-2.1,6.5-4.7,12.9-5.6,19.7c-0.4,3.4-0.7,6.8-1.2,10.1c-0.3,2-0.3,3.9,0,5.9c0.5,2.9,1.6,5.5,3.3,7.8c1.1,1.6,1.8,2.8,1.4,4.1
		C51.6,276.8,51.5,277,51.5,277.1z"/>
	<path class="st0" d="M52.5,275.7"/>
	<path class="st0" d="M53.5,228.1c0,0.1,0,0.3-0.1,0.4c-3.4,9.4-6.3,18.9-6.8,28.9c-0.1,2.8-0.6,5.7,0.1,8.5c0.2,1-0.5,0.4-0.7,0.6
		c0.5,0.7,1.2,1.2,1.5,2c0.1,1.4-0.8,2.7-0.3,4.3c0.4-0.2,0.4-0.9,1-0.7c0.4,0.2,0.6,0.6,0.8,0.9c0.3,0.7,0.7,1.5,0.9,2.3
		c0.4,1.5-0.2,3.1-1.6,3.5c-2.1,0.6-4.2,1.4-6.3,2.2c-0.5-0.2-0.6-0.7-0.8-1.1c-1.3-3.1-3.4-5.3-6.9-5.7c-0.5-0.1-1.3-0.1-1.2-1
		c3.6-4.7,5.2-10.1,5.6-15.9c0.6-8,1.3-16,1.2-24.1c0-1.8-0.2-3.6-0.2-5.4c0.1-0.5-0.3-1,0-1.5c-0.4-1.3,0.6-0.9,1.1-0.7
		c1.6,0.6,3.3,1.1,5.1,1.4c2,0.5,3.9,0.9,6,0.5c0.5,0,1,0,1.5,0C53.7,227.6,53.7,227.8,53.5,228.1z"/>
	<path class="st30" d="M33,273.4c0.1,0,0.2,0,0.3,0c0.5,0.5,1.1,0.4,1.7,0.5c3.7,0.5,5.5,3,6.8,6.2c0.1,0.3,0.2,0.6,0.3,0.8
		c0.2,0.1,0.3,0.3,0.2,0.5c0,0.1,0,0.3,0,0.4c-0.1,0.7-0.3,1.3-1.3,1.2c0-0.2,0-0.5-0.3-0.6c-0.3,0.1-0.5,0-0.7-0.2
		c-2-1-4-1.2-6.2-0.6c-0.5,0.1-0.9,0.5-1.2,0.8c-0.4,0.2-0.8,0.4-1.1,0.8c-0.3,0.2-0.4,0.7-0.9,0.7c-0.1-0.1-0.1-0.2-0.2-0.2
		c-1.4-1.5-2.2-3.4-3.1-5.2c-0.4-1.4,0.7-2.1,1.3-3.1c1.4-0.2,2.7-0.9,4.3-0.9c3.4,0.1,6.1,1.4,7.8,4.4c-2.1-4.2-7.1-5.3-10.8-3.9
		c-0.3,0.1-0.6,0.5-0.8-0.1c0.8-0.7,1.7-0.9,2.7-1.1C32.3,273.8,32.7,273.7,33,273.4z"/>
	<path class="st0" d="M27.3,278.6c1,0.9,1.3,2.2,2.1,3.3c0.4,0.6,0.7,1.3,1,1.9c-1.4,0.6-1.6,1.7-1.3,3.1c-0.5,0.6-1,1-1.8,0.5
		c0.7-0.8,1-1.6-0.4-2c-0.6-0.2-0.2-0.5-0.2-0.8c0.3-0.9,1.3-1,1.8-1.6c-1,0.1-1.7,0.4-2.1,1.3c-0.3,0.8-0.8,1.3-1.5,1.6
		c-0.1,0.1-0.2,0.1-0.2,0c-0.3-0.9,0.5-2.3,1.4-2.9c0.3-0.1,0.7-0.1,0.8-0.6c-0.9,0.1-1.7,0.5-2,1.3c-0.3,0.7-0.7,1-1.4,1.1
		c-0.2,0-0.5,0.2-0.6-0.2c-0.1-0.3-0.3-0.4,0-0.8c0.8-0.9,1.5-1.8,2.7-2c-0.9-0.2-1.6,0.1-2.2,0.8c-0.3,0.3-0.5,0.7-0.9,0.9
		c-0.4,0.2-0.8,0.3-1.1-0.1c-0.3-0.5,0.4-0.4,0.5-0.7c0.6-1.2,1.7-1.4,2.8-1.9c0.8-0.4,1.7-0.7,1.8-1.8
		C26.8,279,27,278.6,27.3,278.6z"/>
	<path class="st31" d="M29.2,275c0.2,0.3,0.4,0.1,0.7,0c2.5-1.4,5.1-0.9,7.4,0.1c1.9,0.8,3,2.6,3.7,4.6c-0.5-0.7-0.9-1.3-1.4-1.9
		c-0.5-0.7-1.2-1.1-1.9-1.5c-2.5-1.4-5.1-1.7-7.8-0.8c-0.4,0.1-0.8,0.3-1.2,0.1C28.7,275.2,28.9,275.1,29.2,275z"/>
	<path class="st32" d="M41.1,283.1c0.7-0.1,0.8-0.8,1.3-1.2c1.8-0.7,3.6-1.3,5.5-1.4c1.6-0.1,2.7-0.9,3.3-2.3
		c0.3-0.5,0.6-0.7,1.1-0.4c0.8,0.1,1.3,0.5,1.2,1.4c-0.1,0.6-0.6,0.9-1.1,1.1c-4.5,1.3-8.4,4-12.3,6.4c-5.5,3.3-11.4,4.5-17.7,3
		c-1.9-0.5-3.6-1.3-4-3.5c1.1-1.5,1-1.4,2.2-0.1c1,1.2,2.3,2.1,4,2c0.4,0,0.6,0.2,1,0.3c1.3,0.5,2.5,0.6,3.7-0.1
		c0.4-0.2,0.7-0.2,1.1,0c1.5,0.8,3.9,0.5,5.1-0.7c0.7-0.7,1.6-1.2,2.4-1.6C39.2,285.3,40.3,284.4,41.1,283.1z"/>
	<path class="st33" d="M18.3,286.1c0.8,0.6,0.9,1.8,2,2.4c2,1,4.1,1.3,6.2,1.5c2.9,0.3,5.7-0.2,8.5-1.1c1.7-0.5,3.2-1.6,4.8-2.5
		c2.7-1.5,5.3-3,7.9-4.6c1.4-0.8,3-1.3,4.5-1.8c0.5-0.2,0.9-0.4,1.3-0.8c0.2,1.3-0.3,2.3-1.5,2.7c-5.4,1.8-10.2,4.9-15.5,7
		c-4.9,1.9-9.9,2.2-15,1.4c-0.9-0.1-1.7-0.6-2.4-1.2C18.2,288.2,17.7,287.3,18.3,286.1z"/>
	<path class="st0" d="M31.5,283.2c0-0.7,0.6-0.6,1-0.8c0.4-0.2,0.9-0.5,1.1-1c2.3-0.7,4.6-0.6,6.7,0.7c0.1,0.7-0.5,0.9-0.9,1
		c-1.5,0.6-2.8,1.5-3.8,2.7c-1.4,1.6-3.7,1.7-5.9,0.4c-0.3-0.6-0.2-0.8,0.5-0.9c0.9-0.1,1.7,0.1,2.5,0.6c0.7,0.4,1.1,0.2,1.5-0.5
		c0.4-0.7,0.1-1.2-0.4-1.5c-0.6-0.4-1.3-0.6-2.1-0.5C31.4,283.5,31.4,283.4,31.5,283.2z"/>
	<path class="st1" d="M29.6,286.4c0.9-0.1,1.7,0.5,2.6,0.5c1.2,0,2.3-0.2,3.1-1.2c1.1-1.3,2.5-2.3,4.1-2.9c0.4-0.1,0.7-0.3,0.9-0.7
		c0.2,0.1,0.3,0.2,0.4,0.3c-0.7,1.7-2,2.9-3.6,3.1c-0.9,0.1-1,0.5-1.3,1c-0.8,1.1-3.5,2-4.8,1.6C30.2,287.8,29.7,287.3,29.6,286.4z"
		/>
	<path class="st0" d="M31.5,283.2c0,0.1,0,0.3,0.1,0.4c0.2,0.8,0.9,0.3,1.3,0.5c0.5,0.3,1.2,0.3,0.9,1.1c-0.2,0.8-0.8,0.6-1.3,0.3
		c-0.8-0.5-1.7-0.5-2.6-0.5c-0.1-0.6,0.7-0.6,0.8-1C30.9,283.7,31.2,283.5,31.5,283.2z"/>
	<path class="st1" d="M27.3,287.4c0.7,0.1,1.2-0.5,1.8-0.5c0.2,0.2,0.4,0.4,0.2,0.7c-0.7,1.1-3.7,0.8-4.3-0.4
		C25.8,286.8,26.5,287.8,27.3,287.4L27.3,287.4z"/>
	<path class="st1" d="M24.8,285.8c0.1,0,0.2,0,0.2,0c-0.2,0.3-0.3,0.5-0.5,0.8c-0.2,0.4,0.2,1.1-0.6,1c-0.7,0-1.1-0.4-1.3-1.1
		c0-0.1,0-0.2-0.1-0.5C23.4,286.4,24.1,286.6,24.8,285.8z"/>
	<path class="st1" d="M20.8,284.8c0.2,0.7,1.8,0,1.3,1.3c-0.1,0.3-0.1,0.6-0.5,0.4C20.9,286.3,20.6,285.6,20.8,284.8z"/>
	<path class="st0" d="M25.2,286.3c0.7-0.4,1.1-0.9,1.7-0.4c0.3,0.2,0.7,0.2,0.5,0.7c-0.2,0.4-0.5,0.4-0.9,0.2
		C26.2,286.6,25.8,286.5,25.2,286.3z"/>
	<path class="st0" d="M21,284.3c0.7-0.2,1.2-0.2,1.5,0.3c0.1,0.2-0.1,0.3-0.2,0.4C21.7,285.2,21.5,284.7,21,284.3z"/>
	<path class="st0" d="M27.3,287.4c-0.9,0.7-1.5-0.3-2.3-0.2c0-0.4,0.1-0.4,0.4-0.3C26.1,287,26.7,287.2,27.3,287.4z"/>
	<path class="st1" d="M20.5,284.3c-0.1,0.2-0.1,0.6-0.4,0.5c-0.3,0-0.5-0.3-0.5-0.6c0-0.2,0.3-0.5,0.3-0.5
		C20.2,283.8,20.5,283.9,20.5,284.3z"/>
	<path class="st0" d="M22.8,285.6c0.5-0.3,0.9-0.4,1.3-0.1c0.1,0.1,0.1,0.3,0,0.4C23.6,286.3,23.3,285.9,22.8,285.6z"/>
	<path class="st1" d="M42.3,281.5c-0.3-0.1-0.3-0.3-0.2-0.5c1.8-1,3.5-1.9,5.6-2.2c1.8-0.3,2.6-1.9,1.9-3.6c-0.3-0.8-0.7-1.7-1-2.5
		c-0.1-0.2-0.2-0.4-0.5-0.4c-0.3,0-0.3,0.3-0.3,0.5c-0.1,0.4,0,0.9-0.6,0.8c-0.4-0.1-0.5-0.6-0.5-1c-0.1-1.4,0.2-2.8,0.8-4.1
		c1.1,0.8,0.1,1.8,0.1,3c0.6-0.9,0.9-0.9,1.3-0.2c0.4,0.8,1,1.5,1.5,2.2c1.8,2.4,0.4,6.5-3.5,6.6C45.3,280.2,43.8,280.7,42.3,281.5z
		"/>
	<path class="st0" d="M34.8,279.8c-1.3,0.2-2.4,1-3.4,1.8c-0.6,0.4-0.9,0.3-1.2-0.3c-0.6-1.2-1.2-2.3-1.8-3.4
		c-0.4-0.7-0.2-1.3,0.6-1.7c3.9-2.4,10.2-0.1,11.7,4.2c0.1,0.2,0.1,0.4,0.1,0.8c-1-1-2-1.2-3.1-1.4
		C36.7,279.7,35.8,279.7,34.8,279.8z"/>
	<path class="st34" d="M40.1,281.3c-2.1-0.8-4.2-0.8-6.3-0.5C35.2,279.8,38.8,280,40.1,281.3z"/>
	<path class="st1" d="M33.6,281.5c0.5,1.3-0.5,0.9-1.1,1C32.7,282,33,281.5,33.6,281.5z"/>
	<path class="st1" d="M34.8,279.8c1-0.4,1.9-0.3,2.9,0C36.7,279.8,35.8,279.8,34.8,279.8z"/>
	<path class="st1" d="M39.6,219.3c2.5,0.1,4.9,0.1,7.3,0.2c1,0,2,0.2,3,0.3c1.7,0.2,3.5,0.4,5.2,0.6c-0.4,1.9-1.8,6.7-2.2,8.6
		c-2.1-0.4-5.2,2-7.2,1.3c-2.8-0.9-3.2-3-6-4.2C39.8,225.5,39.5,220.1,39.6,219.3L39.6,219.3z"/>
</g>
<g id="right-feet">
	<path class="st35" d="M122.8,284.9c0.7,0.4,2.7,0.6,3,1.6c0,0.1,0.6-0.1,0.7-0.1c2-0.1,3.9,1.4,3.4,2.8c-0.3,0.8-1.3,2-2.1,3.1
		c-1.2,1.5-2.2,1.3-4,1.3c-0.3,0.1,1.3,1,1.3,0.7c1.1-0.6,2.3-0.6,3.4-1.2c1.3-0.9,1.7-1.6,1.3-3c-0.6-0.8-1.1-0.7-1.6,0
		c-1,1.3-2.4,1.9-3.9,2.2c-1.1,0.2-2.1,0.8-3.3,0.5c-1.4-0.3-2.7-0.3-4.1-0.1c-1.5,0.2-3.1-0.2-4.3-1.4c-0.6-0.6-1.5-0.8-2.2-1.3
		c-1.3-0.8-2.7-1.6-3.2-3.2c0-0.2,0.1-0.3,0.3-0.4c1.1,0.6,1.5,1.8,2.7,2.3c0.5,0.2,0.9,0.3,1.6-0.1c0.5-0.3,0.6,0.6,0.8,0.9
		c0.9,1.5,2.9,2.4,4.6,2c0.7-0.1,1.1-0.6,1.3-1.3c0.1-0.9-0.6-0.7-1.1-0.6c-0.6,0-1.1,0.5-1.7,0.6c-0.7,0.2-1.3-0.2-1.6-0.8
		c-0.4-0.8,0.1-1.4,0.7-1.9c0.6-0.5,1.3-0.6,1.9-0.2c0.5,0.3,0,0.5-0.2,0.6c-0.4,0.3-1.1,0.1-1.4,0.9c0.9,0.2,1.7-0.3,2.5-0.5
		c0.3-0.1-0.1-0.4,0-0.7c0.1-0.1,0.2-0.2,0.3-0.2c1.2,0.2,1.7,1,1.7,2.1c0,0.6-0.7,1.2,0.2,1.7c0.9,0.6,2.1,0.5,3.2-0.4
		c-0.2-0.2-0.4,0-0.6,0c-0.7,0.2-1.4,0.5-2-0.3c-0.3-0.5-0.4-1,0.1-1.4c1.1-0.8,0.5-1.3-0.2-1.9c-0.3-0.2-0.9-0.5-0.6-1
		c0.3-0.5,0.9,0,1.3,0.2c1.2,0.8,1.8,2.3,2.9,3.3c0.4,0.4,0.4,1.4,1.5,0.5c-0.6-0.1-1.2,0.1-1.5-0.5c-0.5-0.6-0.2-1.5-0.9-2.1
		c-0.4-0.4-0.8-0.8-1.4-1.1c-0.2-0.1-0.4-0.3-0.3-0.5c0.1-0.3,0.4-0.4,0.6-0.3c0.8,0.1,1.3,0.5,1.8,1.2c0.3,0.5,0.6,1.1,1.5,1
		c-0.3-0.9-0.8-1.5-1.7-1.8c-0.4-0.2-1.2-0.1-0.9-0.8c0.2-0.6,0.9-0.3,1.4-0.2c0.9,0.3,1.3,1.2,2.3,1.7c-0.5-1-1.2-1.5-2.1-1.8
		c-1.6-0.6-2.8-1.5-3.5-3.1c0.1-0.2,0.2,0.7,0.4,0.8C122,284,121.2,284.6,122.8,284.9z"/>
	<path class="st36" d="M107.4,286.5c-0.1,0.1-0.2,0.2-0.3,0.4c-0.9,0.2-1-0.5-1.4-1c-0.1-0.3,0-0.5,0.1-0.7c0.1-0.3,0.2-0.6,0.3-0.9
		c1.4-4.3,4.2-6.7,8.8-7c0.2,0,0.4,0.1,0.6,0.2c0.6,0.2,1.2,0.4,1.8,0.5c1.8,0.4,2.8,1.7,3.7,3.2c0.2,0.3,0,0.7,0,1
		c-0.1,0.1-0.2,0.2-0.3,0.3c-0.4,2-1.7,3.7-2.8,5.4c-0.1,0-0.3,0-0.4,0c-0.9-0.4-1.8-1-2.7-1.5c-1.7-0.9-1.7-1.1-3.1-1
		c-1.2,0.1-2.4,0.2-3.5,0.8C108,286.2,107.7,286.4,107.4,286.5z"/>
	<path class="st0" d="M115.4,277.4c-0.2,0-0.4,0-0.5,0c-1.4-1.3-2.1-3.1-3.1-4.7c-0.1-0.2-0.2-0.3-0.3-0.5c-0.8-1.3-1.2-2.8-1.6-4.3
		c-0.1-0.3-0.2-0.5-0.2-0.8c-0.8-4.4-1.1-8.9-1.4-13.4c0-0.6,0-1.2-0.2-1.8c0-3.1-0.2-6.1-0.4-9.2c-0.2-4.4-0.3-8.7-0.3-13.1
		c0-0.6,0-1.2,0.1-1.8c0.1-0.2,0.2-0.3,0.3-0.4c0.1,0,0.1,0,0.2,0c0.4,1.4,0.1,2.9,0.2,4.3c0.1,0.9-0.1,1.8,0.1,2.7
		c0.1,5.5,0.3,11,0.6,16.5c0.2,1.1-0.1,2.3,0.2,3.4c0.3,3.5,0.6,7,0.9,10.4c0.4,4.1,2.2,7.8,4.5,11.2
		C114.9,276.4,115.1,276.9,115.4,277.4z"/>
	<path class="st0" d="M108.4,234.4c-0.4-1.8-0.1-3.6-0.2-5.4c0-0.6,0-1.1-0.1-1.7c0.2-0.7-0.3-1.6,0.3-2.2
		C108.4,228.2,108.4,231.3,108.4,234.4z"/>
	<path class="st0" d="M109.2,254.4c-0.3-1.1-0.2-2.3-0.2-3.4C109.3,252.1,109.2,253.2,109.2,254.4z"/>
	<path class="st0" d="M99.6,274.6c-0.1-0.1-0.1-0.2-0.2-0.3c2.6-5.1,1.9-10.4,1.4-15.7c-0.7-8-2.8-15.7-5.5-23.2
		c-0.3-0.8-0.7-1.6-0.7-2.5c-0.1-0.2,0-0.4,0.2-0.4c0.3,0.1,0.4,0.3,0.5,0.6c0.4,1.1,0.8,2.3,1.2,3.5c0.1,0.2,0.1,0.4,0.2,0.6
		c1.2,3.4,2.3,6.9,3.2,10.4c0,0.3,0.1,0.5,0.2,0.8c1.2,5.4,1.4,10.9,2.1,16.4c0.2,1.3-0.2,2.6-0.2,3.9c0,0.6-0.2,1.1,0.2,1.7
		c0.4,0.8-0.5,1.2-0.9,1.7c-0.7,0.6-1,1.2-0.6,2.1c0.1,0.4,0.4,0.9,0,1.2C100.1,275.6,100,274.8,99.6,274.6z"/>
	<path class="st0" d="M94.9,232.6c-0.1,0.1-0.2,0.3-0.3,0.4c-0.5-1-0.6-2-0.9-3.1c-0.1-0.5-0.4-1.1-0.8-1.5c0.3-0.3,0.7-0.2,0.7-0.2
		c0.1-0.1,0.3,0,0.4,0.1c0.3,0.4,0.4,1,0.5,1.5C94.6,230.7,95.3,231.5,94.9,232.6z"/>
	<path class="st0" d="M106.6,224.6c0.6-0.4,1.2-0.2,1.8-0.2c0,1.1,0,2.2,0.1,3.3c0,0.1-0.1,0.2-0.1,0.3c-0.7-0.2-0.9-0.7-0.9-1.1
		C107.6,225.7,107.5,224.9,106.6,224.6z"/>
	<path class="st32" d="M94.7,282.4c-0.1-0.9,0.2-1.6,1-1.9c0.6-0.3,1.2-0.5,1.6,0.6c0.5,1.5,1.8,2.3,3.3,2.4
		c1.9,0.1,3.6,0.8,5.3,1.4c0.5,0.3,0.6,1.1,1.3,1.3c0.3,0.7,0.8,1.4,1.4,1.8c2.6,1.6,4.7,4.6,8.1,4.2c1.5-0.2,2.8,0,4.2,0.1
		c2.2,0.1,4.2-0.7,6.1-1.8c0.4-0.2,0.5-0.6,0.7-0.9c0.8-1.5,1.2-1.5,2.2,0c-0.3,2.1-1.6,3.2-3.3,3.7c-3,0.9-5.9,1.2-9.1,0.7
		c-5.1-0.8-9.2-3.8-13.5-6.4c-2.7-1.7-5.3-3.4-8.3-4.3C95.4,283,95,282.8,94.7,282.4z"/>
	<path class="st37" d="M94.7,282.4c3.8,0.9,7,3.1,10.3,5.2c2.7,1.7,5.3,3.6,8.2,4.8c3.3,1.3,6.6,1.9,10.1,1.2
		c0.5-0.1,1.1-0.1,1.7-0.2c2.2-0.4,3.9-1.6,4.9-3.9c0.5,1.6,0.2,2.6-1.1,3.6c-1.1,0.8-2.4,1.1-3.8,1.3c-7.7,1.2-14.4-2-21-5.8
		c-2.4-1.4-4.9-2.5-7.5-3.5C95.4,284.5,94.8,283.7,94.7,282.4z"/>
	<path class="st0" d="M117.9,287.7c0.6-1.9,2-3.5,2.8-5.4c1.3,1.4,2.7,2.6,4.6,3.2c0.7,0.2,0.7,1.4,1.8,1.5
		c-1.1,0.9-1.6,0.4-2.1-0.3c-0.6-0.9-1.3-1.4-2.5-1.1c1.3,0.2,2,1,2.7,1.9c0.3,0.4,0.3,0.5,0.1,0.9c-0.2,0.5-0.5,0.1-0.8,0.1
		c-0.6-0.1-1-0.5-1.2-1c-0.4-0.9-1.1-1.3-2.1-1.2c1.6,0.8,2.4,2,2.4,3.8l0,0c-0.9-0.6-1.8-1.2-2.2-2.4c-0.3-0.7-1.1-0.9-1.8-1.2
		c0,0.1-0.1,0.2-0.1,0.2c0.4,0.3,0.9,0.5,1.3,0.8c0.8,0.6,0.8,1.2-0.1,1.8c-0.4,0.3-0.7,0.6-0.4,1.1c0.2,0.4,0.5,0.8,1.1,0.6
		c0.3-0.1,0.6-0.2,0.9-0.2c0.3,0,0.4,0.2,0.2,0.4c-0.8,0.7-1.6,0.5-2.5,0.2c-0.8-0.3-1.1-0.8-0.8-1.6
		C119.2,288.8,118.9,288,117.9,287.7z"/>
	<path class="st0" d="M107.9,286c2.1-1.3,4.3-1.4,6.6-0.7c0.9,0.3-0.2,0.4-0.1,0.7c1.3,0,2.2,0.7,2.9,1.8c0.3,0.3,0.7,0.5,1.2,1
		c-1.3,0-2.3,0.3-3.3,0.8c-0.5,0.2-0.7-0.1-0.9-0.5c-0.2-0.5,0.2-0.7,0.5-0.9c0.5-0.3,1.2-0.1,1.7-0.6c-0.8-0.1-1.4-0.1-2,0.3
		c-0.5,0.4-0.9,0.8-0.5,1.5c0.4,0.7,0.9,0.9,1.6,0.5c0.7-0.4,1.4-0.6,2.2-0.6c0.9,0,1.1,0.3,0.6,1.1c-2.6,1.3-4.3,0.9-6.2-1.2
		c-1-1-2.3-1.6-3.6-2.2C108.3,286.8,107.6,286.8,107.9,286z"/>
	<path class="st1" d="M107.9,286c0.4,1,1.5,0.8,2.2,1.3c1.1,0.8,2.2,1.4,3,2.5c1.1,1.4,2.7,1,4.1,0.8c0.4-0.1,0.8-0.2,1.3-0.2
		c-0.2,1.2-1,1.7-2.2,1.6c-1.9-0.2-3.6-0.4-4.3-2.6c0-0.1-0.1-0.2-0.2-0.3c-2.4-0.3-2.8-0.5-4.2-2.4c-0.1-0.1-0.1-0.2-0.2-0.3
		C107.6,286.3,107.8,286.2,107.9,286z"/>
	<path class="st1" d="M119.3,289.8c-0.2,1.2,0.8,1.3,1.5,1.5c0.5,0.2,1.3,0.5,1.6-0.4c0.3-0.3,0.6-0.3,0.9-0.3
		c-0.2,1.2-1.2,1.8-2.7,1.6C118.9,291.9,118.7,291.5,119.3,289.8z"/>
	<path class="st1" d="M123.7,290.1c0.7,0.2,1.3,0.2,2-0.2c-0.1,0.8-0.3,1.5-1.2,1.5C123.4,291.4,123.9,290.5,123.7,290.1
		C123.7,290.1,123.7,290.1,123.7,290.1z"/>
	<path class="st0" d="M123,290.1c-0.5,0.2-0.8,0.3-1,0.4c-0.4,0.1-0.7,0.3-1.1-0.1c-0.2-0.2-0.2-0.4,0-0.5c0.4-0.2,0.7-0.7,1.3-0.4
		C122.4,289.7,122.6,289.9,123,290.1z"/>
	<path class="st1" d="M127.5,288.6c0.2,1-0.3,1.6-1.2,1.9C125.5,289.1,126.9,289.2,127.5,288.6z"/>
	<path class="st0" d="M127.2,288.1c-0.4,0.4-0.7,0.8-1.2,0.6c-0.2-0.1-0.3-0.2-0.2-0.4C126.2,287.8,126.6,287.9,127.2,288.1z"/>
	<path class="st0" d="M125.3,289.4c-0.4,0.3-0.8,0.6-1.2,0.2c-0.1,0-0.1-0.3,0-0.3C124.5,288.9,124.9,289,125.3,289.4z"/>
	<path class="st1" d="M128.2,287.5c0.3,0.1,0.4,0.2,0.4,0.5c0,0.3-0.1,0.5-0.4,0.5c-0.3,0-0.5-0.3-0.4-0.5
		C127.8,287.8,128.1,287.7,128.2,287.5z"/>
	<path class="st0" d="M112,272.5c1,1.6,1.9,3.3,2.9,4.9c-0.5,0.4-1.1,0.3-1.6,0.3c-3.9,0.6-5.8,3.2-7,6.6c-0.4,0.7-0.9,0.3-1.3,0
		c-1.4-0.8-3-1.3-4.6-1.6c-1.8-0.4-2.7-2-2.1-3.7c0.3-0.9,0.6-1.7,1-2.5c0.6-1.1,0.9-1.1,1.7-0.1c0.4-0.4,0.3-0.9,0.4-1.4
		c0.3-1.3,0.9-1.7,1.8-1.6c0.9,0.2,1.4,1,1.3,2.1c0,0.5,0,1,0,1.5c0.1,1.3-0.6,2.2-2,2c-0.7-0.1-1.3,0.1-1.9,0.3
		c0.8,0,1.6,0.1,2.3,0.2c0.9,0,1.4,0.6,1.6,1.4c0.1-0.4,0.3-0.8,0.6-0.9c1.5-0.4,2.1-1.8,3.3-2.6c0.2-0.2,0.4-0.4,0.3-0.6
		c0-0.6,0-1.2,0.7-1.3c0.8-0.2,1,0.4,1.4,1c0.2-1-0.1-1.8-0.1-2.7C110.7,272.8,111,272.4,112,272.5z"/>
	<path class="st0" d="M109.2,281.3c0.9-0.5,1.8-1,2.7-1.4c2.3-1,4.6-1,6.9,0c1.3,0.6,1.4,1,0.8,2.2c-0.5,1-1.1,2-1.6,3.1
		c-0.3,0.7-0.7,0.7-1.2,0.2c-1.9-1.6-4.1-2.2-6.5-1.7c-1,0.2-2,0.5-3,1.4C107.7,283.5,108.6,282.5,109.2,281.3L109.2,281.3z"/>
	<path class="st1" d="M101.7,275.1c0,0.3,0,0.7-0.1,1c-0.2,0.4,0.1,1.1-0.6,1.2c-0.5,0-0.5-0.6-0.6-1c0-0.2-0.1-0.4-0.3-0.3
		c-0.1,0-0.3,0.2-0.4,0.3c-0.5,1.2-1,2.4-1.3,3.6c-0.3,0.9,0.7,2.3,1.7,2.5c2,0.4,3.9,0.9,5.6,2c0.2,0.1,0.4,0,0.6-0.1
		c-0.1,0.3-0.1,0.5-0.2,0.8c-2-0.7-4.1-1.1-6.2-1.5c-2.3-0.5-3.5-3.3-2.6-5.4c0.6-1.3,1.5-2.5,2.3-3.7c0.7-0.4,0.4,0.7,1,0.5
		c-0.1-1-1.1-2.2,0.3-3.2c0.6,0.2,0.3,0.8,0.5,1.2C101.7,273.8,101.4,274.5,101.7,275.1z"/>
	<path class="st38" d="M108.7,281.3c0.2-0.9,0.8-1.6,1.7-2c2.4-1.3,6.1-1.9,8.3-0.1c-1.2-0.3-2.5-0.6-3.7-0.4
		c-2.1,0.3-4.2,0.8-5.7,2.6c0,0,0,0,0,0C109.1,281.3,108.9,281.3,108.7,281.3L108.7,281.3z"/>
	<path class="st38" d="M108.7,281.3c-0.6,1-1.1,1.9-1.7,2.9C107.3,283.1,107.5,281.9,108.7,281.3
		C108.7,281.3,108.7,281.3,108.7,281.3z"/>
	<path class="st0" d="M101.7,275.1c-0.3-0.7-0.5-1.4-0.5-2.1c0.6-0.6,1.4-0.5,2.1-1c0.6-0.4,0.9-0.8,0.2-1.3
		c-0.6-0.5-0.5-1.3-1.3-1.7c-0.4-0.2-0.4-1.2,0-1.7c0.7-0.7,0.9,0.5,1.5,0.5c0,0,0.2-6.4,0.2-6.5c-0.6,0.5-0.4,1.3-0.7,1.8
		c-0.2,0.4-0.3,0.8-0.8,0.7c-0.5-0.1-0.3-0.5-0.4-0.8c-0.3-1.4-0.2-2.9-0.5-4.3c-0.1-0.5-0.1-1.2,0.5-1.3c0.6-0.1,0.6,0.6,0.7,1
		c0.1,0.4-0.1,1.1,0.6,1.1c0.7-0.1,0.6-0.8,0.6-1.2c-0.2-1.2-0.1-2.6-1.6-3.2c-0.7-0.3-1.3-1.1-1.5-2c-0.1-0.3-0.2-0.7,0.2-0.9
		c0.4-0.2,0.9-0.4,0.7-0.9c-0.3-0.7-0.3-1.7-1-2.1c-0.4-0.3-0.6-0.6-0.9-0.9c-0.1-0.2-0.1-0.4-0.2-0.6c0.1-0.2,0.1-0.3,0-0.5
		c-0.1-0.5-0.6-1,0.1-1.4c0.7-0.3,1.1,0.2,1.5,0.6c0.3-1.7,0.4-1.8-0.9-3.1c-0.9-1-0.6-2.3-0.8-3.4c-0.1-0.5,0-0.9-0.1-1.4
		c-0.2-0.5,0-1.2-0.6-1.3c-0.7-0.1-0.4,0.7-0.7,1c-0.2,0.3-0.3,0.6-0.8,0.6c-0.3,0-0.5-0.3-0.6-0.6c-0.1-0.4-0.1-0.8-0.5-1
		c0-0.1-0.1-0.2-0.1-0.3c-0.1-1.3-0.6-2.4-1.1-3.5c-0.1-0.2-0.2-0.4-0.2-0.6c-0.2-1-0.5-1.9-0.7-2.9c0.2-1.4,0.2-1.4,1.5-1.1
		c0.8,0.2,1.3-0.1,1.7-0.7c0.7-1,1.6-1.2,2.7-1.2c0.9,0,1.7,0.1,2.3-0.8c0.1-0.2,0.3-0.3,0.5-0.3c1-0.2,3.1,1.8,2.7,2.8
		c-0.4,1.1-0.5,2,0.8,2.7c0.8,0.4,0.7,1.1-0.1,1.5c-1.1,0.5-1.1,1.3-0.7,2.2c0.6,1.3,0.6,2.7,0,4c-0.5,1.1-0.4,2.2-0.4,3.3
		c0,0.9,0.5,1.2,1.4,0.9c1.2-0.4,1.2-0.3,1.2,0.9c0,2.7,0.3,5.3,0.3,8c0,0.2-0.1,0,0,0.1c0.1,0.1,0-0.2,0.2-0.1
		c0.2,0.5,0.2,1.1,0.2,1.6c0,1.8-0.4,3.5-1.3,5.1c-0.3,0.5,0.2,0.8,0.5,1.1c0.4,0.4,0.6,0.7,0,1.2c-0.8,0.7-0.8,2.3,0,2.9
		c0.8,0.7,1.1,1.3,0.3,2.1c-0.2,0.2-0.3,0.4,0,0.6c0.6,0.3,0.5,0.8,0.3,1.4c0.4-0.3,0.1-1.1,0.8-1.3c0.5-0.1,0.6,0.4,0.8,0.6
		c0.1,0.2,0.1,0.4,0.2,0.6c0.1,0.8,0.1,1.4-0.5,2c-0.5,0.4-0.5,1.2-0.2,1.9c0.3,0,0.4-0.2,0.5-0.4c0.6-0.9,0.9-0.9,1.4,0.1
		c0.1,0.3,0.3,0.5,0.5,0.8c0.1,0.1,0.1,0.2,0.2,0.3c-1.1,0.1-1.1,0.9-0.9,1.6c0.3,1.1,0.1,2.3,0.3,3.5c-0.7-0.2-0.7-0.8-1-1.2
		c-0.2-0.4-0.5-0.7-0.9-0.5c-0.4,0.2-0.6,0.5-0.4,1c0.4,0.7-0.1,0.7-0.5,1.1c-1.1,1-2.1,2.1-3.5,2.7c-0.3,0.1-0.2,0.5-0.1,0.8
		c0.1,0.2,0.1,0.4-0.2,0.5c-0.2,0-0.3-0.1-0.4-0.3c-0.1-0.8-0.1-1.8-1.3-1.7c-0.8,0-1.5-0.4-2.3,0c-0.2,0.1-0.6,0.3-0.7,0
		c-0.1-0.2,0-0.6,0.1-0.9c0.1-0.3,0.3-0.1,0.5-0.1c0.7,0.1,1.4-0.3,2.2-0.1c0.9,0.2,1.5-0.8,1.3-1.7c-0.1-0.5-0.2-1,0-1.5
		c0.3-0.9-0.2-1.6-1-1.8C102.2,273.6,101.7,274.1,101.7,275.1z"/>
	<path class="st0" d="M108.5,251.9c-0.1,0.3,0.1,0.6-0.2,0.8c-0.4-2.9-0.4-5.8-0.4-8.7c0-0.9-0.1-1.4-1.1-0.6
		c-0.7,0.6-1.7,0.1-1.7-0.9c0-1.4-0.2-2.8,0.5-4.2c0.5-1.1,0.5-2.3-0.1-3.5c-0.8-1.4-0.6-2,0.9-2.6c0.3-0.1,0.5-0.1,0.5-0.5
		c0-0.3-0.2-0.4-0.5-0.5c-1.4-0.8-1.6-1.3-1-2.8c0.3-0.7,0.5-1.4-0.7-1.4c-0.4,0-0.5-0.3-0.7-0.6c-0.4-0.9-1.1-1-1.4-0.2
		c-0.3,0.8-0.8,0.8-1.4,0.8c-1.4,0-2.8-0.3-3.7,1.4c-0.2,0.5-1.1,1.1-1.8,0.5c-1.1-0.9-1.2,0-1.4,0.7c-0.1-0.5-0.2-1-0.4-1.5
		c0.2-0.7,0.7-0.9,1.3-1.1c0.5,0.2,0.8-0.2,1-0.5c0.9-0.4,1.8-0.9,2.9-1c0.5,0.3,0.9,0,1.3-0.3l0,0c0.8,0.1,1.6,0.3,2.1-0.5
		c1.2-0.4,2.4-0.4,3.6-0.5c1.6,0,1.6,0,1.6,1.6c0,0.6-0.2,1.2,0.2,1.7C107.8,235.7,108.3,243.8,108.5,251.9z"/>
	<path class="st0" d="M110,267.3c-0.5,0.2-0.3-0.8-0.8-0.4c-0.4,0.3-0.2,0.6-0.1,0.9c0.1,0.4-0.3,0.6-0.6,0.7
		c-0.2,0.1-0.4,0-0.5-0.2c-0.2-0.3-0.1-0.5,0.2-0.8c0.5-0.5,0.3-0.7-0.3-0.8c-1-0.1-0.6-0.5-0.2-0.9c1.1-1,1.1-1.2-0.1-1.9
		c-0.4-0.2-0.9-0.6-0.6-1c0.6-0.7-1.2-2.1,0.8-2.4c0.6-0.1,0.1-0.5-0.1-0.7c-0.9-0.6-1.2-1.1-0.2-1.9c0.3-0.2,0.2-0.5,0.3-0.8
		c0-0.5-0.1-0.9,0.5-1.3c0.5-0.3,0.4-1.2,0-1.7c-0.4-0.7,0-0.6,0.4-0.6C109,258.1,109.3,262.7,110,267.3z"/>
	<path class="st0" d="M111.8,272.2c-0.3-0.1-0.4-0.3-0.5-0.5c-0.2-0.3-0.2-0.7-0.6-0.7c-0.5,0-0.4,0.5-0.5,0.8
		c-0.2,0.3-0.1,0.8-0.6,0.6c-0.4-0.1-0.5-0.4-0.5-0.8c0-1-0.2-2,1-2.5c0.6-0.3-0.3-0.9,0.2-1.2C110.6,269.3,111.2,270.8,111.8,272.2
		z"/>
	<path class="st0" d="M99.8,248.2c0.4,0.2,0.7,0.8,1.3,0.5c0,0,0.2,0.1,0.2,0.1c0,1.1,1,1.9,0.8,3c0,0.3-0.1,0.5-0.5,0.5
		c-1.3-0.2-0.7,0.5-0.4,1c0.5,0.8,0.9,1.6,1.9,1.9c0.5,0.2,0.8,0.5,0.8,1.2c0,0.9,0.4,1.8,0.3,2.7c-0.1,0.7-0.4,1-1.1,1
		c-0.7,0-0.8-0.4-0.8-0.9c0-0.5,0.1-1.1-0.7-1.6c-0.3,2.2,0.4,4.2,0.4,6.3c0.6-0.3,0.7-0.8,0.7-1.3c0-0.5,0.1-0.9,0.4-1.3
		c0.1-0.2,0.3-0.5,0.6-0.4c0.3,0.1,0.3,0.4,0.3,0.6c0,0.7,0.1,1.4,0,2.1c-0.3,1.3-0.6,2.5,0,3.7c0.2,0.4,0,1-0.4,1.3
		c-0.6,0.3-0.6-0.4-0.9-0.6c-0.2-0.1-0.3-0.3-0.4-0.5c-0.5,1.5-0.5,1.6,1,1.8c0.1,0,0.4,0.1,0.4,0.2c0.1,0.6-0.5,0.4-0.7,0.7
		c0.1,0.3,0.5,0.4,0.7,0.5c0.6,0.5,0.6,1.2-0.2,1.6c-0.8,0.4-1.6,0.8-2.5,0.8c-0.4-0.3,0-0.8-0.3-1.1c0.2-0.3,0.4-0.5,0.6-0.8
		c0.4-0.4,0.3-0.4,0-0.9c-0.1-0.1-0.1-0.4,0-0.6c0.9-3.6,0.1-7.2-0.2-10.8C101,255.3,100.4,251.7,99.8,248.2z"/>
	<path class="st0" d="M96.4,237c0.5,0.1,0.8,0.2,0.6,0.9c-0.1,0.3,0.1,0.5,0.4,0.6c0.3,0,0.4-0.3,0.5-0.5c0.1-0.2,0.1-0.4,0.1-0.6
		c0-0.5,0.1-0.8,0.7-0.8c0.5,0,0.7,0.3,0.9,0.8c0.4,1.3,0.4,2.7,0.4,4c0,1.2,0.8,1.7,1.3,2.5c0.5,0.7,0.8,1.3,0.4,2
		c-0.4,0.6,0.6,1-0.1,1.4c-0.5-0.2-0.5-0.9-1-1.1c-0.3-0.1-0.5-0.4-0.8-0.2c-0.3,0.2-0.1,0.5,0,0.7c0.1,0.3,0.2,0.7-0.1,1
		C98.8,244,97.5,240.5,96.4,237z"/>
	<path class="st0" d="M95.2,233.2c0.6,0.1,0.5,0.7,0.6,1c0.2,0.8,0.9,1.5,0.5,2.5C95.9,235.5,95.5,234.3,95.2,233.2z"/>
	<path class="st0" d="M102.5,224.8c-0.3,1.2-0.8,1.3-2.1,0.5C101,224.9,101.7,224.8,102.5,224.8z"/>
	<path class="st0" d="M96.2,226.6c0,0.4,0,0.8-0.4,0.9c-0.3,0.1-0.5-0.2-0.6-0.4C95.5,226.8,95.8,226.6,96.2,226.6z"/>
	<path class="st0" d="M100.4,225.3c-0.3,0.6-0.6,1.3-1.3,0.3C99.5,225.3,99.9,225.3,100.4,225.3z"/>
	<path class="st0" d="M105.1,246.3c0-1.1,0.4-1.6,1.2-1.6c1,0.1,1.1,0.8,1.1,1.6c0,0.8-0.2,1.5-1.2,1.5
		C105.2,247.8,105,247.2,105.1,246.3z"/>
	<path class="st0" d="M95.1,229.7c1.4,0.4,1.9,1.3,2.5,2.1c0.3,0.4,0.3,1.1-0.2,1.4c-0.5,0.3-0.9-0.1-1.3-0.5
		C95.5,231.9,96,230.7,95.1,229.7z"/>
	<path class="st0" d="M97.9,235.5c-0.2,0.4,0,1.2-0.6,1c-0.9-0.3-0.4-1.3-0.8-1.9c-0.1-0.2,0.1-0.4,0.4-0.3
		C97.6,234.4,98,234.8,97.9,235.5z"/>
	<path class="st0" d="M107.1,250.4c0.3,0.5,0.6,0.9,0.8,1.4c0.2,0.5-0.2,1-0.7,1c-0.5,0-0.3-0.5-0.3-0.8c0-0.5,0-1.1,0-1.6
		C106.9,250.4,107,250.4,107.1,250.4z"/>
	<path class="st1" d="M99.5,219.5c0.2-0.1,0.3-0.1,0.5-0.1c1.9,0,3.9,0,5.8,0c0.8,0.1,1.6,0.1,2.4,0.2c0,0.4,0,0.7,0,1.1
		c0,1.1-0.1,2.3-0.1,3.4c-0.1,0.6-0.1,1.3-0.2,1.8c-4.6,0.4-8.9,8-12.8,4.8c-2.7-0.8-3.3-8.6-3.3-9.8
		C93.3,220.5,97.9,219.7,99.5,219.5L99.5,219.5z"/>
</g>
</svg>
