<?xml version="1.0" encoding="UTF-8"?>
<?xml-stylesheet type="text/css" href="../styles.css"?>

<svg id="hatSvg" data-name="Layer 1" xmlns="http://www.w3.org/2000/svg" viewBox="0 0 797.06 332.04">
  <defs>
    <style>
      .cls-1 {
        fill: #654b2e;
      }

      .cls-2 {
        fill: #97743e;
      }

      .cls-3 {
        fill: #7d5f3b;
      }

      .cls-4 {
        fill: #9c9c9c;
      }

      .cls-5 {
        fill: #94733f;
      }

      .cls-6 {
        fill: #b5975e;
      }

      .cls-7 {
        fill: #8d6d40;
      }

      .cls-8 {
        fill: #8e2829;
      }

      .cls-9 {
        fill: #322e26;
      }

      .cls-10 {
        fill: #d8b368;
      }

      .cls-12 {
        fill: #d5b067;
      }

      .cls-13 {
        fill: #c6a461;
      }

      .cls-15 {
        fill: #d6b268;
      }

      .cls-16 {
        fill: #25211a;
      }

      .cls-17 {
        fill: #211d18;
      }

      .cls-18 {
        fill: #442420;
      }

      .cls-19 {
        fill: #3e181b;
      }

      .cls-20 {
        fill: #702022;
      }

      .cls-21 {
        fill: #715335;
      }

      .cls-22 {
        fill: #541b1c;
      }

      .cls-23 {
        fill: #9a773e;
      }

      .cls-24 {
        fill: #551b1b;
      }

      .cls-25 {
        fill: #775a39;
      }

      .cls-26 {
        fill: #612e27;
      }

      .cls-27 {
        fill: #5e4429;
      }

      .cls-28 {
        fill: #83653e;
      }

      .cls-29 {
        fill: #522a24;
      }
    </style>
  </defs>
  <path class="cls-10" d="m445.82,3.02c5.7,1.4,11.39,2.79,17.09,4.18.52.6.93,1.5,1.59,1.75,6.64,2.48,13.55,4.36,19.95,7.34,18.24,8.49,36.87,16.42,50.45,32.34,6.99,8.2,14.52,15.93,21.77,23.9.54.59.79,1.45,1.15,2.19,5.85,11.84,13.4,22.9,16.62,35.96.83,5.45,1.66,10.89,2.5,16.34-1.01,3.84-2.26,7.63-2.96,11.52-.65,3.59-.11,7.47-1.18,10.88-1.45,4.61-3.93,8.89-5.97,13.31l-.23,6.21c-1.85,2-3.7,4-5.54,6-.31-6.74.3-13.68-4.51-20.42.89,10.14,1.69,19.31,2.49,28.48,0,5,.11,10.07-6.02,11.99-.42,1.34-.85,2.68-1.27,4.02-3.01,3.87-6.01,7.75-9.02,11.62-10.12-1.28-20.26-2.47-30.37-3.88-7.8-1.09-15.54-2.64-23.36-3.61-7.84-.97-15.76-1.32-23.61-2.23-12.57-1.47-25.06-3.77-37.67-4.63-14.23-.97-28.55-.73-42.83-1.02-.35,0-.69-.01-1.04-.02-4.99-.01-9.98-.03-14.97-.04-.67,0-1.34,0-2.01-.01-6.97.05-13.94.1-20.91.16-1.04.2-2.07.39-3.11.59-10.56.37-21.12.73-31.69,1.12-1.32.05-2.64.16-3.94.34-9.06,1.25-18.11,2.59-27.18,3.74-1.67.21-3.51-.75-5.13-.43-5.06.99-10.05,2.34-15.06,3.55,0-1.31.02-2.62.03-3.93.57-.27,1.64-.55,1.64-.8-.13-5.84-.37-11.67-.59-17.51,0-3.04.02-6.07.03-9.11.77.52,1.55,1.04,1.9,1.28,1.49-8.24,2.97-16.45,4.45-24.66-4.41,6.54-6.57,13.68-6.53,21.46-.59-.01-1.18-.02-1.77-.04v-21.08c-.62-.03-1.23-.06-1.85-.09-.13,5.41-.26,10.81-.39,16.22-2.36-1.61-4.73-3.23-7.09-4.84.35-3.58.77-7.15.95-10.74.03-.51-1.12-1.08-1.72-1.62-1.32-4.57-2.65-9.15-3.97-13.72.56-3.32,1.13-6.64,1.69-9.96,1.6-3.91,3.34-7.77,4.75-11.75,1.56-4.39,2.81-8.89,4.2-13.34,1.47-2.98,2.93-5.96,4.4-8.95,1.18-1.69,2.34-3.4,3.55-5.07,6.17-8.5,12.08-17.21,18.64-25.4,4.58-5.72,9.42-11.63,15.3-15.82,10.24-7.28,21.14-13.74,32.21-19.73,11.31-6.13,21.91-14.14,35.49-15.16,1.7-.13,3.28-1.87,4.92-2.86,4.03-.89,8.04-1.82,12.08-2.64,1.26-.26,2.57-.21,3.86-.31.98,0,1.96,0,2.94.01,4.29-.69,8.59-1.38,12.88-2.07,1.73.36,3.47,1.06,5.19,1.01,5.4-.17,10.8-.91,16.2-.88,7.54.03,15.07.55,22.6.87Zm-160.01,135.36c-4.65,4.7-7.03,26.75-3.71,31.68,1.21-10.33,2.45-20.92,3.71-31.68Zm262.64,14.33c-.97.1-1.93.19-2.9.29.94,8.49,1.87,16.98,2.81,25.47.62-.05,1.24-.1,1.86-.14-.59-8.54-1.18-17.08-1.78-25.62Zm-2.57-17.96c.9-.13,1.79-.27,2.69-.4-1.11-8.03-2.22-16.06-3.33-24.09-.78.11-1.55.22-2.33.32.99,8.05,1.98,16.11,2.97,24.16Zm-280.08-4.45c4.09-7.35,7.5-13.48,11.17-20.07-4.87,1.42-12.28,14.02-11.17,20.07Zm272.22,1.08l1.51-.13c1.28-12.06-.23-20.38-4.1-22.61.87,7.6,1.73,15.17,2.59,22.74Zm-232.74,40.02c-3.44,4.53-2.89,17.61,0,20.26v-20.26Zm-22.08-44.27c.84.32,1.69.63,2.53.95,2.83-6.71,5.65-13.41,8.48-20.12-.68-.28-1.37-.57-2.05-.85-2.99,6.67-5.98,13.35-8.97,20.02Zm12.99,35.3c1.23-8.3,2.47-16.59,3.7-24.89-.55-.07-1.09-.14-1.64-.2-2.65,8.14-4.27,16.42-2.06,25.09Zm190.14-121.65c3.26,6.09,6.53,12.21,9.81,18.33-.76-10.52-5.66-18.52-9.81-18.33Zm51.84,135.74c.49-.02.98-.03,1.47-.05.32-8.3,1.14-16.62-1.31-24.83-.52.02-1.04.04-1.56.06.47,8.27.93,16.54,1.4,24.81Zm-2.24-108.34c-.54.13-1.07.26-1.61.38,1.72,6.69,3.44,13.37,5.17,20.06,2.54-7.7-.8-14-3.56-20.44Zm-198.64,5.72c-5.3,2.66-11.58,16.33-9.9,19.96,3.38-6.82,6.64-13.39,9.9-19.96Zm-10.25.14c-5.34,2.5-10.94,13-10,18.27,3.68-6.72,6.84-12.5,10-18.27Zm179.22-4.88c2.79,5.2,5.42,10.09,8.4,15.62.89-9.57-4.19-17.35-8.4-15.62Zm-180.81,56.08l2.21.89c2.34-5.81,4.68-11.61,7.03-17.42-.78-.31-1.55-.62-2.33-.93-2.3,5.82-4.61,11.65-6.91,17.47Zm-6.39,1.26c.49.15.99.29,1.48.44,2.12-5.73,4.23-11.47,6.35-17.2-.52-.18-1.04-.37-1.57-.55-2.69,5.55-6.95,10.52-6.27,17.31Zm5.2,35.65c.89-6.75,1.67-12.68,2.59-19.65-4.91,4.88-6.18,15.24-2.59,19.65Zm-46.25-36.75c.5.15.99.29,1.49.44,2-5.82,3.99-11.65,5.99-17.47-.63-.19-1.25-.39-1.88-.58-2.57,5.67-5.53,11.22-5.6,17.61Zm212.04-48.2c-.44.22-.87.44-1.31.66,2.66,5.36,5.33,10.71,7.99,16.07.42-6.9-1.88-12.44-6.68-16.73Zm31.17,92.52c.52-.09,1.04-.17,1.56-.26-.06-6.26.08-12.55-3.25-18.19-.56.1-1.13.19-1.69.29,1.13,6.05,2.26,12.1,3.39,18.15Zm3.36-59.31c1.84,5.91-1.73,12.7,2.65,18.19.72-6.33,1.41-12.65-2.65-18.19Zm-37.57-16.37c.74-.28,1.48-.57,2.21-.85-1.84-5.63-3.68-11.25-5.52-16.88-.73.25-1.45.49-2.18.74,1.83,5.66,3.65,11.33,5.48,16.99Zm-181.27,13.21c-4.69,2.81-7.88,14.46-4.95,18.14,1.66-6.1,3.25-11.92,4.95-18.14Zm210.65-49.4c.98-9.47-2.08-16.82-6.26-17.29,2.1,5.8,4.18,11.54,6.26,17.29Zm-198.41,86.79c-4.42,4.11-5.29,14.72-2.41,18.91.82-6.42,1.61-12.66,2.41-18.91Zm191.03,4.04c-.77.04-1.53.09-2.3.13.52,6.58,1.05,13.15,1.57,19.73l1.81-.11c-.36-6.58-.72-13.17-1.08-19.75Zm-156.85-111.52c-4.88.68-9.88,7.73-9.57,13.02,3.61-4.91,6.59-8.97,9.57-13.02Zm128.17,140.27c-.75.08-1.49.17-2.24.25.82,6.92,1.64,13.84,2.46,20.76.62-.07,1.24-.15,1.86-.22-.69-6.93-1.38-13.86-2.08-20.79Zm-136.14-101.62c-5.5,3.37-7.71,9.19-6.18,14.78,2.29-5.48,4.23-10.13,6.18-14.78Zm211.11,39.68c-.52.08-1.04.17-1.55.25.9,5.59,1.8,11.17,2.69,16.76.43-.07.86-.14,1.29-.21.31-5.78.9-11.6-2.43-16.8Zm-242.4-8.38c-5.01,4.07-7.1,12.46-4.5,16.78,1.47-5.48,2.86-10.67,4.5-16.78Zm169.93-51.7c1.1-9.55-1.75-17.27-5.36-17.58,1.77,5.81,3.56,11.69,5.36,17.58Zm19.49,56.79c-.47.11-.94.22-1.41.32,1.27,5.65,2.55,11.29,3.82,16.94,1.51-6.29,1.02-12.11-2.41-17.26Zm10.14,16.19c1.81-6.33,1.75-12.37-1.29-17.95-.43.07-.85.13-1.28.2.86,5.92,1.72,11.83,2.57,17.75Zm-247.22-11.38c-6.83,5.8-8.6,11.84-6.14,14.73,1.98-4.75,4.06-9.74,6.14-14.73Zm276.87,88.69c2.84-5.57,1.42-15.28-2.1-17.3.72,5.96,1.41,11.63,2.1,17.3Zm-15.73-160.54c2.52,4.97,4.62,9.11,6.86,13.53,1.37-6.17-1.27-11.97-6.86-13.53Zm-146.89,74.16c.85.12,1.71.25,2.56.37.55-4.66,1.11-9.32,1.66-13.98-.76-.09-1.51-.19-2.27-.28-.65,4.63-1.3,9.26-1.95,13.89Zm-9.88,7.81c.77.11,1.53.21,2.3.32.73-4.6,1.46-9.19,2.19-13.79-.83-.12-1.65-.24-2.48-.36-.67,4.61-1.34,9.23-2.01,13.84Zm178.87-34.39c1.74-6.59-1.72-14.06-5.11-13.85,1.69,4.59,3.4,9.22,5.11,13.85Zm-50.93-51.9c2.25,5.67,4.1,10.35,6.27,15.81,1.51-6.15-1.16-12.99-6.27-15.81Zm6.51,158.77c.68-.06,1.36-.13,2.05-.19-.43-5.2-.87-10.4-1.3-15.6-.73.07-1.46.13-2.19.2.48,5.2.96,10.4,1.44,15.59Zm-207.01-23.92c-.73-.09-1.46-.17-2.2-.26-.78,5.31-1.55,10.63-2.33,15.94.65.09,1.3.18,1.94.27.86-5.31,1.72-10.63,2.58-15.94Zm118.54.09c-.34,0-.69,0-1.03,0v17.52c.34,0,.69,0,1.03,0v-17.52Zm-14.35,16.44c4.26-4.7,4.8-11.84,2.26-15.61-.76,5.26-1.51,10.43-2.26,15.61Zm-57.52-107.05c.52.26,1.03.52,1.55.78,3.02-3,4.98-6.43,4.54-10.84-.43-.19-.87-.37-1.3-.56-1.6,3.54-3.19,7.08-4.79,10.61Zm-9.21-37.21c.72.41,1.44.83,2.16,1.24,1.52-4.06,5.87-6.53,6.16-11.29-.47-.28-.94-.56-1.41-.84-2.3,3.63-4.6,7.26-6.9,10.89Zm10.04,142.04c3.13-3.3,3.27-8.54,0-12.42v12.42Zm-9.86-44.12c-.16.06-.31.12-.47.18v10.1c.16,0,.31-.01.47-.02v-10.26Z"/>
  <path class="cls-15" d="m788.03,264.87c.96.11,1.91.23,2.87.34,2.98,1.94,4.12,4.11.85,6.83-2.95.65-5.9,1.3-9.34,2.06.12-.25-.21.42-.55,1.09-3.13-.14-6.26-.29-9.09-.42-2.65.8-5.28,1.58-7.91,2.37-8.33.7-16.67,1.41-25,2.11-1.33.33-2.66.66-3.99.99-2.04,0-4.08-.02-6.12-.02-.47-.56-.94-1.13-1.41-1.69l-1.54,2.52c-2.28-.02-4.55-.04-6.83-.06-.29-.5-.58-1.01-.87-1.51-.43.51-.87,1.02-1.3,1.54-1.76.36-3.52.97-5.29,1.05-9.9.45-19.8.77-29.7,1.13-.72-.08-1.43-.16-2.15-.24-2.96.5-5.93,1-8.89,1.5-1.01-.68-2.02-1.36-3.4-2.28-.17,1.21-.29,2.08-.41,2.95-1.32-.02-2.66-.16-3.97-.05-2.75.24-5.49.61-8.23.92-1.14.14-2.3.2-3.43.43-9.14,1.91-18.28,3.86-27.42,5.79-.68.27-1.37.54-2.05.81-.66.03-1.32.06-1.98.09-.33-1.01-.67-2.02-1-3.03h0c.32-.23.63-.46.95-.68,2.78-.7,5.57-1.39,8.35-2.09-.07-.4-.13-.81-.2-1.21-2,.13-4.03.13-6.01.42-9.71,1.41-19.41,2.9-29.12,4.36-.96-1.26-2.02-2.45-2.86-3.78-2.1-3.32-4.1-6.69-6.13-10.04,6.86,1.81,12.23-2.37,19.39-4.06-2.67-.94-4.05-1.43-5.43-1.91-.74-.65-1.67-1.99-2.19-1.85-6.61,1.84-13.17,3.9-19.74,5.9-.02-1.06-.05-2.13-.07-3.19,2.13-.68,4.31-1.25,6.39-2.07,2.07-.82,4.05-1.89,6.07-2.86l-.57-1.28c-6.39,1.57-13.27,1.52-18.69,6.27l-2.2-3.08c3.97-1.45,7.95-2.9,11.92-4.34-.16-.55-.32-1.1-.47-1.66-5.1,1.12-10.2,2.24-15.31,3.36-.03-.37-.07-.73-.1-1.1,3.02-1.54,6.03-3.09,9.05-4.63-.25-.58-.5-1.16-.74-1.73-6.38,2.19-12.76,4.39-19.14,6.58-1.73-1.82-3.47-3.64-5.2-5.46,12.01-2,24.03-4,36.04-6,3.28,3.4,7.33,4.58,11.94,4.17-.89,1.09-1.79,2.18-2.68,3.27.09.42.17.84.26,1.26,5.18-1.07,10.37-2.13,15.55-3.2-.03.54-.05,1.08-.08,1.62-1.89.69-3.78,1.37-5.67,2.06.11.45.23.9.34,1.35,7.44.48,14.15-3.33,21.32-4.42,1.15-.17,2.31-.34,3.46-.5-.02-.37-.03-.74-.05-1.11-1.19-.09-2.37-.18-3.56-.27-1.93.23-3.85.46-5.78.69-1.12-.86-2.25-1.71-3.37-2.57-2.88.21-5.76.42-8.64.62-.02-.61-.04-1.21-.06-1.82,5.99-.29,11.98-.58,17.96-.86,6.61.93,13.22,1.86,19.83,2.8,6.62.94,13.21,2.18,19.86,2.71,4.13.33,8.35-.43,12.52-.69,5.18.6,10.36,1.14,15.53,1.82,8.11,1.06,16.2,2.2,24.3,3.3,1.54.68,3.07,1.93,4.61,1.95,9.11.1,18.23-.08,27.34-.17.04.78.08,1.55.12,2.33-6.99.99-13.98,1.98-20.98,2.97-1.1.07-2.21.15-3.31.22-6.23-.25-12.52-.87-18.04,2.62.07.46.14.91.2,1.37,6-.83,11.99-1.66,17.99-2.49,1.06-.05,2.12-.11,3.18-.16,8.82-.61,17.65-1.11,26.46-1.87,4.33-.37,8.62-1.22,12.93-1.85.65,0,1.31,0,1.96.01,3.54-.31,7.07-.62,10.61-.93,2.45-.06,5.23.34,4.97-3.53.55-.11,1.1-.22,1.65-.33.48.17.96.35,1.44.53Zm-175.15,15.24c-.64-.28-1.28-.55-1.92-.83,2.29-.9,4.59-1.79,6.88-2.69-.23-.66-.46-1.31-.69-1.97-7.61,1.83-15.21,3.65-22.82,5.48.09.57.18,1.15.28,1.72,2.41-.29,4.83-.57,7.24-.86-.16,1.54-.32,3.09-.63,6,1.82-1.37,2.74-2.06,3.66-2.75l19.53-2.23c-.03-.62-.07-1.25-.1-1.87h-11.44Zm44.94-10.98c.41-.56.83-1.13,1.43-1.95-8.71-.41-16.52.91-23.48,5.88,7.37-1.32,14.74-2.65,22.11-3.97-1.48,1.44-2.97,2.87-5.48,5.31,10.72-1.89,20.19-3.57,29.66-5.24-1.95-1.05-3.76-1.13-5.56-1.04-6.23.31-12.45.68-18.67,1.02Zm-12.24,12.17l.28,1.58c12.29.03,23.78-4.49,35.78-6.12l-.46-2.51c-11.87,2.35-23.73,4.7-35.6,7.06Zm-10.38-14.59c-.11-.74-.22-1.48-.33-2.22-5.44.8-10.89,1.6-16.33,2.4.1.72.2,1.44.31,2.16,5.45-.78,10.9-1.56,16.36-2.33Z"/>
  <path class="cls-12" d="m59.82,248.21c6.71-1.04,13.42-2.12,20.14-3.12,4.97-.74,9.96-1.37,14.94-2.05,7.49.02,14.99.2,22.47-.03,2.86-.09,5.68-1.13,8.53-1.74,13.31.2,26.61.4,39.92.61-.98,1.67-1.96,3.35-2.94,5.02-1.13.21-2.25.42-3.38.64,0,.32,0,.63,0,.95,4.49.74,8.98,1.48,13.47,2.22-.03,1.13-.06,2.25-.09,3.38-6.42-1.01-12.82-2.1-19.26-2.95-1.18-.16-2.5.7-3.75,1.09l.91,3.16c-4.85-.75-9.81-2.55-14.51-2.01-8.19.94-16.24,1.29-24.37.03,0-.42,0-.84,0-1.26-2.47-2.68-10.81-3.07-14.67-.39,3.79.34,7.21.66,10.64.97,0,.42,0,.83,0,1.25-5.76,1.15-11.51,2.3-17.27,3.45.04.43.09.86.13,1.3,1.69,0,3.45.29,5.07-.04,17.59-3.6,35.29-3.12,53.03-1.55-.27,3.33-.54,6.67-.82,10-1.7.32-3.4.63-5.1.95-3.29-1.38-6.57-2.76-9.86-4.14-2.36-.24-4.72-.48-7.08-.72-9.73.71-19.45,1.42-29.18,2.13-3.26-.98-6.52-1.97-9.77-2.95-2.32-.14-4.64-.29-6.97-.43,2.08-1.07,4.16-2.14,6.24-3.21l-.25-.93c-5.34.53-10.68,1.06-16.02,1.6-11.43.82-22.86,1.63-34.29,2.45-.04.47-.09.95-.13,1.42,1.14.25,2.33.83,3.42.7,6.06-.74,12.07-1.92,18.15-2.42,4.23-.34,8.53.19,12.81.33,1.93.11,3.86.22,5.79.33-9.51,4.27-19.57,3.99-29.65,3.73-3.41-.09-6.82.22-10.24.35-1.37.5-2.74,1.01-4.11,1.51-.96.08-1.92.17-2.88.25-3.08.02-6.23.42-9.22-.08-2.02-.34-3.84-1.94-5.75-2.97.02-.26.03-.53.04-.79h9.3c0-.54-.01-1.08-.02-1.61-5.8-.5-11.6-.99-17.39-1.49-1-3.81,2.62-4.16,4.38-4.6,5.02-1.26,10.24-1.8,15.4-2.42,9.54-1.13,19.11-2,28.63-3.26,1.94-.26,3.72-1.74,5.58-2.66Zm20.54,5.81c-5.28-.5-10.63-2.09-15.59,1.01,5.29.91,10.59,2.15,15.59-1.01Z"/>
  <path class="cls-23" d="m247.91,297.94c-.37,0-.73.02-1.1.03-.96-.99-1.75-2.51-2.9-2.88-7.81-2.52-15.66-4.99-23.6-7.04-2.64-.68-5.61-.1-8.43-.09-.35,0-.71,0-1.06,0-1.38-.97-2.64-2.21-4.16-2.84-2.17-.91-4.53-1.37-6.8-2.02-.3-3.36-.61-6.72-.91-10.08,2.74.44,5.52.71,8.21,1.36,10.25,2.48,20.48,5.09,30.71,7.65,2.95,1.04,5.9,2.09,8.85,3.13,1.72.96,3.44,1.91,5.15,2.87,2.34.68,4.68,1.35,7.02,2.03,9.93,2.68,19.88,5.32,29.8,8.08,3.07.86,6.04,2.04,9.04,3.13,3.36,1.22,6.7,2.5,10.04,3.75,0,1.36,0,2.71,0,4.07-1.96.33-3.91.66-5.87.99-.41-.14-.83-.27-1.24-.41l-1.94-3.53c-2.14,1.27-4.6,3.93-6.37,3.54-5.63-1.24-11-3.63-16.48-5.58-5.04-1.76-9.97-3.95-15.14-5.16-4.13-.96-8.53-.72-12.82-1.02Z"/>
  <path class="cls-16" d="m791.75,272.04c3.26-2.72,2.13-4.89-.85-6.83,1.98.7,5.7,1.59,5.65,2.05-.38,3.3,2.26,6.96-1.7,9.98-7.33,5.59-15.82,6.72-24.5,7.93-15.99,2.23-31.89,4.83-48.12,5.22-7.83.19-15.6,2.72-23.4,4.18-.96.18-1.93.4-2.9.47-5.58.39-11.24,1.49-16.73.94-14.2-1.43-27.4,2.58-40.74,6.23-1.7.47-3.55,1.05-5.23.83-9.71-1.31-18.88,1.7-28.13,3.52-15,2.94-29.66,7.56-45.29,6.73-4.14-.22-8.39,2.06-12.62,3.05-1.72.4-3.53.44-5.29.64.74-.93,1.36-2.55,2.23-2.7,9.2-1.57,18.43-2.9,27.66-4.3.78-.1,1.56-.2,2.34-.31,8.82-.02,17.19-1.7,24.67-6.68.64.08,1.28.17,1.93.25,5.34-.8,10.68-1.6,16.02-2.41,1.01-.2,2.02-.4,3.02-.59,13.2,1.97,25.51-.78,37.14-7.07,3.99.03,7.98.06,11.97.08,1.04.09,2.09.18,3.13.28,2.51.02,5.02.05,7.53.07,1.07-.21,2.15-.42,3.22-.63.15-.27.21-.56.17-.86l-.03.06c11.45.72,22.67-.87,33.82-3.27,1.11-.36,2.23-.72,3.34-1.08,1.85-.06,3.71-.11,5.56-.17,2.48.06,4.96.11,7.43.16,3.35-.53,6.7-1.06,10.05-1.59,4.74-.39,9.52-.52,14.2-1.27,2.93-.47,5.71-1.89,8.56-2.88,3.04,2.11,5.2.68,7.12-1.75.64-.11,1.28-.22,1.91-.32.29.09.58.13.88.13.36.24.71.48,1.07.72l6.14-1.7c4.83-.03,8.4-1.61,8.8-7.11Z"/>
  <path class="cls-16" d="m300.65,309.69c.41.14.83.27,1.24.41,1.92.85,3.83,1.7,5.75,2.55,1.11.44,2.22.87,3.33,1.31,7.35,1.85,14.69,3.74,22.05,5.56,9.42,2.33,18.84,4.6,28.68,3.2.71.14,1.42.29,2.14.43.43.85.74,2.32,1.32,2.44,6.15,1.29,12.31,2.86,18.54,3.35,5.69.45,11.47-.34,17.21-.59.72.13,1.45.26,2.17.38,1.86,0,3.72,0,5.58-.01,1.41-.89,2.82-1.77,4.23-2.66.66,0,1.32-.01,1.99-.02,3.44,3.15,6.87,4.58,12.03,3.4,7.12-1.63,14.61-1.65,21.95-2.35,6.69-.64,13.38-1.26,20.06-1.89,1.7-.35,3.44-.57,5.1-1.07,2.98-.9,5.91-1.96,8.86-2.95,1.97-.65,3.93-1.31,5.9-1.96,3.04.57,6.07,1.14,9.11,1.7,1.92-.16,3.84-.4,5.77-.48,5.4-.21,10.8-.34,16.2-.51-5.69,1.05-11.35,2.2-17.06,3.13-10.07,1.64-20.15,3.18-30.24,4.7-3.55.54-7.12,1.05-10.7,1.34-9.98.8-19.97,1.48-29.95,2.2-1.02.24-2.03.48-3.05.72-6.94,0-13.88,0-20.83,0-.39-.24-.77-.47-1.16-.71-8.27-.29-16.54-.61-24.81-.86-8-.24-16-.41-23.17-4.74-.65-.39-1.52-.48-2.3-.58-10.47-1.37-21-2.39-31.39-4.19-6.93-1.21-13.64-3.68-20.51-5.31-3.76-.89-7.81-.74-11.46-1.91-5.9-1.88-11.58-4.46-17.35-6.75,0-.95,0-1.91,0-2.86,5.47,1.95,10.85,4.33,16.48,5.58,1.78.39,4.23-2.27,6.37-3.54.65,1.18,1.29,2.35,1.94,3.53Z"/>
  <path class="cls-23" d="m519.83,319.94c-5.4.16-10.8.3-16.2.51-1.93.07-3.84.31-5.77.48.33-2.24.67-4.48,1-6.72,1.94-.39,3.88-.78,5.81-1.17,1.54.37,3.18,1.28,4.6,1.02,8.22-1.51,16.39-3.3,24.57-5,.66,0,1.32-.02,1.98-.03,1.68-.3,3.35-.6,5.03-.9,10.32-2.02,20.64-4.04,30.95-6.07-.02,2.64-.04,5.28-.06,7.92-9.23,1.4-18.46,2.73-27.66,4.3-.87.15-1.49,1.77-2.23,2.7-1.31.08-2.62.16-3.92.25-2.65.36-5.31.73-7.96,1.09,0,0-.08-.16-.08-.16-1.37.3-2.74.6-4.1.9-1.99.3-3.98.6-5.98.89Z"/>
  <path class="cls-9" d="m574.44,110.68c-3.22-13.06-10.77-24.11-16.62-35.96-.37-.74-.62-1.6-1.15-2.19-7.25-7.97-14.78-15.71-21.77-23.9-13.57-15.93-32.2-23.85-50.45-32.34-6.4-2.98-13.31-4.86-19.95-7.34-.66-.24-1.07-1.15-1.59-1.75,4.25.92,8.67,1.36,12.7,2.86,8.48,3.16,16.97,6.45,25.05,10.49,6.42,3.21,11.91,8.35,18.4,11.35,10.79,4.99,17.2,14.64,25.17,22.48,6.63,6.51,11.88,14.61,16.9,22.54,4.79,7.58,8.65,15.77,12.58,23.85,1.22,2.51,1.36,5.56,1.99,8.36-.42.52-.85,1.03-1.27,1.55Z"/>
  <path class="cls-17" d="m574.44,110.68c.42-.52.85-1.03,1.27-1.55,1.04,3.73,1.87,7.54,3.15,11.18,3.71,10.54,4.47,21.49,5,32.5.62,12.82,1.51,25.63,1.94,38.46.16,4.89-.63,9.82-.99,14.73-.65.9-1.86,1.8-1.87,2.7-.12,10.95-.12,21.9.03,32.85.02,1.23,1.18,2.44,1.82,3.66.41,2.4.73,4.82,1.3,7.17.16.65,1.15,1.59,1.7,1.56,5.22-.33,10.03,1.77,15.82-.17,6.44-2.16,14.12-.65,21.26-.73-.01.41-.02.82-.04,1.23-5.99.29-11.98.58-17.96.86-2.62.98-5.25,1.97-7.87,2.95-1.06.02-2.12.03-3.18.05-4.61.41-8.66-.76-11.94-4.17-.34-1.29-.68-2.58-1.02-3.87-.34-5.74-.51-11.49-1.07-17.2-.33-3.3-1.28-6.54-1.96-9.81-.03-1.07-.06-2.13-.1-3.2.71-2.75,1.67-5.46,2.08-8.25.45-3.1.5-6.27.56-9.42.26-13.75.88-27.52.52-41.26-.22-8.43-1.82-16.84-3.12-25.21-.46-2.99-1.87-5.83-2.85-8.74-.83-5.45-1.66-10.89-2.5-16.34Z"/>
  <path class="cls-9" d="m370.06,7.04c-1.64.99-3.22,2.73-4.92,2.86-13.59,1.03-24.19,9.04-35.49,15.16-11.06,6-21.97,12.45-32.21,19.73-5.89,4.19-10.72,10.1-15.3,15.82-6.56,8.19-12.47,16.9-18.64,25.4-1.21,1.67-2.37,3.38-3.55,5.07,2.04-5.18,3.12-11.07,6.33-15.38,7.26-9.77,14.83-19.54,23.68-27.81,7.54-7.05,16.81-12.41,25.74-17.8,10.69-6.45,21.54-12.79,32.89-17.92,6.58-2.98,14.28-3.5,21.47-5.13Z"/>
  <path class="cls-17" d="m199.85,283.11c2.28.65,4.63,1.11,6.8,2.02,1.52.63,2.78,1.87,4.16,2.84-6.36-1.48-12.72-2.96-19.08-4.43-3.56-.82-7.09-2.18-10.68-2.33-10.6-.42-20.9-2.09-30.83-5.89-.74-.28-1.63-.15-2.46-.2-13.59-.83-27.19-1.66-40.78-2.5-.11,0-.21-.24-.32-.37.07-.38.15-.76.22-1.14,1.64-.26,3.28-.52,4.91-.78,5.27.48,10.54.96,15.8,1.44,1.72.14,3.45.27,5.17.41,3.36.25,6.73.51,10.09.76,1.96,0,3.92,0,5.88,0,.75-.04,1.5-.08,2.25-.12,4.29,1.02,8.58,2.05,12.88,3.07,8.42,3.67,17.26,2.18,25.99,2.17,2.65,1.37,5.3,2.73,7.96,4.1v-.04c.34.33.69.65,1.04.98l.49.05.49-.04Z"/>
  <path class="cls-17" d="m246.61,125.12c-.56,3.32-1.13,6.64-1.69,9.96-1.32,10.92-3.24,21.8-3.8,32.76-.68,13.38-.21,26.82-.23,40.23-.3,1.35-.61,2.7-.91,4.05-.04.83-.22,1.68-.09,2.48,1.24,8.02,2.27,16.01-1.65,23.68-.19.38.45,1.19.71,1.79-.36.97-.73,1.94-1.09,2.92-.65-.05-1.31-.1-1.96-.15-.02-.62-.05-1.24-.07-1.86.34-2.41.32-4.94,1.1-7.2,1.85-5.39,1.19-10.75,1.12-16.28-.21-15.58.64-31.17.76-46.75.05-6.76.61-13.26,2.61-19.81,1.12-3.67.14-7.93.53-11.89.46-4.67,1.38-9.3,2.09-13.94.86,0,1.72,0,2.58.01Z"/>
  <path id="leftEdgeHat" class="cls-5" d="m13.9,265.04c1.91,1.04,3.72,2.64,5.75,2.97,3,.5,6.14.09,9.22.08.25,2.38-1,5.5,3,6.01.15.19.31.36.48.52-1.63.48-3.23,1.18-4.89,1.39-4.18.51-8.4.79-12.6,1.17-3.05-1.97-6.11-3.92-9.13-5.93-1.95-1.3-3.82-2.7-5.73-4.06.27-1,.54-1.99.81-2.99.71.01,1.42.03,2.13.05,3.13,3.65,7.23,3.95,10.96.8Z"/>
  <path class="cls-9" d="m2.94,264.24c-.71-.02-1.42-.03-2.13-.05.84-2.03,1.17-4.62,2.65-5.95,1.91-1.71,4.65-2.64,7.17-3.47,2.57-.85,5.29-1.32,7.98-1.69,12.9-1.76,25.82-3.44,38.73-5.11.8-.1,1.64.15,2.47.23-1.85.92-3.64,2.4-5.58,2.66-9.52,1.26-19.09,2.13-28.63,3.26-5.17.61-10.38,1.15-15.4,2.42-1.76.44-5.38.79-4.38,4.6,0,.63-.02,1.26-.02,1.89-.95.4-1.9.8-2.86,1.2Z"/>
  <path class="cls-9" d="m235.82,240.99c.02.62.05,1.24.07,1.86-1.47.04-3.17.58-4.38.03-9.61-4.34-19.7-2.5-29.64-2.62-5.33.34-10.67.67-16,1.01-3,0-6,0-9,.01-1.68-.1-3.37-.21-5.05-.31.01-.56.02-1.11.04-1.67.32-.11.65-.22.97-.34,6.69-.24,13.38-.49,20.07-.73,9.31,0,18.63,0,27.94,0,2.65.33,5.3.66,7.95,1,2.34.58,4.68,1.17,7.03,1.75Z"/>
  <path class="cls-9" d="m624.84,254.28c.01-.41.02-.82.04-1.23,11.9-1.23,23.42,1.31,34.99,3.44,4.32.8,8.75,1.06,13.11,1.64,1.37.18,2.71.64,4.07.97-4.18.27-8.39,1.02-12.52.69-6.65-.53-13.24-1.78-19.86-2.71-6.61-.94-13.22-1.87-19.83-2.8Z"/>
  <path class="cls-16" d="m14.86,277.17c4.2-.37,8.41-.66,12.6-1.17,1.66-.2,3.26-.91,4.88-1.39,1.84-.54,3.68-1.09,5.53-1.63,4.35-.89,8.7-1.78,13.04-2.67.64.26,1.29.53,1.93.79,0,.31.03.61.09.91-8.11,2.03-16.15,4.41-24.35,5.94-4.45.83-9.17.22-13.77.26.01-.35.03-.7.04-1.05Z"/>
  <path class="cls-16" d="m211.88,287.96c2.82,0,5.79-.59,8.43.09,7.95,2.05,15.79,4.52,23.6,7.04,1.16.37,1.95,1.89,2.9,2.88-6.7-1.52-13.47-2.79-20.08-4.64-5.05-1.41-9.91-3.55-14.85-5.36Z"/>
  <path class="cls-13" d="m769.36,269.13c-.65,0-1.31,0-1.96-.01-1.5-.45-3-1.28-4.5-1.28-4.65,0-9.3.3-13.95.48-.04-.78-.08-1.55-.12-2.33-.01-.27-.02-.54-.02-.8,1.03-.43,2.06-.86,3.1-1.28,5.35-.22,10.71-.44,16.06-.65,2.43.62,4.9,1.15,7.29,1.92.9.29,1.61,1.15,2.41,1.74-2.77.74-5.54,1.47-8.31,2.21Z"/>
  <path class="cls-16" d="m445.82,3.02c-7.53-.31-15.07-.83-22.6-.87-5.4-.02-10.79.72-16.2.88-1.72.05-3.46-.65-5.19-1.01,2.74-.64,5.47-1.76,8.22-1.83,9.16-.23,18.33-.31,27.48.04,2.79.11,5.53,1.81,8.29,2.78Z"/>
  <path class="cls-17" d="m275.87,304.12c0,.95,0,1.91,0,2.86-7.07-2.28-14.14-4.56-21.21-6.85-2.25-.73-4.5-1.46-6.74-2.19,4.28.29,8.69.06,12.82,1.02,5.17,1.2,10.1,3.39,15.14,5.16Z"/>
  <path class="cls-11" d="m584.79,245.23c-.63-1.22-1.8-2.43-1.82-3.66-.15-10.95-.15-21.9-.03-32.85,0-.91,1.22-1.8,1.87-2.7,0,13.07-.02,26.14-.02,39.22Z"/>
  <path class="cls-14" d="m751.9,263.91c-1.03.43-2.06.86-3.1,1.28-8.46-.03-16.92.03-25.38-.19-1.54-.04-3.05-1.19-4.58-1.83,2.63-.02,5.25-.01,7.88-.08,7.87-.19,15.73-.44,23.59-.56.52,0,1.06.89,1.58,1.37Z"/>
  <path class="cls-9" d="m246.61,125.12c-.86,0-1.72,0-2.58-.01,2.62-6.69,5.14-13.42,7.93-20.04.78-1.86,2.38-3.37,3.6-5.04-1.39,4.45-2.64,8.95-4.2,13.34-1.41,3.98-3.15,7.84-4.75,11.75Z"/>
  <path class="cls-16" d="m171.85,239.3c-.01.56-.02,1.11-.04,1.67,0,0,.12.35.12.35-.69.11-1.38.22-2.08.33-1.35.07-2.7.15-4.05.22-13.31-.2-26.61-.4-39.92-.61,0-.33,0-.66-.01-.99,11.55-.18,23.1-.33,34.66-.54,3.77-.07,7.55-.28,11.32-.43Z"/>
  <path class="cls-9" d="m125.88,240.27c.01.33.02.66.01.99-2.84.61-5.67,1.66-8.53,1.74-7.48.23-14.98.05-22.47.03,3.44-.64,6.85-1.59,10.31-1.85,6.88-.51,13.78-.64,20.67-.92Z"/>
  <path class="cls-1" d="m52.93,272.02c-.06-.3-.09-.61-.09-.91,4.14,0,8.29.14,12.43-.03,3.88-.16,7.74-.64,11.61-.98,0,0,.48-.05.48-.05h.48c1.71-.05,3.42-.11,5.12-.16.26.04.52.09.77.15,1.55.36,3.1,1,4.66,1.03,6.16.12,12.33.04,18.49.04-.07.38-.15.76-.22,1.14-17.91-.08-35.83-.15-53.74-.23Z"/>
  <path class="cls-17" d="m14.86,277.17c-.01.35-.03.7-.04,1.05C8.15,279.95.02,273.89,0,267.19c1.91,1.36,3.78,2.76,5.73,4.06,3.02,2.01,6.09,3.96,9.13,5.93Z"/>
  <path class="cls-27" d="m777.67,266.92c-.8-.6-1.51-1.45-2.41-1.74-2.39-.77-4.85-1.3-7.29-1.92,4.22-.05,8.44-.22,12.65-.06,1.46.06,2.88.96,4.32,1.48.26,3.88-2.52,3.47-4.97,3.53-.77-.43-1.54-.85-2.31-1.28Z"/>
  <path class="cls-17" d="m718.85,263.18c1.53.64,3.04,1.79,4.58,1.83,8.46.21,16.92.15,25.38.19,0,.27.01.54.02.8-9.11.09-18.23.27-27.34.17-1.54-.02-3.08-1.27-4.61-1.95.66-.35,1.31-.69,1.97-1.04Z"/>
  <path class="cls-4" d="m529.99,318.31c2.65-.36,5.31-.73,7.96-1.09-2.65.36-5.31.73-7.96,1.09Z"/>
  <path class="cls-14" d="m428.85,332.04c1.02-.24,2.03-.48,3.05-.72-1.02.24-2.03.48-3.05.72Z"/>
  <path class="cls-28" d="m525.81,319.05c1.37-.3,2.74-.6,4.1-.9-1.37.3-2.74.6-4.1.9Z"/>
  <path class="cls-21" d="m388.94,4.11c-.98,0-1.96,0-2.94-.01.98,0,1.96,0,2.94.01Z"/>
  <path class="cls-11" d="m788.03,264.87c-.48-.18-.96-.35-1.44-.53.48.18.96.35,1.44.53Z"/>
  <path class="cls-14" d="m406.86,331.32c.39.24.77.47,1.16.71-.39-.24-.77-.47-1.16-.71Z"/>
  <path class="cls-2" d="m576.93,127.02c.98,2.91,2.39,5.75,2.85,8.74,1.3,8.37,2.9,16.78,3.12,25.21.36,13.74-.26,27.51-.52,41.26-.06,3.14-.11,6.32-.56,9.42-.41,2.79-1.36,5.5-2.08,8.25-.82.04-1.7.29-2.45.09-9.81-2.54-19.59-5.15-29.39-7.74-1.73-.54-3.45-1.08-5.18-1.61,3.01-3.87,6.01-7.75,9.02-11.62.11,2.39.23,4.78.34,7.16.31,0,.62,0,.93-.01v-11.17c6.14-1.92,6.02-6.99,6.02-11.99.93-.94,2.49-1.77,2.66-2.84.27-1.66-.38-3.47-.65-5.22,1.85-2,3.7-4,5.54-6,.44,3.14.87,6.27,1.31,9.41.8-.13,1.6-.26,2.4-.39-1.16-5.08-2.32-10.15-3.48-15.23,2.04-4.42,4.53-8.71,5.97-13.31,1.07-3.41.53-7.29,1.18-10.88.7-3.89,1.95-7.69,2.96-11.52Zm-15.99,82.54c.65-.11,1.29-.22,1.94-.33-.61-5.61,1.79-11.71-2.53-16.7-.48.08-.96.15-1.44.23.67,5.6,1.35,11.2,2.02,16.8Zm14.6-11.88c.43,3.01,1.02,6,1.25,9.02.21,2.92.05,5.88.05,8.82.64-.06,1.27-.11,1.91-.17-.67-6,2.23-12.44-3.2-17.67Z"/>
  <path class="cls-2" d="m240.89,208.08c.02-13.41-.45-26.85.23-40.23.55-10.95,2.48-21.84,3.8-32.76,1.33,4.57,2.65,9.15,3.97,13.73-3.15,12.64-3.06,23.04.07,25.6.23-4.34.46-8.8.7-13.25,2.36,1.61,4.73,3.23,7.09,4.84.05,1.76.1,3.53.15,5.29.7-.12,1.39-.23,2.09-.35.59.01,1.18.02,1.77.04.06.64.12,1.28.18,1.92,0,3.04-.02,6.07-.03,9.11-.35,6.1-.7,12.21-1.05,18.31,0,1.31-.02,2.62-.03,3.93-.33.31-.66.62-.99.92-5.99.97-11.98,1.93-17.97,2.9Zm12.44-21.84c-3.58,5.59-2.26,14.43,1.6,16.45-.56-5.72-1.08-11.09-1.6-16.45Zm-6.76,1.44c-3.79,4.62-3.83,13.33,0,16.03v-16.03Z"/>
  <path class="cls-26" d="m258.86,205.18c.33-.31.66-.62.99-.92,5.02-1.21,10-2.56,15.06-3.55,1.62-.32,3.46.64,5.13.43,9.07-1.15,18.12-2.49,27.18-3.74,1.3-.18,2.62-.29,3.94-.34,10.56-.39,21.12-.75,31.69-1.12,1.04-.2,2.07-.39,3.11-.59,6.97-.05,13.94-.1,20.91-.16.67,0,1.34,0,2.01.01,4.99.01,9.98.03,14.98.04.35,0,.69.01,1.04.02,14.28.29,28.6.05,42.83,1.02,12.6.86,25.1,3.17,37.67,4.63,7.85.92,15.77,1.26,23.61,2.23,7.81.97,15.56,2.53,23.36,3.61,10.11,1.41,20.24,2.6,30.37,3.88,1.73.54,3.45,1.07,5.18,1.61,0,.91.01,1.83.02,2.75-10.74-1.95-21.43-4.31-32.24-5.76-20-2.69-40.03-5.28-60.12-7.11-23.25-2.12-46.57-4.45-69.89-4.71-25.69-.28-51.42,1.45-77.11,2.83-10.54.56-21.03,2.39-31.51,3.83-6.06.83-12.07,2.04-18.11,3.08-.03-.66-.05-1.32-.08-1.98Z"/>
  <path class="cls-28" d="m285.81,138.39c-1.26,10.77-2.5,21.35-3.71,31.68-3.32-4.94-.94-26.99,3.71-31.68Z"/>
  <path class="cls-1" d="m561.05,174.95c.26,1.75.92,3.56.65,5.22-.18,1.06-1.73,1.9-2.66,2.84-.8-9.17-1.61-18.34-2.49-28.48,4.81,6.74,4.2,13.68,4.51,20.42Z"/>
  <path class="cls-21" d="m260.95,172.91c-.06-.64-.12-1.28-.18-1.92-.04-7.78,2.12-14.93,6.53-21.46-1.48,8.21-2.97,16.42-4.45,24.66-.35-.24-1.12-.76-1.9-1.28Z"/>
  <path class="cls-21" d="m548.45,152.72c.59,8.54,1.18,17.08,1.78,25.62-.62.05-1.24.1-1.86.14-.94-8.49-1.87-16.98-2.81-25.47.97-.1,1.93-.19,2.9-.29Z"/>
  <path class="cls-1" d="m545.87,134.76c-.99-8.05-1.98-16.11-2.97-24.16.78-.11,1.55-.22,2.33-.32,1.11,8.03,2.22,16.06,3.33,24.09-.9.13-1.79.27-2.69.4Z"/>
  <path class="cls-28" d="m265.79,130.31c-1.11-6.05,6.3-18.65,11.17-20.07-3.67,6.59-7.08,12.72-11.17,20.07Z"/>
  <path class="cls-21" d="m538.01,131.39c-.86-7.57-1.72-15.14-2.59-22.74,3.87,2.24,5.38,10.55,4.1,22.61l-1.51.13Z"/>
  <path class="cls-28" d="m305.26,171.41v20.26c-2.89-2.65-3.44-15.73,0-20.26Z"/>
  <path class="cls-28" d="m283.18,127.14c2.99-6.67,5.98-13.35,8.97-20.02.68.28,1.37.57,2.05.85-2.83,6.71-5.65,13.41-8.48,20.12-.84-.32-1.69-.63-2.53-.95Z"/>
  <path class="cls-21" d="m296.17,162.44c-2.21-8.67-.59-16.95,2.06-25.09.55.07,1.09.14,1.64.2-1.23,8.3-2.47,16.59-3.7,24.89Z"/>
  <path class="cls-1" d="m249.67,161.17c-.24,4.45-.47,8.91-.7,13.25-3.13-2.56-3.22-12.96-.07-25.6.6.54,1.75,1.11,1.72,1.61-.18,3.59-.6,7.16-.95,10.74Z"/>
  <path class="cls-7" d="m486.3,40.79c4.15-.19,9.05,7.81,9.81,18.33-3.27-6.12-6.55-12.24-9.81-18.33Z"/>
  <path class="cls-1" d="m538.14,176.52c-.47-8.27-.93-16.54-1.4-24.81.52-.02,1.04-.04,1.56-.06,2.45,8.2,1.63,16.52,1.31,24.83-.49.02-.98.03-1.47.05Z"/>
  <path class="cls-28" d="m535.89,68.18c2.76,6.44,6.1,12.74,3.56,20.44-1.72-6.69-3.44-13.37-5.17-20.06.54-.13,1.07-.26,1.61-.38Z"/>
  <path class="cls-3" d="m337.26,73.9c-3.26,6.57-6.52,13.14-9.9,19.96-1.68-3.63,4.6-17.3,9.9-19.96Z"/>
  <path class="cls-25" d="m327,74.03c-3.16,5.77-6.32,11.55-10,18.27-.94-5.27,4.65-15.77,10-18.27Z"/>
  <path class="cls-3" d="m506.23,69.15c4.21-1.73,9.29,6.05,8.4,15.62-2.98-5.54-5.61-10.43-8.4-15.62Z"/>
  <path class="cls-3" d="m325.42,125.23c2.3-5.82,4.61-11.65,6.91-17.47.78.31,1.55.62,2.33.93-2.34,5.81-4.68,11.61-7.03,17.42l-2.21-.89Z"/>
  <path class="cls-28" d="m319.03,126.49c-.69-6.79,3.58-11.76,6.27-17.31.52.18,1.04.37,1.57.55-2.12,5.73-4.23,11.47-6.35,17.2-.49-.15-.99-.29-1.48-.44Z"/>
  <path class="cls-3" d="m324.23,162.15c-3.59-4.41-2.32-14.77,2.59-19.65-.92,6.97-1.7,12.9-2.59,19.65Z"/>
  <path class="cls-3" d="m277.98,125.4c.07-6.39,3.03-11.95,5.6-17.61.63.19,1.25.39,1.88.58-2,5.82-3.99,11.65-5.99,17.47-.5-.15-.99-.29-1.49-.44Z"/>
  <path class="cls-28" d="m490.02,77.2c4.8,4.29,7.1,9.83,6.68,16.73-2.66-5.36-5.33-10.71-7.99-16.07.44-.22.87-.44,1.31-.66Z"/>
  <path class="cls-25" d="m521.19,169.72c-1.13-6.05-2.26-12.1-3.39-18.15.56-.1,1.13-.19,1.69-.29,3.34,5.64,3.2,11.93,3.25,18.19-.52.09-1.04.17-1.56.26Z"/>
  <path class="cls-21" d="m524.55,110.42c4.06,5.54,3.37,11.86,2.65,18.19-4.38-5.49-.81-12.28-2.65-18.19Z"/>
  <path class="cls-28" d="m486.98,94.04c-1.83-5.66-3.65-11.33-5.48-16.99.73-.25,1.45-.49,2.18-.74,1.84,5.63,3.68,11.25,5.52,16.88-.74.28-1.48.57-2.21.85Z"/>
  <path class="cls-25" d="m305.71,107.25c-1.7,6.22-3.28,12.03-4.95,18.14-2.93-3.67.25-15.33,4.95-18.14Z"/>
  <path class="cls-21" d="m516.36,57.85c-2.08-5.75-4.16-11.49-6.26-17.29,4.17.47,7.24,7.82,6.26,17.29Z"/>
  <path class="cls-21" d="m317.95,144.64c-.8,6.24-1.59,12.49-2.41,18.91-2.88-4.18-2.02-14.8,2.41-18.91Z"/>
  <path class="cls-21" d="m259,170.95c-.7.12-1.39.23-2.09.35-.05-1.76-.1-3.53-.15-5.29.13-5.41.26-10.81.39-16.22.62.03,1.23.06,1.85.09v21.08Z"/>
  <path class="cls-3" d="m508.98,148.68c.36,6.58.72,13.17,1.08,19.75l-1.81.11c-.52-6.58-1.05-13.15-1.57-19.73.77-.04,1.53-.09,2.3-.13Z"/>
  <path class="cls-25" d="m352.13,37.16c-2.98,4.05-5.96,8.11-9.57,13.02-.31-5.28,4.68-12.34,9.57-13.02Z"/>
  <path class="cls-21" d="m480.3,177.44c.69,6.93,1.38,13.86,2.08,20.79-.62.07-1.24.15-1.86.22-.82-6.92-1.64-13.84-2.46-20.76.75-.08,1.49-.17,2.24-.25Z"/>
  <path class="cls-3" d="m344.16,75.81c-1.94,4.65-3.89,9.3-6.18,14.78-1.53-5.59.67-11.41,6.18-14.78Z"/>
  <path class="cls-21" d="m555.27,115.5c3.33,5.2,2.74,11.02,2.43,16.8-.43.07-.86.14-1.29.21-.9-5.59-1.8-11.17-2.69-16.76.52-.08,1.04-.17,1.55-.25Z"/>
  <path class="cls-28" d="m312.87,107.11c-1.64,6.11-3.03,11.3-4.5,16.78-2.61-4.32-.51-12.71,4.5-16.78Z"/>
  <path class="cls-28" d="m482.8,55.41c-1.8-5.89-3.59-11.78-5.36-17.58,3.61.31,6.46,8.03,5.36,17.58Z"/>
  <path class="cls-21" d="m502.29,112.2c3.43,5.15,3.92,10.98,2.41,17.26-1.27-5.65-2.55-11.29-3.82-16.94.47-.11.94-.22,1.41-.32Z"/>
  <path class="cls-21" d="m512.43,128.4c-.86-5.92-1.72-11.83-2.57-17.75.43-.07.85-.13,1.28-.2,3.05,5.57,3.11,11.61,1.29,17.95Z"/>
  <path class="cls-3" d="m265.21,117.02c-2.08,4.99-4.16,9.98-6.14,14.73-2.46-2.89-.69-8.92,6.14-14.73Z"/>
  <path class="cls-25" d="m542.08,205.7c-.69-5.67-1.38-11.35-2.1-17.3,3.52,2.02,4.94,11.73,2.1,17.3Z"/>
  <path class="cls-25" d="m526.35,45.16c5.59,1.56,8.23,7.36,6.86,13.53-2.24-4.42-4.34-8.56-6.86-13.53Z"/>
  <path class="cls-7" d="m379.46,119.32c.65-4.63,1.3-9.26,1.95-13.89.76.09,1.51.19,2.27.28-.55,4.66-1.11,9.32-1.66,13.98-.85-.12-1.71-.25-2.56-.37Z"/>
  <path class="cls-3" d="m369.58,127.14c.67-4.61,1.34-9.23,2.01-13.84.83.12,1.65.24,2.48.36-.73,4.6-1.46,9.19-2.19,13.79-.77-.11-1.53-.21-2.3-.32Z"/>
  <path class="cls-28" d="m548.45,92.75c-1.71-4.63-3.41-9.26-5.11-13.85,3.38-.21,6.84,7.26,5.11,13.85Z"/>
  <path class="cls-21" d="m497.52,40.85c5.11,2.83,7.78,9.66,6.27,15.81-2.16-5.46-4.02-10.14-6.27-15.81Z"/>
  <path class="cls-21" d="m504.03,199.62c-.48-5.2-.96-10.4-1.44-15.59.73-.07,1.46-.13,2.19-.2.43,5.2.87,10.4,1.3,15.6-.68.06-1.36.13-2.05.19Z"/>
  <path class="cls-21" d="m297.02,175.7c-.86,5.31-1.72,10.63-2.58,15.94-.65-.09-1.3-.18-1.94-.27.78-5.31,1.55-10.63,2.33-15.94.73.09,1.46.17,2.2.26Z"/>
  <path class="cls-7" d="m415.56,175.79v17.52c-.34,0-.69,0-1.03,0v-17.52c.34,0,.69,0,1.03,0Z"/>
  <path class="cls-25" d="m401.21,192.23c.75-5.18,1.5-10.35,2.26-15.61,2.54,3.77,2,10.91-2.26,15.61Z"/>
  <path class="cls-3" d="m343.68,85.18c1.6-3.54,3.19-7.08,4.79-10.61.43.19.87.37,1.3.56.44,4.41-1.52,7.84-4.54,10.84-.52-.26-1.03-.52-1.55-.78Z"/>
  <path class="cls-7" d="m334.48,47.98c2.3-3.63,4.6-7.26,6.9-10.89.47.28.94.56,1.41.84-.29,4.76-4.64,7.23-6.16,11.29-.72-.41-1.44-.83-2.16-1.24Z"/>
  <path class="cls-27" d="m259.88,200.33c.35-6.1.7-12.21,1.05-18.31.22,5.84.47,11.67.59,17.51,0,.26-1.07.53-1.64.8Z"/>
  <path class="cls-6" d="m344.52,190.01v-12.42c3.27,3.88,3.13,9.13,0,12.42Z"/>
  <path class="cls-27" d="m566.82,162.74c1.16,5.08,2.32,10.15,3.48,15.23-.8.13-1.6.26-2.4.39-.43-3.14-.87-6.27-1.31-9.41.08-2.07.15-4.14.23-6.21Z"/>
  <path class="cls-29" d="m553.01,195v11.17c-.31,0-.62,0-.93.01-.11-2.39-.23-4.78-.34-7.16.42-1.34.85-2.68,1.27-4.02Z"/>
  <path class="cls-27" d="m334.66,145.89v10.26c-.16,0-.31.01-.47.02v-10.1c.16-.06.31-.12.47-.18Z"/>
  <path class="cls-13" d="m345.95,195.34c-1.04.2-2.07.39-3.11.59,1.04-.2,2.07-.39,3.11-.59Z"/>
  <path class="cls-21" d="m368.87,195.2c-.67,0-1.34,0-2.01-.01.67,0,1.34,0,2.01.01Z"/>
  <path class="cls-21" d="m384.89,195.26c-.35,0-.69-.01-1.04-.02.35,0,.69.01,1.04.02Z"/>
  <path class="cls-10" d="m176.87,241.28c3,0,6,0,9-.01-.02,2.43-.52,5.04,3.37,5.01.89,0,1.8,1.2,2.69,1.85,2.33,1.06,4.66,2.12,6.99,3.18.65.27,1.29.54,1.94.81-.37,4.65,4.14,2.48,6.03,4.16,2.26,2.02,2.92-.23,3.04-2.25,1.56-.55,3.13-1.1,4.69-1.65.07-.59.15-1.18.22-1.77.67.17,1.35.35,2.02.52.37.32.74.64,1.11.96,1.94-1.75,5.69,3.98,6.71-1.62.06-1.11.12-2.22.18-3.34,4.32,1.32,8.63,2.65,12.95,3.97,1.75.28,3.5.55,5.46.87.57-2.08,1.08-3.96,1.59-5.84.7-.02,1.4-.03,2.1-.05.33-.01.64.06.93.21.69.25,1.38.51,2.06.76,0,0-.03-.03-.03-.03.79,1.27,1.28,3.2,2.41,3.7,3.9,1.71,7.95,3.68,12.09,4.06,2.56.23,6.44,2.11,8.48-1.81,2,.47,3.99.93,5.99,1.4.31,0,.62,0,.93,0,.68.32,1.35.65,2.03.97.68.24,1.35.49,2.03.73,1.01.1,2.01.21,3.02.31.35.24.69.47,1.04.71l-.05-.05c1,.36,2,.71,3.01,1.07.34.08.68.17,1.01.25,1,.23,1.99.46,2.99.68,3.67.76,7.33,1.51,11,2.27.36.26.71.52,1.07.78.63.1,1.27.21,1.9.31l2.08.53c.64.06,1.28.12,1.93.18,1.68.73,3.36,1.47,5.04,2.2.69.25,1.38.51,2.06.76,3.31.73,6.61,1.47,9.92,2.2.36.26.73.52,1.09.78l-.03-.08c.61,3.09,2.17,2.51,3.96,1.03.66.1,1.32.19,1.99.29.4.25.79.5,1.19.75.92.08,1.85.16,2.77.24.9,6.09,4.73,3.75,8.07,2.8,2,.3,3.99.6,5.99.91l-.08.33c.34,0,.67-.02,1.01-.02,2.69.67,5.37,1.34,8.06,2.01.38.25.77.5,1.15.75.61.06,1.23.13,1.84.19.39.27.77.54,1.16.81,1.28.07,2.57.13,3.85.2.35.28.71.55,1.06.83.98.07,1.97.14,2.95.2.67.27,1.35.53,2.02.8.32.02.63.08.92.2.86,4.28,2.74,3.6,5,1.02l3.06.05.98.74c.67.07,1.34.14,2.02.21.67.26,1.35.52,2.02.77,1.98.33,3.96.66,5.94.99,1.32,2.02.86,5.81,4.99,5.04.33,0,.66,0,.99,0,2.33,0,4.67,0,7,0,6.61-.51,8.22-2.78,7-9.84,3.65-.1,7.29-.2,10.94-.29,1.06.94,2.9,2.81,3.07,2.68,3.62-3.01,7.87-1.2,11.69-1.92,4.26-.81,8.16-3.49,12.35-5.42.7,1,1.33,1.9,1.96,2.8-.01.38-.03.76-.04,1.14.32.48.65.96.97,1.44.35-.44.71-.88,1.06-1.32,1.59-.45,3.17-.89,4.76-1.34.4-.24.79-.47,1.19-.71.65-.16,1.3-.31,1.95-.47,2.96,3.64,6.07.9,9.13.21.65.32,1.29.64,1.94.96,3.72,3.54,7.87,2.4,12.03,1.09.67.09,1.34.17,2.01.26,1.66.91,3.33,1.82,4.99,2.73l5,.2c.62.91,1.1,1.98,1.89,2.71,4.09,3.75,8.74,1.15,13.21,1.23,4.55.08,6.59-1.35,5.91-5.98.66-.39,1.32-.77,1.97-1.16.52-.27,1.04-.55,1.55-.82-.57-.37-1.14-.74-1.7-1.11-.94-.08-1.88-.15-2.82-.23-.65-2.98-1.04-5.82,1.19-8.53.79-.96.57-2.75.81-4.15l2.93-1.31,3.07-.61c1.33-.09,2.65-.19,3.98-.28,2.81,1.13,5.86,4.64,8.02-.79,1.66-.42,3.31-.85,4.97-1.27,1.73,1.82,3.47,3.64,5.2,5.46.89.53,1.86,1.6,2.67,1.5,2.75-.35,5.44-1.11,8.16-1.71.03.37.07.73.1,1.1,1.29.88,2.58,1.76,3.86,2.65.73,1.03,1.47,2.06,2.2,3.09,2.27-.02,4.53-.05,6.8-.07.02,1.06.05,2.13.07,3.19.67.38,1.34.77,2.01,1.15.3,0,.6-.02.9-.02,2.03-.57,4.06-1.15,6.08-1.72-.03.47-.06.94-.09,1.41-.31.36-.63.73-.94,1.09,2.04,3.35,4.04,6.73,6.13,10.04.84,1.33,1.9,2.53,2.86,3.78-.69,0-1.38-.02-2.07-.03-.96.02-1.93.05-2.89.07-.65.7-1.3,1.4-1.96,2.11-3.08,1.26-4.01,3.2-1.97,6.11-1,.32-2,.64-3.01.96-4.1.97-6.83-1.15-9.19-4.07.04-.29.06-.57.04-.86-.35-.56-.7-1.12-1.05-1.68-.3.46-.61.92-.91,1.38-4.67.73-9.34,1.46-14,2.19-2.99-3.19-5.35-2.59-7,1.78-.66.44-1.32.87-1.98,1.31-1.66.33-3.31.66-4.97,1-.68.25-1.36.5-2.04.75-.68-.01-1.37-.02-2.05-.03-1-.86-2.53-2.66-2.92-2.44-3.46,1.94-6.71,4.24-10.02,6.44-1,0-2,0-3.01,0-1.3-.92-2.69-2.74-3.88-2.61-6.4.68-12.76,1.83-19.13,2.83-2.32,0-4.64,0-6.97,0-.67.99-1.35,1.97-2.02,2.96-1-.32-2-.64-3-.97-.33,0-.67,0-1,0-1.72,3.21-4.27,4.76-7.98,4-.67.61-1.34,1.21-2.01,1.82-.66.1-1.32.2-1.97.29-.68-.09-1.35-.19-2.03-.28-1.02-3.23-1.7-6.63-3.23-9.58-.53-1.01-3.64-.41-4.81-1.42-2.27-1.96-4.01-4.55-5.97-6.87.02-.31,0-.63-.07-.93,3.03-2.13,2.91-3.85-.71-4.99-1.4-.44-2.86-.68-4.29-1.01-.65-.07-1.3-.14-1.95-.2-.3,0-.61,0-.91-.01-3.98,1.38-7.96,2.77-11.95,4.15-.53,1.03-1.72,2.29-1.45,3.05.82,2.37,2.19,4.56,3.35,6.82-.42.71-.85,1.43-1.27,2.14,1.41-.05,2.83-.1,4.24-.15,2.85,3.97,7.39,4.32,11.53,4.65,2.2.18,4.66-.9,4.7,2.18.03,2.06-.9,4.95-2.42,6-1.82,1.26-4.79.72-7.12,1.42-1.36.41-2.45,1.73-3.66,2.65-1,.08-2.01.16-3.01.24-.66-.32-1.32-.64-1.98-.96,0-1.26,0-2.52,0-3.79,1.2-.31,2.39-.62,3.59-.93l-.29-1.35c-3.75,0-7.51.11-11.26-.03-4.03-.15-8.06-.55-12.09-.83-.23-.85-.45-1.7-.68-2.54-.43.49-.86.98-1.29,1.47-1.01.04-2.02.08-3.03.12-6.67-.77-13.34-1.54-20.01-2.31-.35-.27-.71-.53-1.06-.8-1.35-.55-2.69-1.1-4.04-1.65-1.24-1.08-2.4-2.94-3.72-3.05-1.96-.17-4.03.9-6.05,1.45-.36.01-.73.02-1.09.03-1.92-1.13-3.77-3.05-5.77-3.22-4.07-.35-8.22.25-12.33.46-2.97-.75-5.93-1.49-8.9-2.24-1.01-.25-2.02-.49-3.03-.74h-6.77c-.08.51-.16,1.02-.24,1.53,1.01.54,2.02,1.08,3.03,1.62.76,1.21,1.52,2.42,2.28,3.63.91-1.22,1.82-2.43,2.73-3.65,1.33.32,2.67.63,4,.95,1.01.27,2.01.54,3.02.81.68.1,1.36.21,2.05.31.39.22.79.44,1.18.66.62.25,1.24.49,1.86.74.2,2.97-.72,4.71-4.17,4.37-5.23-.51-10.51-.55-15.71-1.25-3.04-.41-5.97-1.39-7.15-5.14-.35-1.13-3.07-2.31-4.53-2.12-3.01.4-5.9,1.72-8.84,2.65-.24.03-.48.02-.71-.04-.27-4.49-2.74-4.64-6.08-3.09-.29.02-.58.05-.86.07,1.32-1.97,2.64-3.94,3.95-5.9,1.67.26,3.33.53,5,.79.77.29,1.54.58,2.31.87,2.08.28,4.15.55,6.23.83.32-.46.63-.93.95-1.39-.84-.39-1.68-.78-2.52-1.16-1.02-.37-2.05-.74-3.07-1.11-.98-.08-1.96-.16-2.94-.23-.35-.26-.69-.52-1.04-.78-.67-.13-1.34-.26-2.02-.39-.36-.19-.73-.39-1.09-.58-3.94-.41-7.87-.81-11.81-1.22-1.35-.24-2.7-.49-4.05-.73-1.03-.56-2.06-1.13-3.09-1.69-.74-4.4-2.99-5.61-6.92-3.29-1.31-.43-2.62-.87-3.94-1.3-.69-.23-1.37-.46-2.06-.68-1.02-.33-2.04-.66-3.06-.99.04-.38.08-.77.12-1.15,1.34-1.66,2.68-3.32,4.01-4.98,0-.67,0-1.34,0-2.01,0-1.27,0-2.55,0-3.82l2.98-.19c.52-.41,1.04-.81,1.56-1.22-.52-.26-1.03-.51-1.55-.77l-1.04-.19c-.35-.26-.7-.53-1.05-.79-3.3-.76-6.61-1.51-9.91-2.27-1.71-.31-3.41-.62-5.12-.93.39.72.77,1.44,1.16,2.16.99.39,1.98.79,2.97,1.18-.03,1.07-.06,2.14-.09,3.21-1.97-.19-3.94-.37-5.91-.56-.69-.23-1.38-.46-2.06-.68-.96.59-1.92,1.18-2.88,1.78-2.36,2.06-4.73,4.12-7.09,6.19-3.32,1.1-1.56,2.1.15,2.79,2.24.9,4.59,1.55,6.89,2.3.25,2.05.5,4.1.71,5.78h-11.69c-2.34-.68-4.68-1.35-7.02-2.03-.38-3.36-2.87-2.93-5.15-2.87-2.95-1.04-5.9-2.09-8.85-3.13.36-2.32.72-4.65,1.08-6.97,1.66.42,3.31.84,4.97,1.26.33.25.67.5,1,.75l-.02-.03c.4.53.8,1.06,1.19,1.59.25-.52.51-1.04.76-1.56l-.02.02c.53-.39,1.06-.79,1.58-1.18-.5-.27-1-.55-1.5-.82l-4.05-2.25c-.68-.22-1.35-.45-2.03-.67-.68-.3-1.35-.61-2.03-.91.69-1.73,1.38-3.47,2.07-5.2,1.57.25,3.14.69,4.7.65.7-.02,1.37-1,2.06-1.54,1.4-.35,2.8-.71,4.2-1.06,2.01.33,4.02.66,6.03.99.59.01,1.18.03,1.77.04-.58-.68-1.16-1.36-1.75-2.04-1.02-.4-2.05-.81-3.07-1.21-.34-.26-.68-.51-1.02-.77-.64-.09-1.28-.19-1.93-.28,0-.58,0-1.16-.01-1.74-1.92-1.32-3.79-2.72-5.82-3.82-.17-.09-1.43,1.83-2.18,2.81-2.28.31-4.57.63-6.85.94-.4.75-.79,1.5-1.19,2.25-1.66-.48-3.31-.95-4.97-1.43-1.35-.21-2.7-.43-4.05-.64-1.98-.03-3.95-.07-5.93-.1-2.92-.07-5.9-.55-8.75-.13-5.56.82-11.04,2.13-16.56,3.24-.9-.11-1.81-.22-2.71-.34-.44-4.16,1.78-9.56-5-10.78-.32,0-.65,0-.97-.02-2.68-.73-5.35-1.47-8.03-2.2-.67-2.54-1.33-5.07-2-7.61Zm253.37,55.37c-3.43-3.97-12.24-4.65-15.26-1.8-.61.58-1.06,1.84-.87,2.6.16.67,1.47,1.64,2.04,1.5,1.8-.44,3.5-1.33,4.58-1.78,1.48,1.42,3.26,3.9,3.96,3.63,2.08-.81,3.74-2.7,5.55-4.16Z"/>
  <path class="cls-23" d="m656.89,293.17c-11.63,6.29-23.94,9.03-37.14,7.07-.01-1.96-.03-3.92-.04-5.88.39-.41.78-.81,1.17-1.22.66-.03,1.32-.06,1.98-.09.68-.27,1.37-.54,2.05-.81,9.14-1.94,18.27-3.88,27.42-5.79,1.12-.24,2.28-.29,3.43-.43.38,2.38.76,4.77,1.14,7.15Z"/>
  <path class="cls-2" d="m716.7,288.9c-11.15,2.39-22.37,3.98-33.82,3.27-.03-2.99-.06-5.97-.09-8.96,9.9-.36,19.8-.69,29.7-1.13,1.78-.08,3.53-.69,5.29-1.05-.36,2.63-.72,5.25-1.09,7.88Z"/>
  <path class="cls-18" d="m527.79,262.94c-.98.44-1.95.87-2.93,1.31-3.99.21-7.98.42-11.98.63-.02-.61-.04-1.21-.06-1.82,1.97-.68,3.95-1.36,5.92-2.04,4.55-.64,9.13-1.15,13.65-1.94,16.83-2.94,33.64-5.98,50.46-8.98.34,1.29.68,2.58,1.02,3.87-12.01,2-24.03,4-36.04,6-1.66.42-3.31.85-4.97,1.27-2.67.26-5.35.53-8.02.79-1.33.09-2.65.19-3.98.28-1.02.2-2.05.41-3.07.61Z"/>
  <path class="cls-23" d="m765.83,282.08c-2.85.99-5.63,2.4-8.56,2.88-4.68.75-9.46.88-14.2,1.27-3.78-1.08-3.28-4.12-3.22-6.97,8.33-.7,16.67-1.41,25-2.11.32,1.64.65,3.29.97,4.93Z"/>
  <path class="cls-21" d="m591.8,290.9c.69,0,1.38.02,2.07.03,9.71-1.46,19.41-2.95,29.12-4.36,1.98-.29,4-.29,6.01-.42.07.4.13.81.2,1.21-2.78.7-5.57,1.39-8.35,2.09-.32.22-.63.45-.95.67,0,0,0,0,0,0-7.68,1.06-15.36,2.12-23.05,3.17-3.29-.07-6.59-.15-9.88-.22.65-.7,1.3-1.4,1.96-2.11.96-.02,1.93-.05,2.89-.07Z"/>
  <path class="cls-2" d="m765.83,282.08c-.32-1.64-.65-3.29-.97-4.93,2.63-.79,5.26-1.58,7.91-2.37,2.84.13,5.97.28,9.09.42.36,1.32.72,2.64,1.08,3.96-2.05.57-4.09,1.13-6.14,1.7-.36-.24-.71-.48-1.07-.72-.3,0-.59-.05-.88-.13-.3-.48-.61-.97-.91-1.45-.34.59-.67,1.19-1.01,1.78-1.92,2.44-4.08,3.87-7.12,1.75Z"/>
  <path class="cls-2" d="m656.89,293.17c-.38-2.38-.76-4.77-1.14-7.15,2.74-.32,5.48-.69,8.23-.92,1.31-.11,2.64.02,3.97.05.31,2.71.61,5.41.92,8.12-3.99-.03-7.98-.06-11.97-.08Z"/>
  <path class="cls-21" d="m645.58,281.3c11.87-2.35,23.73-4.7,35.6-7.06l.46,2.51c-12,1.63-23.49,6.15-35.78,6.12l-.28-1.58Z"/>
  <path class="cls-23" d="m679.53,293.6c-2.51-.02-5.02-.05-7.53-.07-.08-3.02-.16-6.04-.25-9.06,2.96-.5,5.93-1,8.89-1.5-.37,3.54-.74,7.09-1.12,10.63Z"/>
  <path class="cls-1" d="m748.95,268.32c4.65-.18,9.3-.49,13.95-.48,1.5,0,3,.83,4.5,1.28-4.31.63-8.6,1.48-12.93,1.85-8.81.76-17.64,1.26-26.47,1.87,0-.52-.02-1.04-.02-1.55,6.99-.99,13.98-1.98,20.98-2.97Z"/>
  <path class="cls-25" d="m657.82,269.13c6.22-.35,12.45-.71,18.67-1.02,1.8-.09,3.62-.01,5.56,1.04-9.47,1.67-18.94,3.35-29.66,5.24,2.52-2.44,4-3.87,5.48-5.31l-.06.05Z"/>
  <path class="cls-13" d="m596.83,293.29c7.68-1.06,15.36-2.12,23.05-3.17.33,1.01.67,2.02,1,3.03-.39.41-.78.81-1.16,1.21-.91-.03-1.83-.06-2.74-.09-4.07.3-8.15.5-12.21.93-1.34.14-2.62.85-3.93,1.31-.62-.42-1.24-.84-1.86-1.26-.7-.04-1.4-.08-2.1-.12-.02-.61-.03-1.22-.05-1.83Z"/>
  <path class="cls-25" d="m595.82,258.15c1.06-.02,2.12-.03,3.18-.05,2.64-.38,5.28-.76,7.93-1.13,2.88-.21,5.76-.42,8.64-.63-2.21,1.05-4.41,2.09-6.62,3.14-5.18,1.07-10.37,2.13-15.55,3.2-.09-.42-.17-.84-.26-1.26.89-1.09,1.79-2.18,2.68-3.27Z"/>
  <path class="cls-25" d="m601.85,280.97c-2.41.29-4.83.57-7.24.86-.09-.57-.18-1.15-.28-1.72,7.61-1.83,15.21-3.65,22.82-5.48.23.66.46,1.31.69,1.97-2.29.9-4.59,1.79-6.88,2.68-3.04.56-6.07,1.12-9.11,1.68Z"/>
  <path class="cls-25" d="m657.88,269.08c-7.37,1.32-14.74,2.65-22.11,3.97,6.96-4.97,14.77-6.29,23.48-5.88-.6.83-1.02,1.39-1.43,1.95,0,0,.06-.05.06-.05Z"/>
  <path class="cls-3" d="m563.87,265.23c-2.72.6-5.41,1.37-8.16,1.71-.81.1-1.78-.97-2.67-1.5,6.38-2.19,12.76-4.38,19.14-6.58.25.58.5,1.16.74,1.73-3.02,1.54-6.03,3.09-9.05,4.63Z"/>
  <path class="cls-28" d="m585.9,274.58c-2.03.57-4.06,1.15-6.08,1.72-.3-.11-.6-.1-.9.02-.67-.38-1.34-.77-2.01-1.15,6.57-2,13.12-4.06,19.74-5.9.52-.14,1.45,1.2,2.19,1.85,0,0,.05-.04.05-.04-4.33,1.17-8.65,2.33-12.98,3.5Z"/>
  <path class="cls-28" d="m576.84,271.99c-2.27.02-4.53.05-6.8.07,5.43-4.75,12.3-4.7,18.69-6.27l.57,1.28c-2.02.96-3.99,2.04-6.07,2.86-2.08.82-4.25,1.39-6.39,2.07Z"/>
  <path class="cls-25" d="m624.86,260.1c-7.17,1.09-13.89,4.9-21.32,4.42-.11-.45-.23-.9-.34-1.35,1.89-.69,3.78-1.37,5.67-2.06,3.36-.73,6.71-1.47,10.07-2.2,1.93-.23,3.85-.46,5.78-.7.05.63.1,1.26.15,1.89Z"/>
  <path class="cls-28" d="m612.88,280.11h11.44c.03.62.07,1.25.1,1.87-6.51.74-13.02,1.49-19.53,2.23-.05-.49-.24-1.36-.13-1.4,2.69-.95,5.41-1.82,8.12-2.7Z"/>
  <path class="cls-1" d="m724.82,273c-6,.83-11.99,1.66-17.99,2.49-.07-.46-.14-.91-.2-1.37,5.52-3.49,11.81-2.87,18.04-2.62.05.5.1,1,.15,1.5Z"/>
  <path class="cls-5" d="m782.95,279.15c-.36-1.32-.72-2.64-1.08-3.96.34-.67.67-1.34.55-1.09,3.44-.76,6.39-1.41,9.34-2.06-.4,5.5-3.98,7.08-8.8,7.11Z"/>
  <path class="cls-2" d="m739.86,279.26c-.07,2.85-.56,5.9,3.22,6.97-3.35.53-6.7,1.06-10.05,1.6-.06-.26-.11-.52-.15-.79,1-2.26,1.99-4.52,2.99-6.79,1.33-.33,2.66-.66,3.99-.99Z"/>
  <path class="cls-28" d="m567.83,268.97c-1.29-.88-2.58-1.76-3.86-2.65,5.1-1.12,10.21-2.24,15.31-3.36.16.55.32,1.1.47,1.66-3.97,1.45-7.95,2.9-11.92,4.34Z"/>
  <path class="cls-23" d="m725.6,287.66c-1.85.06-3.71.11-5.56.17-.03-2.27-.05-4.55-.07-6.83,2.28.02,4.55.04,6.83.06-.4,2.2-.79,4.4-1.19,6.6Z"/>
  <path class="cls-28" d="m584.87,277.09c.31-.36.63-.73.94-1.09,2.35-.64,4.75-1.11,7.02-1.96,2.09-.78,4.04-1.96,6.05-2.96,0,0-.05.04-.05.04,1.38.49,2.76.97,5.43,1.91-7.17,1.69-12.53,5.87-19.39,4.06Z"/>
  <path class="cls-25" d="m635.2,266.72c-5.45.78-10.9,1.56-16.36,2.33-.1-.72-.2-1.44-.31-2.16,5.44-.8,10.89-1.6,16.33-2.4.11.74.22,1.48.33,2.22Z"/>
  <path class="cls-23" d="m735.87,280.25c-1,2.26-1.99,4.52-2.99,6.79-1.01,0-2.02.02-3.02.02-.33-.32-.66-.64-.99-.96.29-1.96.59-3.92.88-5.88,2.04,0,4.08.02,6.13.02Z"/>
  <path class="cls-13" d="m612.88,280.11c-2.71.88-5.43,1.75-8.12,2.7-.11.04.08.92.13,1.4-.92.69-1.84,1.39-3.66,2.75.3-2.91.47-4.46.63-6,3.04-.56,6.07-1.12,9.11-1.68.64.28,1.28.55,1.92.83Z"/>
  <path class="cls-3" d="m671.75,284.47c.08,3.02.16,6.05.25,9.06-1.04-.09-2.09-.19-3.13-.28-.31-2.7-.61-5.41-.92-8.12.12-.87.24-1.74.41-2.95,1.37.92,2.39,1.6,3.4,2.28Z"/>
  <path class="cls-1" d="m729.85,287.06c1.01,0,2.02-.02,3.02-.02.04.27.09.53.15.79-2.48-.06-4.95-.11-7.43-.17.4-2.2.79-4.4,1.19-6.6.51-.84,1.03-1.68,1.54-2.52.47.56.94,1.13,1.41,1.69-.29,1.96-.59,3.92-.88,5.88.33.32.66.64.99.96Z"/>
  <path class="cls-6" d="m618.93,258.91c-3.36.73-6.71,1.47-10.07,2.2.03-.54.05-1.08.08-1.62,2.21-1.05,4.42-2.1,6.62-3.15,1.12.86,2.24,1.72,3.37,2.57Z"/>
  <path class="cls-27" d="m679.53,293.6c.37-3.54.74-7.09,1.12-10.63.72.08,1.43.16,2.15.24.03,2.99.06,5.97.09,8.96,0,0,.03-.06.03-.06-.14.06-.41.15-.4.18.05.23.15.46.24.69-1.07.21-2.15.42-3.22.63Z"/>
  <path class="cls-1" d="m719.97,281c.02,2.28.05,4.55.07,6.83-1.11.36-2.22.72-3.34,1.08.36-2.63.72-5.25,1.08-7.88.43-.51.87-1.02,1.3-1.54.29.5.58,1.01.87,1.51Z"/>
  <path class="cls-28" d="m777.67,266.92c.77.43,1.54.85,2.31,1.28-3.54.31-7.07.62-10.61.93,2.77-.74,5.54-1.47,8.3-2.21Z"/>
  <path class="cls-6" d="m606.93,256.97c-2.64.38-5.28.76-7.93,1.13,2.62-.99,5.25-1.97,7.87-2.95.02.61.04,1.21.06,1.82Z"/>
  <path class="cls-6" d="m624.86,260.1c-.05-.63-.1-1.26-.15-1.89,1.19.09,2.37.18,3.56.27.02.37.03.74.05,1.11-1.15.17-2.31.34-3.46.5Z"/>
  <path class="cls-23" d="m724.82,273c-.05-.5-.1-1-.15-1.5,1.1-.07,2.21-.14,3.31-.22,0,.52.02,1.04.02,1.55-1.06.05-2.12.11-3.18.16Z"/>
  <path class="cls-13" d="m624.9,292.25c-.68.27-1.37.54-2.05.81.68-.27,1.37-.54,2.05-.81Z"/>
  <path class="cls-13" d="m619.89,290.11c.32-.22.63-.45.95-.67-.32.23-.63.45-.95.67Z"/>
  <path class="cls-15" d="m150.77,255.38c-.3-1.05-.61-2.11-.91-3.16,7.66,1.29,15.32,2.58,22.98,3.87.52-.4,1.04-.8,1.56-1.2-.51-.27-1.01-.53-1.52-.8h-.01c.03-1.14.06-2.27.09-3.39,3.97.83,7.94,1.66,11.9,2.49-.24,2.92-.85,5.13-4.79,4.28-1.07-.23-2.55,1.42-3.84,2.2,1.14.81,2.29,1.62,3.43,2.42,1.08.38,2.15.76,3.23,1.14.32,0,.63,0,.94,0,1.68,0,3.35-.01,5.03-.02,1.4,3.17-.41,5.52-2.01,7.93-1.66-.68-3.32-1.36-4.99-2.03-2.11-.95-4.22-1.91-6.33-2.86-1.89-.08-3.78-.15-5.67-.23-.43-.57-.85-1.15-1.28-1.72-.57.59-1.14,1.17-1.72,1.76-1.98-.27-3.97-.54-5.95-.81-.02-1.31-.03-2.62-.05-3.93.68-.03,1.37-.06,2.05-.08.91-.73,1.83-1.47,2.74-2.2-1.27-.3-2.53-.61-3.8-.91-1.33-.06-2.67-.11-4-.17-1.48-.5-2.95-1-4.43-1.5-.25.17-.47.37-.66.61-.18-.12-.38-.17-.59-.16-.47-.5-.94-1-1.41-1.5Z"/>
  <path class="cls-23" d="m77.84,270.06h-.48s-.48.04-.48.04c-8.66.07-17.31.15-25.97.22-4.35.89-8.7,1.78-13.04,2.67-.67-2.22-1.34-4.44-2.01-6.66,3.41-.13,6.83-.43,10.24-.35,10.08.26,20.15.54,29.65-3.73,4.16,1.67,1.47,5.19,2.1,7.81Z"/>
  <path class="cls-23" d="m127.61,271.77c-5.27-.48-10.54-.96-15.8-1.44-4.95-.14-9.91-.29-14.86-.43-.06-1.52-.12-3.04-.18-4.55,9.73-.71,19.45-1.42,29.18-2.13.56,2.85,1.11,5.7,1.67,8.56Z"/>
  <path class="cls-25" d="m150.77,255.38c.47.5.94,1,1.41,1.5-1.13.08-2.26.16-3.39.24-17.74-1.57-35.43-2.05-53.03,1.55-1.62.33-3.38.04-5.07.04-.04-.43-.09-.86-.13-1.3,5.76-1.15,11.51-2.3,17.27-3.45,1.35-.19,2.7-.38,4.05-.56,8.13,1.25,16.18.91,24.37-.03,4.7-.54,9.66,1.26,14.51,2.01Z"/>
  <path class="cls-7" d="m142.88,272.94c-3.36-.25-6.73-.51-10.09-.76.08-2.75.16-5.5.24-8.24,3.29,1.38,6.57,2.76,9.86,4.14,0,1.62,0,3.24,0,4.87Z"/>
  <path class="cls-15" d="m176.87,241.28c.67,2.54,1.33,5.07,2,7.61-.34,0-.67,0-1.01,0-1.14-.54-2.29-1.09-3.43-1.63-1.53-.07-3.05-.13-4.58-.2-.97-.05-1.95-.1-2.92-.15l-4.06-.03c.98-1.67,1.96-3.35,2.94-5.02,1.35-.07,2.7-.15,4.05-.22.31.68.62,1.36.92,2.04.38-.79.77-1.58,1.15-2.37l-.12-.35c1.68.1,3.37.21,5.05.31Z"/>
  <path class="cls-27" d="m77.84,270.06c-.62-2.62,2.06-6.14-2.1-7.81-1.93-.11-3.86-.22-5.79-.33.01-.83.03-1.66.04-2.49,5.34-.53,10.68-1.06,16.02-1.6l.25.93c-2.08,1.07-4.16,2.14-6.24,3.21.98,2.64,1.96,5.28,2.94,7.91-1.71.06-3.42.12-5.12.17Z"/>
  <path class="cls-28" d="m177.86,248.9c.34,0,.67,0,1.01,0,2.68.73,5.35,1.47,8.03,2.2.14.34.28.69.42,1.03-.82.36-1.63.71-2.45,1.07-3.97-.83-7.94-1.66-11.9-2.49-4.49-.74-8.98-1.49-13.47-2.23,0-.32,0-.63,0-.95,1.13-.21,2.25-.42,3.38-.64,1.35,0,2.71.02,4.06.03.97.05,1.95.1,2.92.15,1.53.07,3.05.13,4.58.2,1.14.54,2.29,1.09,3.43,1.63Z"/>
  <path class="cls-28" d="m70,259.43c-.01.83-.03,1.66-.04,2.49-4.27-.14-8.57-.67-12.81-.33-6.07.49-12.09,1.68-18.15,2.42-1.1.13-2.28-.45-3.42-.7.04-.47.09-.95.13-1.42,11.43-.82,22.86-1.63,34.29-2.45Z"/>
  <path class="cls-1" d="m148.8,257.12c1.13-.08,2.26-.16,3.39-.24.21-.01.41.04.59.16.21.07.42.12.64.13,1.48.25,2.97.51,4.45.76,1.33.06,2.67.11,4,.17.35,1.04.7,2.07,1.06,3.11-.68.03-1.37.06-2.05.08-7.63-3.14-10.1-1.72-9.9,5.7.02,1.94.03,3.88.05,5.82-.75.04-1.5.08-2.25.12-.26-1.94-.52-3.88-.78-5.82.27-3.33.54-6.67.82-10Z"/>
  <path class="cls-25" d="m96.76,265.35c.06,1.52.12,3.04.18,4.55-3.38.01-6.76.03-10.15.04.06-2.52.13-5.03.19-7.55,3.26.98,6.52,1.97,9.77,2.95Z"/>
  <path class="cls-27" d="m133.02,263.94c-.08,2.75-.16,5.49-.24,8.24-1.72-.13-3.45-.27-5.17-.41-.56-2.85-1.11-5.71-1.67-8.56,2.36.24,4.72.48,7.08.72Z"/>
  <path class="cls-3" d="m172.85,256.09c-7.66-1.29-15.32-2.58-22.98-3.87,1.25-.39,2.57-1.25,3.75-1.09,6.44.85,12.84,1.94,19.26,2.95,0,0,.01.01.01.01-.01.67-.03,1.34-.04,2.01Z"/>
  <path class="cls-23" d="m86.99,262.4c-.06,2.52-.13,5.03-.19,7.55-1.02.03-2.04.06-3.06.09-.26-.06-.52-.11-.77-.15-.98-2.64-1.96-5.28-2.94-7.92,2.32.14,4.64.29,6.97.43Z"/>
  <path class="cls-7" d="m80.35,254.02c-5.01,3.16-10.3,1.92-15.59,1.01,4.97-3.09,10.31-1.5,15.59-1.01Z"/>
  <path class="cls-6" d="m2.94,264.24c.95-.4,1.9-.8,2.86-1.2,2.71.4,5.43.81,8.14,1.21,0,.26-.02.53-.04.79-3.73,3.15-7.82,2.85-10.96-.8Z"/>
  <path class="cls-5" d="m35.86,266.33c.67,2.22,1.34,4.44,2.01,6.66-1.84.54-3.69,1.09-5.53,1.63-.17-.16-.33-.33-.47-.52-.04-2.09-.08-4.17-.12-6.26,1.37-.5,2.74-1.01,4.11-1.51Z"/>
  <path class="cls-28" d="m13.94,264.25c-2.71-.4-5.43-.81-8.14-1.21,0-.63.02-1.26.02-1.89,5.8.5,11.6.99,17.39,1.49,0,.54.01,1.08.02,1.61-3.1,0-6.2,0-9.3,0Z"/>
  <path class="cls-3" d="m107.85,252.72c-3.42-.31-6.85-.62-10.64-.97,3.86-2.68,12.19-2.29,14.67.39-1.34.19-2.69.39-4.03.58Z"/>
  <path class="cls-2" d="m147.98,267.13c.26,1.94.52,3.88.78,5.82-1.96,0-3.92,0-5.89,0,0-1.62,0-3.24,0-4.87,1.7-.32,3.4-.63,5.1-.95Z"/>
  <path class="cls-23" d="m31.75,267.84c.04,2.09.08,4.17.12,6.26-4-.51-2.75-3.63-3-6.01.96-.08,1.92-.17,2.88-.25Z"/>
  <path class="cls-13" d="m107.85,252.72c1.34-.19,2.69-.39,4.03-.58,0,.42,0,.84,0,1.26-1.35.19-2.7.38-4.05.57,0-.42,0-.83,0-1.25Z"/>
  <path class="cls-15" d="m258.88,290.07h11.69c-.21-1.68-.46-3.73-.71-5.78,9.39,1.98,19.23,1.95,27.93,6.99,3.19,1.85,6.96,2.82,10.57,3.78,3.77,1.01,7.66,1.53,11.5,2.26-1.32,1.97-2.64,3.94-3.95,5.9-1.7.98-3.4,1.96-5.1,2.95-.5-1.82-.99-3.63-1.49-5.45-.25-.04-.51-.08-.76-.12-.27,1.48-.54,2.95-.81,4.43-3.35-1.25-6.68-2.53-10.04-3.75-3-1.09-5.98-2.27-9.04-3.13-9.91-2.76-19.86-5.4-29.8-8.08Z"/>
  <path class="cls-15" d="m238.95,275.07c-.36,2.32-.72,4.65-1.08,6.97-10.23-2.56-20.46-5.17-30.71-7.65-2.69-.65-5.47-.92-8.21-1.36-.66-.24-1.32-.48-1.98-.72-1.03.25-2.06.49-3.09.74-.33-2.61-.67-5.21-1-7.82.68.03,1.37.05,2.05.08.33.26.66.52,1,.78,2.79.23,5.65.15,8.36.74,6.68,1.45,13.28,3.24,19.92,4.84,4.91,1.18,9.84,2.27,14.76,3.4Z"/>
  <path class="cls-1" d="m307.76,305.03c.27-1.48.54-2.95.81-4.43.25.04.51.08.76.12.5,1.82.99,3.63,1.49,5.45.05,2.6.1,5.19.15,7.79-1.11-.44-2.22-.87-3.33-1.31.04-1.18.08-2.37.12-3.55,0-1.36,0-2.71,0-4.07Z"/>
  <path class="cls-1" d="m196.96,272.31c.66.24,1.32.48,1.98.72.3,3.36.61,6.72.91,10.08,0,0-.49.04-.49.04,0,0-.49-.05-.49-.05-.35-.33-.7-.65-1.05-.98,0,0,0,.04,0,.04-.29-3.28-.58-6.57-.87-9.85Z"/>
  <path class="cls-2" d="m307.76,309.1c-.04,1.18-.08,2.37-.12,3.55-1.92-.85-3.84-1.7-5.75-2.55,1.96-.33,3.91-.66,5.87-.99Z"/>
  <path class="cls-15" d="m246.71,285.17c2.29-.06,4.78-.49,5.15,2.87-1.72-.96-3.44-1.92-5.15-2.87Z"/>
  <path class="cls-2" d="m300.65,309.69c-.64-1.18-1.29-2.35-1.94-3.53.64,1.18,1.29,2.35,1.94,3.53Z"/>
  <path class="cls-2" d="m596.88,295.13c.7.04,1.4.08,2.1.12-.07,2.58-.13,5.16-.19,7.74-7.48,4.98-15.85,6.66-24.67,6.68.21-2.41.42-4.83.63-7.25,2.41-.76,4.83-1.52,7.24-2.28,1-.32,2-.64,3.01-.96,3.99-1.29,9.1.73,11.9-4.05Z"/>
  <path class="cls-23" d="m600.83,296.51c1.31-.45,2.59-1.16,3.93-1.31,4.06-.43,8.14-.64,12.21-.94-.08,2.19-.16,4.38-.24,6.57-5.34.8-10.68,1.6-16.02,2.41.04-2.25.08-4.49.12-6.73Z"/>
  <path class="cls-1" d="m574.74,302.42c-.21,2.42-.42,4.83-.63,7.25-.78.1-1.56.2-2.34.3.02-2.64.04-5.28.06-7.92.97.12,1.94.25,2.91.37Z"/>
  <path class="cls-21" d="m616.73,300.84c.08-2.19.16-4.38.24-6.57.92.03,1.83.06,2.74.09.01,1.96.03,3.92.04,5.88-1.01.2-2.02.4-3.03.6Z"/>
  <path class="cls-1" d="m600.83,296.51c-.04,2.24-.08,4.49-.12,6.73-.64-.08-1.29-.16-1.93-.25.06-2.58.13-5.16.19-7.74.62.42,1.24.84,1.86,1.26Z"/>
  <path class="cls-5" d="m772.95,280.33c.34-.59.67-1.19,1.01-1.78.3.48.61.97.91,1.45-.64.11-1.28.22-1.91.32Z"/>
  <path class="cls-2" d="m682.75,292.97c-.09-.23-.19-.45-.24-.69,0-.03.26-.12.4-.18.04.31-.02.59-.17.86Z"/>
  <path class="cls-5" d="m775.74,280.14c.36.24.71.48,1.07.72-.36-.24-.71-.48-1.07-.72Z"/>
  <path class="cls-15" d="m323.57,306.28c2.94-.94,5.83-2.25,8.84-2.65,1.45-.19,4.17.99,4.53,2.12,1.18,3.75,4.12,4.73,7.15,5.14,5.2.7,10.48.74,15.71,1.25,3.45.34,4.37-1.4,4.17-4.37,8.39.87,17.29.28,25.04,2.98,9.24,3.22,18.54,2.98,27.82,4.2,8.35.8,16.69,1.6,25.04,2.39,0,1.26,0,2.52,0,3.78,0,.32,0,.63,0,.95-2.67,0-5.34.01-8.01.02-.66.03-1.32.06-1.98.1-4.33.64-8.67,1.27-13,1.91-.34-.32-.68-.64-1.03-.97h0c-.24-.88-.47-1.77-.9-3.38-.62,1.22-.9,1.59-.99,2.01-.1.45-.03.94-.04,1.41-.35.96-.7,1.93-1.04,2.89-.66,0-1.32.01-1.99.02-1.61-1.19-3.22-2.39-4.83-3.58-1.72-.14-3.43-.28-5.15-.42-1.02-.33-2.04-.66-3.05-.99-4.73-.34-9.47-.68-14.2-1.02-.33-.02-.65-.11-.97-.19-6.95-1.88-13.9-3.77-20.85-5.66-.62.03-1.25.05-1.87.08-11.63,1-22.29-3.56-33.34-5.85-1.75-.36-3.36-1.42-5.04-2.16Z"/>
  <path class="cls-23" d="m323.57,306.28c1.68.74,3.29,1.8,5.04,2.16,11.05,2.29,21.71,6.85,33.34,5.85-.08,2.81-.17,5.62-.25,8.43-9.83,1.39-19.26-.88-28.68-3.2-7.36-1.82-14.7-3.7-22.05-5.56-.05-2.6-.1-5.19-.15-7.79,1.7-.98,3.4-1.97,5.09-2.95.29-.02.58-.04.87-.07.19,4.65,3.82,2.52,6.08,3.09.23.06.47.07.71.04Z"/>
  <path class="cls-5" d="m363.82,314.21c6.95,1.89,13.9,3.77,20.85,5.66.32.09.64.17.97.19,4.73.35,9.47.68,14.2,1.02.35,2.43.71,4.85,1.06,7.28-5.74.24-11.52,1.03-17.21.59-6.23-.49-12.39-2.06-18.54-3.35-.59-.12-.89-1.59-1.32-2.44,0-2.98,0-5.96-.01-8.94Z"/>
  <path class="cls-23" d="m433.86,322.08c2.67,0,5.34-.01,8.01-.02.66,0,1.32,0,1.99,0,1-.08,2.01-.16,3.01-.23,5.33-.27,10.65-.54,15.98-.81,1.99-.01,3.99-.03,5.98-.04.03,1.4.06,2.81.08,4.21-6.69.63-13.38,1.25-20.06,1.89-7.33.7-14.83.72-21.95,2.35-5.17,1.18-8.59-.24-12.03-3.4.35-.96.7-1.93,1.04-2.89.64,0,1.28-.02,1.93-.02,0,0,0,0,0,0,.34.32.68.64,1.03.97,4.33-.64,8.67-1.27,13-1.91.66-.03,1.32-.06,1.98-.09Z"/>
  <path class="cls-13" d="m468.83,320.99c-1.99.01-3.99.03-5.98.04.02-1,.04-2,.06-3,4-.69,8-1.38,12-2.07,5.97.06,11.93.13,17.9.19-1.35,1.02-2.7,2.05-4.04,3.07-1.97.65-3.93,1.31-5.9,1.96-.5-.67-1.01-1.91-1.51-1.91-3.06,0-6.13.2-9.17.53-1.15.12-2.24.78-3.36,1.19Z"/>
  <path class="cls-7" d="m468.83,320.99c1.12-.41,2.21-1.07,3.36-1.19,3.04-.33,6.11-.52,9.17-.53.5,0,1.01,1.24,1.51,1.91-2.95.99-5.88,2.05-8.86,2.95-1.66.5-3.4.72-5.1,1.07-.03-1.4-.06-2.81-.08-4.21Z"/>
  <path class="cls-2" d="m488.76,319.22c1.35-1.02,2.7-2.05,4.05-3.07,2.02-.65,4.04-1.29,6.07-1.94-.33,2.24-.67,4.48-1,6.72-3.04-.57-6.07-1.14-9.11-1.7Z"/>
  <path class="cls-5" d="m402.9,322.06c1.72.14,3.43.28,5.15.42.2,2.08.4,4.16.61,6.24-1.86,0-3.72,0-5.58.01-.06-2.22-.12-4.45-.17-6.68Z"/>
  <path class="cls-1" d="m408.65,328.72c-.2-2.08-.4-4.16-.61-6.24,1.61,1.19,3.22,2.39,4.83,3.58-1.41.89-2.82,1.77-4.23,2.66Z"/>
  <path class="cls-1" d="m402.9,322.06c.06,2.23.12,4.45.17,6.68-.72-.13-1.45-.26-2.17-.39-.35-2.42-.71-4.85-1.06-7.28,1.02.33,2.04.66,3.05.99Z"/>
  <path class="cls-21" d="m363.82,314.21c0,2.98,0,5.96.01,8.94-.71-.14-1.42-.28-2.14-.43.08-2.81.17-5.62.25-8.43.62-.03,1.25-.05,1.87-.08Z"/>
  <path class="cls-15" d="m574.74,302.42c-.97-.12-1.94-.25-2.91-.37-10.32,2.02-20.64,4.04-30.95,6.07-1-1.02-2.01-2.03-3.01-3.05,3.37-1.15,6.74-2.31,10.12-3.46,8.27-1.85,16.54-3.69,24.81-5.54,2.37,2.93,5.09,5.05,9.19,4.07-2.41.76-4.83,1.52-7.24,2.28Z"/>
  <path class="cls-21" d="m498.87,314.21c-2.02.65-4.04,1.29-6.07,1.94-5.97-.06-11.93-.13-17.9-.19,0-.58,0-1.16-.01-1.74.66-.1,1.32-.2,1.97-.29.66,0,1.31,0,1.97-.01,5.41-.32,10.84-.44,16.22-1.07,2.29-.27,4.46-1.61,6.69-2.46,7.04-1.5,14.08-2.99,21.13-4.49,1,0,2,0,3.01,0,2.33-.59,4.67-1.18,7-1.77-.34.86-.69,1.71-1.03,2.57l-.02.33c-3.52.69-7.06,1.3-10.56,2.08-5.53,1.24-11.04,2.61-16.56,3.92-1.94.39-3.88.78-5.81,1.17Z"/>
  <path class="cls-13" d="m504.69,313.04c5.52-1.31,11.02-2.68,16.56-3.92,3.5-.79,7.04-1.4,10.57-2.08.69.68,1.37,1.35,2.06,2.03-8.19,1.7-16.35,3.48-24.57,5-1.42.26-3.06-.65-4.6-1.02Z"/>
  <path class="cls-13" d="m537.86,305.07c1,1.02,2.01,2.03,3.01,3.05-1.68.3-3.35.6-5.03.9,0-1.07,0-2.14,0-3.2.67-.25,1.35-.5,2.02-.75Z"/>
  <path class="cls-15" d="m535.84,305.82c0,1.07,0,2.14,0,3.21-.66,0-1.32.02-1.98.03-.69-.68-1.37-1.35-2.06-2.03,0,0,.02-.33.02-.33,1.33-.29,2.67-.59,4-.88Z"/>
  <path class="cls-24" d="m582.86,250.11c-16.82,3-33.63,6.04-50.46,8.98-4.52.79-9.1,1.3-13.65,1.94.58-.73,1.02-1.88,1.77-2.14,6.75-2.35,13.55-4.55,20.34-6.79,2.02-.59,4.04-1.18,6.06-1.77-.16-.81-.32-1.62-.48-2.44l-12.57,1.17c-.67,0-1.33,0-2,0-2.33,0-4.67,0-7,0-12.33,0-24.67,0-37,0-.74-.31-1.47-.9-2.21-.9-16.28-.05-32.56-.08-48.84.04-1.01,0-2.01,1.18-3.01,1.8-5.29,0-10.58,0-15.87,0-1.71-.6-3.42-1.2-5.13-1.81l-5.93-.06c-3.48-1.18-6.99-2.67-10.07.86-3.64.03-7.29.05-10.93.08-3.33.02-6.67.05-10,.07-4.65.29-9.29.58-13.94.87,0-1.28,0-2.56,0-3.84,3.62-.39,7.25-.79,10.87-1.18l4.07-.94c9.67-.32,19.33-.63,29-.95l2-.05c2.33-.31,4.67-.63,7-.94l4-.07c1.31-.02,2.62-.04,3.93-.06,1.02-.31,2.05-.62,3.07-.93,1.67-.31,3.33-.63,5-.94,1.02-.3,2.05-.61,3.07-.91,2.31-.03,4.62-.05,6.93-.08.67-.02,1.33-.04,2-.06,2.33-.31,4.67-.62,7-.94,1.36-.31,2.71-.62,4.07-.93,2.31-.02,4.62-.05,6.93-.07,3.33-.03,6.67-.05,10-.08,4.33-.31,8.67-.62,13-.93,1.67-.02,3.33-.05,5-.07.97-.02,1.95-.04,2.92-.06.69-.31,1.39-.61,2.08-.92,4-.65,8-1.3,12-1.95l4-.07c5.33-.32,10.67-.64,16-.95,1.33,0,2.67-.02,4-.03,4.67-.32,9.33-.63,14-.95,1.33-.02,2.67-.04,4-.07,2-.31,4-.61,6-.92,2.24,1.06,4.5,2.29,6.05-.96,1.6-.46,3.2-.92,4.79-1.39-.92-1.37-1.67-2.92-2.81-4.09-2.24-2.31-4.69-4.41-7.06-6.6,8.33,2,16.66,4,24.99,5.99.67,3.27,1.63,6.51,1.96,9.81.56,5.71.73,11.46,1.07,17.2Zm-92.99-9.64c29.64,1.22,58.5,2.42,87.36,3.61-5.9-4.77-81.31-7.15-87.36-3.61Z"/>
  <path class="cls-18" d="m579.84,223.1c-8.33-2-16.66-4-24.99-5.99-2.31-.7-4.62-1.4-6.93-2.11,0-.92-.01-1.83-.02-2.75,9.79,2.59,19.58,5.19,29.39,7.74.76.2,1.63-.05,2.45-.09.03,1.07.06,2.13.1,3.2Z"/>
  <path class="cls-23" d="m169.86,266.01c1.89.08,3.78.15,5.68.23,2.11.95,4.22,1.91,6.33,2.86,1.66.68,3.32,1.36,4.99,2.03,1.01.36,2.02.72,3.03,1.08,0,1.95,0,3.9,0,5.85-8.72.01-17.57,1.5-25.99-2.17-.57-3.39,1.78-7.68-3.01-9.76.01-.3.03-.6.04-.9,1.98.27,3.97.54,5.95.81,1-.01,2-.02,3-.03Z"/>
  <path class="cls-7" d="m160.87,266.13c4.79,2.09,2.44,6.37,3.01,9.76-4.29-1.02-8.58-2.04-12.88-3.07-.01-1.94-.03-3.88-.05-5.82,3.3-.29,6.61-.58,9.91-.87Z"/>
  <path class="cls-7" d="m189.87,278.06c0-1.95,0-3.9,0-5.85,1.33.28,2.66.56,3.99.84,1.03-.25,2.06-.49,3.09-.74.29,3.28.58,6.57.87,9.85-2.65-1.37-5.3-2.73-7.96-4.1Z"/>
  <path class="cls-9" d="m83.74,270.04c1.02-.03,2.04-.06,3.06-.09,3.38-.01,6.76-.03,10.15-.04,4.96.14,9.91.28,14.86.43-1.64.26-3.28.52-4.91.78-6.16,0-12.33.08-18.49-.04-1.56-.03-3.11-.67-4.66-1.03Z"/>
  <path class="cls-7" d="m197.82,282.12c.35.33.7.65,1.05.98-.35-.33-.7-.65-1.05-.98Z"/>
  <path class="cls-22" d="m238.95,240.08c-.26-.61-.9-1.42-.71-1.79,3.92-7.68,2.89-15.66,1.65-23.68-.12-.8.06-1.65.09-2.48,5.68-1.31,11.36-2.63,17.04-3.94-.73,1.63-1.46,3.26-2.18,4.9-1.52,1.03-3.09,2.06.07,2.98,1.32.01,2.64.03,3.96.04,2.33,0,4.67-.01,7-.02l4-.93c2.33-.03,4.67-.07,7-.1l6,.04c.67.02,1.33.03,2,.05,1.02.07,2.05.13,3.07.2-1.39.92-2.69,2.41-4.19,2.67-9.92,1.68-19.9,3-29.83,4.67-1.83.31-3.47,1.69-5.2,2.58l.77,1.53c3.84-.75,7.65-1.69,11.53-2.19,5.26-.68,10.57-1.02,15.85-1.51-1.54.91-3.08,1.83-4.63,2.74.24.58.47,1.15.71,1.73,2.3-.78,4.6-1.56,6.9-2.34,2.34-.02,4.68-.03,7.01-.05.69-.32,1.38-.63,2.07-.95,1.98-.03,3.95-.05,5.93-.08.67-.01,1.33-.02,2-.03,2.01.03,4.02.05,6.02.08-.65.62-1.23,1.69-1.96,1.8-5.21.82-10.48,1.27-15.67,2.17-5.02.86-9.98,2.11-14.97,3.19l.28,1.73c2.17-.18,4.36-.3,6.52-.56,11.94-1.43,23.88-2.9,35.82-4.35-1.69,1.3-3.39,2.6-5.08,3.9-1.66.33-3.31.66-4.97.99-.69.32-1.38.64-2.07.96-2.29.06-4.59.11-6.88.17-.69.31-1.37.62-2.06.93l-4.92.11c-1.36.3-2.72.59-4.08.89-1.33,0-2.67,0-4,.01-.67,0-1.33,0-2,0-3.56.8-7.12,1.6-10.67,2.39-.12.56-.24,1.12-.36,1.68.83.52,1.6,1.18,2.49,1.54,7.16,2.87,14.46,5.43,21.48,8.61,4.63,2.1,8.87,5.07,13.28,7.65-1.58-.29-3.2-.45-4.74-.9-12.5-3.62-24.98-7.3-37.46-10.96-7.31-2.01-14.63-4.02-21.94-6.03Z"/>
  <path class="cls-12" d="m224.87,247.11c-.06,1.11-.12,2.22-.18,3.33-7.95-2.07-15.9-4.13-23.85-6.2.34-1.33.69-2.66,1.03-3.99,9.94.12,20.04-1.71,29.64,2.62,1.21.55,2.91,0,4.38-.03.65.05,1.31.1,1.96.15,3.04,1.02,6.08,2.04,9.12,3.06-.7.02-1.4.03-2.1.05-2.33.66-4.66,1.33-6.99,1.99-5.64-1.46-11.29-2.92-16.93-4.38-.13.49-.27.97-.4,1.46,1.44.65,2.88,1.29,4.32,1.94Z"/>
  <path class="cls-18" d="m246.97,246.06c-3.04-1.02-6.08-2.04-9.12-3.06.36-.97.73-1.94,1.09-2.92,7.32,2.01,14.63,4.02,21.95,6.03-.34.65-.68,1.3-1.01,1.95-.66.06-1.31.13-1.97.19-1.69-.33-3.38-.65-5.07-.98-.31-.11-.63-.1-.94,0-.66-.1-1.31-.2-1.97-.3,0,0,.03.03.03.04-.69-.25-1.37-.51-2.06-.76-.29-.16-.6-.23-.93-.21Z"/>
  <path class="cls-18" d="m257.02,208.19c-5.68,1.31-11.36,2.63-17.04,3.94.3-1.35.61-2.7.91-4.05,5.99-.97,11.98-1.93,17.97-2.9.03.66.05,1.32.08,1.98-.64.34-1.28.69-1.92,1.03Z"/>
  <path class="cls-15" d="m201.86,240.26c-.34,1.33-.69,2.66-1.03,3.99-.96.59-1.92,1.19-2.89,1.78-1.03.35-2.06.71-3.09,1.06l-1.99.84c-.31.09-.62.16-.94.19-.9-.65-1.8-1.85-2.69-1.85-3.89.04-3.4-2.58-3.37-5.01,5.33-.34,10.67-.67,16-1.01Z"/>
  <path class="cls-9" d="m50.91,270.32c8.66-.07,17.31-.15,25.97-.22-3.87.34-7.73.83-11.61.98-4.14.17-8.28.03-12.43.03-.64-.26-1.29-.53-1.93-.79Z"/>
  <path class="cls-10" d="m171.94,241.32c-.38.79-.77,1.58-1.15,2.37-.31-.68-.62-1.36-.92-2.04.69-.11,1.38-.22,2.08-.33Z"/>
  <path class="cls-27" d="m560.94,209.56c-.67-5.6-1.35-11.2-2.02-16.8.48-.08.96-.15,1.44-.23,4.32,4.99,1.91,11.1,2.53,16.7-.65.11-1.29.22-1.94.33Z"/>
  <path class="cls-29" d="m575.54,197.68c5.43,5.23,2.53,11.67,3.2,17.67-.64.06-1.27.11-1.91.17,0-2.94.17-5.89-.05-8.82-.22-3.02-.82-6.01-1.25-9.02Z"/>
  <path class="cls-1" d="m253.33,186.24c.52,5.36,1.05,10.73,1.6,16.45-3.86-2.02-5.19-10.86-1.6-16.45Z"/>
  <path class="cls-27" d="m246.57,187.67v16.03c-3.83-2.71-3.79-11.41,0-16.03Z"/>
  <path class="cls-8" d="m257.02,208.19c.64-.34,1.28-.69,1.92-1.03,6.04-1.04,12.05-2.24,18.11-3.08,10.49-1.44,20.97-3.27,31.51-3.83,25.69-1.38,51.42-3.11,77.11-2.83,23.31.25,46.63,2.59,69.89,4.71,20.09,1.83,40.12,4.42,60.12,7.11,10.81,1.45,21.5,3.81,32.24,5.76,2.31.7,4.62,1.4,6.93,2.11,2.37,2.19,4.82,4.29,7.06,6.6,1.13,1.17,1.88,2.71,2.81,4.09-1.6.46-3.2.92-4.79,1.39-2.02.32-4.03.64-6.05.97-2,.31-4,.61-6,.92-1.33.02-2.67.04-4,.07-4.67.32-9.33.63-14,.95-1.33,0-2.67.02-4,.03-5.33.32-10.67.64-16,.95-1.33.02-2.67.04-4,.06-4,.65-8,1.3-12,1.95-.69.31-1.39.61-2.08.92-.97.02-1.95.04-2.92.06-1.67.02-3.33.05-5,.07-4.33.31-8.67.62-13,.93-3.33.03-6.67.05-10,.08-2.31.02-4.62.05-6.94.07-1.36.31-2.71.62-4.06.93-2.33.31-4.67.62-7,.94-.67.02-1.33.04-2,.06-2.31.03-4.62.05-6.93.08-1.02.3-2.05.61-3.07.91-1.67.31-3.33.63-5,.94-1.02.31-2.05.62-3.07.93-1.31.02-2.62.04-3.93.06-1.33.02-2.67.05-4,.07-2.33.31-4.67.63-7,.94-.67.02-1.33.03-2,.05-9.67.32-19.33.63-29,.95-1.36.31-2.71.62-4.07.93-3.62.39-7.25.79-10.87,1.18-1.23.72-2.46,1.45-3.69,2.18,1.23.55,2.46,1.11,3.7,1.66,4.65-.29,9.29-.58,13.94-.87,3.33-.02,6.67-.05,10-.07,3.64-.03,7.29-.05,10.94-.08,3.36-.29,6.71-.57,10.07-.86,1.98.02,3.95.04,5.93.06,1.71.6,3.42,1.2,5.13,1.81,5.29,0,10.58,0,15.87,0,16.8.03,33.6.08,50.4.04,1.22,0,2.44-.64,3.67-.99,12.33,0,24.67,0,37,0,2.33,0,4.67,0,7,0,.67,0,1.33,0,2,0,2.33,1.01,4.66,2.02,6.99,3.03-6.79,2.24-13.59,4.44-20.34,6.79-.75.26-1.18,1.41-1.77,2.14-1.97.68-3.95,1.36-5.92,2.04-10.33,1.04-20.66,2.07-30.99,3.11-14.18,1-28.37,1.99-42.55,2.99-.5.04-.99.1-1.49.15-11.17,1.25-22.31,3.19-33.51,3.59-16.45.58-32.94.07-49.41.02-1.1-.62-2.12-1.48-3.3-1.83-4.1-1.2-8.26-2.21-12.4-3.3-8.44-2.23-16.88-4.46-25.32-6.68-3.59-1.05-7.18-2.09-10.78-3.14-4.41-2.58-8.65-5.55-13.28-7.65-7.02-3.18-14.32-5.74-21.48-8.61-.89-.36-1.66-1.02-2.49-1.54.12-.56.24-1.12.36-1.68,3.56-.8,7.12-1.6,10.67-2.39.67,0,1.33,0,2,0,1.33,0,2.67,0,4-.01,1.36-.3,2.72-.59,4.08-.89,1.64-.04,3.28-.07,4.92-.11.69-.31,1.37-.62,2.06-.93,2.29-.06,4.59-.11,6.88-.17.69-.32,1.38-.64,2.06-.96,1.66-.33,3.31-.66,4.97-.99,5.67-.66,11.35-1.33,17.02-1.99,3.98-.02,7.97-.03,11.95-.05,1.02-.32,2.04-.64,3.06-.96,3.67-.99,7.33-1.98,11-2.97,1.33-.02,2.65-.05,3.98-.07,18.76-3.11,37.53-2.63,56.34-.36,3.15.38,6.38.05,9.57.05,0-.62.01-1.24.02-1.86-21.21-2.98-42.59-1.45-63.9-1.74-.67.03-1.34.06-2.01.09-2.67.28-5.33.56-8,.85-5.32-.21-10.65-.46-15.98-.58-.35,0-.72.97-1.08,1.49-8.97.07-17.94.15-26.91.22-2.01-.03-4.02-.05-6.02-.08-.67.01-1.33.02-2,.03-1.98.03-3.95.05-5.93.08-.69.32-1.38.63-2.07.95-2.34.02-4.68.03-7.01.05.65-.74,1.3-1.47,1.95-2.21,1.16-.59,2.27-1.57,3.48-1.71,7.17-.86,14.37-1.52,21.56-2.25,14.67-.97,29.35-1.94,44.02-2.91.67-.01,1.33-.02,2-.03,2.36-.46,4.71-.93,7.07-1.39-.04-.35-.07-.7-.11-1.06-17.66.83-35.31,1.65-52.97,2.48-6.31-.26-12.61-.52-18.92-.78-1.02-.07-2.05-.13-3.07-.2-.67-.02-1.33-.03-2-.05-2-.01-4-.02-6-.04-2.33.03-4.67.07-7,.1-1.33.31-2.67.62-4,.93-2.33,0-4.67.01-7,.02-1.32-.01-2.64-.03-3.96-.04-.02-.99-.05-1.99-.07-2.98.73-1.63,1.46-3.26,2.18-4.9Zm107.08,6.56c.12-.28.4-.62.32-.82-.08-.2-.57-.41-.78-.33-.2.08-.41.58-.33.77.08.2.51.26.79.38Z"/>
  <path class="cls-15" d="m462.91,318.03c-.02,1-.04,2-.06,3-5.33.27-10.65.54-15.98.81,1.21-.92,2.3-2.24,3.66-2.65,2.33-.71,5.31-.16,7.12-1.42,1.52-1.05,2.44-3.94,2.42-6-.04-3.07-2.5-2-4.7-2.18-4.14-.33-8.69-.68-11.53-4.65,5.37-1,10.75-2.01,16.12-3.01-.07-.47-.14-.93-.22-1.4-6.29.8-12.58,1.61-18.87,2.41-1.16-2.26-2.53-4.44-3.35-6.82-.26-.76.93-2.02,1.45-3.05,3.12-.32,6.3-.36,9.33-1.06,1.94-.45,3.66-1.88,5.48-2.87,1.43.33,2.9.57,4.29,1.01,3.62,1.14,3.74,2.86.71,4.99-6.45.46-12.9.92-19.35,1.38.06.66.12,1.32.18,1.99,6.56.94,12.84-1.41,19.24-2.43,1.96,2.33,3.7,4.91,5.97,6.87,1.17,1.01,4.28.4,4.81,1.42,1.54,2.95,2.22,6.36,3.23,9.58-3.55.81-7.92-.39-9.96,4.09Z"/>
  <path class="cls-2" d="m428.81,279.96c-3.65.1-7.29.2-10.94.29-2.98.29-5.97.57-8.95.86-4.83-3.54-9.93-2.41-15.06-.9-6.32-1.05-12.65-2.1-18.97-3.15.02-.59.04-1.19.06-1.78,6.64-.05,13.3.15,19.93-.21,15.16-.82,30.29-1.99,45.44-2.86,7.25-.42,14.51-.48,21.77-.71-4.2,1.19-8.37,2.49-12.6,3.55-6.87,1.72-13.78,3.27-20.68,4.9Z"/>
  <path class="cls-29" d="m462.09,271.52c-7.26.23-14.52.29-21.77.71-15.15.87-30.29,2.04-45.44,2.86-6.63.36-13.28.15-19.93.2-1.02-.05-2.04-.11-3.06-.16-2.64-1.04-2.89,1.46-3.99,2.7l-1.01.4c-.61-.06-1.23-.13-1.84-.19-.38-.25-.77-.5-1.15-.75-2.69-.67-5.37-1.34-8.06-2.01-.34,0-.67.02-1.01.02,0,0,.08-.33.08-.33,0-.68-.02-1.36-.03-2.05,16.47.05,32.96.57,49.41-.02,11.2-.4,22.34-2.34,33.51-3.59.5-.06.99-.12,1.49-.15,14.18-1,28.37-2,42.55-2.99-.01.92-.03,1.85-.04,2.77,0,0,.12.28.12.28-5.71.75-11.42,1.49-17.13,2.24-.9.02-1.8.04-2.7.06Z"/>
  <path class="cls-15" d="m512.89,264.89c3.99-.21,7.98-.42,11.98-.63-.24,1.41-.02,3.2-.81,4.15-2.24,2.71-1.85,5.55-1.19,8.53-4.27.27-8.54.54-12.81.8-.05-.49-.1-.97-.15-1.46,2.69-.86,5.38-1.72,8.07-2.57-.06-.27-.12-.53-.18-.8-3.97.19-7.94.37-11.91.55-.32-.45-.64-.9-.95-1.34-.01-.35-.03-.71-.04-1.06-1.27-2.73-2.64-2.74-4.08-.13-5.18.76-10.42,1.27-15.52,2.37-3.01.65-3.4-.77-3.6-2.97.08-.37.16-.74.24-1.11,0,0-.12-.28-.12-.28,10.36-1.35,20.73-2.7,31.09-4.06Z"/>
  <path class="cls-3" d="m319.87,297.32c-3.84-.73-7.74-1.25-11.5-2.26-3.61-.97-7.38-1.94-10.57-3.78-8.7-5.04-18.54-5.01-27.93-6.99-2.3-.76-4.65-1.4-6.89-2.3-1.7-.68-3.46-1.69-.15-2.79,7.33,1.59,14.65,3.17,21.98,4.76.65.1,1.3.19,1.94.29,1.02.33,2.04.66,3.06.98.69.23,1.37.46,2.06.69,1.31.43,2.62.87,3.94,1.3,2.31,1.1,4.61,2.19,6.92,3.29,1.03.56,2.06,1.13,3.09,1.69,1.35.24,2.7.49,4.05.73,3.94.41,7.87.81,11.81,1.22.36.19.73.39,1.09.58.67.13,1.34.26,2.02.38.35.26.69.52,1.04.78.98.08,1.96.16,2.94.23,1.02.37,2.05.74,3.07,1.11.84.39,1.68.78,2.52,1.16-.32.46-.63.93-.95,1.39-2.08-.28-4.15-.55-6.23-.83-.77-.29-1.54-.58-2.31-.87-1.67-.26-3.33-.53-5-.79Z"/>
  <path class="cls-25" d="m194.91,265.31c-.68-.03-1.37-.05-2.05-.08-1.33-.68-2.67-1.35-4-2.03-1.68,0-3.35.01-5.03.02-.32-.1-.63-.09-.95,0-1.08-.38-2.15-.76-3.23-1.14.73-.38,1.47-.76,2.2-1.15,1.66,0,3.33,0,4.99,0,.67,0,1.34,0,2,0,1.33.31,2.67.62,4,.93.9.11,1.81.22,2.71.34.48.45.96,1.28,1.45,1.29,8.41.15,16.33,1.73,24.15,5.31,4.22,1.93,9.7,1.13,14.61,1.56,1.01.3,2.01.59,3.01.89.68.3,1.35.61,2.03.91.68.22,1.35.45,2.03.67,1.35.75,2.7,1.5,4.05,2.25-.03.67-.05,1.33-.08,2,0,0,.02-.02.02-.02-.65,0-1.3-.01-1.95-.02,0,0,.02.03.02.03-.33-.25-.67-.5-1-.75-1.66-.42-3.31-.84-4.97-1.26-4.92-1.13-9.85-2.22-14.76-3.4-6.65-1.6-13.25-3.39-19.92-4.84-2.71-.59-5.57-.51-8.36-.74-.33-.26-.66-.52-1-.78Z"/>
  <path class="cls-12" d="m235.79,270.37c-4.91-.43-10.38.37-14.61-1.56-7.82-3.58-15.74-5.16-24.15-5.31-.49,0-.97-.84-1.45-1.29,5.51-1.11,11-2.42,16.56-3.24,2.85-.42,5.83.06,8.75.13-1.65.95-3.31,1.9-5.38,3.09,5.19,1.48,10.16,2.96,15.17,4.29.77.21,2.38-.03,2.47-.36.91-3.31,2.93-2.01,4.83-1.34-.73,1.86-1.46,3.72-2.19,5.58Z"/>
  <path class="cls-3" d="m416.83,314.94c-9.28-1.22-18.58-.98-27.82-4.2-7.75-2.7-16.65-2.11-25.04-2.98-.62-.25-1.24-.49-1.86-.74-.39-.22-.78-.44-1.18-.66-.68-.1-1.36-.21-2.05-.31-1.01-.27-2.01-.54-3.02-.81-1.33-.32-2.67-.63-4-.95-1.67,0-3.34.01-5.01.02-1.01-.54-2.02-1.08-3.03-1.62.08-.51.16-1.02.24-1.53,2.26,0,4.51,0,6.77,0,1.01.25,2.02.49,3.03.74,2.97.75,5.93,1.49,8.9,2.24,6.03.92,12.07,1.84,18.1,2.77.36-.01.73-.02,1.09-.03,3.26.54,6.52,1.07,9.78,1.6,1.35.55,2.69,1.1,4.04,1.65.35.27.71.53,1.06.8,6.67.77,13.34,1.54,20.01,2.31,0,.57,0,1.14,0,1.71Z"/>
  <path class="cls-29" d="m303.09,257.97c3.59,1.05,7.18,2.09,10.78,3.14-.33.66-.66,1.32-.99,1.98-.64-.06-1.28-.12-1.93-.18-.69-.18-1.39-.36-2.08-.53-.63-.1-1.27-.21-1.9-.31-.36-.26-.71-.52-1.07-.78-3.67-.76-7.33-1.51-11-2.27-1-.23-1.99-.46-2.99-.68-.34-.08-.68-.17-1.01-.25-1-.36-2-.71-3.01-1.07,0,0,.05.05.05.05-.35-.24-.69-.47-1.04-.71-1.01-.1-2.01-.21-3.02-.31-.68-.24-1.35-.49-2.03-.73-.68-.32-1.35-.65-2.03-.97-.31-.1-.62-.1-.93,0-2-.47-3.99-.93-5.99-1.4-4.3-1.3-8.6-2.6-12.9-3.9-.11-.32-.15-.64-.13-.98.34-.65.68-1.3,1.01-1.95,12.49,3.66,24.97,7.34,37.47,10.96,1.54.45,3.16.61,4.74.9Z"/>
  <path class="cls-1" d="m367.9,277.83c1.1-1.24,1.35-3.74,3.99-2.7,1,.65,2,1.29,3,1.94,6.32,1.05,12.65,2.1,18.97,3.15,5.15.86,10.31,1.71,15.46,2.57,1.53.66,3.05,1.32,5.6,2.42-2.12,1.08-3.09,1.56-4.05,2.05-4.33-.73-8.66-1.47-12.99-2.2-1.98-.33-3.96-.66-5.94-.99-.67-.26-1.35-.52-2.02-.77-.67-.07-1.34-.14-2.02-.21-.33-.25-.65-.5-.98-.74-1.02-.02-2.04-.04-3.06-.05-1.67-.34-3.33-.68-5-1.02-.3-.11-.61-.18-.92-.2-.68-.27-1.35-.53-2.02-.8-.98-.07-1.97-.14-2.95-.2-.35-.28-.71-.55-1.06-.83-1.28-.07-2.57-.13-3.85-.2-.05-.41-.1-.81-.15-1.22Z"/>
  <path class="cls-21" d="m504.89,271.05c.01.35.03.71.04,1.06-4.06.76-8.11,1.52-12.17,2.28-4.64,1.21-9.29,2.41-13.93,3.62-.65-.32-1.29-.64-1.94-.96.08-.89.15-1.78.27-3.15-3.37,1.05-6.39,1.99-9.4,2.93-.65.16-1.3.31-1.95.47-.4.24-.79.47-1.19.71-1.59.45-3.17.89-4.76,1.34-.68-.04-1.35-.08-2.03-.13.01-.38.03-.76.04-1.14,2.96-1.38,5.92-2.76,8.88-4.15,4.98-1.21,9.95-2.42,14.93-3.63.2,2.19.59,3.62,3.6,2.97,5.11-1.1,10.34-1.61,15.52-2.37,1.36.04,2.72.09,4.08.13Z"/>
  <path class="cls-26" d="m312.87,263.09c.33-.66.66-1.32.99-1.98,8.44,2.23,16.88,4.46,25.32,6.68,4.14,1.09,8.29,2.11,12.4,3.3,1.18.34,2.2,1.2,3.3,1.83,0,.68.02,1.36.03,2.05-2-.3-3.99-.6-5.99-.91-2.69-.93-5.38-1.87-8.07-2.8-.92-.08-1.85-.16-2.77-.24-.4-.25-.79-.5-1.19-.75-.66-.1-1.32-.19-1.99-.29-1.32-.34-2.64-.69-3.96-1.03,0,0,.03.08.03.08-.36-.26-.73-.52-1.09-.78-3.31-.73-6.61-1.47-9.92-2.2-.69-.25-1.38-.51-2.06-.76-1.68-.73-3.36-1.47-5.04-2.2Z"/>
  <path class="cls-15" d="m466.75,273.96c-2.96,1.38-5.92,2.76-8.88,4.15-.63-.9-1.26-1.81-1.96-2.8-4.19,1.93-8.09,4.61-12.35,5.42-3.82.72-8.07-1.08-11.69,1.92-.17.14-2.01-1.74-3.07-2.68,6.89-1.63,13.81-3.18,20.68-4.9,4.23-1.06,8.4-2.36,12.6-3.55.9-.02,1.8-.04,2.7-.06.65.83,1.3,1.66,1.96,2.5Z"/>
  <path class="cls-3" d="m237.98,264.79c-1.9-.67-3.92-1.98-4.83,1.34-.09.34-1.7.57-2.47.36-5.01-1.34-9.98-2.81-15.17-4.29,2.07-1.19,3.73-2.14,5.38-3.09,1.98.03,3.95.07,5.93.1,1.35.21,2.7.43,4.05.64,1.66.48,3.31.95,4.97,1.43,3.68.95,7.35,1.91,11.03,2.87.26.34.52.69.78,1.03-.69.54-1.36,1.52-2.06,1.54-1.56.04-3.13-.4-4.7-.65-.96-.42-1.93-.85-2.89-1.27Z"/>
  <path class="cls-15" d="m523.87,280.25c.69,4.63-1.36,6.06-5.91,5.98-4.47-.08-9.12,2.52-13.21-1.23-.79-.73-1.27-1.8-1.89-2.71,7-.68,14-1.37,21.01-2.05Z"/>
  <path class="cls-15" d="m284.8,283.96c-7.33-1.59-14.65-3.18-21.98-4.76,2.36-2.06,4.73-4.12,7.09-6.18,2.32.69,4.65,1.37,6.97,2.06-1.62.89-3.24,1.77-4.86,2.66,3.74,1.47,7.15,1.55,10.37,2.38,1.06.28,1.62,2.51,2.41,3.85Z"/>
  <path class="cls-13" d="m501.74,310.39c-2.22.85-4.39,2.19-6.69,2.46-5.37.63-10.81.74-16.22,1.07.02-.6.03-1.21.05-1.81,3.71.76,6.27-.79,7.98-4,.17.43.34.85.51,1.28.17-.43.33-.85.5-1.28,1,.32,2,.64,3,.97.67-.99,1.35-1.97,2.02-2.96,2.32,0,4.64,0,6.97,0,.63,1.42,1.26,2.85,1.89,4.27Z"/>
  <path class="cls-15" d="m430.24,296.66c-1.81,1.46-3.47,3.35-5.55,4.16-.7.27-2.47-2.21-3.96-3.63-1.08.45-2.77,1.34-4.58,1.78-.57.14-1.88-.84-2.04-1.5-.19-.77.25-2.03.87-2.6,3.02-2.84,11.82-2.17,15.26,1.8Z"/>
  <path class="cls-15" d="m260.01,249.05c4.3,1.3,8.6,2.6,12.9,3.9-2.05,3.91-5.92,2.04-8.48,1.81-4.13-.37-8.18-2.34-12.09-4.06-1.13-.5-1.62-2.43-2.41-3.7.66.1,1.31.2,1.97.3.31,0,.63,0,.94,0,1.69.33,3.38.65,5.07.98.7.26,1.4.53,2.1.79Z"/>
  <path class="cls-21" d="m523.87,280.25c-7,.68-14,1.37-21.01,2.05-1.67-.07-3.33-.13-5-.2.34-.64.69-1.27,1.03-1.91,3.72-.82,7.44-1.63,11.16-2.45,4.27-.27,8.54-.54,12.81-.8.94.07,1.88.15,2.82.22.05.64.1,1.29.15,1.93-.66.39-1.31.77-1.97,1.16Z"/>
  <path class="cls-15" d="m501.74,310.39c-.63-1.42-1.26-2.85-1.89-4.27,6.37-.99,12.73-2.15,19.13-2.83,1.19-.13,2.58,1.69,3.88,2.61-7.04,1.5-14.08,2.99-21.13,4.49Z"/>
  <path class="cls-21" d="m505.88,273.46c3.97-.19,7.94-.37,11.91-.56.06.27.12.53.18.8-2.69.86-5.38,1.72-8.07,2.57-3.74.7-7.49,1.41-11.23,2.11-1.93.33-3.87.65-5.8.98-.67-.09-1.34-.17-2.01-.26.66-1.01,1.33-2.02,1.99-3.03,4.34-.87,8.69-1.74,13.03-2.62Z"/>
  <path class="cls-15" d="m410.87,287.26c.96-.49,1.93-.98,4.05-2.05-2.55-1.1-4.07-1.76-5.6-2.42-.14-.56-.27-1.12-.4-1.67,2.98-.29,5.96-.57,8.95-.86,1.21,7.07-.4,9.33-7,9.84,0-.95,0-1.89,0-2.84Z"/>
  <path class="cls-3" d="m197.95,246.03c.96-.59,1.92-1.19,2.89-1.78,7.95,2.07,15.9,4.13,23.85,6.2-1.02,5.6-4.77-.13-6.71,1.62-.37-.32-.74-.64-1.11-.96-.67-.17-1.35-.35-2.02-.51-5.63-1.52-11.27-3.05-16.9-4.58Z"/>
  <path class="cls-3" d="m572.78,296.07c-8.27,1.85-16.54,3.69-24.81,5.54-.03-.48-.06-.95-.1-1.42.66-.44,1.32-.87,1.98-1.3,2.33-.59,4.67-1.19,7-1.78,4.67-.73,9.34-1.46,14-2.19.65.1,1.31.2,1.96.3.01.29,0,.58-.04.86Z"/>
  <path class="cls-6" d="m284.8,283.96c-.79-1.34-1.35-3.57-2.41-3.85-3.22-.84-6.63-.91-10.37-2.38,1.62-.89,3.24-1.77,4.86-2.66,3.03.73,6.06,1.46,9.08,2.19.3,1.95.59,3.9.89,5.84-.04.38-.08.77-.12,1.15-.65-.1-1.3-.19-1.94-.29Z"/>
  <path class="cls-3" d="m257.87,265.1c-2.01-.33-4.02-.66-6.03-.99-1.63-.4-3.27-.79-4.9-1.19-3.31-1.3-6.61-2.6-9.92-3.89,2.28-.31,4.57-.63,6.85-.94.54.04,1.08.08,1.62.12.45.27.9.54,1.35.82.85.08,1.7.16,2.55.24.83.52,1.66,1.04,2.49,1.57.64.09,1.28.19,1.93.28.34.26.68.51,1.02.77,1.02.4,2.05.81,3.07,1.21,0,.67-.02,1.33-.03,2Z"/>
  <path class="cls-7" d="m416.83,314.94c0-.57,0-1.14,0-1.71,1.01-.04,2.02-.08,3.03-.12.66.36,1.31.72,1.97,1.08,4.03.29,8.05.68,12.09.83,3.75.14,7.5.03,11.26.03l.29,1.35c-1.2.31-2.39.62-3.59.93-8.35-.8-16.69-1.59-25.04-2.39Z"/>
  <path class="cls-15" d="m596.88,295.13c-2.8,4.78-7.91,2.76-11.9,4.05-2.04-2.9-1.11-4.85,1.97-6.11,3.29.07,6.59.15,9.88.22.02.61.03,1.22.05,1.84Z"/>
  <path class="cls-25" d="m191.93,248.12c.32-.04.63-.1.94-.19.64-.01,1.28-.03,1.93-.04,6.61,1.49,13.22,2.99,19.83,4.48-1.56.55-3.13,1.1-4.69,1.65,0,0,.01.04.01.04-.35-.26-.69-.53-1.04-.79-2.32-.4-4.64-.81-6.96-1.21-1.01-.26-2.02-.51-3.03-.77-2.33-1.06-4.66-2.12-6.99-3.18Z"/>
  <path class="cls-7" d="m285.96,277.26c-3.03-.73-6.06-1.46-9.08-2.19-2.32-.69-4.65-1.37-6.97-2.06.96-.59,1.92-1.18,2.89-1.78.69.23,1.38.46,2.06.68,1.97.19,3.94.37,5.91.56,3.37,1.21,6.73,2.42,10.1,3.63,0,.67,0,1.34,0,2.01-1.64-.29-3.27-.57-4.91-.86Z"/>
  <path class="cls-3" d="m224.87,247.11c-1.44-.65-2.88-1.29-4.32-1.94.13-.49.27-.97.4-1.46,5.64,1.46,11.29,2.92,16.93,4.38-.02.99-.04,1.99-.06,2.98-4.32-1.32-8.63-2.65-12.95-3.97Z"/>
  <path class="cls-15" d="m492.85,276.08c-.66,1.01-1.33,2.02-1.99,3.03-4.16,1.31-8.31,2.45-12.03-1.09,4.64-1.21,9.29-2.41,13.93-3.62.03.56.06,1.12.09,1.68Z"/>
  <path class="cls-12" d="m410.87,287.26c0,.95,0,1.89,0,2.84-2.33,0-4.67,0-7,0-.17-.42-.34-.84-.5-1.26-.16.42-.32.85-.49,1.27-4.13.77-3.67-3.02-4.99-5.04,4.33.73,8.66,1.47,12.99,2.2Z"/>
  <path class="cls-3" d="m440.86,302.94c6.29-.8,12.58-1.61,18.87-2.41.07.47.14.93.22,1.4-5.37,1-10.75,2.01-16.12,3.01-1.41.05-2.83.1-4.24.15.42-.71.85-1.43,1.27-2.14Z"/>
  <path class="cls-15" d="m192.87,261.88c-1.33-.31-2.67-.62-4-.93-.33-.62-.67-1.23-1-1.85-.02-2.33-.03-4.66-.05-6.98.02-.34.03-.68.05-1.01,6.78,1.22,4.57,6.61,5,10.78Z"/>
  <path class="cls-3" d="m458.85,296.07c-6.4,1.01-12.68,3.36-19.24,2.43-.06-.66-.12-1.32-.18-1.99,6.45-.46,12.9-.92,19.35-1.38.07.31.09.62.07.94Z"/>
  <path class="cls-15" d="m380.86,306.91c-6.03-.92-12.07-1.84-18.1-2.77,4.12-.21,8.26-.8,12.33-.46,2,.17,3.85,2.09,5.77,3.22Z"/>
  <path class="cls-6" d="m214.62,252.37c-6.61-1.49-13.22-2.99-19.83-4.48.03-.27.06-.53.06-.8,1.03-.35,2.06-.71,3.09-1.06,5.63,1.53,11.27,3.05,16.9,4.58-.08.58-.15,1.17-.23,1.76Z"/>
  <path class="cls-28" d="m281.86,266.86c3.3.76,6.61,1.51,9.92,2.27.35.26.7.53,1.05.79.35.06.69.12,1.04.19,0,.66,0,1.33-.01,1.99-.99.06-1.99.13-2.98.19-3.33-1-6.67-2.01-10-3.01-.99-.39-1.98-.79-2.97-1.18,1.32-.41,2.64-.82,3.96-1.23Z"/>
  <path class="cls-15" d="m280.86,269.27c3.33,1,6.67,2.01,10,3.01,0,1.27,0,2.55,0,3.82-3.36-1.21-6.73-2.42-10.1-3.63.03-1.07.06-2.13.09-3.2Z"/>
  <path class="cls-28" d="m547.88,300.19c.03.47.06.94.1,1.42-3.37,1.16-6.74,2.31-10.12,3.46-.67.25-1.35.5-2.02.75-1.33.29-2.67.59-4,.88.34-.86.69-1.72,1.03-2.57,1.98-.74,3.97-1.48,5.95-2.23.68.01,1.37.02,2.05.03.68-.25,1.36-.5,2.04-.75,1.66-.33,3.31-.66,4.97-1Z"/>
  <path class="cls-7" d="m453.78,289.13c-1.82.99-3.54,2.42-5.48,2.87-3.03.7-6.21.74-9.33,1.06,3.98-1.38,7.96-2.77,11.95-4.15,0,0,.46.07.46.07l.46-.06c.65.07,1.3.14,1.95.21Z"/>
  <path class="cls-15" d="m538.82,301.9c-1.98.74-3.97,1.48-5.95,2.23-2.33.59-4.67,1.18-7,1.77,3.31-2.2,6.57-4.5,10.02-6.44.39-.22,1.92,1.58,2.92,2.44Z"/>
  <path class="cls-15" d="m201.95,252.07c2.32.4,4.64.81,6.96,1.21.35.26.69.53,1.04.79,0,0-.01-.04-.01-.04-.13,2.02-.78,4.27-3.04,2.25-1.89-1.69-6.39.48-6.03-4.16.36-.01.72-.03,1.08-.04Z"/>
  <path class="cls-15" d="m237.81,251.08c.02-.99.04-1.99.06-2.98,2.33-.66,4.66-1.33,6.99-1.99-.51,1.88-1.02,3.76-1.59,5.84-1.96-.31-3.71-.59-5.46-.87Z"/>
  <path class="cls-15" d="m467.76,276.85c3.01-.94,6.03-1.88,9.4-2.93-.12,1.37-.2,2.26-.27,3.15-3.06.69-6.17,3.43-9.13-.21Z"/>
  <path class="cls-28" d="m462.91,318.03c2.04-4.48,6.41-3.28,9.96-4.09.68.09,1.35.19,2.03.28,0,.58,0,1.16.01,1.74-4,.69-8,1.38-12,2.07Z"/>
  <path class="cls-12" d="m237.02,259.03c3.31,1.3,6.61,2.6,9.92,3.9-.03.41-.05.81-.08,1.22-3.68-.96-7.35-1.91-11.03-2.87.4-.75.79-1.5,1.19-2.25Z"/>
  <path class="cls-15" d="m245.49,258.21c-.54-.04-1.08-.08-1.62-.12.75-.98,2.01-2.9,2.18-2.81,2.03,1.1,3.91,2.5,5.82,3.82-.83.06-1.65.12-2.48.17-.85-.08-1.7-.16-2.55-.24-.45-.27-.9-.54-1.35-.82Z"/>
  <path class="cls-6" d="m598.88,271.08c-2.01,1-3.96,2.18-6.05,2.96-2.27.85-4.67,1.32-7.02,1.96.03-.47.06-.94.09-1.41,4.33-1.17,8.65-2.34,12.98-3.5Z"/>
  <path class="cls-15" d="m391.73,308.48c-3.26-.53-6.52-1.07-9.78-1.6,2.02-.55,4.09-1.62,6.06-1.45,1.32.11,2.49,1.97,3.72,3.05Z"/>
  <path class="cls-15" d="m322.86,306.24c-2.26-.56-5.89,1.57-6.08-3.09,3.34-1.55,5.81-1.4,6.08,3.09Z"/>
  <path class="cls-15" d="m556.87,297.1c-2.33.59-4.67,1.19-7,1.78,1.65-4.38,4.01-4.98,7-1.78Z"/>
  <path class="cls-15" d="m302.72,290.51c-2.31-1.1-4.61-2.19-6.92-3.29,3.93-2.32,6.18-1.11,6.92,3.29Z"/>
  <path class="cls-15" d="m534.84,262.05c2.67-.26,5.35-.53,8.02-.79-2.16,5.43-5.21,1.93-8.02.79Z"/>
  <path class="cls-12" d="m340.86,271.27c2.69.93,5.38,1.87,8.07,2.8-3.34.95-7.17,3.29-8.07-2.8Z"/>
  <path class="cls-15" d="m237.98,264.79c.96.42,1.93.85,2.89,1.27-.69,1.73-1.38,3.46-2.07,5.2-1.01-.3-2.01-.59-3.02-.89.73-1.86,1.46-3.72,2.19-5.58Z"/>
  <path class="cls-15" d="m285.96,277.26c1.64.29,3.27.57,4.91.86-1.34,1.66-2.68,3.32-4.01,4.98-.3-1.95-.59-3.9-.89-5.84Z"/>
  <path class="cls-15" d="m346.86,304.31c1.67,0,3.34-.01,5.01-.02-.91,1.22-1.82,2.43-2.73,3.65-.76-1.21-1.52-2.42-2.28-3.63Z"/>
  <path class="cls-15" d="m492.87,279.37c1.93-.33,3.87-.65,5.8-.97.07.6.15,1.2.22,1.8-.34.64-.69,1.27-1.03,1.91-1.66-.91-3.33-1.82-4.99-2.73Z"/>
  <path class="cls-12" d="m378.86,281.27c1.67.34,3.33.68,5,1.02-2.26,2.58-4.14,3.25-5-1.02Z"/>
  <path class="cls-15" d="m281.86,266.86c-1.32.41-2.64.82-3.96,1.23-.39-.72-.77-1.44-1.16-2.16,1.71.31,3.41.62,5.12.93Z"/>
  <path class="cls-12" d="m330.95,268.96c1.32.34,2.64.69,3.96,1.03-1.8,1.48-3.36,2.06-3.96-1.03Z"/>
  <path class="cls-12" d="m230.86,259.85c-1.35-.21-2.7-.43-4.05-.64,1.35.21,2.7.43,4.05.64Z"/>
  <path class="cls-15" d="m246.85,264.14c.03-.41.05-.81.08-1.22,1.63.4,3.27.79,4.9,1.19-1.4.35-2.8.71-4.2,1.06-.26-.34-.52-.69-.79-1.03Z"/>
  <path class="cls-15" d="m309.86,292.94c-1.35-.24-2.7-.49-4.05-.73,1.35.24,2.7.49,4.05.73Z"/>
  <path class="cls-15" d="m257.87,265.1c0-.67.02-1.33.03-2,.58.68,1.16,1.36,1.75,2.04l-1.77-.04Z"/>
  <path class="cls-15" d="m353.86,301.9c-1.01-.25-2.02-.49-3.03-.74,1.01.25,2.02.49,3.03.74Z"/>
  <path class="cls-15" d="m355.87,305.24c1.01.27,2.01.54,3.02.81-1.01-.27-2.01-.54-3.02-.81Z"/>
  <path class="cls-15" d="m492.88,306.11c-.67.99-1.35,1.97-2.02,2.96.67-.99,1.35-1.97,2.02-2.96Z"/>
  <path class="cls-15" d="m527.79,262.94c1.02-.2,2.05-.41,3.07-.61-1.02.2-2.05.41-3.07.61Z"/>
  <path class="cls-12" d="m291.91,258.34c1,.23,1.99.46,2.99.68-1-.23-1.99-.46-2.99-.68Z"/>
  <path class="cls-15" d="m421.83,314.19c-.66-.36-1.31-.72-1.97-1.08.43-.49.86-.98,1.29-1.47.23.85.45,1.7.68,2.54Z"/>
  <path class="cls-15" d="m291.86,285.92c-.69-.23-1.37-.46-2.06-.69.69.23,1.37.46,2.06.69Z"/>
  <path class="cls-15" d="m242.86,272.84c-.68-.22-1.35-.45-2.03-.67.68.22,1.35.45,2.03.67Z"/>
  <path class="cls-15" d="m478.88,312.11c-.02.6-.03,1.21-.05,1.81-.66,0-1.31,0-1.97.01.67-.61,1.34-1.21,2.01-1.82Z"/>
  <path class="cls-15" d="m293.85,272.09c0-.66,0-1.33.01-1.99.52.26,1.03.51,1.55.77-.52.41-1.04.81-1.56,1.22Z"/>
  <path class="cls-15" d="m274.86,271.92c-.69-.23-1.38-.46-2.06-.68.69.23,1.38.46,2.06.68Z"/>
  <path class="cls-15" d="m542.91,301.19c-.68.25-1.36.5-2.04.75.68-.25,1.36-.5,2.04-.75Z"/>
  <path class="cls-15" d="m244.89,277.05c.65,0,1.3.01,1.95.02-.25.52-.51,1.04-.76,1.56-.4-.53-.8-1.06-1.19-1.59Z"/>
  <path class="cls-6" d="m443.85,322.08c-.66,0-1.32,0-1.99,0,0-.32,0-.63,0-.95.66.32,1.32.64,1.98.96Z"/>
  <path class="cls-15" d="m457.83,279.24c.68.04,1.35.08,2.03.13-.35.44-.71.88-1.06,1.32-.32-.48-.65-.96-.97-1.44Z"/>
  <path class="cls-12" d="m281.86,255.31c.68.24,1.35.49,2.03.73-.68-.24-1.35-.49-2.03-.73Z"/>
  <path class="cls-15" d="m572.83,295.21c-.65-.1-1.31-.2-1.96-.3.3-.46.61-.92.91-1.38.35.56.7,1.12,1.05,1.68Z"/>
  <path class="cls-15" d="m525.84,279.09c-.05-.64-.1-1.29-.15-1.93.57.37,1.14.74,1.7,1.11-.52.27-1.04.55-1.55.82Z"/>
  <path class="cls-15" d="m246.83,277.08c.03-.67.05-1.33.08-2,.5.27,1,.55,1.5.82-.53.39-1.06.79-1.58,1.18Z"/>
  <path class="cls-12" d="m249.39,259.27c.83-.06,1.65-.12,2.48-.17,0,.58,0,1.16.01,1.74-.83-.52-1.66-1.05-2.49-1.57Z"/>
  <path class="cls-12" d="m308.86,262.38c.69.18,1.39.36,2.08.53-.69-.18-1.39-.36-2.08-.53Z"/>
  <path class="cls-15" d="m331.84,297.25c-1.02-.37-2.05-.74-3.07-1.11,1.02.37,2.05.74,3.07,1.11Z"/>
  <path class="cls-15" d="m591.8,290.9c-.96.02-1.93.05-2.89.07.96-.02,1.93-.05,2.89-.07Z"/>
  <path class="cls-12" d="m201.95,252.07c-.36.01-.72.03-1.08.04-.65-.27-1.3-.54-1.94-.81,1.01.26,2.02.51,3.03.77Z"/>
  <path class="cls-12" d="m287.89,257.01c1,.36,2,.71,3.01,1.07-1-.36-2-.71-3.01-1.07Z"/>
  <path class="cls-12" d="m247.9,246.27c.69.25,1.37.51,2.06.76-.69-.25-1.37-.51-2.06-.76Z"/>
  <path class="cls-15" d="m324.87,298.11c.77.29,1.54.58,2.31.87-.77-.29-1.54-.58-2.31-.87Z"/>
  <path class="cls-12" d="m375.91,280.28c.67.27,1.35.53,2.02.8-.67-.27-1.35-.53-2.02-.8Z"/>
  <path class="cls-12" d="m389.92,283.3c.67.26,1.35.52,2.02.77-.67-.26-1.35-.52-2.02-.77Z"/>
  <path class="cls-15" d="m402.87,290.1c.16-.42.32-.85.49-1.27.17.42.34.84.5,1.26-.33,0-.66,0-.99,0Z"/>
  <path class="cls-15" d="m487.87,308.1c-.17.43-.33.85-.5,1.28-.17-.43-.34-.85-.51-1.28.33,0,.67,0,1,0Z"/>
  <path class="cls-12" d="m317.91,265.29c.69.26,1.38.51,2.06.76-.69-.26-1.38-.51-2.06-.76Z"/>
  <path class="cls-15" d="m322.76,294.74c-.36-.19-.73-.39-1.09-.58.36.19.73.39,1.09.58Z"/>
  <path class="cls-12" d="m329.89,268.26c.36.26.73.52,1.09.78-.36-.26-.73-.52-1.09-.78Z"/>
  <path class="cls-15" d="m360.93,306.36c.39.22.78.44,1.18.66-.39-.22-.78-.44-1.18-.66Z"/>
  <path class="cls-15" d="m292.82,269.92c-.35-.26-.7-.53-1.05-.79.35.26.7.53,1.05.79Z"/>
  <path class="cls-12" d="m286.9,256.35c.35.24.69.47,1.04.71-.35-.24-.69-.47-1.04-.71Z"/>
  <path class="cls-15" d="m451.82,288.93l-.46.06s-.46-.07-.46-.07c.3,0,.61,0,.91.01Z"/>
  <path class="cls-12" d="m278.9,254.34c.31-.1.62-.11.93,0-.31,0-.62,0-.93,0Z"/>
  <path class="cls-15" d="m325.82,295.91c-.35-.26-.69-.52-1.04-.78.35.26.69.52,1.04.78Z"/>
  <path class="cls-15" d="m396.82,310.92c-.35-.27-.71-.53-1.06-.8.35.27.71.53,1.06.8Z"/>
  <path class="cls-12" d="m336.9,270.28c.4.25.79.5,1.19.75-.4-.25-.79-.5-1.19-.75Z"/>
  <path class="cls-12" d="m216.87,251.11c.37.32.74.64,1.11.96-.37-.32-.74-.64-1.11-.96Z"/>
  <path class="cls-12" d="m386.92,282.34c.33.25.65.5.98.74-.33-.25-.65-.5-.98-.74Z"/>
  <path class="cls-12" d="m187.87,251.1c-.02.34-.03.68-.05,1.01-.17,0-.33,0-.5,0-.14-.34-.28-.69-.42-1.03.32,0,.65.01.97.01Z"/>
  <path class="cls-12" d="m354.83,275.3c.34,0,.67-.02,1.01-.02-.34,0-.67.02-1.01.02Z"/>
  <path class="cls-12" d="m254.82,261.89c-.34-.26-.68-.51-1.02-.77.34.26.68.51,1.02.77Z"/>
  <path class="cls-15" d="m243.92,276.33c.33.25.67.5,1,.75-.33-.25-.67-.5-1-.75Z"/>
  <path class="cls-15" d="m578.92,276.33c.3-.13.6-.14.9-.02-.3,0-.6.02-.9.02Z"/>
  <path class="cls-12" d="m363.9,277.29c.38.25.77.5,1.15.75-.38-.25-.77-.5-1.15-.75Z"/>
  <path class="cls-15" d="m464.62,278.02c.4-.24.79-.47,1.19-.71-.4.24-.79.47-1.19.71Z"/>
  <path class="cls-12" d="m367.9,277.83c.05.41.1.81.15,1.22-.39-.27-.77-.54-1.16-.82.34-.13.67-.27,1.01-.4Z"/>
  <path class="cls-12" d="m305.89,261.29c.36.26.71.52,1.07.78-.36-.26-.71-.52-1.07-.78Z"/>
  <path class="cls-12" d="m371.9,279.25c.35.28.71.55,1.06.83-.35-.28-.71-.55-1.06-.83Z"/>
  <path class="cls-26" d="m512.89,264.89c-10.36,1.35-20.73,2.7-31.09,4.06.01-.92.03-1.85.04-2.77,10.33-1.03,20.66-2.07,30.99-3.11.02.61.04,1.21.06,1.82Z"/>
  <path class="cls-2" d="m729.85,287.06c-.33-.32-.66-.64-.99-.96.33.32.66.64.99.96Z"/>
  <path class="cls-12" d="m160.87,266.13c-3.3.29-6.61.58-9.91.87-.2-7.43,2.27-8.85,9.9-5.7.02,1.31.03,2.62.05,3.93-.01.3-.03.6-.04.9Z"/>
  <path class="cls-10" d="m187.32,252.12c.17,0,.33,0,.5,0,.02,2.33.03,4.66.05,6.98h-1c-1.66.62-3.33,1.23-4.99,1.85-.73.38-1.47.76-2.2,1.15-1.14-.81-2.29-1.62-3.43-2.42,1.29-.79,2.77-2.43,3.84-2.2,3.94.85,4.55-1.36,4.79-4.28.82-.36,1.63-.71,2.45-1.07Z"/>
  <path class="cls-12" d="m188.86,263.2c1.33.68,2.67,1.35,4,2.03.33,2.61.67,5.21,1,7.82-1.33-.28-2.66-.56-3.99-.84-1.01-.36-2.02-.72-3.03-1.08,1.6-2.41,3.41-4.76,2.01-7.93Z"/>
  <path class="cls-12" d="m162.92,261.22c-.35-1.04-.7-2.07-1.06-3.11l3.8.91c-.91.73-1.83,1.47-2.74,2.2Z"/>
  <path class="cls-12" d="m181.87,269.1c-2.11-.95-4.21-1.91-6.33-2.86,2.11.95,4.22,1.91,6.33,2.86Z"/>
  <path class="cls-12" d="m157.86,257.93c-1.48-.25-2.97-.51-4.45-.76.11-.25.12-.49.02-.74,1.48.5,2.95,1,4.43,1.5Z"/>
  <path class="cls-12" d="m169.86,266.01c-1,.01-2,.02-3,.03.57-.59,1.14-1.17,1.72-1.76.43.57.85,1.15,1.28,1.72Z"/>
  <path class="cls-12" d="m172.85,256.09c.01-.67.03-1.34.04-2.01.51.27,1.01.53,1.52.8-.52.4-1.04.8-1.56,1.2Z"/>
  <path class="cls-25" d="m153.43,256.43c.1.25.1.5-.02.74-.22-.01-.43-.06-.64-.13.18-.24.4-.44.66-.61Z"/>
  <path class="cls-12" d="m182.89,263.23c.31-.1.63-.11.95,0-.32,0-.63,0-.95,0Z"/>
  <path class="cls-12" d="m177.86,248.9c-1.14-.54-2.28-1.09-3.43-1.63,1.14.54,2.28,1.09,3.43,1.63Z"/>
  <path class="cls-12" d="m169.85,247.07c-.97-.05-1.95-.1-2.92-.15.97.05,1.95.1,2.92.15Z"/>
  <path class="cls-12" d="m194.91,265.31c.33.26.66.52,1,.78-.33-.26-.66-.52-1-.78Z"/>
  <path class="cls-6" d="m417.83,323.13c-.64,0-1.29.02-1.93.02,0-.47-.07-.96.04-1.4.09-.42.37-.79.99-2.01.43,1.61.66,2.5.9,3.39Z"/>
  <path class="cls-6" d="m433.86,322.08c-.66.03-1.32.06-1.98.09.66-.03,1.32-.06,1.98-.09Z"/>
  <path class="cls-6" d="m418.87,324.09c-.34-.32-.68-.65-1.03-.97.34.32.68.65,1.03.97Z"/>
  <path class="cls-19" d="m489.87,240.47c6.05-3.55,81.46-1.17,87.36,3.61-28.86-1.19-57.72-2.38-87.36-3.61Z"/>
  <path class="cls-20" d="m487.86,249.06c-1.22.34-2.44.98-3.67.99-16.8.04-33.6-.01-50.4-.04,1-.63,2-1.8,3.01-1.8,16.28-.11,32.56-.09,48.84-.04.74,0,1.47.59,2.21.9Z"/>
  <path class="cls-20" d="m540.86,252.1c-2.33-1.01-4.66-2.02-6.99-3.03,4.19-.39,8.38-.78,12.57-1.17.16.81.32,1.62.48,2.44-2.02.59-4.04,1.18-6.06,1.77Z"/>
  <path class="cls-20" d="m460.87,237.14c3.33-.03,6.67-.05,10-.08-3.33.03-6.67.05-10,.08Z"/>
  <path class="cls-20" d="m406.87,248.14c-3.36.29-6.71.57-10.07.86,3.08-3.53,6.59-2.04,10.07-.86Z"/>
  <path class="cls-20" d="m385.86,249.07c-3.33.02-6.67.04-10,.07,3.33-.02,6.67-.04,10-.07Z"/>
  <path class="cls-20" d="m361.93,250.01c-1.23-.55-2.46-1.11-3.7-1.66,1.23-.73,2.46-1.45,3.69-2.18,0,1.28,0,2.56,0,3.84Z"/>
  <path class="cls-20" d="m531.86,249.06c-2.33,0-4.67,0-7,0,2.33,0,4.67,0,7,0Z"/>
  <path class="cls-20" d="m553.87,230.15c2.02-.32,4.03-.64,6.05-.97-1.55,3.26-3.81,2.03-6.05.97Z"/>
  <path class="cls-20" d="m483.87,236.12c1.67-.02,3.33-.05,5-.07-1.67.02-3.33.05-5,.07Z"/>
  <path class="cls-20" d="m417.93,250c-1.71-.6-3.42-1.21-5.13-1.81,1.71.6,3.42,1.2,5.13,1.81Z"/>
  <path class="cls-20" d="m505.87,233.13c1.33-.02,2.67-.04,4-.06-1.33.02-2.67.04-4,.06Z"/>
  <path class="cls-20" d="m414.87,242.13c1.33-.02,2.67-.05,4-.07-1.33.02-2.67.05-4,.07Z"/>
  <path class="cls-20" d="m372.79,245c1.36-.31,2.71-.62,4.07-.93-1.36.31-2.71.62-4.07.93Z"/>
  <path class="cls-20" d="m525.87,232.11c1.33,0,2.67-.02,4-.03-1.33,0-2.67.02-4,.03Z"/>
  <path class="cls-20" d="m543.87,231.14c1.33-.02,2.67-.04,4-.07-1.33.02-2.67.04-4,.07Z"/>
  <path class="cls-20" d="m449.87,238.14c1.35-.31,2.71-.62,4.06-.93-1.35.31-2.71.62-4.06.93Z"/>
  <path class="cls-20" d="m430.87,240.13c1.02-.3,2.05-.61,3.07-.91-1.02.31-2.05.61-3.07.91Z"/>
  <path class="cls-20" d="m422.79,242c1.02-.31,2.05-.62,3.07-.93-1.02.31-2.05.62-3.07.93Z"/>
  <path class="cls-20" d="m405.87,243.12c.67-.01,1.33-.03,2-.05-.67.01-1.33.03-2,.05Z"/>
  <path class="cls-20" d="m440.87,239.14c.67-.02,1.33-.04,2-.06-.67.02-1.33.04-2,.06Z"/>
  <path class="cls-20" d="m491.79,235.99c.69-.31,1.39-.61,2.08-.92-.69.31-1.39.61-2.08.92Z"/>
  <path class="cls-19" d="m354.84,226.02c-1.33.02-2.65.05-3.98.07-5,0-10.03-.25-15.01.07-6.68.43-13.33,1.3-19.99,1.98-.98,0-1.97.01-2.95.02-11.94,1.45-23.88,2.92-35.82,4.35-2.17.26-4.35.38-6.52.56l-.28-1.73c4.99-1.08,9.94-2.32,14.97-3.19,5.19-.89,10.46-1.35,15.67-2.17.73-.11,1.31-1.18,1.96-1.8,8.97-.07,17.94-.14,26.91-.22,5.68-.3,11.37-.61,17.05-.91,2.67-.28,5.33-.56,8-.85.67.29,1.34.59,2.01.89-.68.98-1.35,1.95-2.03,2.93Z"/>
  <path class="cls-19" d="m306.84,219.04c-7.19.73-14.39,1.39-21.56,2.25-1.21.14-2.33,1.12-3.48,1.71-1.64.03-3.29.06-4.93.09-5.29.49-10.59.83-15.85,1.51-3.87.5-7.69,1.44-11.53,2.19l-.77-1.53c1.73-.89,3.37-2.27,5.2-2.58,9.92-1.67,19.9-2.99,29.83-4.67,1.51-.25,2.8-1.75,4.19-2.67,6.31.26,12.61.52,18.92.78,0,.97-.01,1.94-.02,2.91Z"/>
  <path class="cls-20" d="m312.91,228.16c.98,0,1.97-.01,2.95-.02,3,.64,6,1.29,8.99,1.93-5.67.66-11.35,1.33-17.02,1.99,1.69-1.3,3.39-2.6,5.08-3.9Z"/>
  <path class="cls-20" d="m276.87,223.09c1.64-.03,3.29-.06,4.93-.09-.65.74-1.3,1.47-1.95,2.21-2.3.78-4.6,1.56-6.9,2.35-.24-.58-.47-1.15-.71-1.73,1.54-.91,3.08-1.83,4.63-2.74Z"/>
  <path class="cls-20" d="m258.87,216.1c2.33,0,4.67-.01,7-.02-2.33,0-4.67.01-7,.02Z"/>
  <path class="cls-20" d="m269.87,215.16c2.33-.03,4.67-.06,7-.1-2.33.03-4.67.07-7,.1Z"/>
  <path class="cls-20" d="m286.94,235.21c-1.36.3-2.72.59-4.08.89,1.36-.3,2.72-.59,4.08-.89Z"/>
  <path class="cls-20" d="m254.83,213.08c.02.99.05,1.99.07,2.98-3.16-.92-1.59-1.95-.07-2.98Z"/>
  <path class="cls-20" d="m302.86,233.05c-.69.32-1.38.64-2.06.96.69-.32,1.38-.64,2.06-.96Z"/>
  <path class="cls-20" d="m282.87,215.09c.67.02,1.33.03,2,.05-.67-.02-1.33-.03-2-.05Z"/>
  <path class="cls-20" d="m278.87,236.11c-.67,0-1.33,0-2,0,.67,0,1.33,0,2,0Z"/>
  <path class="cls-20" d="m294.87,224.13c.67-.01,1.33-.02,2-.03-.67.01-1.33.02-2,.03Z"/>
  <path class="cls-20" d="m293.92,234.17c-.69.31-1.37.62-2.06.93.69-.31,1.37-.62,2.06-.93Z"/>
  <path class="cls-20" d="m286.87,225.16c.69-.32,1.38-.63,2.07-.95-.69.32-1.38.63-2.07.95Z"/>
  <path class="cls-12" d="m260.01,249.05c-.7-.26-1.4-.53-2.1-.79.66-.06,1.31-.13,1.97-.19-.02.34.03.66.13.98Z"/>
  <path class="cls-12" d="m252.84,247.28c-.31,0-.63,0-.94,0,.31-.11.63-.11.94,0Z"/>
  <path class="cls-12" d="m194.86,247.09c0,.27-.03.54-.06.8-.64.01-1.28.03-1.93.04.66-.28,1.33-.56,1.99-.84Z"/>
  <path class="cls-22" d="m354.84,226.02c.68-.98,1.35-1.95,2.03-2.93,0-.33,0-.65,0-.98,21.31.3,42.68-1.24,63.9,1.74,0,.62-.01,1.24-.02,1.86-3.19,0-6.42.33-9.57-.05-18.8-2.27-37.58-2.75-56.34.36Z"/>
  <path class="cls-22" d="m306.84,219.04c0-.97.01-1.94.02-2.91,17.66-.83,35.31-1.65,52.97-2.48.04.35.07.7.11,1.06-2.36.46-4.71.93-7.07,1.39-.67.01-1.33.02-2,.03-14.67.97-29.35,1.94-44.02,2.91Z"/>
  <path class="cls-22" d="m324.86,230.07c-3-.64-6-1.29-8.99-1.93,6.66-.68,13.31-1.55,19.99-1.98,4.98-.32,10.01-.07,15.01-.07-3.67.99-7.33,1.98-11,2.97-1.02.32-2.04.64-3.06.96-3.98.02-7.97.03-11.95.05Z"/>
  <path class="cls-20" d="m346.86,223.05c-5.68.31-11.37.61-17.05.91.36-.52.73-1.5,1.08-1.49,5.33.12,10.65.36,15.98.58Z"/>
  <path class="cls-20" d="m336.81,230.02c1.02-.32,2.04-.64,3.06-.96-1.02.32-2.04.64-3.06.96Z"/>
  <path class="cls-20" d="m364.09,214.74c-.28-.12-.71-.18-.79-.38-.08-.2.14-.7.33-.77.2-.08.69.13.78.33.08.2-.2.54-.32.82Z"/>
  <path class="cls-20" d="m350.86,216.13c.67-.01,1.33-.02,2-.03-.67.01-1.33.02-2,.03Z"/>
  <path class="cls-20" d="m356.87,222.11c0,.33,0,.65,0,.98-.67-.3-1.34-.59-2.01-.89.67-.03,1.34-.06,2.01-.09Z"/>
  <path class="cls-3" d="m408.92,281.12c.13.56.27,1.12.4,1.67-5.15-.86-10.3-1.72-15.46-2.57,5.13-1.51,10.23-2.64,15.06.9Z"/>
  <path class="cls-3" d="m374.89,277.07c-1-.65-2-1.29-3-1.94,1.02.05,2.04.11,3.06.16-.02.6-.04,1.19-.06,1.78Z"/>
  <path class="cls-6" d="m466.75,273.96c-.65-.83-1.3-1.66-1.96-2.5,5.71-.75,11.42-1.49,17.13-2.24-.08.37-.16.74-.24,1.11-4.98,1.21-9.96,2.42-14.93,3.63Z"/>
  <path class="cls-13" d="m498.9,280.19c-.07-.6-.15-1.19-.22-1.8,3.74-.71,7.49-1.41,11.23-2.11.05.48.1.97.15,1.46-3.72.82-7.44,1.64-11.16,2.45Z"/>
  <path class="cls-6" d="m492.85,276.08c-.03-.56-.06-1.12-.09-1.68,4.06-.76,8.11-1.52,12.17-2.28.32.45.64.89.95,1.34-4.34.87-8.69,1.75-13.03,2.62Z"/>
  <path class="cls-6" d="m504.89,271.05c-1.36-.04-2.72-.09-4.08-.13,1.45-2.61,2.81-2.6,4.08.13Z"/>
  <path class="cls-15" d="m181.87,260.95c1.66-.62,3.33-1.23,4.99-1.85,0,.62,0,1.24,0,1.85-1.66,0-3.33,0-4.99,0Z"/>
  <path class="cls-12" d="m186.86,260.95c0-.62,0-1.24,0-1.85h1c.33.62.67,1.23,1,1.85-.67,0-1.34,0-2,0Z"/>
  <path class="cls-12" d="m245.49,258.21c.45.27.9.55,1.35.82-.45-.27-.9-.55-1.35-.82Z"/>
  <path class="cls-12" d="m209.94,254.06c-.35-.26-.69-.53-1.04-.79.35.26.69.53,1.04.79Z"/>
</svg>