<?xml version="1.0" encoding="UTF-8"?>
<svg id="Layer_1" data-name="Layer 1" xmlns="http://www.w3.org/2000/svg" viewBox="0 0 365.13 365.13">
  <defs>
    <style>
      .cls-1 {
        fill: #010101;
      }

      .cls-2 {
        fill: #030303;
      }

      .cls-3 {
        fill: #fe9900;
      }

      .cls-5 {
        fill: #fefefe;
      }

      .cls-6 {
        fill: #fdfdfd;
      }

      .cls-7 {
        fill: #ff9800;
      }

      .cls-8 {
        fill: #ac0d00;
      }

      .cls-9 {
        fill: #3f82c1;
      }

      .cls-10 {
        fill: #4083c2;
      }

      .cls-11 {
        fill: #3672b3;
      }

      .cls-12 {
        fill: #438ac8;
      }

      .cls-13 {
        fill: #53a5e0;
      }

      .cls-14 {
        fill: #5ab2ea;
      }

      .cls-15 {
        fill: #57ade6;
      }

      .cls-16 {
        fill: #3b7bbc;
      }

      .cls-17 {
        fill: #3b7bbb;
      }

      .cls-18 {
        fill: #52a4de;
      }

      .cls-19 {
        fill: #4f9ed9;
      }

      .cls-20 {
        fill: #50a0db;
      }

      .cls-21 {
        fill: #4d9bd7;
      }

      .cls-22 {
        fill: #448ac8;
      }
    </style>
  </defs>
  <path class="cls-2" d="m35.17,365.13c-6.66-4.3-12.66-9.04-14.72-17.39-.34-1.37-2.89-2.51-4.65-3.15-10.92-3.96-17.16-15.1-14.44-26.09,2.57-10.39,15.34-15.79,26.43-11.12,1.79.75,3.45,1.81,5.56,2.93,11.85-11.81,23.86-23.68,35.66-35.77.8-.82.61-3.9-.28-4.88-18.31-20.19-28.78-44.25-34.49-70.51-1.8-8.27-1.9-16.9-2.71-24.65-4.31-2.73-8.47-4.68-11.76-7.6-6.52-5.79-6.05-14.53,1.87-17.45,11.06-4.07,13.32-12.17,16.51-22.17,4.63-14.54,12.4-28.12,19.31-41.86,1.29-2.56,1.46-4.05-.26-5.8-7.09-7.2-14.13-14.47-21.57-21.29-1.11-1.02-4.72-.45-6.49.57-9.62,5.58-24.9-.35-27.72-11.04-2.93-11.08,2.35-20.8,13.53-25.02,3.31-1.25,6.06-3.14,6.85-6.97,2.59-12.62,23.28-21.31,34.41-7.83,4.71,5.7,5.71,14.73,1.27,22.5-.82,1.43-.6,4.62.47,5.77,6.31,6.82,13.09,13.2,19.55,19.89,2.44,2.53,4.05,2.03,6.49-.12,21.05-18.51,45.54-29.48,73.12-34.59,24.24-4.49,48-2.55,71.18,4.2,19.92,5.8,38.12,15.79,53.74,29.9,1,.9,2.29,1.49,3.97,2.56,7.09-7.22,14.4-14.42,21.33-21.97,1.02-1.11,1.06-4.27.24-5.76-7.35-13.37.07-28.43,15.4-29.17,7.68-.37,17.86,4.82,20.41,14.18.91,3.35,1.93,5.84,6.58,6.79,7.83,1.59,11.34,8.91,15.19,15.25v10.92c-.6.04-1.57-.16-1.76.14-8.44,13.01-14.06,14.76-28.45,9.16-1.53-.6-4.28-.55-5.3.42-7.85,7.47-15.41,15.25-22.98,22.85,1.4,2.49,2.4,4.63,3.7,6.56,9.94,14.78,16.73,31,20.55,48.27,1.33,6.01,3.43,9.07,9.18,11.38,4.86,1.95,11.27,5.74,10.03,11.75-.91,4.41-6.27,7.91-9.72,11.76-.47.53-1.59.51-2.01,1.05-1.29,1.67-3.13,3.38-3.43,5.28-1.5,9.75-1.51,19.86-4.02,29.31-6.68,25.11-18.24,47.87-35.5,66.64,12.48,12.45,24.88,24.83,37.33,37.24,8.7-6.75,21.64-5.82,28.07,2.71,1.69,2.25,2.89,4.87,4.32,7.32v10.92c-.6.02-1.62-.17-1.75.09-3.65,7.41-8.96,12.75-17.34,14.54-.62.13-1.32,1.18-1.5,1.91-2.06,8.75-8.06,13.88-15.81,17.44h-10.92c-11.65-5.97-17.38-17.41-9.64-30.1.73-1.2-.3-4.43-1.54-5.72-9.96-10.32-20.29-20.28-30.23-30.61-3.29-3.43-6.38-3.36-10.04-1.33-7.48,4.14-15.02,8.17-22.35,12.55-2.01,1.2-4.23,3.25-4.86,5.36-3.85,12.72-10.98,22.88-21.67,30.78-18.19,13.44-37.76,15.69-58.14,6.48-15.98-7.22-26.59-19.79-32-36.65-.7-2.17-1.96-4.81-3.76-5.86-8.45-4.91-17.09-9.5-25.87-13.78-1.77-.86-5.31-.8-6.55.39-11.37,10.9-22.49,22.07-33.42,33.42-1.01,1.05-.48,3.9-.19,5.84.67,4.52,2.48,9.04,2.3,13.49-.34,8.54-6.96,12.41-13.76,15.76h-10.92ZM281.8,109.06c3.35,7.25,6.71,14.5,10.06,21.76,1.31,1.26,2.42,3.22,3.95,3.65,5.44,1.52,11.03,2.55,16.57,3.72,4.49.94,8.99,1.81,14.92,3-1.46-5.24-2.5-8.97-3.54-12.7-2.31-6.1-4.62-12.2-6.93-18.3-4.46-8.32-8.92-16.64-14.03-26.16-8.01,8.25-14.59,14.94-21.01,21.78-.54.58-.03,2.15,0,3.26Zm-200.29,7.39c1.57-2.61,3.13-5.22,4.81-8.01-6.63-6.56-12.94-13.04-19.6-19.12-1.12-1.03-5.19-1.05-5.57-.33-4.88,9.35-9.35,18.92-13.91,28.44-2.61,7.44-5.22,14.88-8.25,23.5,12.19-2.45,22.76-4.48,33.25-6.82,1.4-.31,2.9-2.04,3.56-3.48,2.11-4.64,3.84-9.45,5.72-14.19Zm243.78,89.77c1.8-9.98,3.6-19.96,5.51-30.53-11.11,2.56-20.72,4.63-30.22,7.12-1.44.38-2.96,2.57-3.4,4.21-1.48,5.49-2.5,11.11-3.69,16.69-3.9,8.82-7.79,17.65-11.69,26.47-4.14,5.78-8.28,11.56-11.62,16.22,7.51,7.51,14.8,14.8,22.2,22.19,8.69-10.55,17.93-21.69,23.11-35.52,3.26-8.95,6.53-17.9,9.79-26.85Zm-251.27-1.35c-1.5-7.1-3-14.19-4.42-20.9-10.62-2.48-21.19-4.95-33.69-7.88,2.4,11.66,4.55,22.07,6.7,32.48,3.55,9.37,7.1,18.75,10.66,28.12,6.67,10.98,13.33,21.96,19.59,32.27,8.34-8.56,15.84-16.25,23.32-23.92-2.94-3.98-6.47-8.74-10-13.51-4.05-8.89-8.1-17.77-12.15-26.66ZM277.92,59.27c-7.8-5.66-15.14-12.16-23.5-16.82-17.72-9.86-36.64-15.89-57.23-17.46-13.32-1.01-26.4-1.13-39.29,1.66-11.86,2.57-23.99,5.31-34.95,10.29-11.34,5.16-21.41,13.1-32.04,19.82-1.3.88-2.56,1.82-3.9,2.63-2.8,1.7-2.81,3.54-.56,5.76,5.74,5.66,11.35,11.48,17.24,16.98.9.84,3.69,1.09,4.49.37,12.95-11.75,28.38-18.82,44.72-24.27,10.79-1.26,21.58-3.46,32.38-3.5,9.78-.03,19.57,2.29,29.36,3.58,15.73,5.34,30.76,11.95,43.5,22.99.81.7,3.34.71,4.08,0,6.66-6.37,13.11-12.98,20.15-20.05-2.03-.91-3.23-1.45-4.43-1.99Zm-205.12,113.18c1.84,10.06,2.69,20.43,5.7,30.13,10.4,33.53,32.12,57.19,64.54,70.85,18.9,7.96,38.64,10.19,58.68,6.47,19.3-3.58,36.64-11.67,51.92-24.49,14.28-11.98,24.51-26.4,31.6-43.52,4.96-11.97,7.57-24.45,8.07-37.1.61-15.25.63-16.36-12.63-19.71-23.83-6.02-48.22-7.48-72.49-8.05-26.86-.62-53.79.9-80.65,2.27-12.97.66-25.91,2.66-38.74,4.82-14.27,2.4-14.81,3.53-15.99,18.34Zm210.52-48.74c-12.44-35.44-58.1-71.58-117.39-63.28-38.81,5.43-73.79,36.75-81.23,63.1,66.07-13.68,132.45-13.74,198.62.18Zm-214.18,53.64c0-4.42,0-7.82,0-11.23,0-7.63,3.59-12.6,10.79-14.42,4.39-1.11,8.93-1.6,13.34-2.66,24.02-5.77,48.62-5.72,73.04-6.98,14.41-.74,28.94.31,43.39,1.06,17.54.91,35.11,1.9,52.56,3.77,9.34,1,18.55,3.64,27.67,6.1,5,1.35,8.12,4.74,7.35,10.72-.46,3.58-.35,7.3.09,10.89.14,1.14,2.48,3.11,3.34,2.89,11.24-2.88,22.52-5.7,33.5-9.41,4.73-1.6,9.7-4.19,11.97-11.03-4.94-2.7-9.51-5.86-14.53-7.84-20.97-8.27-43.32-10.4-65.38-13.22-17.81-2.27-35.86-3.65-53.8-3.65-29.94-.01-59.92.7-89.81,2.44-20.56,1.19-41.13,3.86-61.44,7.34-12.08,2.07-23.88,6.42-35.39,10.83-7.13,2.73-7.28,8.04-.74,11.78,13.34,7.64,27.91,11.44,44.04,12.61Zm47.69,87.23c-4.5-3.78-8.87-6.69-12.25-10.48-3.63-4.06-5.81-3.1-9.14.28-18.73,19-37.75,37.7-56.43,56.75-3.83,3.9-6.6,5.48-11.29,1.24-3.49-3.15-13.43-2.52-16.93.13-4.92,3.72-6.67,10.02-4.76,16.31,2.7,8.91,9.35,12.07,15.84,12.29,3.88,6.32,6.44,12.03,10.39,16.52,4.25,4.83,14.52,3.7,19.44-1.13,4.97-4.87,6.14-14.11,1.34-18.73-4.39-4.23-3.06-6.48.54-10.04,21.12-20.86,42.04-41.92,63.26-63.14Zm132.04,1.23c22.56,22.55,44.62,44.61,66.62,66.6-1.23,1.82-2.34,3.43-3.41,5.07-3.54,5.43-3.86,12.78-.41,17.1,3.61,4.52,8.26,7.79,14.3,6.45,7.53-1.67,12.82-8.05,13.88-14.3.36-2.14,2.93-5.6,4.41-5.56,5.91.16,9.47-3.23,12.37-7.22,3.12-4.28,5.07-9.09,2.59-14.78-2.62-6.01-6.98-9.36-13.31-8.47-4.76.67-9.3,2.93-15.22,4.91-20.72-20.74-42.77-42.8-64.84-64.9-5.59,4.97-10.8,9.6-16.99,15.1ZM88.18,104.56c3.8-4.46,6.8-8.69,10.51-12.15,3.71-3.45,3.55-5.62-.07-9.15-15.61-15.24-30.9-30.8-46.37-46.18-2.26-2.25-3.61-3.86-.74-6.92,5.29-5.64,5.8-13.73,1.77-18.83-4.7-5.94-12.22-6.94-19.73-3.31-7.31,3.53-8.5,10.2-9.54,16.69-2.24.68-4.06,1.32-5.93,1.78-7.46,1.81-12.22,6.58-13.18,13.89-.81,6.17,2.31,11.04,7.04,14.24,5.57,3.78,11.65,3.19,16.76-1.38,4.07-3.64,6.55-1.95,9.79,1.36,16.38,16.73,33,33.23,49.68,49.95Zm189.91-1.42c16.61-16.59,33.08-32.96,49.42-49.46,3.05-3.08,5.36-3.95,9.08-.7,3.68,3.23,8.03,5.5,13.45,2.86,7.06-3.43,10.69-8.17,10.24-14.4-.56-7.73-6-14.64-14.26-15.74-5.43-.72-6.3-2.96-6.45-7.56-.18-5.65-7.19-11.34-14.17-12.23-7.19-.91-12.47,2.45-15.02,8.7-3.22,7.88,1.08,13.51,5.63,19.83-1.61,1.4-3.2,2.63-4.61,4.03-14.73,14.69-29.34,29.5-44.21,44.05-3.27,3.2-3.15,5.16.06,8.23,3.82,3.65,7.02,7.95,10.84,12.38Zm-147.33,200.19c-.93,11.35,7.56,30.81,23.69,40.6,20.74,12.59,39.15,12.77,62.21-3.45,10.21-7.18,21.49-28.64,18.93-37.14-23.44,33.64-80.65,34.8-104.83,0Zm-50.16-170.92c68.87-8.12,137.69-8.08,206.76-.08-2.62-2.48-5.42-4.13-8.44-5.16-19.3-6.57-39.49-8.22-59.57-9.38-18.82-1.09-37.78-.88-56.62-.06-18.77.82-37.54,2.64-56.2,4.94-9.07,1.12-18.48,2.68-25.93,9.74Zm47.33,139.19c-2.3-1.11-5.15-6.24-9.71-2.15-6.95,6.23-13.5,12.91-21.23,20.36,9.86,5.54,18.37,10.33,25.84,14.53,1.74-11.19,3.38-21.71,5.09-32.74Zm111.06-.46c1.49,11.79,2.83,22.36,4.23,33.42,7.73-4.41,15.99-9.11,24.31-13.85-7.98-8.08-15.04-15.22-22.45-22.73-2.16,1.13-4.59,2.39-6.08,3.16Zm-54.31,34.89v17.61c11.64,1.28,21.63-2.63,31.55-7.88-1.55-4.7-2.99-9.08-4.63-14.08-8.8,1.42-17.67,2.85-26.92,4.34Zm-3.94,17.6c0-4.8.36-9.07-.17-13.23-.22-1.71-2.11-4.18-3.67-4.56-7.72-1.9-15.59-3.21-23.59-4.77-1.05,3.34-2.46,6.78-3.13,10.37-.29,1.57.41,4.38,1.54,4.99,8.82,4.79,18.07,8.33,29.02,7.2Zm3.65-36.79c0,1.29,0,2.85,0,4.41-.07,10.57-.06,10.6,10.12,9.55,1.93-.2,3.81-.81,5.73-1.17,11.24-2.13,11.71-2.93,6.43-13.29-.63-1.24-2.96-2.47-4.36-2.32-5.81.62-11.57,1.77-17.93,2.82Zm-3.65,13.44c0-2.95-.13-5.94.03-8.92.19-3.39-.73-5.05-4.61-5.24-4.23-.21-8.39-1.91-12.62-2.06-1.89-.07-4.36,1.67-5.64,3.31-1.33,1.71-1.89,4.25-2.12,6.5-.14,1.41.73,4.06,1.54,4.24,7.59,1.59,15.01,5.57,23.41,2.18Zm29.44-17.19c1.57,4.49,3.03,8.67,4.64,13.3,8.05-5.72,18.06-8.88,18.09-21.36-8.06,2.86-15.37,5.45-22.74,8.06Zm9.6,28.83c9.85-4.41,16.84-16.97,14.69-25.35-6.01,4.37-12.09,8.79-18.42,13.4.3,1.51.56,3.65,1.17,5.68.6,2,1.57,3.89,2.55,6.27Zm-85.62-36.78c-1.51,8.43,7.4,18.32,17.23,19.22.99-4.06,1.98-8.15,2.96-12.17-7.1-2.48-13.63-4.76-20.19-7.05Zm15.39,24.22c-3.31-2.07-6.6-3.78-9.49-6.02-2.89-2.24-5.38-4.99-8.53-7.98-.99,10.17,6.18,22.74,13.97,25.69,1.33-3.84,2.65-7.67,4.04-11.69Z"/>
  <path class="cls-5" d="m72.8,172.45c1.19-14.81,1.73-15.94,15.99-18.34,12.83-2.16,25.78-4.16,38.74-4.82,26.86-1.36,53.79-2.89,80.65-2.27,24.27.56,48.66,2.02,72.49,8.05,13.26,3.35,13.24,4.46,12.63,19.71-.5,12.65-3.11,25.13-8.07,37.1-7.09,17.13-17.32,31.55-31.6,43.52-15.28,12.81-32.62,20.91-51.92,24.49-20.04,3.72-39.78,1.49-58.68-6.47-32.42-13.65-54.13-37.31-64.54-70.85-3.01-9.7-3.86-20.07-5.7-30.13Zm23.02,26.93c-.52,21.09,17.83,38.67,38.09,38.15,22.09-.57,37.92-16.85,37.87-38.58-.05-18.97-12.18-37.05-38.36-37.63-20.59-.45-38.28,16.34-37.61,38.07Zm174.69-.15c1.09-21.31-17.26-37.87-37.39-37.88-26.56-.02-38.64,19.4-38.58,37.55.06,21.34,15.06,37.92,37.25,38.55,20.87.59,39.19-16.39,38.72-38.22Zm-75.21,44.75c.84-7.57-5.26-13.27-12.91-13.48-7.15-.2-13.74,6.39-13.77,13.22-.03,6.37,7.06,13.32,13.67,13.41,7.23.1,12.97-5.71,13.01-13.15Z"/>
  <path class="cls-7" d="m283.32,123.71c-66.17-13.92-132.55-13.86-198.62-.18,7.44-26.35,42.42-57.67,81.23-63.1,59.29-8.3,104.94,27.84,117.39,63.28Z"/>
  <path class="cls-3" d="m69.14,177.35c-16.14-1.17-30.7-4.97-44.04-12.61-6.54-3.74-6.39-9.05.74-11.78,11.51-4.41,23.31-8.77,35.39-10.83,20.31-3.48,40.88-6.15,61.44-7.34,29.89-1.73,59.87-2.45,89.81-2.44,17.94,0,35.99,1.38,53.8,3.65,22.06,2.81,44.4,4.94,65.38,13.22,5.03,1.98,9.59,5.14,14.53,7.84-2.26,6.84-7.24,9.44-11.97,11.03-10.98,3.7-22.27,6.52-33.5,9.41-.87.22-3.2-1.75-3.34-2.89-.45-3.58-.55-7.31-.09-10.89.76-5.98-2.35-9.37-7.35-10.72-9.12-2.46-18.33-5.1-27.67-6.1-17.46-1.87-35.02-2.86-52.56-3.77-14.45-.75-28.98-1.8-43.39-1.06-24.42,1.26-49.02,1.21-73.04,6.98-4.4,1.06-8.95,1.55-13.34,2.66-7.2,1.82-10.78,6.8-10.79,14.42,0,3.41,0,6.81,0,11.23Z"/>
  <path class="cls-14" d="m90.91,56.76c10.63-6.72,20.7-14.67,32.04-19.82,10.96-4.98,23.09-7.72,34.95-10.29,12.89-2.79,25.96-2.67,39.29-1.66,20.59,1.57,39.5,7.6,57.23,17.46,8.36,4.65,15.7,11.15,23.5,16.82-14.15.24-28.29.68-42.44.62-6.95-.03-13.9-1.02-20.86-1.57-9.79-1.29-19.58-3.61-29.36-3.58-10.8.04-21.58,2.24-32.38,3.5-2.46-.43-4.93-1.32-7.37-1.22-16.35.65-32.7,1.6-49.05,2.18-1.82.06-3.7-1.58-5.55-2.43Z"/>
  <path class="cls-5" d="m116.83,264.58c-21.22,21.23-42.14,42.29-63.26,63.14-3.61,3.56-4.94,5.81-.54,10.04,4.8,4.62,3.63,13.86-1.34,18.73-4.92,4.82-15.19,5.95-19.44,1.13-3.95-4.49-6.51-10.2-10.39-16.52-6.49-.23-13.13-3.38-15.84-12.29-1.91-6.29-.16-12.59,4.76-16.31,3.51-2.65,13.44-3.28,16.93-.13,4.69,4.24,7.46,2.66,11.29-1.24,18.68-19.05,37.71-37.75,56.43-56.75,3.34-3.39,5.51-4.35,9.14-.28,3.39,3.79,7.75,6.71,12.25,10.48Z"/>
  <path class="cls-5" d="m248.86,265.81c6.19-5.5,11.39-10.13,16.99-15.1,22.08,22.09,44.12,44.16,64.84,64.9,5.92-1.98,10.46-4.24,15.22-4.91,6.33-.89,10.69,2.46,13.31,8.47,2.48,5.68.53,10.49-2.59,14.78-2.91,3.99-6.47,7.38-12.37,7.22-1.48-.04-4.05,3.42-4.41,5.56-1.06,6.25-6.35,12.63-13.88,14.3-6.05,1.34-10.69-1.93-14.3-6.45-3.45-4.32-3.13-11.67.41-17.1,1.07-1.64,2.18-3.24,3.41-5.07-22-21.99-44.06-44.05-66.62-66.6Z"/>
  <path class="cls-5" d="m88.18,104.56c-16.69-16.73-33.3-33.22-49.68-49.95-3.24-3.31-5.73-5.01-9.79-1.36-5.11,4.57-11.18,5.16-16.76,1.38-4.73-3.2-7.85-8.07-7.04-14.24.96-7.31,5.72-12.08,13.18-13.89,1.87-.45,3.7-1.1,5.93-1.78,1.03-6.49,2.23-13.16,9.54-16.69,7.51-3.63,15.02-2.63,19.73,3.31,4.03,5.09,3.52,13.18-1.77,18.83-2.86,3.05-1.52,4.67.74,6.92,15.47,15.38,30.76,30.94,46.37,46.18,3.61,3.53,3.78,5.7.07,9.15-3.72,3.46-6.72,7.69-10.51,12.15Z"/>
  <path class="cls-5" d="m278.09,103.14c-3.82-4.43-7.03-8.72-10.84-12.38-3.21-3.08-3.33-5.03-.06-8.23,14.86-14.55,29.48-29.36,44.21-44.05,1.41-1.41,3.01-2.64,4.61-4.03-4.55-6.31-8.85-11.94-5.63-19.83,2.55-6.26,7.83-9.61,15.02-8.7,6.99.89,13.99,6.58,14.17,12.23.15,4.6,1.02,6.84,6.45,7.56,8.27,1.1,13.7,8.01,14.26,15.74.45,6.23-3.18,10.97-10.24,14.4-5.42,2.63-9.77.36-13.45-2.86-3.72-3.26-6.03-2.38-9.08.7-16.34,16.5-32.81,32.86-49.42,49.46Z"/>
  <path class="cls-5" d="m130.76,303.33c24.18,34.81,81.39,33.65,104.83,0,2.56,8.5-8.72,29.97-18.93,37.14-23.06,16.22-41.47,16.04-62.21,3.45-16.12-9.79-24.62-29.25-23.69-40.6Z"/>
  <path class="cls-8" d="m80.6,132.41c7.45-7.06,16.86-8.62,25.93-9.74,18.66-2.3,37.43-4.13,56.2-4.94,18.85-.82,37.8-1.02,56.62.06,20.08,1.16,40.27,2.8,59.57,9.38,3.02,1.03,5.82,2.68,8.44,5.16-69.07-8-137.88-8.05-206.76.08Z"/>
  <path class="cls-16" d="m315.5,233.07c-5.18,13.83-14.42,24.98-23.11,35.52-7.4-7.4-14.69-14.69-22.2-22.19,3.34-4.66,7.48-10.44,11.62-16.22,8.98.49,17.97.9,26.94,1.51,2.27.15,4.5.9,6.75,1.38Z"/>
  <path class="cls-9" d="m53.27,236.69c-3.55-9.37-7.1-18.75-10.66-28.12,8.19,0,16.4.28,24.57-.16,2.34-.12,4.56-2.31,6.84-3.54,4.05,8.89,8.1,17.77,12.15,26.66-1.94,1.23-3.76,3.2-5.85,3.53-3.7.59-7.57.03-11.36.26-5.24.31-10.47.9-15.71,1.37Z"/>
  <path class="cls-12" d="m74.02,204.87c-2.28,1.24-4.5,3.42-6.84,3.54-8.17.44-16.38.16-24.57.16-2.15-10.41-4.29-20.82-6.7-32.48,12.51,2.92,23.07,5.4,33.69,7.88,1.42,6.71,2.92,13.8,4.42,20.9Z"/>
  <path class="cls-17" d="m53.27,236.69c5.24-.47,10.46-1.06,15.71-1.37,3.78-.22,7.66.34,11.36-.26,2.08-.33,3.91-2.3,5.85-3.53,3.53,4.77,7.06,9.53,10,13.51-7.48,7.68-14.98,15.36-23.32,23.92-6.26-10.31-12.92-21.29-19.59-32.27Z"/>
  <path class="cls-10" d="m315.5,233.07c-2.25-.48-4.48-1.23-6.75-1.38-8.97-.6-17.96-1.02-26.94-1.51,3.89-8.83,7.79-17.65,11.68-26.48,5.6.82,11.18,1.9,16.82,2.37,4.97.41,9.99.12,14.99.14-3.26,8.95-6.53,17.9-9.79,26.85Z"/>
  <path class="cls-22" d="m325.29,206.22c-5-.02-10.02.27-14.99-.14-5.63-.46-11.21-1.55-16.82-2.37,1.19-5.57,2.21-11.19,3.69-16.69.44-1.64,1.96-3.83,3.4-4.21,9.5-2.5,19.12-4.56,30.22-7.12-1.91,10.57-3.71,20.55-5.51,30.53Z"/>
  <path class="cls-15" d="m90.91,56.76c1.85.85,3.73,2.49,5.55,2.43,16.36-.58,32.7-1.53,49.05-2.18,2.44-.1,4.91.79,7.37,1.22-16.34,5.44-31.77,12.52-44.72,24.27-.79.72-3.59.47-4.49-.37-5.89-5.51-11.49-11.32-17.24-16.98-2.25-2.22-2.25-4.06.56-5.76,1.34-.81,2.61-1.75,3.9-2.63Z"/>
  <path class="cls-18" d="m47.23,117.43c4.57-9.52,9.03-19.09,13.91-28.44.38-.73,4.45-.7,5.57.33,6.67,6.09,12.97,12.57,19.6,19.12-1.67,2.78-3.24,5.39-4.81,8.01-1.94.5-3.88,1.43-5.82,1.42-9.49,0-18.98-.27-28.46-.44Z"/>
  <path class="cls-15" d="m214.63,58.31c6.95.55,13.9,1.54,20.86,1.57,14.15.07,28.29-.38,42.44-.62,1.2.54,2.4,1.08,4.43,1.99-7.04,7.07-13.49,13.68-20.15,20.05-.74.71-3.27.7-4.08,0-12.74-11.04-27.77-17.66-43.5-22.99Z"/>
  <path class="cls-19" d="m47.23,117.43c9.49.17,18.98.43,28.46.44,1.94,0,3.88-.93,5.82-1.42-1.88,4.74-3.61,9.55-5.72,14.19-.65,1.44-2.16,3.16-3.56,3.48-10.5,2.34-21.07,4.37-33.25,6.82,3.03-8.63,5.64-16.07,8.25-23.5Z"/>
  <path class="cls-20" d="m291.86,130.82c-3.35-7.25-6.71-14.5-10.06-21.76,1.75.34,3.51.96,5.26.98,9.92.13,19.85.11,29.77.15,2.31,6.1,4.62,12.2,6.93,18.3-7.36.16-14.73.15-22.08.55-3.3.18-6.55,1.16-9.82,1.78Z"/>
  <path class="cls-11" d="m127.93,271.6c-1.72,11.03-3.35,21.55-5.09,32.74-7.47-4.2-15.99-8.99-25.84-14.53,7.72-7.45,14.27-14.13,21.23-20.36,4.56-4.09,7.41,1.04,9.71,2.15Z"/>
  <path class="cls-11" d="m238.99,271.14c1.49-.78,3.92-2.04,6.08-3.16,7.42,7.51,14.47,14.65,22.45,22.73-8.31,4.74-16.57,9.45-24.31,13.85-1.4-11.06-2.74-21.62-4.23-33.42Z"/>
  <path class="cls-5" d="m184.67,306.04c9.25-1.49,18.12-2.92,26.92-4.34,1.65,5,3.09,9.38,4.63,14.08-9.92,5.25-19.91,9.15-31.55,7.88v-17.61Z"/>
  <path class="cls-13" d="m316.84,110.19c-9.92-.03-19.85-.02-29.77-.15-1.76-.02-3.51-.64-5.26-.98-.02-1.11-.54-2.68,0-3.26,6.42-6.84,13-13.53,21.01-21.78,5.11,9.53,9.57,17.84,14.03,26.16Z"/>
  <path class="cls-5" d="m180.73,323.63c-10.95,1.13-20.2-2.41-29.02-7.2-1.13-.62-1.83-3.42-1.54-4.99.67-3.58,2.07-7.03,3.13-10.37,8,1.56,15.87,2.87,23.59,4.77,1.56.38,3.45,2.86,3.67,4.56.53,4.15.17,8.42.17,13.23Z"/>
  <path class="cls-5" d="m184.38,286.84c6.36-1.05,12.11-2.2,17.93-2.82,1.4-.15,3.73,1.08,4.36,2.32,5.27,10.36,4.81,11.16-6.43,13.29-1.92.36-3.8.97-5.73,1.17-10.19,1.05-10.19,1.02-10.12-9.55,0-1.56,0-3.12,0-4.41Z"/>
  <path class="cls-5" d="m180.73,300.28c-8.4,3.39-15.82-.59-23.41-2.18-.82-.17-1.68-2.83-1.54-4.24.22-2.25.78-4.79,2.12-6.5,1.28-1.64,3.75-3.37,5.64-3.31,4.23.15,8.39,1.85,12.62,2.06,3.88.19,4.8,1.85,4.61,5.24-.17,2.98-.03,5.97-.03,8.92Z"/>
  <path class="cls-21" d="m291.86,130.82c3.27-.62,6.53-1.6,9.82-1.78,7.35-.4,14.72-.39,22.08-.55,1.04,3.73,2.08,7.45,3.54,12.7-5.93-1.19-10.44-2.06-14.92-3-5.54-1.16-11.13-2.19-16.57-3.72-1.54-.43-2.65-2.39-3.95-3.65Z"/>
  <path class="cls-6" d="m210.17,283.1c7.37-2.61,14.67-5.2,22.74-8.06-.04,12.49-10.05,15.65-18.09,21.36-1.62-4.63-3.07-8.81-4.64-13.3Z"/>
  <path class="cls-6" d="m219.77,311.93c-.99-2.38-1.95-4.27-2.55-6.27-.61-2.03-.88-4.17-1.17-5.68,6.33-4.6,12.41-9.03,18.42-13.4,2.14,8.38-4.84,20.94-14.69,25.35Z"/>
  <path class="cls-6" d="m134.15,275.15c6.56,2.29,13.09,4.57,20.19,7.05-.98,4.02-1.97,8.11-2.96,12.17-9.83-.9-18.74-10.79-17.23-19.22Z"/>
  <path class="cls-6" d="m149.54,299.37c-1.39,4.02-2.72,7.85-4.04,11.69-7.79-2.95-14.97-15.52-13.97-25.69,3.16,2.99,5.64,5.75,8.53,7.98,2.88,2.23,6.17,3.95,9.49,6.02Z"/>
  <path d="m95.82,199.38c-.67-21.73,17.02-38.52,37.61-38.07,26.17.58,38.31,18.66,38.36,37.63.05,21.73-15.77,38.02-37.87,38.58-20.27.52-38.61-17.06-38.09-38.15Z"/>
  <path d="m270.51,199.22c.47,21.83-17.86,38.81-38.72,38.22-22.18-.63-37.18-17.21-37.25-38.55-.05-18.15,12.02-37.57,38.58-37.55,20.13.02,38.47,16.57,37.39,37.88Z"/>
  <path class="cls-1" d="m195.3,243.98c-.04,7.44-5.78,13.25-13.01,13.15-6.62-.09-13.71-7.04-13.67-13.41.04-6.83,6.62-13.42,13.77-13.22,7.65.22,13.76,5.91,12.91,13.48Z"/>
</svg>