<?xml version="1.0" encoding="UTF-8"?>
<?xml-stylesheet type="text/css" href="../styles.css"?>

<svg id="luffy" data-name="Layer 1" xmlns="http://www.w3.org/2000/svg" viewBox="0 0 154.88 286.15">
  <defs>
    <style>
      .cls-1 {
        fill: #ed803a;
      }

      .cls-2 {
        fill: #f0e8e7;
      }

      .cls-3 {
        fill: #ebbda2;
      }

      .cls-4 {
        fill: #eabca1;
      }

      .cls-5 {
        fill: #e58042;
      }

      .cls-6 {
        fill: #fff;
      }

      .cls-7 {
        fill: #fefdfd;
      }

      .cls-8 {
        fill: #e3ac50;
      }

      .cls-9 {
        fill: #a31f1c;
      }

      .cls-10 {
        fill: #858688;
      }

      .cls-11 {
        fill: #a68867;
      }

      .cls-12 {
        fill: #d94947;
      }

      .cls-13 {
        fill: #bbbaba;
      }

      .cls-14 {
        fill: #bf8574;
      }

      .cls-15 {
        fill: #d14d4a;
      }

      .cls-16 {
        fill: #dea66e;
      }

      .cls-17 {
        fill: #d64a48;
      }

      .cls-18 {
        fill: #dab38c;
      }

      .cls-19 {
        fill: #d9dbde;
      }

      .cls-20 {
        fill: #e1a75c;
      }

      .cls-21 {
        fill: #201915;
      }

      .cls-22 {
        fill: #415283;
      }

      .cls-23 {
        fill: #0e0c0b;
      }

      .cls-24 {
        fill: #a3afb6;
      }

      .cls-25 {
        fill: #544c48;
      }

      .cls-26 {
        fill: #89272a;
      }

      .cls-27 {
        fill: #82614b;
      }

      .cls-28 {
        fill: #353033;
      }

      .cls-29 {
        fill: #772e2c;
      }

      .cls-30 {
        fill: #506fae;
      }

      .cls-31 {
        stroke: #000;
        stroke-miterlimit: 10;
        stroke-width: .5px;
      }
    </style>
  </defs>
  <path class="cls-3" d="m43.66,251.09c-2.21,5.73-4.63,11.39-6.55,17.22-.83,2.53-.57,5.41-.91,8.12-.37,3.03-.84,6.05-1.27,9.08-1.89.22-3.79.43-5.68.65h-1.15c-.17-.13-.35-.26-.52-.4-.02.13-.03.26-.05.4h-1.72c.14-1.07.16-2.18.44-3.22,2.35-8.62,4.58-17.22,4.81-26.27.18-6.92.78-13.86,1.74-20.72.74-5.27,2.77-10.21,6.58-14.18,2.71,1.19,5.36,2.57,8.16,3.51,2,.67,4.19.75,6.3,1.1-2.12,8.23-5.6,15.93-9.11,23.61-.18.18-.36.37-.55.56,0,0-.02.02-.02.02-.17.18-.34.36-.51.54Z"/>
  <path class="cls-14" d="m106.69,286.15c-.01-.41-.02-.82-.04-1.23,3.14.04,6.29.16,9.42.09,2.03-.05,4.06-.37,6.09-.57.39.57.77,1.14,1.16,1.71h-16.64Z"/>
  <path class="cls-2" d="m29.25,286.15c1.89-.22,3.79-.43,5.68-.65.02.22.04.43.05.65h-5.74Z"/>
  <path class="cls-28" d="m27.53,286.15c.02-.13.03-.26.05-.4.17.13.35.26.52.4h-.57Z"/>
  <path class="cls-30" d="m37.93,210.78c.38-2.11.61-4.26,1.15-6.32,1.63-6.24,3.34-12.46,5.1-18.67.68-2.42,1.57-4.77,2.37-7.16.73-.58,1.46-1.16,2.2-1.73,2.28,0,4.56,0,6.84,0,3.06.99,6.11,1.99,9.74,3.17-1.43.87-2.15,1.31-2.5,1.52,2.02,0,4.29.03,6.56,0,2.05-.03,2.64.76,1.43,2.73,2.8.11,2.93,1.25,1.51,3.25-2.18,3.09-4.3,6.23-6.27,9.45-1.73,2.84-3.21,5.82-4.8,8.74.26.18.52.35.78.53,2.22-2.33,4.43-4.66,6.65-6.99.51,1.02.52,1.67.27,2.2-.92,1.98-2.04,3.87-2.87,5.88-1.9,4.57-1.85,4.59-6.54,4.68-7.2-.42-14.41-.85-21.61-1.27Z"/>
  <path class="cls-3" d="m122.17,284.44c-2.03.2-4.06.52-6.09.57-3.14.07-6.28-.05-9.42-.09.04-.57-.08-1.23.15-1.71,2.59-5.33,1.06-10.71-.4-15.78-2.4-8.3-5.63-16.36-8.33-24.58-2.02-6.14-2.47-12.44-1.04-18.81,3.89,3.21,8.41,2.17,12.98,1.81.06-.52.13-1.16.2-1.8.73,2.22,1.78,4.39,2.13,6.67.63,4.11.93,8.27,1.2,12.43.64,9.85,1.09,19.71,1.81,29.55.24,3.25,1.42,6.27,4,8.56,1.05.94,1.89,2.11,2.82,3.18Z"/>
  <path class="cls-11" d="m64.85,65.98c-5.76-2.63-11.71-5-15.47-10.55-.45-.66-.55-1.56-.82-2.35.06-.28.19-.56.17-.83-.43-7.88,4.7-12.01,10.71-15.15,2.8-1.47,6.21-1.72,9.3-2.69,1.09-.34,2.03-1.16,3.04-1.76.59-.34,1.17-.68,1.76-1.02.35.01.7.03,1.06.04.76.17,1.51.35,2.27.52,1.03.57,2,1.34,3.09,1.66,2.34.68,4.77,1.08,7.14,1.69,1.62.42,2.76.67,4.56-.55,1.63-1.11,1.74-2.48,2.58-3.71.37-.55,1-.92,1.51-1.37.37,2.49,2.83,4.65,1.21,7.46-1.39-.44-2.77-.88-4.16-1.32-.1.27-.2.54-.29.81,2.19,1.66,4.24,3.55,6.58,4.94,4.75,2.8,7.36,6.78,7.68,12.29-.48,4.29-2.86,7.31-6.61,9.09-2.68,1.27-5.6,2.06-8.41,3.06v-.24c-.56-.14-1.12-.27-1.68-.41.04-2.16.79-3.75,3.73-3.77-1.08-1.5-1.91-2.65-2.74-3.81,1.34-.32,2.68-.63,4.07-.96-.27-.9-.55-1.8-.87-2.87.97-.35,1.98-.71,2.95-1.05-.34-2.51-4.67-4.35-1.39-7.21-1.39-1.4-2.76-2.78-4.23-4.26,1.25-.79,1.94-1.23,2.61-1.65-5.86-1.53-10.88-5.09-17.25-5.13-6.88-.04-10.55,5.38-16.09,7.86.53.49.99.9,1.26,1.15-1.19,1.47-2.38,2.95-3.58,4.43.66.1,1.71.25,2.8.4-.56,1.39-1.16,2.67-1.6,4-.5,1.53.39,1.9,1.71,1.77.19,1.37.38,2.75.57,4.12.32,0,.65,0,.97,0-.35-.77-.69-1.54-1.04-2.32.39-.38.79-.75,1.18-1.13l1.18-.05-.06.06c.05.21.09.42.14.63-.11.08-.21.16-.32.24.13.04.26.09.39.13.38.41.75.81.95,1.02-.19.98-.36,1.86-.52,2.74,0,2.02-.02,4.03-.02,6.05Zm26.4-1.17c.07-.05.14-.09.21-.14-.06-.06-.15-.17-.17-.16-.1.05-.18.14-.26.22.08.03.15.05.23.08Z"/>
  <path class="cls-30" d="m109.53,182.16c.05,1.53.1,3.07.14,4.6.15.19.3.38.46.57.42,3.06.84,6.12,1.25,9.18.16.57.33,1.15.49,1.72.04.77.07,1.55.11,2.32.15.18.3.36.45.54,0,0,.02.02.02.02,0,.19.04.38.1.56.19,2.12.38,4.24.57,6.35.15.18.3.37.44.55,0,.58,0,1.15-.01,1.73-2.65.63-5.29,1.29-7.95,1.85-.56.12-1.21-.13-1.81-.21-1.15-1.82-2.56-1.28-4-.43,0,0,.05-.03.05-.03-.76-.22-1.53-.43-2.29-.65-.2-.37-.4-.75-.6-1.12-.04-.43-.08-.85-.13-1.28-.13.04-.27.07-.4.11.16.4.32.81.48,1.21.19.39.37.77.56,1.16-1.1-.08-2.9.21-3.19-.32-1.75-3.23-3.15-6.64-4.67-9.99l.69-.37c1.25,1.44,2.51,2.87,3.76,4.31l.68-.49c-2.75-6.07-5.5-12.14-8.28-18.3,4.02-.89,5.72,3.5,9.58,4.34-1.51-4.11-4.1-6.69-6.86-8.45,2.36-.77,4.78-1.56,7.21-2.35,1.57-.25,3.32-.15,4.69-.82,2.74-1.32,5.24-1.21,7.8.21l.21,1.74c.15.58.29,1.16.44,1.74Z"/>
  <path class="cls-4" d="m46.59,169.01c-.17-.34-.26-.85-.53-.99-6.69-3.5-7.53-10.64-10.24-16.58-2.69-5.9-5.29-11.84-7.65-17.87-1.24-3.17-2.53-6.56-2.61-9.88-.06-2.37,1.88-4.78,2.92-7.17,1.52,4.12,3.74,7.43,8.71,7.55.62,4.04,1.23,8.08,1.85,12.11.38,1.16.76,2.32,1.14,3.49.81,1.16-1.59,3.74,1.68,3.83.21.19.43.39.64.58.18,1.99.36,3.98.55,5.97.16.73.31,1.45.47,2.18.22.17.44.34.66.51.34,2.94,1.58,3.69,5.69,3.47.19.03.38.07.57.1,2.3.2,4.6.41,6.9.61.99,1.14,1.98,2.27,2.97,3.41.16.75.32,1.5.47,2.24-1-.47-2.18-.75-2.97-1.46-1.79-1.63-3.54-2.43-5.51-1.14,1.17,1.38,2.25,2.65,3.34,3.93.17.35.35.71.52,1.06.57.39,1.14.77,1.72,1.16,0,.34-.02.68-.03,1.02-1.28.67-2.53,1.42-3.63-.37-.27-.45-1.02-.6-1.55-.89-.35.68-.7,1.36-1.06,2.04-1.17-.89-2.35-1.77-3.52-2.66-.14.2-.28.41-.42.61.37,1.02.74,2.05,1.11,3.07-.73.03-1.46.05-2.2.08Z"/>
  <path class="cls-4" d="m121.02,116.06c3.19,5.25,3.93,10.77,3.05,16.92-1.11,7.78-1.26,15.69-1.89,23.54-.21,2.64-.65,5.26-.98,7.88-.19.37-.37.74-.56,1.11-1.01,1.32-2.03,2.65-3.04,3.97-.17.2-.35.39-.52.59-.75.58-1.51,1.16-2.26,1.73-3.08.3-3.02-2.18-3.6-4.09.56-1.05,1.11-2.09,1.96-3.68-1.15.41-1.8.65-2.45.88-.82-.13-1.63-.25-1.76-.27-1.39.82-2.32,1.37-3.25,1.92-.4-.74-.8-1.49-1.2-2.23.56-1.52,1.12-3.05,1.68-4.57.19,0,.38-.04.55-.12,3.08.27,5.84-.2,7.49-3.24,1.12-1.57,1.96-3.14-.03-4.69,2.1-5.08,1.27-10.05-.59-14.97-.16-2.69-.32-5.37-.48-8.06.71-1.02,1.46-2.01,2.11-3.07,1.95-3.17,3.86-6.36,5.79-9.55Z"/>
  <path class="cls-12" d="m86.59,75.94c.39,0,.78,0,1.17-.01.18.54.36,1.09.54,1.63l-.06,2.9c-.16.19-.31.39-.47.58,0,.19-.03.37-.08.55-1.05.34-2.23.5-3.1,1.09-.64.43-.88,1.45-1.3,2.2.75.21,1.49.44,2.25.61.57.13,1.16.16,1.75.24-.04.53-.08,1.07-.12,1.6-.35.78-.71,1.56-1.06,2.33.36.18.73.36,1.09.54.18-.21.36-.42.54-.63.22-.37.43-.74.65-1.11.16-.21.33-.42.49-.63.04-.36.09-.72.13-1.07,1.1-.38,2.2-.77,3.31-1.15.18,1.35.36,2.69.53,4.04-.17.71-.52,1.43-.47,2.12.32,4.79.72,9.57,1.13,14.35.04.44.3.86.46,1.29.01.78.02,1.56.03,2.33-1.11-.76-2.22-1.52-3.32-2.28-.03-.18-.05-.35-.05-.53.02-.21.05-.42.08-.62.54-.45,1.6-1.11,1.52-1.31-.32-.79-1-1.44-1.54-2.14,0-.2.02-.4.02-.6-.05-.56-.11-1.12-.16-1.68-.37-.55-.74-1.11-1.11-1.66-.38-.6-.76-1.19-1.13-1.79h0c.19-1.87-1.06-1.78-2.31-1.71,0,0,0,.01,0,.01-.4-.6-.69-1.56-1.24-1.74-2.06-.68-4.19-1.37-6.34-1.51-1.14-.07-2.71.77-1.58,2.65-.38.16-.77.32-1.15.48-.39.04-.77.08-1.16.12l.04-.04c-.19.2-.38.4-.57.6-.81.77-1.62,1.53-2.43,2.3-.15.19-.31.38-.46.57,0,0,0,0,0,0-.18.39-.37.77-.55,1.16-.01.18-.04.37-.08.55-3.12,1.34-6.24,2.68-9.77,4.19-.51-1.43-1.11-3.11-1.71-4.78.04-.38.08-.77.12-1.15,1.35-1.62,1.55-3.35.45-5.19,0-.36.02-.73.03-1.09,2.2-1.23,1.13-2.95.67-4.58.16-.4.31-.79.47-1.19,0-.19.02-.38.02-.57,0,0,0,0,0,0,0-.2,0-.4,0-.59.03-.19.06-.38.09-.58.35-.51,1-1.03.99-1.54-.04-1.77.95-2.01,2.33-1.88.05.15.08.31.09.47.34,1.25.38,2.72,1.09,3.7,1.26,1.73,2.87,3.23,4.47,4.68.7.63,1.7.98,2.62,1.26.14.04.98-1.14.85-1.51-.36-.99-.97-1.96-1.7-2.73-.6-.64-1.51-.98-2.47-1.56.99-.75,1.5-1.14,2.01-1.53.39.19.77.37,1.16.56.35.57.69,1.14,1.04,1.72.4-.35.81-.71,1.21-1.06.57.01,1.14.02,1.71.03.98,2.09,2.36.94,3.6.95l.09-.84c-.88-.05-1.76-.11-2.63-.16-.16-.17-.32-.34-.47-.51-.41-.16-.81-.32-1.22-.48l-1.08-.09c-.78-.36-1.57-.72-2.35-1.08l-1.14-.55c-.59-.41-1.18-.82-1.76-1.23-.36-.02-.72-.04-1.07-.05l.03.02c-.39-.2-.79-.4-1.18-.6l.03.02c-.56-.59-1.12-1.19-1.68-1.78-.03-.36-.06-.73-.09-1.09,1.18-.2,2.36-.4,3.53-.6.56.55,1.13,1.11,1.69,1.66,1.37,2.22,4,3.19,6.31,2.32.36,0,.73,0,1.09,0,1.88,1.77,3.19,1.25,4.04-1.03.18-.06.36-.1.55-.12.2-.19.4-.39.6-.58,0,0,.24-.06.24-.06,2.22.2,2.05-1.35,2.03-2.78h-.01c.38-.34.77-.68,1.15-1.03Z"/>
  <path class="cls-18" d="m95.75,29.9c-.51.45-1.14.83-1.51,1.37-.84,1.22-.96,2.6-2.58,3.71-1.8,1.22-2.94.97-4.56.55-2.37-.61-4.79-1-7.14-1.69-1.1-.32-2.07-1.09-3.09-1.66.78-.18,1.56-.35,2.33-.53,1.69.19,3.38.38,5.07.56,1.94.97,3.91,1.81,6.06,1.31.09-.29.18-.58.27-.87-1.32-.56-2.65-1.11-3.97-1.67l.03.02c-.39-.2-.78-.39-1.18-.59h.01c-.76-.2-1.52-.41-2.28-.63-5.82-.95-11.54-1.11-17.15,2.34h3.94c.59.17,1.19.35,1.78.52-1.01.6-1.95,1.42-3.04,1.76-3.08.97-6.5,1.22-9.3,2.69-6.01,3.15-11.14,7.27-10.71,15.15.01.27-.11.56-.17.83-2.38-3.39-.03-10.84,3.65-13.55,2.09-1.54,4.14-2.98,6.47-4.11.52-.25,1.03-1.26.96-1.86-.57-4.92,3.35-7.29,5.91-10.32,2.59-3.07,6.48-4.17,10.25-4.15,3.89.02,7.89.74,11.64,1.82,4.36,1.26,7.06,4.57,8.33,8.97Z"/>
  <path class="cls-17" d="m120.93,111.43c0,1.15.01,2.3.02,3.45-2.46,1.36-4.92,2.72-7.38,4.08-.74-.77-1.68-1.42-2.18-2.32-1.28-2.29-1.91-5.15-3.67-6.92-1.5-1.51-1.65-2.85-1.53-4.52.22-2.99.58-5.96.82-8.33-1.4-1.09-2.35-1.84-3.61-2.82v3.66c-.06,1.34-.11,2.67-.17,4.01-.78-4.42-1.44-8.83.95-12.69.91.84,1.71,1.59,2.52,2.34.49-.02,1,0,1.48-.08.66-.12,1.31-.32,1.96-.49,1.9,3.84,3.79,7.68,5.69,11.51.01.59.03,1.17.04,1.76.02.18-.01.35-.11.51-.52.35-1.04.69-1.56,1.04-.29.42-.58.84-.87,1.26,0,0,0,0,0,0-.32.42-.63.83-.95,1.25.56.73,1.11,1.47,1.67,2.2.23.05.45.11.68.16.4.52.8,1.05,1.2,1.57l-.02.05c-.08.04-.24.09-.23.11.03.14.1.28.15.42.39-.01.77-.02,1.16-.03,1.32-.38,2.64-.77,3.96-1.15Z"/>
  <path class="cls-19" d="m37.93,210.78c7.2.42,14.41.85,21.61,1.27,1.93.42,3.86.85,5.78,1.27v3.03c-1.62,1.05-2.78,1.81-3.95,2.57-.15.02-.3.03-.45.04-.08-.33-.16-.66-.34-1.4-.24.68-.34.99-.45,1.29-1.91-.1-4.05.31-5.67-.43-2.39-1.1-3.42-.03-4.54,1.61-1.01-.11-2.01-.28-3.02-.32-2.45-.1-4.89-.14-7.34-.21-4.42-3.05-4.61-4.08-1.65-8.72Z"/>
  <path class="cls-19" d="m103.8,211.94c.61.08,1.25.33,1.81.21,2.66-.56,5.3-1.23,7.95-1.85.59.37,1.17.74,1.76,1.11.38.2.76.4,1.13.6.02,1.35.03,2.69.05,4.04-.05.37-.09.74-.14,1.11-.16.21-.31.42-.47.62h0c-.57.21-1.14.42-1.71.63-.17-.02-.33-.02-.5,0-.65-.14-1.3-.28-1.95-.42-.54-.01-1.09-.03-1.63-.04-1.89-1-6.25-.19-8.05,1.48-.18.01-.36.06-.53.13-1.71-.03-3.42-.07-5.13-.1l.03-.07c-1.7-.23-3.4-.47-5.1-.7-.57-1.94-1.14-3.87-1.71-5.81,1.85-1.13,3.63-1.33,5.82-.6,1.25.41,2.94-.49,4.43-.81,0,0-.05.03-.05.03,1.33.14,2.66.29,4,.43Z"/>
  <path class="cls-12" d="m106.69,91.36c-.81-.75-1.62-1.5-2.52-2.34-2.39,3.86-1.72,8.27-.95,12.69,0,.39,0,.77-.01,1.16-.17.2-.34.4-.52.6,0,2.48-.02,4.96-.03,7.44-.93-.77-1.86-1.53-2.79-2.3,0-1.35,0-2.7,0-4.04-.23-2.3-.45-4.6-.68-6.9-.02-.35-.03-.71-.05-1.06-.37-1.16-.74-2.33-1.11-3.49-.19-1.35-.39-2.69-.58-4.04-.36-1.17-.71-2.34-1.07-3.51-.01-.17-.03-.35-.06-.52l-.04-1.13c-.16-.39-.31-.78-.47-1.17,0-1.12-.02-2.25-.03-3.37,3.65.31,7.19.9,9.77,3.9.2.2.4.4.6.6,0,0,0-.01,0-.01.18,2.5.35,5,.53,7.51Z"/>
  <path class="cls-17" d="m53.33,77.66c1.35-.25,2.7-.49,4.05-.74,0,0-.05.15-.05.15l-1.76,11.41c-.71,0-1.43,0-2.14,0-.1-.56-.21-1.12-.34-1.83-.88,3.45-1.71,6.69-2.53,9.93-.4-.05-.81-.09-1.21-.14-.21-.93-.42-1.86-.64-2.79.15-.23.48-.53.42-.67-1.27-3.18-2.6-6.34-3.89-9.52-.24-.6-.34-1.25-.51-1.88,0,0,0,0,0,0,2.42-.89,5.74-.04,6.83-3.53,0,0-.02.03-.02.03.59-.15,1.18-.29,1.77-.44Z"/>
  <path class="cls-8" d="m97.46,89.06c.19,1.35.39,2.69.58,4.04.37,1.16.74,2.33,1.11,3.49.02.35.03.71.05,1.06.23,2.3.45,4.6.68,6.9,0,1.35,0,2.7,0,4.04-.04.77-.07,1.54-.11,2.31-.17.21-.34.41-.51.62,0,.17,0,.34.03.5-.99.19-1.98.39-2.97.58-.17-2.1-.35-4.2-.52-6.3-.35-1.92-.7-3.84-1.05-5.76,0-.39,0-.78,0-1.18.5-2.26,1.53-4.62-1.17-6.29-.03-.19-.03-.38,0-.57.15-1.09.59-2.24.38-3.27-.81-4.07-1.81-8.1-2.74-12.15.76.2,1.52.39,2.28.59.77,1.68,1.55,3.37,2.32,5.05.16.39.31.78.47,1.17.01.38.03.75.04,1.13.03.17.05.34.06.52.36,1.17.71,2.34,1.07,3.51Z"/>
  <path class="cls-8" d="m59.66,75.74c.19,0,.38.01.57.02.35.02.7.03,1.05.05.19.01.39.03.58.04.05.17.09.34.11.51,0,.23,0,.47,0,.7-.03.18-.09.35-.19.51-.63,1.76-1.56,3.47-1.82,5.28-.5,3.57-.63,7.2-.92,10.81.02.19.01.38-.03.57-2.09,1.73-1.11,3.75-.55,5.73.03.97.06,1.94.09,2.91-.23,2.86-.45,5.73-.68,8.59-1.77.94-2.84.88-2.85-1.59-.03-8.87.6-17.65,2.69-26.3.58-2.38.88-4.84,1.3-7.26.2-.2.41-.39.61-.59Z"/>
  <path class="cls-14" d="m101.51,219.57c.17-.08.35-.12.53-.13,1.93,0,3.87,0,5.8,0,.8.05,1.61.11,2.41.16,0,.36.01.71.02,1.07-.02,1.13-.05,2.27-.07,3.4-.07.64-.14,1.28-.2,1.8-4.57.36-9.09,1.4-12.98-1.81-.05-1.29-.09-2.58-.14-3.87,1.54-.2,3.08-.4,4.62-.6Z"/>
  <path class="cls-15" d="m46.53,176.35c-2.48-3.07-2.5-4.69-.1-6.31.78.91,1.57,1.81,2.35,2.72.36.27.72.53,1.08.8.13.21.25.41.38.62.07-.4.14-.8.21-1.2l-.53-1.71c-.2-.76-.4-1.52-.6-2.28.97.17,1.94.34,2.91.51,0,0-.01-.01-.01-.01l.59,1.18-.02-.03c.19.39.39.77.58,1.16,1.54.79,3.08,1.55,4.64.04.18-.59.36-1.17.55-1.76.37.19.74.39,1.11.58q0,4.23,4.1,5.28c.55.14,1.09.31,1.63.47-.01.23-.02.46-.04.68-.76-.03-1.51-.06-2.27-.09h0c-.37-.16-.75-.31-1.12-.46l-6.36-.09c-2.29,0-4.58.01-6.87.02l-2.2-.12Z"/>
  <path class="cls-14" d="m39.57,219.5c2.45.07,4.89.11,7.34.21,1.01.04,2.01.21,3.02.32,1.72.22,3.45.43,5.17.65-.42,1.9-.83,3.79-1.25,5.69-2.11-.35-4.3-.43-6.3-1.1-2.8-.94-5.45-2.32-8.16-3.51.06-.75.12-1.5.18-2.26Z"/>
  <path class="cls-14" d="m70.85,69.96c-.45-.92-.91-1.84-1.36-2.76.16-.37.32-.75.49-1.12.38.03.91-.09,1.11.11,3.46,3.45,7.38,3.38,11.55,1.6l-.03-.03c-.17,1.91-.34,3.83-.51,5.74-1.36.43-2.72.85-4.07,1.28-2.39-1.61-4.78-3.22-7.17-4.82Z"/>
  <path class="cls-3" d="m78.01,74.79c1.36-.43,2.72-.85,4.07-1.28,1.14.8,2.28,1.59,3.41,2.39-.02.36-.04.72-.07,1.09,0,0,.01-.01.01,0-.68.93-1.35,1.86-2.03,2.78,0,0-.24.06-.24.06-.2.19-.4.39-.6.58-.19.02-.37.06-.55.12-1.35.34-2.69.69-4.04,1.03-.36,0-.73,0-1.09,0-2.1-.77-4.21-1.55-6.31-2.32-.56-.55-1.13-1.11-1.69-1.66-.37-.97-.75-1.94-1.12-2.91.53-.2,1.07-.39,1.6-.59.25,4.17,4.02,5.51,9.39,4.22-.25-1.17-.5-2.33-.75-3.48Z"/>
  <path class="cls-15" d="m44.75,81.61c.17.63.27,1.28.51,1.88,1.28,3.18,2.61,6.33,3.89,9.52.06.14-.27.44-.42.67-2.37-.37-3.06.87-2.85,2.98.21,2.06.39,4.13.58,6.19-.36-2.97-1.83-6.39-.83-8.8,1.55-3.77-.94-5.92-1.44-9.65-.91,1.86-1.31,2.99-1.96,3.97-1.98,2.96-4.02,5.88-6.11,8.76-.38.52-1.07.81-1.62,1.2,0,0-.11-.1-.11-.1,2.95-4.79,5.89-9.59,8.85-14.38.47-.77,1.01-1.5,1.52-2.24Z"/>
  <path class="cls-14" d="m37.2,124.06c-4.97-.12-7.19-3.43-8.71-7.55.22-1.29.44-2.57.66-3.86,1.56.95,3.12,1.9,4.69,2.85,0,0,0,0,0,0,.58,1.34,1.15,2.68,1.73,4.02h0c1.16.93,2.32,1.85,3.49,2.78-.62.59-1.23,1.18-1.85,1.76Z"/>
  <path class="cls-14" d="m111.21,167.71c.58,1.91.51,4.39,3.6,4.09-.22.21-.44.42-.66.62-.22.16-.45.33-.67.49-1.11,1.17-2.22,2.34-3.34,3.51-.36,0-.73-.02-1.09-.03-.67-.35-1.34-.69-2.01-1.04.58-1.12,1.17-2.23,1.79-3.44-1.47-.57-2.37-.91-3.26-1.25-.02-.38-.04-.77-.06-1.15.07-.99.13-1.97.2-2.96.93-.55,1.86-1.1,3.25-1.92.13.02.94.15,1.76.27-.83,1.75-1.66,3.5-2.5,5.25.2.08.4.15.59.23.8-.89,1.6-1.79,2.4-2.68Z"/>
  <path class="cls-4" d="m78.01,74.79c.25,1.16.5,2.32.75,3.48-5.36,1.29-9.13-.05-9.39-4.22.49-1.36.98-2.72,1.47-4.09,2.39,1.61,4.78,3.22,7.17,4.82Z"/>
  <path class="cls-14" d="m113.56,118.96c2.46-1.36,4.92-2.72,7.38-4.08.03.39.05.79.08,1.18-1.93,3.18-3.84,6.38-5.79,9.55-.65,1.06-1.41,2.05-2.11,3.07,0,0-.17.09-.17.09.02-1.36.05-2.72.07-4.07-.59-.96-1.18-1.92-1.77-2.87.77-.96,1.54-1.91,2.31-2.87Z"/>
  <path class="cls-18" d="m106.78,54.07c-.32-5.5-2.94-9.48-7.68-12.29-2.35-1.39-4.4-3.28-6.58-4.94.1-.27.2-.54.29-.81,1.39.44,2.77.88,4.16,1.32,4.64,1.7,7.02,5.65,9.22,9.64,1.19,2.16,1.91,4.59.6,7.07Z"/>
  <path class="cls-25" d="m107.03,175.37c.67.35,1.34.69,2.01,1.04.01.38.03.76.04,1.15-.07.38-.13.75-.2,1.13-2.56-1.42-5.07-1.53-7.8-.21-1.37.66-3.11.57-4.69.81-1.98-2-4.25-1.81-6.82-1.35-2.7.48-5.15,2.69-8.14,1.31,2.33-.66,4.63-1.55,7.01-1.91,2.31-.35,4.7-.2,7.05-.16,1.33.02,2.73.58,3.97.31,2.44-.53,4.8-1.48,7.19-2.26.11.07.23.12.36.14Z"/>
  <path class="cls-27" d="m91.06,58c.83,1.15,1.66,2.3,2.74,3.81-2.95.01-3.69,1.6-3.73,3.77.02.14.03.27.03.41-.4.06-.79.12-1.19.19-.6.34-1.19.68-1.79,1.03-1.51.19-3.02.38-4.53.56,0,0,.03.03.03.03.04-.27.01-.74.14-.79,3.48-1.4,5.27-4.24,6.6-7.54.23-.57.89-.96,1.35-1.43l.17-.05.17.03Z"/>
  <path class="cls-26" d="m88.4,88.47c-.22.37-.43.74-.65,1.11-.18.21-.36.42-.54.63-.36-.18-.73-.36-1.09-.54.35-.78.71-1.55,1.06-2.33.04-.53.08-1.07.12-1.6.13-1.38.27-2.76.41-4.14.04-.18.07-.37.08-.55.16-.19.31-.39.47-.58.02-.97.04-1.93.06-2.9.02-.54.05-1.08.07-1.62.59.34,1.18.68,1.77,1.01.03.78.06,1.55.08,2.33-.4,2.5-.8,4.99-1.19,7.49-.04.36-.09.72-.13,1.08-.16.21-.33.42-.49.63Z"/>
  <path class="cls-9" d="m115.81,102.3c-1.9-3.84-3.79-7.68-5.69-11.51.2-.41.39-.82.59-1.24,2.81,3.88,5.73,7.7,6.36,12.68-.42.02-.84.05-1.26.07Z"/>
  <path class="cls-26" d="m61.97,76.36c-.02-.17-.06-.34-.11-.51.06-.16.1-.33.12-.5.56-.24,1.12-.48,1.67-.72.57,1.17,1.13,2.35,1.7,3.52.03.36.06.73.09,1.09.14.57.28,1.14.42,1.7.8,1.93,1.61,3.87,2.41,5.8l-.03.03c-1.32-1.57-2.64-3.14-3.96-4.71,0-.16-.04-.32-.09-.47-.71-.79-1.41-1.59-2.12-2.38-.1-.55-.2-1.09-.3-1.64.1-.16.16-.33.19-.51,0-.23,0-.47,0-.7Z"/>
  <path class="cls-15" d="m33.83,115.51c-1.56-.95-3.12-1.9-4.69-2.85-.2-.22-.4-.44-.61-.67,0,0,.23.08.23.08,1.02,0,2.04,0,2.41,0,1.5-3.78,2.78-7.01,4.05-10.24.28.09.55.18.83.27-.31,1.72-.27,3.61-.99,5.14-1.27,2.69-2.93,5.18-1.24,8.26Z"/>
  <path class="cls-15" d="m28.1,111.53c.19-1.37.03-2.92.65-4.06,1.71-3.17,3.74-6.17,5.64-9.24,0,0,.11.1.1.1-.58,1.6-1.07,3.24-1.77,4.79-1.29,2.85-2.71,5.64-4.07,8.45-.18-.05-.36-.06-.55-.04Z"/>
  <path class="cls-15" d="m110.72,89.55c-.2.41-.39.82-.59,1.24-.65.17-1.3.37-1.96.49-.48.09-.99.06-1.48.08-.18-2.5-.35-5-.53-7.51,1.52,1.9,3.04,3.8,4.56,5.7Z"/>
  <path class="cls-27" d="m64.85,65.98c0-2.02.02-4.03.02-6.05,1.51,2.04,3.01,4.08,4.52,6.13-.38.05-.75.09-1.13.14-1.14-.07-2.28-.14-3.41-.22Z"/>
  <path class="cls-20" d="m90.22,79.28c-.03-.78-.06-1.55-.08-2.33.36.05.72.09,1.08.14.93,4.05,1.94,8.08,2.74,12.15.2,1.02-.24,2.17-.38,3.27-.24-.95-.48-1.9-.71-2.86-.18-1.35-.36-2.69-.53-4.04-.7-2.11-1.41-4.22-2.11-6.34Z"/>
  <path class="cls-15" d="m65.36,78.15c-.57-1.17-1.13-2.35-1.7-3.52,1.37,0,2.74,0,4.12,0,.37.97.74,1.94,1.12,2.91-1.18.2-2.36.4-3.53.6Z"/>
  <path class="cls-15" d="m51.58,78.07c-1.09,3.49-4.4,2.64-6.83,3.53,2.28-1.18,4.55-2.35,6.83-3.53Z"/>
  <path class="cls-26" d="m115.81,102.3c.42-.02.84-.05,1.26-.07,0,0-.02-.02-.02-.02.15.4.3.8.44,1.19.61,1.54,1.22,3.08,1.82,4.63-.32.38-.63.75-.95,1.13-.25-.75-.5-1.5-.75-2.25-.19-.2-.38-.41-.57-.61-.07-.56-.14-1.13-.21-1.69-.33-.19-.66-.37-.99-.56-.01-.59-.03-1.17-.04-1.76Z"/>
  <path class="cls-27" d="m120.93,111.43c-1.32.38-2.64.77-3.96,1.15.05-.77.1-1.53.15-2.29.19-.23.38-.46.57-.69.26.05.53.1.79.15.49-.22.98-.43,1.48-.65.32.78.65,1.55.97,2.33Z"/>
  <path class="cls-20" d="m95.82,82.73c-.77-1.68-1.55-3.37-2.32-5.05.77.56,1.53,1.12,2.3,1.68,0,1.12.02,2.25.03,3.37Z"/>
  <path class="cls-14" d="m49.31,168.99c.2.76.4,1.52.6,2.28-.38.5-.76,1-1.13,1.49-.78-.91-1.57-1.81-2.35-2.72.06-.34.11-.69.17-1.03.73-.03,1.46-.05,2.2-.08.18,0,.35.01.52.07Z"/>
  <path class="cls-7" d="m59.66,75.74c-.2.2-.41.39-.61.59-.57.25-1.14.5-1.71.75,0,0,.05-.15.05-.15.39-.65.78-1.29,1.17-1.94l1.1.75Z"/>
  <path class="cls-24" d="m111.73,217.99c.65.14,1.3.28,1.95.42-.22.36-.45.73-.67,1.09-.39.05-.78.1-1.18.14,0,0,.04-.24.04-.24-.05-.47-.09-.94-.14-1.42Z"/>
  <path class="cls-29" d="m119.96,109.1c-.49.22-.98.43-1.48.65-.03-.2-.07-.39-.1-.59.32-.38.63-.75.95-1.13.21.36.42.71.63,1.07Z"/>
  <path class="cls-10" d="m46.53,176.35c.73.04,1.46.08,2.2.12,0,.14,0,.29,0,.43-.73.58-1.46,1.16-2.19,1.73,0-.76,0-1.52-.01-2.28Z"/>
  <path class="cls-7" d="m87.13,67.2c.6-.34,1.19-.68,1.79-1.03.1,1.57-.6,1.72-1.79,1.03Z"/>
  <path class="cls-7" d="m113,219.5c.22-.36.45-.73.67-1.09.17-.02.33-.02.5,0,.06.48.11.96.17,1.43-.45-.11-.89-.23-1.34-.34Z"/>
  <path class="cls-7" d="m110.28,220.65c0-.36-.01-.71-.02-1.07.54-.06,1.07-.12,1.61-.18,0,0-.04.24-.04.24-.52.34-1.03.67-1.55,1.01Z"/>
  <path class="cls-7" d="m61.28,75.81c-.35-.02-.7-.03-1.05-.05.2-.46.41-.92.61-1.39.18.29.36.59.53.88-.02.19-.05.37-.09.56Z"/>
  <path class="cls-7" d="m109.53,182.16c-.15-.58-.29-1.16-.44-1.74.15.58.29,1.16.44,1.74Z"/>
  <path class="cls-7" d="m111.87,198.23c-.16-.57-.33-1.15-.49-1.72.16.57.33,1.15.49,1.72Z"/>
  <path class="cls-7" d="m68.26,66.2c.38-.05.75-.09,1.13-.14.19,0,.39.01.58.02-.16.37-.32.75-.49,1.12-.41-.33-.82-.67-1.23-1Z"/>
  <path class="cls-7" d="m109.09,177.55c-.01-.38-.03-.76-.04-1.15.36,0,.73.02,1.09.03-.35.37-.7.75-1.05,1.12Z"/>
  <path class="cls-7" d="m120.63,165.52c.19-.37.37-.74.56-1.11-.19.37-.37.74-.56,1.11Z"/>
  <path class="cls-7" d="m91.75,66.22c-.19.26-.37.53-.56.79-.19-.27-.38-.54-.56-.81.37-.07.75-.15,1.12-.22v.24Z"/>
  <path class="cls-15" d="m85.44,76.98c.02-.36.04-.72.07-1.09.18-.04.36-.1.54-.18.2,0,.41.02.61.02,0,0-.06.2-.06.2-.38.35-.77.69-1.15,1.04Z"/>
  <path class="cls-7" d="m116.36,217.15c.05-.37.09-.74.14-1.11.28.17.57.34.85.5-.33.2-.66.4-.99.6Z"/>
  <path class="cls-7" d="m116.45,212.01c-.38-.2-.76-.4-1.13-.6.38.2.76.4,1.13.6Z"/>
  <path class="cls-25" d="m91.75,65.98c-.37.07-.75.15-1.12.22-.18-.07-.35-.14-.53-.22,0-.14-.02-.27-.03-.41.56.14,1.12.27,1.69.41Z"/>
  <path class="cls-15" d="m88.37,75.95c-.02.54-.04,1.08-.07,1.62-.18-.54-.36-1.09-.54-1.63.2,0,.41.01.61.02Z"/>
  <path class="cls-7" d="m115.89,217.78c.33.15.65.29.98.44-.08.12-.17.24-.25.36-.25-.26-.49-.53-.74-.79,0,0,0,0,0,0Z"/>
  <path class="cls-15" d="m53.33,77.66c-.59.15-1.18.29-1.77.44.59-.15,1.18-.29,1.77-.44Z"/>
  <path class="cls-7" d="m86.65,75.74c-.2,0-.41-.02-.61-.02.1-.22.21-.44.31-.66.1.23.2.46.3.68Z"/>
  <path class="cls-9" d="m117.5,103.41c-.15-.4-.3-.8-.44-1.19.15.4.3.8.44,1.19Z"/>
  <path class="cls-7" d="m110.13,187.33c-.15-.19-.3-.38-.46-.57.15.19.3.38.46.57Z"/>
  <path class="cls-7" d="m112.43,201.09c-.15-.18-.3-.36-.45-.54.15.18.3.36.45.54Z"/>
  <path class="cls-7" d="m112.56,201.67c-.06-.18-.1-.37-.1-.56.09.12.2.24.26.37.01.03-.1.12-.16.19Z"/>
  <path class="cls-7" d="m113.57,208.57c-.15-.18-.3-.37-.44-.55.15.18.3.37.44.55Z"/>
  <path class="cls-7" d="m113.47,172.92c.22-.16.45-.33.67-.49-.22.16-.45.33-.67.49Z"/>
  <path class="cls-7" d="m117.06,170.07c.17-.2.35-.39.52-.59-.17.2-.35.39-.52.59Z"/>
  <path class="cls-20" d="m61.28,75.81c.04-.18.07-.37.09-.56.2.03.41.07.61.1-.02.17-.06.34-.12.5-.2-.01-.39-.03-.58-.04Z"/>
  <path class="cls-7" d="m28.1,111.53c.19-.03.37-.01.55.04,0,.18.04.35.13.51,0,0-.23-.08-.23-.08-.15-.16-.3-.31-.45-.47Z"/>
  <path class="cls-15" d="m106.16,83.86c-.2-.2-.4-.4-.6-.6.2.2.4.4.6.6Z"/>
  <path class="cls-22" d="m81.44,179.25c2.98,1.38,5.44-.82,8.14-1.31,2.57-.46,4.84-.65,6.82,1.35-2.43.79-4.85,1.58-7.21,2.35,2.76,1.77,5.34,4.34,6.86,8.45-3.86-.84-5.56-5.24-9.58-4.34,2.79,6.15,5.53,12.23,8.28,18.3l-.68.49c-1.25-1.44-2.51-2.87-3.76-4.31l-.69.37c1.52,3.35,2.92,6.77,4.67,9.99.29.53,2.09.23,3.19.32l.09-.08c.76.22,1.53.43,2.29.65-1.49.31-3.18,1.22-4.43.81-2.19-.73-3.97-.53-5.82.6-1.56.08-3.11.16-4.67.25-1.08-5.77-2.12-11.55-3.28-17.31-.52-2.61-1.14-5.22-2-7.74-.44-1.3-1.49-2.4-2.27-3.59-.38,1.02-.87,2.01-1.13,3.06-2.12,8.54-4.19,17.08-6.28,25.62-1.55.05-3.1.1-4.65.15-1.93-.42-3.86-.85-5.78-1.27,4.69-.09,4.64-.12,6.54-4.68.84-2.01,1.95-3.9,2.87-5.88.25-.53.24-1.19-.27-2.2-2.22,2.33-4.43,4.66-6.65,6.99-.26-.18-.52-.35-.78-.53,1.59-2.92,3.07-5.91,4.8-8.74,1.97-3.23,4.09-6.36,6.27-9.45,1.41-2,1.29-3.14-1.51-3.25,1.21-1.97.62-2.77-1.43-2.73-2.27.04-4.54,0-6.56,0,.34-.21,1.07-.65,2.5-1.52-3.63-1.18-6.68-2.17-9.74-3.17.03-.15.03-.3.02-.44,2.12.03,4.24.06,6.36.09.37.15.75.3,1.12.45,0,0,0,0,0,0,1.14.39,2.27.78,3.41,1.16l.03.02c1.84,2.5,4.4,1.93,6.9,1.65.57-.07,1.14-.13,1.7-.2l2.83.12c.41-.13.81-.25,1.22-.38.75-.04,1.5-.08,2.25-.11Z"/>
  <path class="cls-24" d="m65.32,213.32c1.55-.05,3.1-.1,4.65-.15,1.09,1.27,1.82,5.89.77,6.52-.96.58-2.4.36-3.63.49-.38.16-.75.33-1.13.5-1.55-.54-3.99,1.24-4.61-1.76,1.17-.76,2.33-1.52,3.95-2.57v-3.03Z"/>
  <path class="cls-24" d="m84.94,213.13c1.56-.08,3.11-.16,4.67-.25.57,1.94,1.14,3.87,1.71,5.81-.42.64-.84,1.28-1.26,1.92-1.49.04-3.09.43-4.45.03-2.03-.6-1.28-2.26-.89-3.78.3-1.19.17-2.49.23-3.73Z"/>
  <path class="cls-24" d="m55.1,220.68c-1.72-.22-3.45-.43-5.17-.65,1.12-1.64,2.15-2.7,4.54-1.61,1.62.74,3.76.33,5.67.43.03.23.07.46.1.69-1.71.38-3.42.76-5.13,1.14Z"/>
  <path class="cls-10" d="m90.05,220.62c.42-.64.84-1.28,1.26-1.92,1.7.23,3.4.47,5.1.7-1.16.39-2.32.77-3.48,1.16-.96.02-1.92.04-2.88.06Z"/>
  <path class="cls-24" d="m92.94,220.55c1.16-.39,2.32-.77,3.48-1.16,0,0-.03.07-.03.07,0,.24,0,.48,0,.72-1.15.12-2.3.24-3.46.36Z"/>
  <path class="cls-27" d="m96.39,220.19c0-.24,0-.48,0-.72,1.71.03,3.42.07,5.13.1-1.54.2-3.08.4-4.62.6,0,0-.25-.04-.25-.04,0,0-.25.06-.25.06Z"/>
  <path class="cls-7" d="m65.98,220.68c.38-.17.75-.33,1.13-.5-.38.17-.75.33-1.13.5Z"/>
  <path class="cls-10" d="m60.23,219.54c-.03-.23-.07-.46-.1-.69.11-.3.21-.61.45-1.29.18.74.26,1.07.34,1.4-.23.19-.46.38-.69.58Z"/>
  <path class="cls-7" d="m44.2,250.53c.18-.19.36-.37.55-.56-.18.19-.36.37-.55.56Z"/>
  <path class="cls-7" d="m43.66,251.09c.17-.18.34-.36.51-.54-.17.18-.34.36-.51.54Z"/>
  <path class="cls-25" d="m55.6,176.45c.01.15,0,.3-.02.44-2.28,0-4.56,0-6.84,0,0-.14,0-.29,0-.43,2.29,0,4.58-.01,6.87-.02Z"/>
  <path class="cls-4" d="m69.97,66.08c-.19,0-.39-.01-.58-.02-1.51-2.04-3.01-4.09-4.52-6.13.17-.88.34-1.76.52-2.74-.19-.21-.57-.61-.95-1.02,0-.13-.03-.25-.06-.37-.05-.21-.09-.42-.14-.63.19-.86.41-1.71.57-2.57.12-.65-.08-1.69.27-1.9,2.96-1.82,3-5.22,4.49-7.81.64-1.11,1.84-1.91,2.87-2.93.54,2.45.97,4.43,1.55,7.05,1.47-3.32.35-6.8,3.97-8.82,2.3,3.08,4.58,6.12,7.03,9.41.27-1.31.52-2.58.9-4.42,1.56,2.5,3.34,4.45,4.04,6.73.78,2.55.57,5.4.79,8.12-.46.47-1.12.86-1.35,1.43-1.33,3.3-3.13,6.13-6.6,7.54-.13.05-.1.52-.14.79-4.17,1.78-8.09,1.84-11.55-1.6-.2-.2-.73-.08-1.11-.11Zm14.89-4.54c-.16-.05-.31-.07-.48-.08-.58.17-1.16.33-1.75.5-.21,0-.42-.01-.63-.02-.27-.34-.51-.94-.82-.98-3.79-.52-7.59-.95-12.35-1.52,1.33,2,2.25,3.68,3.45,5.13,2.16,2.6,7.2,2.71,9.19.33.19,0,.39,0,.58,0,.34-.34.68-.67,1.03-1.01.4-.06.81-.12,1.21-.18.37-.39.74-.78,1.1-1.17.22-.43.43-.85.65-1.28-.4.09-.79.18-1.19.27Zm-2.21-2.89l1.78.5c.32-.34.59-.75.96-1.01,1.45-1.01,3.18-2.27,2.15-4.05-.6-1.04-2.66-1.25-4.07-1.8-.25-.1-.56,0-.85,0-.32-.42-.63-.84-1.07-1.42-.05.59-.08,1.04-.12,1.48-3.85.54-1.96,4.02-3.57,6.55,1.97-.12,3.37-.21,4.77-.3v.04Zm-12.2-1.24c2.72-.34,3.46-1.75,3.49-3.31.04-1.73-.84-3.4-2.88-2.87-1.23.32-3.15,1.73-3.07,2.47.14,1.31,1.57,2.48,2.46,3.71Z"/>
  <path class="cls-21" d="m90.72,58.03c-.22-2.72-.01-5.57-.79-8.12-.7-2.28-2.48-4.23-4.04-6.73-.38,1.84-.63,3.11-.9,4.42-2.45-3.28-4.73-6.33-7.03-9.41-3.62,2.02-2.5,5.49-3.97,8.82-.58-2.62-1.01-4.6-1.55-7.05-1.03,1.03-2.23,1.82-2.87,2.93-1.49,2.6-1.53,6-4.49,7.81-.35.21-.15,1.26-.27,1.9-.16.86-.38,1.71-.57,2.57,0,0,.06-.06.06-.06-.41-.19-.83-.38-1.24-.58-.54-.02-1.07-.04-1.61-.05-1.31.13-2.21-.24-1.71-1.77.44-1.33,1.03-2.61,1.6-4-1.08-.16-2.13-.31-2.8-.4,1.2-1.48,2.39-2.96,3.58-4.43-.28-.25-.73-.66-1.26-1.15,5.55-2.48,9.21-7.9,16.09-7.86,6.37.04,11.39,3.6,17.25,5.13-.67.42-1.36.86-2.61,1.65,1.47,1.48,2.83,2.86,4.23,4.26-3.27,2.86,1.06,4.7,1.39,7.21-.97.35-1.98.71-2.95,1.05.32,1.07.6,1.96.87,2.87-1.39.33-2.73.65-4.07.96,0,0-.17-.03-.17-.03l-.17.05Z"/>
  <path class="cls-15" d="m70,32.12h-3.94c5.61-3.44,11.33-3.28,17.15-2.34.76.21,1.52.43,2.28.64,0,0-.01-.01-.01-.01.39.2.78.39,1.18.59,0,0-.03-.02-.03-.02.27,2.44-1.7.59-2.36,1.24-1.69-.19-3.38-.38-5.07-.56-1.53,0-3.07,0-4.6,0-.35-.01-.7-.03-1.06-.04-1.18.17-2.36.34-3.54.5Z"/>
  <path class="cls-27" d="m61.45,54.49c.54.02,1.07.04,1.61.05.02.21.04.41.06.62-.39.38-.79.75-1.18,1.13.02.77.05,1.54.07,2.32-.19-1.37-.38-2.75-.57-4.12Z"/>
  <path class="cls-14" d="m74.6,31.65c1.53,0,3.07,0,4.6,0-.78.18-1.56.35-2.33.53-.76-.17-1.51-.35-2.27-.52Z"/>
  <path class="cls-18" d="m62.02,58.61c-.02-.77-.05-1.54-.07-2.32.35.77.69,1.54,1.04,2.32-.32,0-.65,0-.97,0Z"/>
  <path class="cls-29" d="m70,32.12c1.18-.17,2.36-.34,3.54-.5-.59.34-1.17.68-1.76,1.02-.59-.17-1.19-.35-1.78-.52Z"/>
  <path class="cls-14" d="m63.12,55.17c-.02-.21-.04-.41-.06-.62.41.19.83.38,1.24.58-.39.02-.78.03-1.18.05Z"/>
  <path class="cls-25" d="m91.24,64.81c-.08-.03-.15-.05-.23-.08.09-.08.17-.17.26-.22.02-.01.11.1.17.16-.07.05-.14.09-.21.14Z"/>
  <path class="cls-14" d="m64.38,55.8c.04.12.06.25.06.37-.13-.04-.26-.09-.39-.13.11-.08.21-.16.32-.24Z"/>
  <path class="cls-22" d="m103.8,211.94c-1.33-.14-2.66-.29-4-.43,1.44-.85,2.85-1.39,4,.43Z"/>
  <path class="cls-22" d="m96.92,209.75c-.16-.4-.32-.81-.48-1.21.13-.04.27-.07.4-.11.04.43.08.85.13,1.28,0,0-.05.04-.05.04Z"/>
  <path class="cls-22" d="m97.48,210.91c-.19-.39-.37-.77-.56-1.16,0,0,.05-.04.05-.04.2.37.4.75.6,1.12,0,0-.09.08-.09.08Z"/>
  <path class="cls-1" d="m57.35,156.9c-2.3-.2-4.6-.41-6.9-.61.49-.42.96-.85,1.46-1.25,7.63-5.93,8.5-19.63-1.43-23.55-.28-.56-.9-1.21-.79-1.68.54-2.32,1.28-4.59,1.94-6.88l1.13.17c1.87.15,3.75.46,5.61.4,1.87-.06,2.61.57,2.45,2.46-.39,4.53-.79,9.07-1.03,13.61-.15,2.96-.03,5.94-.03,8.92.21.02.43.03.64.05.23-.66.45-1.31.72-2.09.25,2.06.48,3.92.71,5.78-.14.21-.28.42-.42.63-.64-1.02-1.28-2.05-1.8-2.87-.73,2.22-1.5,4.56-2.28,6.9Z"/>
  <path class="cls-13" d="m44.19,152.72c-.22-.17-.44-.34-.66-.51,2.65-2.14,4.07-4.62,2.49-8.1-.06-.14,1.26-1.09,2.03-1.33.38-.12,1,.52,2.16,1.19-.37-1.71-.59-2.74-.81-3.78-.38-.97-.77-1.94-1.15-2.92-1.66-2.13-3.53-2.13-5.45-.42-.95.84-1.74,1.87-2.6,2.81-.38-1.16-.76-2.32-1.15-3.49.94-.41,1.88-.81,2.82-1.22.57-.39,1.14-.77,1.72-1.16,2.02.4,4.04.74,6.05,1.2,2.68.61,4.31,2.73,4.29,5.48-.01,1.81-.03,3.62-.05,5.43-.83-.26-1.67-.51-2.06-.63-1.46,2.56-2.86,5.02-4.26,7.49,0,0-.02.02-.02.02-.16-.05-.32-.03-.48.05-.96-.03-1.91-.07-2.87-.1Z"/>
  <path class="cls-25" d="m53.87,145.91c.02-1.81.04-3.62.05-5.43.02-2.75-1.61-4.87-4.29-5.48-2-.45-4.03-.8-6.04-1.2,2.3-.77,4.6-1.53,6.89-2.3,9.93,3.92,9.06,17.62,1.43,23.55-.51.39-.98.83-1.46,1.25-.19-.03-.38-.07-.57-.1.38-1.59.76-3.18,1.14-4.78.06-.17.17-.27.35-.31.27-.28.55-.56.82-.84.56-1.45,1.12-2.91,1.68-4.36Z"/>
  <path class="cls-26" d="m61.42,152.86c.14-.21.28-.42.42-.63.4-2.67.81-5.35,1.21-8.02.59,0,1.18,0,1.76.01,0,.38,0,.77-.01,1.15,0,.57-.02,1.14-.02,1.71.2,3.28.4,6.56.6,9.84-.62-.17-1.24-.35-1.96-.55-1.13,2.66.11,3.67,2.5,3.95,1.53.99,3.06,1.99,4.59,2.98,0,.15.01.3.06.45.18.17.37.34.55.51,1.36.28,3.07.25,2.25,2.5-2.91-1.04-5.81-2.09-8.72-3.11-.71-.25-1.46-.42-2.19-.62-.17,0-.34.02-.5.05-.38.02-.76.04-1.14.06,0-.2-.01-.4-.02-.6-.16-.75-.32-1.5-.47-2.24.37-2.48.73-4.97,1.1-7.45Z"/>
  <path class="cls-7" d="m41.87,134.96c-.94.41-1.88.81-2.82,1.22-.62-4.04-1.23-8.07-1.85-12.11.61-.59,1.23-1.18,1.84-1.76,1.14,0,2.27,0,3.41,0,1.15.09,2.31.19,3.46.28.22.33.44.66.66.98,0,.76,0,1.52,0,2.27-.98,1.14-1.77,2.63-3,3.36-2.52,1.49-2.55,3.42-1.71,5.76Z"/>
  <path class="cls-25" d="m49.4,140.19c.22,1.03.44,2.07.81,3.78-1.16-.67-1.78-1.31-2.16-1.19-.78.24-2.1,1.2-2.03,1.33,1.58,3.49.16,5.97-2.49,8.1-.16-.73-.31-1.45-.47-2.18,2.19-.27,1.54-1.97,1.71-3.31.23-1.78-.88-2.3-2.26-2.66-.21-.19-.43-.39-.64-.58.78-.73,1.55-1.45,2.33-2.18,1.42-.57,2.84-1.14,4.26-1.71.31.2.63.39.94.59Z"/>
  <path class="cls-14" d="m58,171.83c-1.56,1.52-3.1.75-4.64-.04-.19-.39-.39-.77-.58-1.16,0,0,.02.03.02.03-.2-.39-.39-.78-.59-1.18,0,0,.01.01.01.01-.2-.53-.39-1.06-.59-1.59.35-.68.7-1.36,1.06-2.04.53.29,1.27.44,1.55.89,1.1,1.79,2.34,1.04,3.63.37.04.22.08.43.12.65,0,.38-.01.76-.02,1.14.01.97.03,1.94.04,2.92Z"/>
  <path class="cls-28" d="m44.2,141.31c-.78.73-1.55,1.45-2.33,2.18-3.26-.09-.86-2.66-1.68-3.83.86-.94,1.65-1.97,2.6-2.81,1.91-1.7,3.79-1.71,5.45.42,0,0-.04.03-.04.03-3.66.08-4.07.48-4.01,4.01Z"/>
  <path class="cls-5" d="m61.42,152.86c-.37,2.48-.73,4.97-1.1,7.45-.99-1.14-1.98-2.27-2.97-3.41.77-2.34,1.54-4.68,2.28-6.9.51.82,1.15,1.84,1.8,2.87Z"/>
  <path class="cls-28" d="m51.02,151.42c-.38,1.59-.76,3.18-1.14,4.78-4.12.23-5.36-.53-5.69-3.47.96.03,1.91.07,2.87.1.09.13.19.26.28.4.06-.15.13-.29.19-.44,0,0,.02-.02.02-.02,1.16-.45,2.31-.9,3.47-1.35Z"/>
  <path class="cls-29" d="m60.79,162.55c0,.2.01.4.02.6-.19.38-.39.76-.58,1.15-1.34-.38-2.69-.76-4.03-1.15-.04-.38-.08-.76-.12-1.14-.12.03-.24.06-.36.08.15.36.31.71.46,1.07-.04.19-.08.37-.12.56-.16,0-.29.05-.41.16-1.08-1.27-2.16-2.55-3.34-3.93,1.98-1.3,3.72-.49,5.51,1.14.78.71,1.97.99,2.97,1.46Z"/>
  <path class="cls-17" d="m60.23,164.3c.19-.38.39-.76.58-1.15.38-.02.76-.04,1.14-.06-.3,1.71-.51,3.44-.95,5.11-.23.88-.88,1.64-1.34,2.45-.37-.19-.74-.39-1.11-.58-.03-.37-.05-.74-.08-1.11-.16-.4-.33-.79-.49-1.19-.04-.22-.08-.43-.12-.65,0-.34.02-.68.03-1.02.59-.19,1.18-.38,1.78-.57.19-.41.38-.82.57-1.23Z"/>
  <path class="cls-13" d="m42.51,144.07c1.37.36,2.49.88,2.26,2.66-.17,1.33.48,3.04-1.71,3.31-.18-1.99-.36-3.98-.55-5.97Z"/>
  <path class="cls-29" d="m51.63,167.91c.2.53.39,1.06.59,1.59-.97-.17-1.94-.34-2.91-.51-.17-.05-.34-.08-.52-.07-.37-1.02-.74-2.05-1.11-3.07.14-.2.28-.41.42-.61,1.17.89,2.35,1.77,3.52,2.66Z"/>
  <path class="cls-15" d="m59.66,165.53c-.59.19-1.18.38-1.78.57-.57-.39-1.14-.77-1.72-1.16,0,0,.07-.05.07-.05,1.14.21,2.28.43,3.42.64Z"/>
  <path class="cls-15" d="m55.65,163.88c.12-.1.25-.16.41-.16.06.39.12.78.19,1.17,0,0-.07.05-.07.05-.17-.35-.35-.71-.52-1.06Z"/>
  <path class="cls-1" d="m106.73,159.64c-.18.08-.36.12-.55.12-2.33.35-4.67.69-7,1.04-1.69.26-2.66-.15-2.84-2.15-.46-5.23-1.15-10.44-1.7-15.67-.33-3.08-.57-6.17-.85-9.3-.63.14-1.2.27-2.4.55.55-3.46,1.03-6.5,1.51-9.54.2.95.4,1.91.6,2.86.08.04.17.11.25.12.07,0,.22-.08.21-.11-.12-1.33-.25-2.66-.38-3.99-.05-.37-.1-.75-.14-1.12.22-.02.43-.04.65-.05.2.05.4.1.6.15.2.13.4.27.61.41,1.67-.01,3.34-.02,5.01-.03,1.08.06,2.17.13,3.02.18.09,1.71-.06,3.15.31,4.44.39,1.39,1.26,2.65,1.92,3.96-.77.21-1.54.42-2.31.63-.98.52-2.14.84-2.91,1.58-4.16,4.04-4.55,8.96-2.94,14.21,1.01,3.28,2.4,6.35,5.84,7.86.78.43,1.56.86,2.33,1.29.39.86.78,1.72,1.17,2.58Z"/>
  <path class="cls-5" d="m92.88,124.68c-.48,3.04-.96,6.08-1.51,9.54,1.2-.27,1.77-.4,2.4-.55.29,3.13.53,6.22.85,9.3.55,5.22,1.24,10.43,1.7,15.67.18,2,1.15,2.41,2.84,2.15,2.33-.35,4.67-.7,7-1.04-.56,1.52-1.12,3.05-1.68,4.57-.81.19-1.62.39-2.44.58-.56.2-1.13.4-1.69.6-2.47-.22-4.94-.43-7.41-.65l.02.04c-.2-.78-.41-1.55-.61-2.33-.18-3.06-.36-6.11-.54-9.17-.2-6-.39-12-.62-18-.02-.52-.35-1.02-.54-1.54-.04-.17-.09-.33-.14-.49-.16-1.15-.33-2.31-.49-3.46.21-2.46.46-4.92.61-7.39.12-1.95.64-3.57,2.76-4.17.23,1.34.45,2.68.68,4.03-.22.02-.43.04-.65.05-.18.75-.36,1.49-.54,2.24Zm-.37,16.1c.09,0,.18,0,.27,0v-2.88c-.09,0-.18,0-.27,0v2.88Z"/>
  <path class="cls-13" d="m113.59,136.74c1.87,4.93,2.69,9.89.59,14.97-.24.36-.49.73-.73,1.09-.69.23-1.38.47-2.07.7-1.54-.09-3.07-.17-4.6-.26-.98-1.78-2.42-3.47-2.82-5.38-.58-2.76-1.84-2.62-3.75-1.68-.62-3.72-1.46-7.64,2.15-10.3,1.51-1.11,3.69-1.33,5.56-1.95.55-.04,1.09-.08,1.64-.12.2.02.4.04.6.07,1.15.95,2.29,1.91,3.44,2.86Zm.45,9.65c.01-.88.02-1.76.03-2.64-.1-.41-.2-.81-.3-1.22-.45-.77-.91-1.54-1.36-2.3-.71-.97-1.41-1.94-2.12-2.91-1.48-1.86-3.15-1.67-4.34.07-.72,1.05-.72,2.6-1.05,3.93-1.19,2.94-.63,5.55,1.5,7.86.17.17.35.34.52.51.96,1.53,2.29,3,4.03,1.67,1.27-.97,1.88-2.82,2.78-4.28.11-.23.21-.46.32-.69Z"/>
  <path class="cls-9" d="m113.59,136.74c-1.15-.95-2.29-1.91-3.44-2.86-.56-.94-1.12-1.89-1.68-2.83,1.03-2.06-.75-2.89-1.78-4.04-.18-.58-.35-1.16-.53-1.74.11-.58.22-1.16.32-1.75,1.59-.56,3.18-1.13,4.77-1.69.59.96,1.18,1.92,1.77,2.87-1.4.05-3.12-.09-2.75,2.05.21,1.23.57,2.99,2.68,2.02,0,0,.17-.09.17-.09.16,2.69.32,5.37.48,8.06Z"/>
  <path class="cls-15" d="m111.38,153.51c.69-.23,1.38-.47,2.07-.7.26,1.2.51,2.4.76,3.6-1.66,3.03-4.42,3.5-7.49,3.24-.39-.86-.78-1.72-1.17-2.58.69-.24,1.39-.72,2.05-.67,2.19.17,3.22-1,3.77-2.88Z"/>
  <path class="cls-26" d="m102.06,164.92c.81-.19,1.62-.39,2.44-.58.4.74.8,1.49,1.2,2.23-.07.99-.13,1.97-.2,2.96-2.49.97-4.98,1.94-7.33,2.86,1.33-2.55,2.61-5.01,3.89-7.47Z"/>
  <path class="cls-29" d="m111.21,167.71c-.8.89-1.6,1.79-2.4,2.68-.2-.08-.4-.15-.59-.23.83-1.75,1.66-3.5,2.5-5.25.65-.23,1.3-.47,2.45-.88-.84,1.59-1.4,2.64-1.96,3.68Z"/>
  <path class="cls-9" d="m114.22,156.4c-.25-1.2-.51-2.4-.76-3.6.24-.36.49-.73.73-1.09,1.99,1.55,1.15,3.12.03,4.68Z"/>
  <path class="cls-16" d="m75.72,95.3c.38-.16.77-.32,1.15-.48.38-.17.77-.34,1.15-.51l.57.03c.95,0,1.9.01,2.85.02.19.14.38.28.58.43,1.34.21,2.67.42,4.01.63,0,0,0-.01,0-.01.77.57,1.54,1.15,2.31,1.72,0,0,0,0,0,0,.38.6.76,1.19,1.13,1.79.37.55.74,1.11,1.11,1.66.05.56.11,1.12.16,1.68,0,.2-.02.4-.02.6,0,1.15.01,2.3.02,3.46-.03.21-.05.42-.08.62-.55-.15-1.19-.17-1.63-.47-1.23-.85-2.25-2.13-3.58-2.67-2.6-1.05-5.35-1.71-8.05-2.53-1.31,0-2.62-.01-3.93-.02-.22.12-.43.24-.65.36-.75,0-1.5,0-2.24,0-.02-.35-.04-.7-.06-1.05.04-.18.07-.36.08-.55.18-.39.37-.77.55-1.15,0,0,0,0,0,0,.15-.19.31-.38.46-.57.81-.77,1.62-1.53,2.42-2.3.19-.2.38-.4.57-.6,0,0-.04.04-.04.04.39-.04.77-.08,1.16-.12Z"/>
  <path class="cls-17" d="m70.51,100.55c.02.35.04.7.06,1.05-.41.6-.81,1.21-1.22,1.81-1.48.22-3,.31-4.44.7-.72.2-1.53.81-1.85,1.46-.18.37.41,1.43.92,1.76,1.94,1.25,4,2.32,6.01,3.46-1.39,3.5-2.78,7.01-4.17,10.51-.11-.01-.23-.02-.34-.02-.23-.01-.46-.03-.7-.04-.19,0-.37,0-.56,0-.93-.96-1.85-1.92-2.78-2.88-.2-.75-.41-1.5-.61-2.25h-.06c-.57-3.13-1.15-6.25-1.69-9.38-.22-1.28-.35-2.58-.52-3.86-.03-.97-.06-1.94-.09-2.91,0,0,.28,0,.28,0,0,0,.28,0,.28,0,.6,1.68,1.2,3.35,1.71,4.78,3.52-1.51,6.64-2.85,9.77-4.19Z"/>
  <path class="cls-26" d="m72.82,101.6c.22-.12.43-.24.65-.36,1.31,0,2.62.01,3.93.02,2.69.82,5.45,1.48,8.05,2.53,1.33.54,2.35,1.82,3.58,2.67.44.31,1.08.32,1.63.47,0,.18.01.36.05.53-.2.75-.4,1.5-.61,2.26-.51-.19-1.02-.38-1.53-.59-3.33-1.36-6.65-2.73-9.98-4.1-1.1-.53-2.24-.99-3.29-1.61-.88-.52-1.65-1.21-2.47-1.83Z"/>
  <path class="cls-17" d="m64.29,82.06c1.32,1.57,2.64,3.14,3.96,4.71.1.08.19.16.29.24-.09-.09-.17-.18-.26-.27-.8-1.93-1.61-3.87-2.41-5.8.42.03.84.05,1.26.08,0,0-.03-.02-.03-.02.39.2.79.4,1.18.6,0,0-.03-.02-.03-.02.39.39.78.79,1.17,1.18l-.02-.03c.59.55,1.18,1.09,1.76,1.64-.51.39-1.02.78-2.01,1.53.96.59,1.87.93,2.47,1.56.73.77,1.34,1.74,1.7,2.73.14.37-.71,1.55-.85,1.51-.92-.28-1.92-.62-2.62-1.26-1.6-1.45-3.2-2.95-4.47-4.68-.71-.98-.75-2.45-1.09-3.7Z"/>
  <path class="cls-29" d="m95.79,106.31c.17,2.1.35,4.2.52,6.3-.37,1.13-.74,2.26-1.11,3.38-.38-.16-.75-.32-1.13-.48-.23-1.14-.46-2.28-.7-3.42.22-.78.43-1.57.65-2.35-.01-.78-.02-1.56-.03-2.33.22-1.54.45-3.08.67-4.61.38,1.17.75,2.34,1.13,3.51Z"/>
  <path class="cls-20" d="m61.79,77.57c.1.55.2,1.09.3,1.64-.4,1.93-.8,3.87-1.2,5.8-.03.19-.06.38-.09.58,0,.2,0,.4,0,.59,0,0,0,0,0,0,0,.19,0,.38-.02.57-.16.4-.31.79-.47,1.19-.22,1.52-.45,3.05-.67,4.58,0,.36-.02.73-.03,1.09-.18.02-.37.03-.55.04.28-3.61.41-7.23.92-10.81.26-1.81,1.19-3.52,1.82-5.28Z"/>
  <path class="cls-15" d="m94.66,102.8c-.22,1.54-.45,3.08-.67,4.61-.16-.43-.43-.85-.47-1.29-.41-4.78-.8-9.56-1.13-14.35-.05-.69.3-1.41.47-2.12.24.95.47,1.9.71,2.86-.03.19-.04.38,0,.57.39,2.1.78,4.19,1.17,6.29,0,.39,0,.78,0,1.18-.03.75-.05,1.5-.08,2.25Z"/>
  <path class="cls-15" d="m81.44,94.35c-.95,0-1.9-.01-2.85-.02-.19-.05-.38-.06-.57-.03-.38.17-.77.34-1.15.51-1.13-1.88.44-2.72,1.58-2.65,2.14.14,4.27.83,6.34,1.51.54.18.83,1.14,1.24,1.74-1.34-.21-2.67-.42-4.01-.63-.19-.14-.38-.28-.58-.43Z"/>
  <path class="cls-15" d="m87.7,81.59c-.14,1.38-.27,2.76-.41,4.14-.58-.08-1.17-.11-1.75-.24-.76-.17-1.5-.4-2.25-.61.42-.75.66-1.77,1.3-2.2.88-.6,2.06-.75,3.1-1.09Z"/>
  <path class="cls-15" d="m90.22,79.28c.7,2.11,1.41,4.22,2.11,6.34-1.1.38-2.2.77-3.31,1.15.4-2.5.8-4.99,1.19-7.49Z"/>
  <path class="cls-17" d="m60.89,85.02c.4-1.93.8-3.87,1.2-5.8.71.79,1.41,1.59,2.12,2.38-1.38-.13-2.37.12-2.33,1.88.01.51-.64,1.03-.99,1.54Z"/>
  <path class="cls-15" d="m94.02,109.75c-.22.78-.43,1.57-.65,2.35-1.09-.79-2.19-1.58-3.28-2.37.2-.75.4-1.5.61-2.26,1.11.76,2.22,1.52,3.32,2.28Z"/>
  <path class="cls-9" d="m71.16,84.37c-.59-.55-1.18-1.09-1.76-1.64.56.04,1.12.09,1.69.13.38.18.76.37,1.14.55.78.36,1.57.72,2.35,1.08.36.03.72.06,1.08.09.41.16.81.32,1.22.48.16.17.32.34.47.51-.35.02-.7.03-1.05.05-.57-.01-1.14-.02-1.71-.03-.75-.22-1.5-.44-2.25-.65-.39-.19-.77-.37-1.16-.56Z"/>
  <path class="cls-15" d="m70.59,79.21c2.1.77,4.21,1.55,6.31,2.32-2.31.87-4.94-.1-6.31-2.32Z"/>
  <path class="cls-20" d="m59.04,99.96h-.28s-.28,0-.28,0c-.56-1.98-1.54-4,.55-5.73.04,1.52.08,3.05.13,4.57-.04.38-.08.77-.12,1.15Z"/>
  <path class="cls-17" d="m59.63,92.52c.22-1.53.45-3.05.67-4.58.45,1.63,1.53,3.34-.67,4.58Z"/>
  <path class="cls-15" d="m90.72,106.31c0-1.15-.01-2.3-.02-3.46.55.7,1.22,1.35,1.54,2.14.08.2-.98.86-1.52,1.31Z"/>
  <path class="cls-17" d="m59.15,98.8c-.04-1.52-.08-3.05-.13-4.57.04-.19.05-.38.03-.57.18-.01.37-.03.55-.04,1.1,1.84.9,3.56-.45,5.19Z"/>
  <path class="cls-15" d="m77.99,81.54c1.35-.34,2.69-.69,4.04-1.03-.85,2.28-2.16,2.8-4.04,1.03Z"/>
  <path class="cls-17" d="m76.29,85.62c.35-.02.7-.03,1.05-.05.88.05,1.76.11,2.63.16l-.09.84c-1.24-.01-2.62,1.14-3.6-.95Z"/>
  <path class="cls-17" d="m72.32,84.93c.75.22,1.5.44,2.25.65-.4.35-.81.71-1.21,1.06-.35-.57-.69-1.14-1.04-1.72Z"/>
  <path class="cls-15" d="m83.42,79.75c.68-.93,1.35-1.86,2.03-2.78.02,1.44.19,2.99-2.03,2.78Z"/>
  <path class="cls-9" d="m67.13,81.03c-.42-.03-.84-.05-1.26-.08-.14-.57-.28-1.14-.42-1.7.56.59,1.12,1.19,1.68,1.78Z"/>
  <path class="cls-15" d="m88.33,97.12c-.77-.57-1.54-1.15-2.31-1.72,1.25-.07,2.5-.15,2.31,1.72Z"/>
  <path class="cls-15" d="m87.17,87.34c-.35.78-.71,1.55-1.06,2.33.35-.78.71-1.55,1.06-2.33Z"/>
  <path class="cls-15" d="m74.58,84.49c-.78-.36-1.57-.72-2.35-1.08.78.36,1.57.72,2.35,1.08Z"/>
  <path class="cls-15" d="m71.08,82.86c-.56-.04-1.12-.09-1.69-.13,0,0,.02.03.02.03-.03-.38-.07-.75-.1-1.13.59.41,1.18.82,1.76,1.23Z"/>
  <path class="cls-15" d="m89.45,98.91c-.38-.6-.76-1.19-1.13-1.79.38.6.76,1.19,1.13,1.79Z"/>
  <path class="cls-15" d="m76.87,85.06c-.41-.16-.81-.32-1.22-.48.41.16.81.32,1.22.48Z"/>
  <path class="cls-17" d="m71.15,98.85c-.18.38-.37.77-.55,1.15.19-.38.37-.77.55-1.15Z"/>
  <path class="cls-9" d="m69.32,81.63c.03.38.07.75.1,1.13-.39-.39-.78-.79-1.17-1.18.36.02.72.04,1.07.05Z"/>
  <path class="cls-15" d="m90.73,102.25c-.05-.56-.11-1.12-.16-1.68.05.56.11,1.12.16,1.68Z"/>
  <path class="cls-9" d="m68.28,81.6c-.39-.2-.79-.4-1.18-.6.39.2.79.4,1.18.6Z"/>
  <path class="cls-26" d="m75.72,95.3c-.39.04-.77.08-1.16.12.39-.04.77-.08,1.16-.12Z"/>
  <path class="cls-15" d="m82.57,80.39c.2-.19.4-.39.6-.58-.2.19-.4.39-.6.58Z"/>
  <path class="cls-26" d="m74.6,95.38c-.19.2-.38.4-.57.6.19-.2.38-.4.57-.6Z"/>
  <path class="cls-17" d="m60.78,86.76c.02-.19.03-.38.02-.57,0,.19-.02.38-.02.57Z"/>
  <path class="cls-15" d="m88.4,88.47c.16-.21.33-.42.49-.63-.16.21-.33.42-.49.63Z"/>
  <path class="cls-17" d="m60.8,86.19c0-.2,0-.4,0-.59,0,.2,0,.4,0,.59Z"/>
  <path class="cls-15" d="m87.21,90.21c.18-.21.36-.42.54-.63-.18.21-.36.42-.54.63Z"/>
  <path class="cls-15" d="m88.24,80.46c-.16.19-.31.39-.47.58.16-.19.31-.39.47-.58Z"/>
  <path class="cls-17" d="m71.61,98.28c-.15.19-.31.38-.46.57.15-.19.31-.38.46-.57Z"/>
  <path class="cls-27" d="m84.27,32.22c.66-.65,2.63,1.2,2.36-1.24,1.32.56,2.65,1.11,3.97,1.67-.09.29-.18.58-.27.87-2.16.51-4.12-.34-6.06-1.31Z"/>
  <path class="cls-27" d="m85.5,30.42c-.76-.21-1.52-.43-2.28-.64.76.21,1.52.43,2.28.64Z"/>
  <path class="cls-27" d="m86.66,31c-.39-.2-.78-.39-1.18-.59.39.2.78.39,1.18.59Z"/>
  <path class="cls-26" d="m111.25,121.83c-1.59.56-3.18,1.13-4.77,1.69-.88-1.54-1.77-3.08-2.65-4.62.48-2.25,1.33-4.5,1.37-6.76.06-4.41-.3-8.82-.59-13.23-.03-.43-.8-.81-1.22-1.21v-3.66c1.26.99,2.21,1.73,3.61,2.82-.24,2.37-.6,5.35-.82,8.33-.12,1.67.03,3.01,1.53,4.52,1.76,1.77,2.39,4.62,3.67,6.92.5.9,1.44,1.56,2.18,2.32-.77.96-1.54,1.91-2.31,2.87Z"/>
  <path class="cls-29" d="m103.39,97.7c.42.4,1.19.78,1.22,1.21.29,4.4.65,8.82.59,13.23-.03,2.26-.89,4.51-1.37,6.76-.19.06-.39.12-.58.18-.57-1.03-1.13-2.06-1.7-3.09-.02-.17-.03-.33-.03-.5.17,0,.35-.02.52-.05.55-.2,1.1-.41,1.65-.61-.32-.36-.64-.71-.97-1.07l-.16.03c.01-.39.03-.78.04-1.16.06-.38.11-.76.17-1.14,2-2.58,1.11-5.33.46-8.07.01-.19,0-.37-.05-.56,0-.39.01-.77.02-1.16.06-1.34.11-2.67.17-4.01Z"/>
  <path class="cls-3" d="m114.04,110.31c-.56-.73-1.11-1.47-1.67-2.2,0,0,.23-.07.23-.07h.24c.24.21.47.41.71.61,0,0,.01-.03.01-.03.3,0,.61,0,.91,0l.11.04,1.3.23c.27.09.55.18.82.27.04.19.07.38.11.57-.21.05-.41.1-.62.15l-.27.05c-.63.13-1.26.25-1.89.38Z"/>
  <path class="cls-2" d="m116.2,109.89c.21-.05.41-.1.62-.15.1.18.2.37.31.55-.05.76-.1,1.53-.15,2.29-.39.01-.77.02-1.16.03.1-.16.13-.34.08-.52,0,0,.02-.05.02-.05.09-.72.19-1.44.28-2.16Z"/>
  <path class="cls-26" d="m114.18,105.6c.52-.35,1.04-.69,1.56-1.04,0,0,.11.09.11.09,0,0,.12-.08.12-.08-.04.59-.08,1.17-.12,1.76-.47-.05-.95-.1-1.42-.14-.08-.2-.17-.39-.25-.59Z"/>
  <path class="cls-15" d="m116.2,109.89c-.09.72-.19,1.44-.28,2.16-.4-.52-.8-1.05-1.2-1.57.4-.18.81-.36,1.21-.54,0,0,.27-.05.27-.05Z"/>
  <path class="cls-27" d="m113.55,108.65c-.24-.2-.47-.4-.71-.6.16-.39.32-.79.48-1.18,0,0,0,0,0,0,.28-.04.57-.08.85-.12-.21.64-.41,1.27-.62,1.91Z"/>
  <path class="cls-27" d="m115.93,109.94c-.4.18-.81.36-1.21.54-.23-.05-.45-.11-.68-.16.63-.13,1.26-.25,1.89-.38Z"/>
  <path class="cls-19" d="m113.32,106.86c-.16.39-.32.79-.48,1.18,0,0-.24,0-.24,0,0,0-.23.07-.23.07.32-.42.63-.83.95-1.25Z"/>
  <path class="cls-18" d="m115.85,104.06c.33.19.66.37.99.56-.29-.01-.58-.02-.87-.04l-.12.08s-.11-.09-.11-.09c.1-.16.14-.33.11-.51Z"/>
  <path class="cls-14" d="m114.16,106.74c-.28.04-.57.08-.85.12.29-.42.58-.84.87-1.26.08.2.17.39.25.59-.09.18-.18.36-.27.55Z"/>
  <path class="cls-15" d="m115.89,112.09c.05.19.02.36-.08.52-.05-.14-.12-.27-.15-.42,0-.02.15-.07.23-.11Z"/>
  <path class="cls-24" d="m107.85,219.43c-1.93,0-3.87,0-5.8,0,1.8-1.68,6.16-2.48,8.05-1.48-.75.49-1.5.98-2.25,1.48Z"/>
  <path class="cls-10" d="m107.85,219.43c.75-.49,1.5-.99,2.25-1.48.54.01,1.09.02,1.63.04.04.47.09.95.14,1.42-.54.06-1.07.12-1.61.18-.8-.05-1.61-.1-2.41-.16Z"/>
  <path class="cls-15" d="m102.04,115.44c-.17.02-.35.04-.52.05-.75-1.15-1.49-2.3-2.24-3.46-.02-.17-.03-.33-.03-.5.17-.21.34-.41.51-.62.04-.77.07-1.54.11-2.31.93.77,1.86,1.53,2.79,2.3.04.2.08.39.12.59-.06.38-.11.76-.17,1.14-.28.18-.56.37-.85.55.27.2.54.41.8.61,0,0,.16-.03.16-.03-.23.56-.46,1.12-.69,1.68Z"/>
  <path class="cls-26" d="m102.79,111.49c-.04-.2-.08-.39-.12-.59,0-2.48.02-4.96.03-7.44.19-.03.37-.04.56-.04.65,2.74,1.54,5.48-.46,8.07Z"/>
  <path class="cls-15" d="m99.87,104.56c-.23-2.3-.45-4.6-.68-6.9.23,2.3.45,4.6.68,6.9Z"/>
  <path class="cls-15" d="m99.15,96.59c-.37-1.16-.74-2.33-1.11-3.49.37,1.16.74,2.33,1.11,3.49Z"/>
  <path class="cls-20" d="m97.46,89.06c-.36-1.17-.71-2.34-1.07-3.51.36,1.17.71,2.34,1.07,3.51Z"/>
  <path class="cls-20" d="m96.33,85.04c-.01-.38-.03-.75-.04-1.13.01.38.03.75.04,1.13Z"/>
  <path class="cls-17" d="m103.25,103.42c-.19,0-.38.01-.56.04.17-.2.34-.4.52-.6.04.18.06.37.05.56Z"/>
  <path class="cls-26" d="m45.92,122.58c-1.15-.09-2.31-.19-3.46-.28,0-.54,0-1.09,0-1.63,1.34-4.39,2.68-8.79,4.02-13.18,0-.21,0-.42,0-.63,0-1.34-.01-2.67-.02-4.01-.19-2.06-.37-4.13-.58-6.19-.21-2.12.48-3.35,2.85-2.98.21.93.42,1.86.64,2.79.4.05.81.09,1.21.14.83-3.24,1.65-6.48,2.53-9.93.13.7.23,1.26.34,1.83-.58,4.23-1.16,8.45-1.75,12.68-.79.54-2.2,1.02-2.26,1.64-.39,3.85-.63,7.73-.63,11.6,0,3.05.02,5.97-2.9,7.88-.07.1-.07.21.02.3Z"/>
  <path class="cls-20" d="m57.33,77.07c.57-.25,1.14-.5,1.71-.75-.43,2.42-.73,4.87-1.3,7.26-2.09,8.65-2.73,17.43-2.69,26.3,0,2.47,1.08,2.53,2.85,1.59.41,1.35.82,2.69,1.23,4.04-.23.98-.46,1.95-.68,2.93-1.65,0-3.31,0-4.96,0-.04-.81-.07-1.62-.11-2.42.16-4.17.33-8.34.49-12.5.21-.71.55-1.41.62-2.14.41-4.29.75-8.58,1.11-12.88.59-3.8,1.17-7.61,1.76-11.41Z"/>
  <path class="cls-15" d="m55.57,88.49c-.36,4.29-.71,8.59-1.11,12.88-.07.72-.4,1.42-.62,2.14-.55,2.05-1.02,4.14-1.71,6.15-.25.71-1.07,1.21-1.62,1.81,0-.95,0-1.89,0-2.84.16-1.34.32-2.68.48-4.02.02-.19.05-.38.07-.57.17-.39.34-.78.51-1.16l.12-1.69c.58-4.23,1.16-8.45,1.74-12.68.71,0,1.43,0,2.14,0Z"/>
  <path class="cls-20" d="m99.28,112.03c.75,1.15,1.49,2.3,2.24,3.46,0,.17.01.33.03.5-.23.63-.45,1.25-.68,1.88-1.47.15-2.94.3-4.41.45-.04.23-.09.45-.13.68-.38-1-.76-1.99-1.13-2.99.37-1.13.74-2.26,1.11-3.38.99-.19,1.98-.39,2.97-.58Z"/>
  <path class="cls-20" d="m94.74,99.37c-.39-2.1-.78-4.19-1.17-6.29,2.7,1.66,1.67,4.03,1.17,6.29Z"/>
  <path class="cls-20" d="m94.66,102.8c.03-.75.05-1.5.08-2.25.35,1.92.7,3.84,1.05,5.76-.38-1.17-.75-2.34-1.13-3.51Z"/>
  <path class="cls-20" d="m99.77,110.91c-.17.21-.34.41-.51.62.17-.21.34-.41.51-.62Z"/>
  <path class="cls-15" d="m59.12,115.51c-.41-1.35-.82-2.69-1.23-4.04.23-2.86.45-5.73.68-8.59.17,1.29.3,2.58.52,3.87.54,3.13,1.12,6.25,1.69,9.38-.56-.2-1.11-.41-1.67-.61Z"/>
  <path class="cls-20" d="m61.97,76.36c0,.23,0,.47,0,.7,0-.23,0-.47,0-.7Z"/>
  <path class="cls-12" d="m59.66,170.66c.46-.81,1.11-1.58,1.34-2.45.44-1.67.65-3.4.95-5.11.17-.04.33-.06.5-.05,1.42,1.35,2.64,3.36,4.33,3.89,1.98.62,4.37-.05,6.58-.16.83-2.25-.89-2.22-2.25-2.5-.18-.17-.37-.34-.55-.51-.05-.15-.07-.3-.06-.45-.41-2.72-2.29-3.17-4.59-2.98-2.39-.28-3.63-1.29-2.5-3.95.71.2,1.33.37,1.96.55.77-.01,1.55-.03,2.32-.04.58-1.01,1.46-1.96,1.68-3.04.59-2.82.89-5.7,1.31-8.56.33-.16.66-.31.99-.47,0,.14.03.28.07.42.38,1.67.95,3.33,1.11,5.02.25,2.57.71,2.92,3.44,2,.2-.39.39-.77.59-1.16,0,0-.07-.05-.07-.05.05-.17.11-.34.16-.51,0-.39,0-.77-.01-1.16,1.88.56,3.77,1.12,5.65,1.68,1.53.24,3.07.48,4.6.72.2.15.39.31.59.46.18,0,.35-.04.53-.09.39,2.39.7,4.81,1.19,7.18.65,3.14-.49,6.78,2.78,9.78-5.18,2.12-10.36,4-16.01,4.35-1.55-.16-3.1-.42-4.65-.41-.32,0-1.01,1.38-.87,1.54.96,1.09,2.15,1.98,3.15,3.04.52.55.82,1.31,1.21,1.97-.57.07-1.14.13-1.7.2-.77-.2-1.53-.4-2.3-.6-1.91-.94-3.82-1.88-5.74-2.81-.54-.16-1.09-.33-1.63-.47q-4.1-1.05-4.1-5.28Zm21.45-4.55c-2.55.34-4.39.58-6.23.82.05.3.09.6.14.9,1.77-1.07,4.13,1.98,6.09-1.73Z"/>
  <path class="cls-17" d="m65.39,176.4c1.91.94,3.82,1.88,5.74,2.81-1.53-.35-3.07-.69-4.6-1.04,0,0-.03-.02-.03-.02-.38-.36-.76-.71-1.14-1.07.01-.23.02-.46.04-.68Z"/>
  <path class="cls-25" d="m65.36,177.09c.38.36.76.71,1.14,1.07-1.14-.39-2.27-.77-3.41-1.16.76.03,1.51.06,2.27.09Z"/>
  <path class="cls-27" d="m48.78,172.76c.38-.5.76-1,1.13-1.49.18.57.35,1.14.53,1.71-.2.19-.39.39-.59.58-.36-.27-.72-.53-1.08-.8Z"/>
  <path class="cls-26" d="m58.47,168.97c.03.37.05.74.08,1.11-.18.59-.36,1.17-.55,1.76-.01-.97-.02-1.94-.04-2.92.17.02.34.04.51.05Z"/>
  <path class="cls-14" d="m49.86,173.56c.2-.19.39-.39.59-.58-.07.4-.14.8-.21,1.2-.13-.21-.25-.41-.38-.62Z"/>
  <path class="cls-29" d="m52.2,169.49c.2.39.39.78.59,1.18-.2-.39-.39-.78-.59-1.18Z"/>
  <path class="cls-29" d="m52.77,170.63c.19.39.39.77.58,1.16-.19-.39-.39-.77-.58-1.16Z"/>
  <path class="cls-25" d="m63.08,176.99c-.37-.15-.75-.3-1.12-.45.37.15.75.3,1.12.45Z"/>
  <path class="cls-12" d="m46.45,102.85c0,1.34.01,2.67.02,4.01,0,.21,0,.42,0,.63-1.34,4.39-2.68,8.79-4.02,13.18-2.3-.38-4.6-.76-6.9-1.14,0,0,0,0,0,0-.58-1.34-1.15-2.68-1.73-4.02,0,0,0,0,0,0-1.69-3.08-.03-5.57,1.24-8.26.72-1.53.69-3.41.99-5.14-.28-.09-.55-.18-.83-.27-1.28,3.23-2.56,6.45-4.05,10.24-.37,0-1.39,0-2.41,0-.09-.16-.14-.33-.13-.51,1.36-2.81,2.78-5.61,4.07-8.45.7-1.55,1.19-3.19,1.77-4.79.55-.39,1.25-.68,1.62-1.2,2.09-2.88,4.13-5.8,6.11-8.76.65-.97,1.05-2.11,1.96-3.97.5,3.73,2.99,5.89,1.44,9.65-.99,2.41.47,5.83.83,8.8Z"/>
  <path class="cls-15" d="m35.56,119.52c2.3.38,4.6.76,6.9,1.14,0,.54,0,1.09,0,1.63-1.14,0-2.27,0-3.41,0-1.16-.93-2.32-1.85-3.49-2.78Z"/>
  <path class="cls-15" d="m33.83,115.5c.58,1.34,1.15,2.68,1.73,4.02-.58-1.34-1.15-2.68-1.73-4.02Z"/>
  <path class="cls-17" d="m75.13,179.62c-.4-.66-.69-1.42-1.21-1.97-1.01-1.06-2.19-1.95-3.15-3.04-.14-.16.56-1.53.87-1.54,1.55-.02,3.1.24,4.65.41-1.12.21-2.25.42-3.37.63.07.33.13.67.2,1,4.34,1.16,8.65,1.32,12.85-.77,1.92-.95,3.79-2.03,5.66-3.08,2-1.12,3.98-2.28,5.98-3.42.92-.78,1.84-1.56,2.76-2.33.56-.2,1.13-.4,1.69-.6-1.28,2.46-2.56,4.92-3.89,7.47,2.36-.92,4.85-1.89,7.33-2.86.02.38.04.77.06,1.15.37,1.52.73,3.04,1.1,4.56-2.39.78-4.75,1.72-7.19,2.26-1.24.27-2.64-.29-3.97-.31-2.35-.03-4.75-.18-7.05.16-2.38.36-4.68,1.25-7.01,1.91-.75.04-1.5.08-2.25.11-.41.13-.81.25-1.22.38l-2.83-.12Z"/>
  <path class="cls-11" d="m106.67,175.23c-.37-1.52-.73-3.04-1.1-4.56.9.34,1.79.69,3.26,1.25-.63,1.2-1.21,2.32-1.79,3.44-.13-.02-.25-.06-.37-.13Z"/>
  <path class="cls-12" d="m112.95,128.77c-2.11.97-2.47-.79-2.68-2.02-.37-2.14,1.35-2,2.75-2.05-.02,1.36-.05,2.72-.07,4.07Z"/>
  <path class="cls-13" d="m116.7,109.17c-.27-.09-.55-.18-.82-.27.06-.31.11-.62.17-.93l-.07-.19c.21-.11.42-.22.62-.33l.19-.03s.19.02.19.02c.22-.18.43-.35.65-.53.25.75.5,1.5.75,2.25.03.2.07.39.1.59-.26-.05-.53-.1-.79-.15-.33-.14-.66-.29-.98-.43Z"/>
  <path class="cls-19" d="m116.98,107.44l-.19-.02s-.19.03-.19.03c-.23-.3-.45-.6-.68-.9l.05-.14-.12-.09c.04-.59.08-1.17.12-1.76.29.01.58.03.87.04.07.56.14,1.13.21,1.69-.03.38-.05.76-.08,1.14Z"/>
  <path class="cls-25" d="m116.98,107.44c.03-.38.05-.76.08-1.14.19.2.38.41.57.61-.22.18-.43.35-.65.53Z"/>
  <path class="cls-25" d="m116.7,109.17c.33.14.66.29.98.43-.19.23-.38.46-.57.69-.1-.18-.2-.37-.31-.55-.04-.19-.07-.38-.11-.57Z"/>
  <path class="cls-25" d="m66.53,178.17c1.53.35,3.07.7,4.6,1.04.77.2,1.53.4,2.3.6-2.5.28-5.07.85-6.9-1.65Z"/>
  <path class="cls-27" d="m77.97,179.74c.41-.13.81-.25,1.22-.38-.41.13-.81.25-1.22.38Z"/>
  <path class="cls-2" d="m81.48,64.91c-1.99,2.38-7.03,2.27-9.19-.33-1.2-1.45-2.12-3.13-3.45-5.13,4.76.57,8.56,1.01,12.35,1.52.31.04.55.64.82.98-.03.26-.06.52-.09.78-1.55.23-3.1.46-4.17.62.99.41,2.36.99,3.74,1.56Z"/>
  <path class="cls-2" d="m82.62,52.3c.28,0,.6-.09.85,0,1.42.55,3.47.76,4.07,1.8,1.02,1.77-.7,3.04-2.15,4.05-.37.26-.64.67-.96,1.01-.59-.17-1.19-.34-1.78-.5,0,0,0-.04,0-.04-.41-1.75-.82-3.49-1.23-5.24.4-.36.81-.72,1.21-1.07Z"/>
  <path class="cls-2" d="m70.44,57.41c-.89-1.23-2.31-2.4-2.46-3.71-.08-.73,1.85-2.15,3.07-2.47,2.04-.53,2.92,1.14,2.88,2.87-.04,1.56-.77,2.97-3.49,3.31Z"/>
  <path class="cls-14" d="m81.41,53.37c.41,1.75.82,3.49,1.23,5.24-1.4.09-2.8.18-4.77.3,1.61-2.54-.29-6.01,3.57-6.55,0,.34-.02.68-.03,1.02Z"/>
  <path class="cls-10" d="m81.48,64.91c-1.37-.57-2.74-1.15-3.74-1.56,1.07-.16,2.62-.39,4.17-.62.09.39.18.77.27,1.16-.04.34-.08.67-.12,1.01-.19,0-.39,0-.58.01Z"/>
  <path class="cls-24" d="m82.18,63.89c-.09-.39-.18-.77-.27-1.16.03-.26.06-.52.09-.78.21,0,.42,0,.63.02.39.24.78.48,1.17.72l.49,1.04c-.4.06-.81.12-1.21.17-.3,0-.6,0-.9,0Z"/>
  <path class="cls-18" d="m81.41,53.37c0-.34.02-.68.03-1.02.03-.44.07-.88.12-1.48.44.58.75,1,1.07,1.42-.4.36-.81.72-1.21,1.07Z"/>
  <path class="cls-25" d="m84.3,63.72c-.16-.35-.32-.69-.49-1.04.24-.17.49-.35.73-.52,0,0,.17.05.17.05.22.02.45.03.67.05-.04.1-.04.19.01.28-.37.39-.74.78-1.1,1.17Z"/>
  <path class="cls-2" d="m84.54,62.16c-.24.17-.49.35-.73.52-.39-.24-.78-.48-1.17-.72.58-.17,1.16-.33,1.75-.5.05.23.11.47.16.7Z"/>
  <path class="cls-27" d="m82.65,58.65c.59.17,1.19.34,1.78.5-.59-.17-1.19-.34-1.78-.5Z"/>
  <path class="cls-2" d="m82.18,63.89c.3,0,.6,0,.9,0-.34.34-.69.67-1.03,1.01.04-.34.08-.67.12-1.01Z"/>
  <path class="cls-24" d="m85.39,62.27c-.22-.02-.45-.03-.67-.05.05-.23.1-.45.14-.67.4-.09.79-.18,1.19-.27-.22.33-.44.66-.66.99Z"/>
  <path class="cls-10" d="m85.39,62.27c.22-.33.44-.66.66-.99-.22.42-.43.85-.65,1.28-.05-.09-.06-.19-.01-.28Z"/>
  <path class="cls-10" d="m84.86,61.54c-.05.22-.09.45-.14.67,0,0-.17-.05-.17-.05-.05-.23-.11-.47-.16-.7.16,0,.32.03.48.08Z"/>
  <path class="cls-5" d="m61.46,118.37c.93.96,1.85,1.92,2.78,2.88.02,1.91.04,3.83.05,5.74,0,.77.01,1.54.02,2.31-.23,2.47-.47,4.95-.7,7.42-.19,2.5-.37,4.99-.56,7.49-.4,2.67-.81,5.35-1.21,8.02-.23-1.86-.46-3.72-.71-5.78-.27.78-.5,1.43-.72,2.09-.21-.02-.43-.03-.64-.05,0-2.97-.12-5.95.03-8.92.24-4.54.63-9.08,1.03-13.61.16-1.89-.58-2.51-2.45-2.46-1.86.06-3.74-.25-5.61-.4,1.91-.04,3.84.1,5.71-.19.87-.14,1.6-1.11,2.4-1.7.13-.77.26-1.55.39-2.33.05-.18.12-.35.2-.51Z"/>
  <path class="cls-5" d="m41.87,134.96c-.84-2.33-.81-4.26,1.71-5.76,1.23-.73,2.01-2.21,3-3.36,0-.76,0-1.52,0-2.27-.22-.33-.44-.66-.66-.98-.08-.1-.09-.2-.02-.3,2.24.22,3.18-1.68,4.58-2.83.15.04.3.06.45.06.23,1.14.47,2.28.7,3.42-.67,2.29-1.4,4.56-1.94,6.88-.11.47.51,1.12.79,1.68-2.3.77-4.6,1.53-6.89,2.3-.57.39-1.14.77-1.72,1.16Z"/>
  <path class="cls-13" d="m51.64,122.93c-.23-1.14-.47-2.28-.7-3.42.95-1.07-.15-3.56,2.42-3.51.04.81.07,1.62.11,2.42.13.18.27.37.4.55,1.38,1.85,2.77,1.72,4.17.02.13-.19.26-.38.39-.56.23-.98.46-1.95.68-2.93.56.2,1.11.41,1.67.61,0,0,.06,0,.06,0,.03.93.05,1.85.08,2.78-.02.77-.04,1.54-.05,2.31-.8.59-1.53,1.56-2.4,1.7-1.87.29-3.8.16-5.71.19-.38-.06-.75-.11-1.13-.17Z"/>
  <path class="cls-10" d="m51.02,151.42c-1.16.45-2.31.9-3.47,1.35,1.4-2.46,2.8-4.92,4.26-7.49.39.12,1.22.38,2.06.63-.56,1.45-1.12,2.91-1.68,4.36-.27.28-.55.56-.82.84-.17.04-.29.14-.35.31Z"/>
  <path class="cls-28" d="m49.4,140.19c-.31-.2-.63-.39-.95-.59-.08-.76-.17-1.53-.25-2.29,0,0,.04-.03.04-.03.39.97.77,1.94,1.15,2.92Z"/>
  <path class="cls-10" d="m47.53,152.78c-.06.15-.13.29-.19.44-.09-.13-.19-.26-.28-.4.15-.08.31-.09.48-.05Z"/>
  <path class="cls-28" d="m51.37,151.11c.27-.28.55-.56.82-.84-.27.28-.55.56-.82.84Z"/>
  <path class="cls-28" d="m63.61,136.72c.23-2.47.47-4.95.7-7.42.38-.2.75-.4,1.13-.6.35.04.7.07,1.05.11.03.12.06.23.09.35.13.92.19,1.86.39,2.77.61,2.75,1.26,5.49,1.9,8.24-.4,5.58-.79,11.15-1.19,16.73-.77.01-1.55.02-2.32.04-.2-3.28-.4-6.56-.6-9.84,0-.57.02-1.14.02-1.71,0-.38,0-.77.01-1.15-.4-2.5-.8-5-1.21-7.51Z"/>
  <path class="cls-17" d="m73.36,166.77c-2.21.11-4.59.78-6.58.16-1.68-.52-2.9-2.53-4.33-3.89.73.2,1.47.37,2.19.62,2.91,1.02,5.81,2.07,8.72,3.11Z"/>
  <path class="cls-29" d="m63.61,136.72c.4,2.5.8,5,1.21,7.51-.59,0-1.17,0-1.76-.01.19-2.5.37-4.99.56-7.49Z"/>
  <path class="cls-17" d="m65.92,160.34c2.3-.19,4.17.26,4.59,2.98-1.53-.99-3.06-1.99-4.59-2.98Z"/>
  <path class="cls-29" d="m64.8,145.38c0,.57-.02,1.14-.02,1.71,0-.57.02-1.14.02-1.71Z"/>
  <path class="cls-17" d="m70.56,163.76c.18.17.37.34.55.51-.18-.17-.37-.34-.55-.51Z"/>
  <path class="cls-26" d="m46.58,123.57c0,.76,0,1.52,0,2.27,0-.76,0-1.52,0-2.27Z"/>
  <path class="cls-10" d="m48.21,137.31c.08.76.16,1.53.25,2.29-1.42.57-2.84,1.14-4.26,1.71-.06-3.52.35-3.92,4.01-4.01Z"/>
  <path class="cls-15" d="m58.47,168.97c-.17,0-.34-.03-.51-.05,0-.38.01-.76.02-1.14.16.4.33.79.49,1.19Z"/>
  <path class="cls-5" d="m56.24,164.89c-.06-.39-.12-.78-.19-1.17.04-.19.08-.37.12-.56h.02c1.34.38,2.69.76,4.03,1.14-.19.41-.38.82-.57,1.23-1.14-.21-2.28-.43-3.42-.64Z"/>
  <path class="cls-15" d="m56.18,163.16c-.15-.36-.31-.71-.46-1.07.12-.03.24-.06.36-.08.04.38.08.76.12,1.14,0,0-.02,0-.02,0Z"/>
  <path class="cls-25" d="m107.91,133.94c-1.87.62-4.05.84-5.56,1.96-3.61,2.66-2.76,6.57-2.15,10.3.45,1.55.89,3.1,1.34,4.65.2.28.4.57.6.85v-.05c.36,1.38.72,2.75,1.08,4.13-3.44-1.51-4.84-4.58-5.84-7.86-1.61-5.24-1.22-10.17,2.94-14.21.76-.74,1.93-1.07,2.91-1.58,1.52.21,3.05.43,4.57.64h.02c.03.4.06.79.09,1.18Z"/>
  <path class="cls-5" d="m103.25,119.07c.19-.06.39-.12.58-.18.89,1.54,1.77,3.08,2.65,4.62-.11.58-.22,1.16-.32,1.75-.42-.31-.84-.63-1.25-.94-.21.1-.42.21-.62.31.52,1.3,1.03,2.59,1.88,4.71.31-1.37.42-1.86.53-2.34,1.03,1.16,2.8,1.98,1.78,4.04-.22.44-.45.87-.67,1.31-.75-.29-1.5-.58-2.25-.87-.66-1.31-1.53-2.57-1.92-3.96-.36-1.29-.21-2.73-.31-4.44-.86-.05-1.94-.11-3.02-.18.04-.18.06-.37.06-.56.78-.16,1.55-.31,2.33-.47.19-.94.38-1.87.57-2.81Z"/>
  <path class="cls-13" d="m103.25,119.07c-.19.94-.38,1.87-.57,2.81-.75,0-1.51-.01-2.26-.02-.37.12-.74.23-1.11.35-1.36.07-2.71.13-4.07.2-.19.04-.38.09-.58.13-.2-.05-.4-.1-.6-.15-.23-1.34-.45-2.68-.68-4.03,0-.57,0-1.14.01-1.71.22-.38.44-.76.66-1.14.38.16.75.32,1.13.48.38,1,.76,1.99,1.14,2.99.02.37.04.73.06,1.1,1.35.02,2.7.04,4.05.07.13-.59.26-1.18.38-1.77.08-.17.09-.35.05-.53.23-.62.45-1.25.68-1.88.57,1.03,1.13,2.06,1.7,3.09Z"/>
  <path class="cls-28" d="m103.22,155.77c-.36-1.38-.72-2.75-1.09-4.13,1.55.54,3.09,1.07,4.64,1.61,1.53.09,3.07.17,4.6.26-.55,1.89-1.58,3.06-3.77,2.89-.66-.05-1.37.43-2.05.67-.78-.43-1.56-.86-2.33-1.29Z"/>
  <path class="cls-29" d="m105.55,131.49c.75.29,1.5.58,2.25.87,0,.13.01.26,0,.4-1.52-.21-3.05-.43-4.57-.64.77-.21,1.54-.42,2.31-.63Z"/>
  <path class="cls-26" d="m92.88,124.68c.18-.75.36-1.5.54-2.24.05.37.1.75.14,1.12-.03,1.33-.05,2.65-.08,3.98-.2-.95-.4-1.91-.6-2.86Z"/>
  <path class="cls-27" d="m95.25,122.41c1.36-.07,2.71-.13,4.07-.2.34.04.68.08,1.01.11l.02.03c0,.19-.02.38-.06.56-1.67.01-3.34.02-5.01.03-.03-.18-.04-.36-.03-.53Z"/>
  <path class="cls-5" d="m93.49,127.54c.03-1.33.05-2.65.08-3.98.13,1.33.26,2.66.38,3.99,0,.03-.14.11-.21.11-.08,0-.17-.07-.25-.12Z"/>
  <path class="cls-5" d="m95.25,122.41c-.01.18,0,.36.03.53-.2-.14-.4-.27-.61-.41.19-.04.38-.09.58-.13Z"/>
  <path class="cls-17" d="m93.41,116.65c0,.57,0,1.14-.01,1.71-2.12.59-2.64,2.21-2.76,4.17-.16,2.46-.4,4.92-.61,7.39-.57.68-1.36,1.26-1.67,2.04-1.44,3.7-2.75,7.45-4.1,11.18-.55.73-1.41,1.39-1.59,2.2-.28,1.28-.11,2.66-.13,4,.03.58.05,1.16.08,1.74-1.88-.56-3.77-1.12-5.65-1.68-.23-1.82-.31-3.27,2.27-3.65,1.33-.2,2.5-1.4,2.33-3.52-.17-2.08.67-4.24.94-6.38.2-1.54.18-3.11.26-4.67.34-.7.68-1.4,1.02-2.1,0-1.28-.02-2.56-.03-3.85l-.05.04c.43-.58.85-1.17,1.28-1.75.34-.74.68-1.48,1.02-2.22.17-.6.33-1.21.5-1.81.21-.76.42-1.52.63-2.28.21-.21.42-.43.63-.64l5.63.08Zm-15.13,31.27c.06.29.11.57.17.86.94-.18,1.89-.36,2.83-.54-.06-.32-.12-.63-.18-.95-.94.21-1.88.42-2.81.63Z"/>
  <path class="cls-26" d="m97.6,167.85c-1.99,1.14-3.97,2.3-5.98,3.42-1.87,1.05-3.74,2.12-5.66,3.08-4.2,2.09-8.51,1.93-12.85.77-.07-.33-.13-.67-.2-1,1.12-.21,2.25-.42,3.37-.63,5.65-.35,10.82-2.23,16.01-4.35-3.28-3-2.13-6.65-2.78-9.78-.49-2.37-.8-4.79-1.19-7.18.68-.05,1.43-.31,2.01-.11.58.2,1,.88,1.48,1.34.18,3.06.36,6.11.54,9.17.2.78.41,1.55.61,2.33,0,0-.02-.04-.02-.04,1.55.99,3.1,1.99,4.65,2.98Z"/>
  <path class="cls-29" d="m91.82,153.4c-.49-.47-.9-1.14-1.48-1.34-.59-.21-1.33.05-2.01.11-.17.06-.35.09-.53.09-.2-.15-.39-.31-.59-.46-1.53-.24-3.07-.48-4.6-.72-.03-.58-.05-1.16-.08-1.74,2.07.5,4.44,2,6.12.16.84-.91.2-3.18.23-4.83-.19-.91-.38-1.82-.57-2.73v-.02c.79-2.68,1.57-5.36,2.34-8.04.19.51.52,1.02.54,1.54.23,6,.42,12,.62,18Z"/>
  <path class="cls-28" d="m84.26,143.14c1.35-3.73,2.66-7.48,4.1-11.18.3-.78,1.1-1.37,1.67-2.04.16,1.15.33,2.31.49,3.46-.73,2.84-1.46,5.69-2.18,8.53,0,0-.01.02-.01.02-.82,1.5-.46,4.19-3.48,3.46-.19-.75-.39-1.5-.58-2.26Z"/>
  <path class="cls-29" d="m97.6,167.85c-1.55-.99-3.1-1.99-4.65-2.98,2.47.22,4.94.43,7.41.65-.92.78-1.84,1.56-2.76,2.33Z"/>
  <path class="cls-21" d="m88.33,141.91c.73-2.84,1.46-5.69,2.18-8.53.06.16.1.33.14.49-.78,2.68-1.55,5.36-2.33,8.04Z"/>
  <path class="cls-1" d="m92.51,140.78v-2.88c.09,0,.18,0,.27,0v2.88c-.09,0-.18,0-.27,0Z"/>
  <path class="cls-29" d="m92.97,164.9c-.2-.78-.41-1.55-.61-2.33.2.78.41,1.55.61,2.33Z"/>
  <path class="cls-25" d="m112.41,140.23c.45.77.91,1.54,1.36,2.3-.21,0-.42-.02-.63-.03-.27.21-.53.42-.8.63-.73.93-1.46,1.86-2.19,2.79.56,1.89,1.14.87,1.71,0,.15-.04.29-.06.45-.06.22.21.44.41.65.62.25.2.51.39.76.59-.9,1.46-1.51,3.31-2.78,4.28-1.74,1.33-3.06-.15-4.03-1.67.15-.1.29-.23.41-.37.69-.03,1.38-.07,2.22-.11-.3-1.44-.53-2.58-.84-4.05-1.19,1.11-3.32,1.28-1.85,3.51-.16.17-.31.35-.47.52-2.13-2.31-2.69-4.92-1.5-7.86.84.19,1.68.38,2.52.58,1.66-.56,3.33-1.11,4.99-1.67Z"/>
  <path class="cls-10" d="m106.78,153.24c-1.55-.54-3.09-1.07-4.64-1.61,0,0,0,.05,0,.05-.2-.28-.4-.57-.6-.85-.45-1.55-.89-3.1-1.34-4.65,1.91-.94,3.17-1.08,3.75,1.68.4,1.91,1.84,3.59,2.82,5.38Z"/>
  <path class="cls-10" d="m112.41,140.23c-1.66.56-3.33,1.11-4.99,1.67-.78-2.62.07-4.21,2.87-4.58.71.97,1.41,1.94,2.12,2.91Z"/>
  <path class="cls-28" d="m110.29,137.33c-2.8.37-3.65,1.96-2.87,4.58-.84-.19-1.68-.38-2.52-.58.32-1.33.32-2.88,1.05-3.93,1.19-1.74,2.86-1.93,4.34-.07Z"/>
  <path class="cls-27" d="m107.81,132.75c0-.13,0-.26,0-.4.22-.44.45-.87.67-1.31.56.94,1.12,1.89,1.68,2.83-.2-.02-.4-.04-.6-.07-.58-.35-1.15-.7-1.73-1.05h-.02Z"/>
  <path class="cls-10" d="m113.14,142.51c.21,0,.42.02.63.03.1.41.2.81.3,1.22,0,.88-.02,1.76-.03,2.64-.11.23-.21.46-.32.69-.25-.2-.51-.39-.76-.59.06-1.33.11-2.66.17-3.99Z"/>
  <path class="cls-25" d="m114.04,146.39c.01-.88.02-1.76.03-2.64-.01.88-.02,1.76-.03,2.64Z"/>
  <path class="cls-29" d="m107.83,132.76c.58.35,1.15.7,1.73,1.05-.55.04-1.09.08-1.64.12-.03-.39-.06-.78-.09-1.18Z"/>
  <path class="cls-25" d="m106.92,149.69c-.17-.17-.35-.34-.52-.5.16-.17.31-.35.47-.52.15.22.31.44.46.66-.12.14-.26.26-.41.37Z"/>
  <path class="cls-1" d="m106.69,127.01c-.11.49-.22.98-.53,2.34-.84-2.12-1.36-3.41-1.88-4.71.21-.1.42-.21.62-.31.42.31.84.63,1.25.94.18.58.35,1.16.53,1.74Z"/>
  <path class="cls-29" d="m72.82,101.6c.82.62,1.59,1.31,2.47,1.83,1.05.62,2.19,1.08,3.29,1.61-3.08-.54-6.15-1.08-9.23-1.62.41-.6.81-1.21,1.22-1.81.75,0,1.5,0,2.24,0Z"/>
  <path class="cls-29" d="m77.4,101.26c-1.31,0-2.62-.01-3.93-.02,1.31,0,2.62.01,3.93.02Z"/>
  <path class="cls-14" d="m81.44,94.35c.19.14.38.28.58.43-.19-.14-.38-.28-.58-.43Z"/>
  <path class="cls-14" d="m78.03,94.31c.19-.03.38-.02.57.03-.19-.01-.38-.02-.57-.03Z"/>
  <path class="cls-13" d="m87.77,116.58c-.21.21-.42.43-.63.64-2.41-1.95-4.89-3.83-7.23-5.86-1.77-1.54-3.42-1.32-4.86-.6,3.84,2.94,7.65,5.84,11.46,8.75-.17.6-.33,1.21-.5,1.81-1.59-1.33-3.24-2.6-4.77-4-2.18-1.99-4.56-3.09-7.72-1.88,5.16.89,7.75,5.26,11.46,8.1-.43.58-.85,1.17-1.28,1.75-1.43-3.81-6.96-7.22-10.81-6.62.07.27.04.66.21.78,2.95,2.05,5.91,4.11,8.94,6.06.36.23,1.13-.16,1.71-.26,0,1.28.02,2.56.03,3.85-1.76-1.4-3.57-2.74-5.28-4.2-2.48-2.11-3.87-2.44-6.24-1.56,3.36,2.51,6.92,5.18,10.49,7.86-.08,1.56-.07,3.13-.26,4.67-.27,2.14-1.11,4.29-.94,6.38.17,2.12-1,3.32-2.33,3.52-2.58.38-2.5,1.83-2.27,3.65,0,.39,0,.77.01,1.16-.06.17-.11.34-.16.51,0,0,.07.05.06.05-.38,0-.77-.01-1.15-.02-.72-.2-1.45-.4-2.17-.6.02-.35.05-.7.07-1.05.09-.21.18-.42.27-.63.01-1.15.02-2.31.03-3.46.04-.36.08-.73.12-1.09.24-.1.49-.2.73-.3-.24-.11-.47-.22-.71-.33-.3-.75-.61-1.51-.91-2.26-.26.74-.54,1.47-.78,2.22-.05.15.07.36.12.55-.28.23-.56.47-.84.7-.33.16-.66.31-.99.47-.06-1.51-.12-3.02-.19-4.52.07-.17.11-.34.13-.52l-.03-.65c.39-2.3.78-4.6,1.18-6.9h4.16c-.47-.64-.89-1.21-1.31-1.78-.07-.93-.14-1.87-.2-2.62-.79.17-1.51.32-2.23.48-.68-.05-1.36-.11-2.05-.16,0,0,.05-.01.05-.01-.49.01-.99.03-1.48.04.05.39.11.77.16,1.16-.77-.21-1.54-.43-2.31-.64-.03-.12-.06-.23-.09-.35-.35-1.36-.69-2.72-1.04-4.08,1.15-.31,2.29-.62,3.44-.93-.02-.21-.04-.43-.06-.64-.93-.08-1.86-.16-2.8-.25-.06-.53-.13-1.06-.19-1.59,1.39-3.5,2.78-7.01,4.17-10.51.25-1.54.07-3.31,2.46-3.38,4.53-.13,8.74.54,12.66,3.18,2.36,1.59,3.54,3.19,2.66,5.98Zm-10.91,15.61c-.15-.07-.29-.15-.44-.22.16.06.32.12.48.18.42.19.84.38,1.27.58.03-.27.05-.54.08-.8-.46.09-.92.18-1.38.27Z"/>
  <path class="cls-16" d="m87.77,116.58c.88-2.79-.29-4.39-2.66-5.98-3.92-2.64-8.13-3.31-12.66-3.18-2.39.07-2.21,1.85-2.46,3.38-2.01-1.14-4.07-2.21-6.01-3.46-.51-.33-1.1-1.39-.92-1.76.31-.65,1.13-1.27,1.85-1.46,1.44-.39,2.95-.48,4.44-.7,3.08.54,6.15,1.08,9.23,1.62,3.33,1.37,6.65,2.74,9.98,4.1.5.21,1.02.39,1.53.59,1.09.79,2.19,1.58,3.28,2.37.23,1.14.46,2.28.7,3.42-.22.38-.44.76-.66,1.14-1.88-.03-3.75-.05-5.63-.08Z"/>
  <path class="cls-26" d="m64.29,126.99c-.02-1.91-.04-3.83-.05-5.74.19,0,.37,0,.56,0,.03.95.06,1.89.09,2.84-.02.97-.03,1.93-.05,2.9-.18,0-.36,0-.54,0Z"/>
  <path class="cls-15" d="m64.88,124.09c-.03-.95-.06-1.89-.09-2.84.23.01.46.03.69.04,0,.58.02,1.17.02,1.76-.06.35-.12.7-.18,1.05-.15,0-.3,0-.46,0Z"/>
  <path class="cls-26" d="m60.92,118.9c-.03-.93-.05-1.85-.08-2.78.2.75.41,1.5.61,2.25-.08.17-.14.34-.2.51-.11.02-.22.02-.33.02Z"/>
  <path class="cls-26" d="m65.51,123.04c0-.59-.02-1.17-.02-1.76.12,0,.23.01.34.02.06.53.13,1.06.19,1.59-.16.09-.33.13-.51.14Z"/>
  <path class="cls-26" d="m68.28,86.75c.09.09.17.18.26.27-.1-.08-.19-.16-.29-.24,0,0,.03-.03.03-.03Z"/>
  <path class="cls-26" d="m102.04,115.44c.23-.56.46-1.12.69-1.68.32.36.64.71.97,1.07-.55.2-1.1.41-1.65.61Z"/>
  <path class="cls-12" d="m102.57,113.79c-.27-.2-.54-.41-.8-.61.28-.18.57-.37.85-.55-.01.39-.03.78-.04,1.16Z"/>
  <path class="cls-15" d="m115.86,106.33l.12.09s-.05.14-.05.14c.02.41.04.82.05,1.23,0,0,.07.19.07.19-.49.23-.98.46-1.47.7,0,0-.11-.04-.11-.04-.3,0-.61,0-.91,0,0,0-.01.03-.01.03.21-.64.41-1.27.62-1.91.09-.18.18-.37.27-.55.48.05.95.1,1.42.14Z"/>
  <path class="cls-27" d="m114.58,108.67c.49-.23.98-.46,1.47-.7-.05.31-.11.62-.16.93-.43-.08-.87-.15-1.3-.23Z"/>
  <path class="cls-27" d="m113.56,108.62c.3,0,.61,0,.91,0-.3,0-.61,0-.91,0Z"/>
  <path class="cls-29" d="m50.48,119.46c-1.41,1.14-2.34,3.05-4.58,2.83,2.92-1.91,2.9-4.82,2.9-7.88,0-3.87.24-7.75.63-11.6.06-.62,1.47-1.1,2.26-1.64-.04.56-.08,1.13-.12,1.69-.17.39-.34.78-.51,1.16-.02.19-.05.38-.07.57-.16,1.34-.32,2.68-.48,4.02,0,.95,0,1.89,0,2.84-.76,2.67-1.92,5.33-.02,8.01Z"/>
  <path class="cls-15" d="m46.48,107.48c0-.21,0-.42,0-.63,0,.21,0,.42,0,.63Z"/>
  <path class="cls-26" d="m50.48,119.46c-1.89-2.67-.73-5.34.02-8.01.56-.6,1.38-1.1,1.62-1.81.7-2.01,1.16-4.09,1.71-6.15-.16,4.17-.33,8.34-.49,12.5-2.57-.05-1.47,2.44-2.42,3.51-.15,0-.3-.01-.45-.05Z"/>
  <path class="cls-15" d="m58.43,118.43c-.13.19-.26.38-.39.56-1.39,0-2.78-.01-4.17-.02-.13-.18-.27-.37-.4-.55,1.66,0,3.31,0,4.97,0Z"/>
  <path class="cls-26" d="m50.5,108.61c.16-1.34.32-2.68.48-4.02-.16,1.34-.32,2.68-.48,4.02Z"/>
  <path class="cls-26" d="m51.06,104.02c.17-.39.34-.78.51-1.16-.17.39-.34.78-.51,1.16Z"/>
  <path class="cls-5" d="m100.82,118.38c-.13.59-.26,1.18-.38,1.77-1.35-.02-2.7-.04-4.05-.07-.02-.37-.04-.74-.06-1.1.04-.23.09-.45.13-.68,1.45.03,2.91.05,4.36.08Z"/>
  <path class="cls-26" d="m100.82,118.38c-1.45-.03-2.91-.05-4.36-.08,1.47-.15,2.94-.3,4.41-.45.04.18.03.36-.05.53Z"/>
  <path class="cls-29" d="m70.5,140.77c.06,1.51.12,3.02.19,4.52-.42,2.86-.72,5.74-1.31,8.56-.23,1.08-1.1,2.03-1.68,3.04.39-5.58.79-11.15,1.18-16.73.54.2,1.08.41,1.62.61Z"/>
  <path class="cls-27" d="m73.94,145.34c-.01,1.15-.02,2.31-.03,3.46-.09.21-.18.42-.27.63-.02.35-.05.7-.08,1.05.16.4.32.81.48,1.21.71.15,1.41.31,2.12.46l.14.11c-2.73.92-3.19.56-3.44-2-.16-1.69-.73-3.35-1.11-5.02.47.02.94.05,1.41.07.26,0,.52.02.79.03Z"/>
  <path class="cls-17" d="m81.11,166.1c-1.95,3.7-4.32.66-6.09,1.73-.05-.3-.09-.6-.14-.9,1.84-.24,3.67-.48,6.23-.82Z"/>
  <path class="cls-27" d="m75.73,151.09c.38,0,.77.01,1.15.02-.2.39-.39.77-.59,1.16,0,0-.14-.11-.14-.11-.13-.18-.27-.36-.4-.54,0-.18,0-.35-.02-.52Z"/>
  <path class="cls-14" d="m73.15,145.32c-.47-.02-.94-.04-1.41-.07-.04-.14-.06-.28-.07-.42.28-.23.56-.47.84-.7.21.4.43.79.64,1.19Z"/>
  <path class="cls-17" d="m87.22,151.8c.2.15.39.31.59.46-.2-.15-.39-.31-.59-.46Z"/>
  <path class="cls-10" d="m76.81,151.06c.05-.17.1-.34.16-.51-.05.17-.11.34-.16.51Z"/>
  <path class="cls-27" d="m115.98,107.78c-.02-.41-.03-.82-.05-1.23.22.3.45.6.68.89-.21.11-.41.22-.62.33Z"/>
  <path class="cls-29" d="m64.29,126.99c.18,0,.36,0,.54,0,.2.57.4,1.14.6,1.71-.38.2-.75.4-1.13.6,0-.77-.01-1.54-.02-2.31Z"/>
  <path class="cls-27" d="m60.92,118.9c.11,0,.22,0,.33-.02-.13.77-.26,1.55-.39,2.32.02-.77.04-1.54.05-2.31Z"/>
  <path class="cls-5" d="m53.87,118.98c1.39,0,2.78.01,4.17.02-1.4,1.7-2.79,1.83-4.17-.02Z"/>
  <path class="cls-15" d="m70.5,140.77c-.54-.2-1.08-.41-1.62-.61-.64-2.74-1.3-5.48-1.9-8.24-.2-.91-.27-1.85-.39-2.77.77.21,1.54.43,2.31.64.96.97,1.92,1.93,2.88,2.9-.39,2.3-.78,4.6-1.18,6.9,0,.22.02.43.03.65-.01.18-.06.35-.13.52Z"/>
  <path class="cls-27" d="m65.43,128.7c-.2-.57-.4-1.14-.6-1.71.02-.97.03-1.93.05-2.9.15,0,.3,0,.46,0,.04.21.07.42.11.63.35,1.36.69,2.72,1.04,4.08-.35-.04-.7-.07-1.05-.11Z"/>
  <path class="cls-28" d="m101.55,150.84c.2.28.4.57.6.85-.2-.28-.4-.57-.6-.85Z"/>
  <path class="cls-27" d="m100.43,121.87c.75,0,1.5.01,2.26.02-.78.16-1.55.31-2.33.47,0,0-.02-.03-.02-.03.02-.16.05-.31.1-.46Z"/>
  <path class="cls-11" d="m96.39,120.08c1.35.02,2.7.04,4.05.07-1.35-.02-2.7-.04-4.05-.07Z"/>
  <path class="cls-24" d="m100.43,121.87c-.04.15-.07.31-.1.46-.34-.04-.68-.08-1.01-.11.37-.12.74-.23,1.11-.35Z"/>
  <path class="cls-23" d="m86.52,119.5c-3.81-2.91-7.61-5.81-11.46-8.75,1.44-.71,3.09-.94,4.86.6,2.34,2.04,4.81,3.92,7.23,5.86-.21.76-.42,1.52-.63,2.28Z"/>
  <path class="cls-23" d="m82.77,131.18c-3.57-2.67-7.14-5.34-10.49-7.86,2.36-.88,3.76-.55,6.24,1.56,1.71,1.46,3.51,2.8,5.28,4.2-.34.7-.68,1.4-1.02,2.1Z"/>
  <path class="cls-23" d="m85,123.53c-3.72-2.84-6.31-7.2-11.46-8.1,3.16-1.21,5.53-.11,7.72,1.88,1.53,1.4,3.18,2.67,4.77,4-.34.74-.68,1.48-1.02,2.22Z"/>
  <path class="cls-13" d="m84.26,143.14c.19.75.39,1.5.58,2.26.06.34.13.69.19,1.04.14.41.28.82.42,1.23.98.72,1.94,1.39,2.2-.59.06-.18.1-.36.14-.54.37-.62.73-1.24,1.1-1.87-.03,1.65.61,3.92-.23,4.83-1.69,1.85-4.05.34-6.12-.16.02-1.34-.15-2.72.13-4,.18-.81,1.04-1.47,1.59-2.2Z"/>
  <path class="cls-12" d="m78.28,147.92c.94-.21,1.88-.42,2.81-.63.06.32.12.63.18.95-.94.18-1.89.36-2.83.54-.06-.29-.11-.57-.17-.86Z"/>
  <path class="cls-21" d="m88.89,144.66c-.37.62-.73,1.24-1.1,1.87-.39,0-.78,0-1.17.01-.37,0-.75.02-1.12.03-.15-.08-.3-.13-.47-.14-.06-.34-.13-.69-.19-1.03,3.02.72,2.66-1.97,3.48-3.46.19.91.38,1.82.57,2.73Z"/>
  <path class="cls-13" d="m107.33,149.33c-.15-.22-.31-.44-.46-.66-1.47-2.22.65-2.39,1.85-3.51.3,1.48.54,2.61.84,4.05-.84.04-1.53.08-2.22.11Z"/>
  <path class="cls-27" d="m112.31,145.88c-.15,0-.3.02-.45.06-.57,0-1.14,0-1.71,0,.73-.93,1.46-1.86,2.19-2.79,0,.91-.02,1.83-.03,2.74Z"/>
  <path class="cls-28" d="m112.31,145.88c0-.91.02-1.83.03-2.74.26-.21.53-.42.8-.63-.06,1.33-.11,2.66-.17,3.99-.22-.21-.44-.41-.65-.62Z"/>
  <path class="cls-28" d="m110.15,145.93c.57,0,1.14,0,1.71,0-.57.86-1.15,1.89-1.71,0Z"/>
  <path class="cls-23" d="m83.76,125.23c-.58.1-1.35.5-1.71.26-3.03-1.95-5.98-4-8.94-6.06-.17-.12-.14-.51-.21-.78,3.84-.61,9.38,2.81,10.81,6.62,0,0,.05-.04.05-.04Z"/>
  <path class="cls-21" d="m71.77,132.7c-.96-.97-1.92-1.93-2.88-2.9-.05-.39-.11-.77-.16-1.16.49-.01.99-.03,1.48-.04-.03.08-.1.16-.09.24,0,.07.09.14.14.21-.03-.14-.07-.29-.1-.43.68.05,1.36.11,2.05.16.22.55.45,1.1.67,1.64-.49-.11-.98-.22-1.47-.34.1.29.2.59.3.88.38-.19.77-.37,1.15-.56l1.76.51c.42.57.84,1.14,1.31,1.78h-4.16Z"/>
  <path class="cls-23" d="m73.15,145.32c-.22-.4-.43-.79-.64-1.19-.04-.18-.17-.39-.12-.55.23-.75.51-1.48.78-2.22.3.75.61,1.51.91,2.26,0,.21-.02.42-.02.63-.04.36-.08.73-.12,1.09-.26,0-.52-.02-.79-.03Z"/>
  <path class="cls-23" d="m65.45,124.73c-.04-.21-.07-.42-.11-.63.06-.35.12-.7.18-1.05.18,0,.35-.05.51-.14.93.08,1.86.16,2.8.25.02.21.04.43.06.64-1.15.31-2.29.62-3.44.93Z"/>
  <path class="cls-10" d="m72.87,130.42c-.22-.55-.45-1.1-.67-1.64.72-.15,1.44-.31,2.23-.48.06.76.13,1.69.2,2.62-.59-.17-1.18-.34-1.76-.51h.01Z"/>
  <path class="cls-10" d="m75.73,151.09c.02.17.03.35.02.53-.57.03-1.14.06-1.72.08-.16-.4-.32-.81-.48-1.21.72.2,1.45.4,2.17.6Z"/>
  <path class="cls-21" d="m76.87,132.19c.46-.09.92-.18,1.38-.27-.03.27-.05.54-.08.8-.42-.19-.84-.38-1.27-.58l-.04.04Z"/>
  <path class="cls-10" d="m74.06,144.25c0-.21.02-.42.02-.63.24.11.47.22.71.33-.24.1-.49.2-.73.3Z"/>
  <path class="cls-10" d="m73.63,149.44c.09-.21.18-.42.27-.63-.09.21-.18.42-.27.63Z"/>
  <path class="cls-27" d="m76.91,132.15c-.16-.06-.32-.12-.48-.18.15.07.29.15.44.22,0,0,.04-.04.04-.04Z"/>
  <path class="cls-14" d="m70.62,140.25c0-.22-.02-.43-.03-.65,0,.22.02.43.03.65Z"/>
  <path class="cls-10" d="m70.16,128.61c.03.14.07.29.1.43-.05-.07-.14-.13-.14-.21,0-.07.06-.16.09-.24,0,0-.05.01-.05.01Z"/>
  <path class="cls-13" d="m74.04,151.7c.57-.03,1.14-.06,1.72-.08.13.18.27.36.4.54-.71-.15-1.41-.31-2.12-.46Z"/>
  <path class="cls-15" d="m85.5,146.57c.37,0,.75-.02,1.12-.03.34.18.69.36,1.03.53-.26,1.97-1.23,1.31-2.2.59.02-.36.04-.73.05-1.09Z"/>
  <path class="cls-26" d="m85.5,146.57c-.02.36-.04.73-.05,1.09-.14-.41-.28-.82-.42-1.23.17.01.33.06.47.14Z"/>
  <path class="cls-26" d="m87.65,147.07c-.34-.18-.69-.36-1.03-.53.39,0,.78,0,1.17-.01-.04.18-.09.37-.14.54Z"/>
  <path class="cls-27" d="m72.86,130.41c-.19.09-.38.19-.58.28s-.38.19-.58.28c-.05-.15-.1-.29-.15-.44s-.1-.29-.15-.44c.24.06.49.11.73.17s.49.11.73.17c0,0,0,0,0,0s0,0,0,0Z"/>
  <circle id="_Path_" data-name="&amp;lt;Path&amp;gt;" cx="71.08" cy="54.27" r=".71"/>
  <circle id="_Path_-2" data-name="&amp;lt;Path&amp;gt;" cx="84.3" cy="55.71" r=".71"/>
  <line class="cls-31" x1="76.58" y1="50.87" x2="69.12" y2="46.45"/>
  <line class="cls-31" x1="81.04" y1="50.64" x2="88.02" y2="47.3"/>
</svg>