<?xml version="1.0" encoding="utf-8"?>
<?xml-stylesheet type="text/css" href="../styles.css"?>

<!-- Generator: Adobe Illustrator 27.2.0, SVG Export Plug-In . SVG Version: 6.00 Build 0)  -->
<svg version="1.1" id="luffy" xmlns="http://www.w3.org/2000/svg" xmlns:xlink="http://www.w3.org/1999/xlink" x="0px" y="0px"
	 viewBox="0 0 154.9 318.5" style="enable-background:new 0 0 154.9 318.5;" xml:space="preserve">
<style type="text/css">
	.st0{fill:#D14D4A;}
	.st1{fill:#89272A;}
	.st2{fill:#E3AC50;}
	.st3{fill:#353033;}
	.st4{fill:#BBBABA;}
	.st5{fill:#544C48;}
	.st6{fill:#858688;}
	.st7{fill:#ED803A;}
	.st8{fill:#82614B;}
	.st9{fill:#E58042;}
	.st10{fill:#EABCA1;}
	.st11{fill:#BF8574;}
	.st12{fill:#5E4E3B;}
	.st13{fill:#EBBDA2;}
	.st14{fill:#332C23;}
	.st15{fill:#4F524C;}
	.st16{fill:#95886B;}
	.st17{fill:#C7B78F;}
	.st18{fill:#525550;}
	.st19{fill:#DEA66E;}
	.st20{fill:#0E0C0B;}
	.st21{fill:#A68867;}
	.st22{fill:#DAB38C;}
	.st23{fill:#201915;}
	.st24{fill:#F0E8E7;}
	.st25{fill:none;stroke:#000000;stroke-width:0.5;stroke-miterlimit:10;}
	.st26{fill:#E1A75C;}
	.st27{fill:#C7B68F;}
	.st28{fill:#614B37;}
	.st29{fill:#362F26;}
	.st30{fill:#4F514B;}
	.st31{fill:#D9DBDE;}
	.st32{fill:#506FAE;}
</style>
<g id="shirt">
	<path class="st0" d="M105.9,175.4l-59.4-0.1l1.1-62.7c0,0.1-6.6,11.5-6.7,11.5c-2.2-0.5-4.3-2.3-5.3-4.6l0,0l-3.6-4l-3.4-2.9
		c0-0.1,0-0.1,0-0.2c0.2-0.8,2.2-4.6,2.3-4.9l0,0c1.4-2.8,0.8-1.6,2.1-4.4c0.7-1.6,1.2-3.2,1.8-4.8l0,0l10.1-16.7l0,0l2.9-2.5h0.1
		l2.6-0.3l0,0l1.1-0.5c0.5-0.3,1.1-0.4,1.7-0.5l0,0c1.3-0.2,2.7-0.5,4-0.7v0.2l10.5-2.5l2.8,4.5l7.4,2.3l4.6-1.8l2.6-2.8l5.2,0.6
		l4.3,0.6c3.7,0.3,8.3,2.3,10.9,5.3l1.1,1.1c1.6,1.9,3.1,3.8,4.6,5.7l1.5,3c1.7,4.6,2.5,5.2,4,9.2l2.4,5l2.8,5.2
		c0.6,0.8,0.9,0.7,0.3,1.5s-3.9,4.1-4.1,4.2c-2.5,1.4-4.9,4.1-7.4,5.5c-0.7-0.8-5.3-10.8-5.8-11.7L105.9,175.4z"/>
	<path class="st1" d="M105.6,106.7v16.8h-0.8c-0.9-1.5-1.8-3.1-2.7-4.6l-0.7-20.1l0.1-2.3L105.6,106.7z"/>
	<path class="st1" d="M47.6,121.9c-1.9-2.7,0.5-13.7,1.2-16.4c0.6-1.3,3.7-8.2,3.9-8.9c0.7-2,0.1,3.9,0.1,4.6
		c-0.2,4.2-0.3,8.2-0.5,12.4c0,0-0.5,5-1.4,6.1c-0.1,0-0.3,0-0.4,0L47.6,121.9z"/>
</g>
<g id="right_speaker">
	<path class="st2" d="M96.4,83.2c0,1.6,5.4,33.1,5.4,34.7c0,1-1.2,0.3-1.2,1.3c-0.2,0.2-0.3,0.5-0.5,0.7c0,0.2-2.6,1.3-2.6,1.5
		c-1,0.2-2.5-4.2-3.5-4c2.4-2,2.8-1.3,2.6-3.9c-0.3-2.3-2.6-28.1-3.9-31l-1.7-5c0.8,0.2,2.5,0.4,3.3,0.6"/>
	<path class="st3" d="M110,146.9c0-1.4,0-2.7,0-4.1c1.9-0.3,3.1-0.6,5-0.9c-0.6,2-0.6,4.1-1.3,6.1
		C113.1,147.5,111.2,147.2,110,146.9L110,146.9z"/>
	<path class="st4" d="M113.6,136.7c1.9,4.9,2.7,9.9,0.6,15c-0.2,0.4-0.5,0.7-0.7,1.1c-0.7,0.2-1.4,0.5-2.1,0.7
		c-1.5-0.1-3.1-0.2-4.6-0.3c-1-1.8-2.4-3.5-2.8-5.4c-0.6-2.8-1.8-2.6-3.8-1.7c-0.6-3.7-1.5-7.6,2.2-10.3c1.5-1.1,3.7-1.3,5.6-1.9
		c0.6,0,1.1-0.1,1.6-0.1c0.2,0,0.4,0,0.6,0.1C111.3,134.8,112.4,135.8,113.6,136.7L113.6,136.7z M114,146.4c0-0.9,0-1.8,0-2.6
		c-0.1-0.4-0.2-0.8-0.3-1.2c-0.4-0.8-0.9-1.5-1.4-2.3c-0.7-1-1.4-1.9-2.1-2.9c-1.5-1.9-3.2-1.7-4.3,0.1c-0.7,1.1-0.7,2.6-1.1,3.9
		c-1.2,2.9-0.6,5.6,1.5,7.9c0.2,0.2,0.3,0.3,0.5,0.5c1,1.5,2.3,3,4,1.7c1.3-1,1.9-2.8,2.8-4.3C113.8,146.8,113.9,146.6,114,146.4
		L114,146.4z"/>
	<path class="st5" d="M108.6,133.9c-2,0.6-4.3,0.8-5.9,2c-3.8,2.7-3,6.6-2.3,10.3c0.4,1.6,1,3.1,1.4,4.6c0.2,0.3,0.4,0.6,0.6,0.9
		v-0.1c0.4,1.4,0.7,2.8,1.2,4.1c-3.6-1.5-5.1-4.6-6.1-7.9c-1.7-5.2-1.3-10.2,3.1-14.2c0.8-0.7,2-1.1,3.1-1.6
		c1.6,0.2,3.3,0.4,4.9,0.6l0,0C108.6,133.2,108.6,133.6,108.6,133.9L108.6,133.9z"/>
	<path class="st3" d="M103.1,155.7c-0.4-1.5-0.7-3-1.2-4.4c1.7,0.5,3.1,1,4.7,1.6c1.6,0.1,3.4,0.4,5,0.5c-0.6,2.1-1.7,3.4-4,3.1
		c-0.7-0.1-1.5,0.4-2.2,0.8C104.7,156.6,103.9,156.1,103.1,155.7L103.1,155.7z"/>
	<path class="st5" d="M105.8,149c-2.1-2.3-2-5.4-0.8-8.4c0.8,0.2,1.7,0.8,2.5,1c1.6-0.4,3.2-0.9,4.9-1.5l0,0
		c0.4,0.8,0.9,1.5,1.4,2.3c-0.2,0-0.4,0-0.6,0c-0.3,0.2-0.5,0.4-0.8,0.6c-0.7,0.9-1.5,1.9-2.2,2.8c0.6,1.9,1.1,0.9,1.7,0
		c0.2,0,0.3-0.1,0.4-0.1c0.2,0.2,0.4,0.4,0.7,0.6c0.2,0.2,0.5,0.4,0.8,0.6c-0.9,1.5-1.2,3.6-2.5,4.6c-1.9,1-2.7,0.5-4.2-1.1
		L105.8,149z"/>
	<path class="st6" d="M107.1,153c-1-1.9-2.8-3.4-3.1-5.5c-0.6-3-1.8-2.8-3.8-1.9c0.4,1.6,0.1,1.7,0.9,3.9l1.1,2.4"/>
	<path class="st6" d="M112.4,140.2c-1.7,0.6-3.3,1.1-5,1.7c-0.8-2.6,0.1-4.2,2.9-4.6C111,138.3,111.7,139.3,112.4,140.2z"/>
	<path class="st3" d="M110.3,137.3c-2.8,0.4-3.7,2-2.9,4.6c-0.8-0.2-1.7-0.4-2.5-0.6c0.3-1.3,0.3-2.9,1.1-3.9
		C107.1,135.7,108.8,135.5,110.3,137.3z"/>
	<path class="st4" d="M107.5,149.3c-0.2-0.2-0.4-0.4-0.6-0.8c-1.8-2.4,0.8-2.6,2.1-3.8c0.4,1.6,0.6,2.8,0.9,4.4
		C109.1,149.2,108.3,149.3,107.5,149.3L107.5,149.3z"/>
	<path class="st6" d="M113.1,142.5c0.2,0,0.4,0,0.6,0c0.1,0.4,0.2,0.8,0.3,1.2c0,0.9,0,1.8,0,2.6c-0.1,0.2-0.2,0.5-0.3,0.7
		c-0.2-0.2-0.5-0.4-0.8-0.6C113,145.2,113.1,143.8,113.1,142.5L113.1,142.5z"/>
	<path class="st7" d="M91.6,130.9c0.6-4,1-7.3,1.5-10.7l0.5-2.5l9.9,0.8c0.1,1.9-0.1,3.6,0.3,5c0.4,1.6,4.2,8.4,4.8,10
		c-0.8,0.2-3.4-1.1-4.9-0.4c-1,0.6-3.3,1.6-4.1,2.5c-3.2,5-3,5.2-2,11c1,3.7,2.4,7.2,5.8,8.9c0.8,0.5,1.6,1,2.3,1.5
		c0.5,0.8,0.9,1.8,1.2,2.7l0,0c-0.2,0.1-0.8,0.8-1,0.8c-2.3,0.5-4.3,0.1-6.6,0.4c-1.7,0.3-3.2,0-3.3-2.2L91.6,130.9z"/>
	<path class="st8" d="M95.2,122.9c0-0.1,0-0.4,0-0.7l5.1-0.1l0,0c0,0.3,0,0.6-0.1,0.8"/>
	<path class="st4" d="M93.9,122.3c-0.2-1.3-0.4-2.7-0.7-4c0-0.6,0-1.1,0-1.7c0.2-0.4,0.4-0.8,0.7-1.1c0.4,0.2,0.8,0.3,1.1,0.5
		c0.4,1,0.8,2,1.1,3c0,0.4,0,0.7,0.1,1.1c1.3,0,2.7,0,4.1,0.1c0.1-0.6,0.3-1.2,0.4-1.8c0.1-0.2,0.1-0.3,0.1-0.5
		c0.2-0.6,0.4-1.2,0.7-1.9c0.6,1,1.2,2,1.7,3.1l0,0c-0.2,0.9-0.4,1.9-0.6,2.8l-2.3,0.4c-1.4,0.1-3.8,0-5.2,0.1L93.9,122.3z"/>
	<path class="st9" d="M93.8,133.6c0.3,3.1,0.5,6.2,0.8,9.3c0.6,5.2,1.2,10.4,1.7,15.7c0.2,2,1.2,2.4,2.8,2.1
		c2.3-0.4,5.5-0.8,7.8-1.1c-0.6,1.5-1.2,3.1-1.8,4.6c-0.8,0.2-2.3,0.5-3.1,0.7c-0.6,0.2-1.1,0.4-1.7,0.6c-2.5-0.2-4.9-0.4-7.4-0.6
		l0,0c-0.2-0.8-0.4-1.6-0.6-2.3c-0.2-3.1-0.4-6.1-0.5-9.2c-0.2-6-0.4-12-0.6-18c0-0.5-0.3-1-0.5-1.5c0-0.2-0.1-0.3-0.1-0.5
		c-0.2-1.1-0.3-2.3-0.5-3.5c0.2-2.5,0.5-4.9,0.6-7.4c0.1-1.9,0.6-3.6,2.8-4.2c0.2,1.3,0.4,2.7,0.7,4c-0.2,0-0.4,0-0.7,0.1
		c-0.3,0.8-0.4,1.5-0.6,2.3l0,0"/>
	<path class="st9" d="M107.9,127.9c1,1.2,1.7,1.2,0.7,3.2c-0.2,0.4-0.4,0.9-0.7,1.3c-0.8-0.3-1.5-0.6-2.2-0.9
		c-0.7-1.3-1.5-2.6-1.9-4c-0.4-1.3-0.2-2.7-0.3-4.4c-0.9-0.1-1.9-0.1-3-0.2c0-0.2,0.1-0.4,0.1-0.6c0.8-0.2,1.6-0.3,2.3-0.5
		c0-0.9,0.2-1.8,0.3-2.7l0,0c0.2-0.1,0.4-0.1,0.6-0.2c0.9,1.5,1.8,3.1,2.7,4.6c-0.1,0.6-0.2,1.5,0.1,2.2L107.9,127.9z"/>
</g>
<g id="left_hand">
	<path class="st10" d="M48.8,171.7l-1.2-2.4c-0.2-0.3-1.4-1.2-1.6-1.3c-6.7-3.5-7.5-10.6-10.2-16.6c-2.7-5.9-5.3-11.8-7.6-17.9
		c-1.2-3.2-2.5-6.6-2.6-9.9c-0.1-2.4,1.9-4.8,2.9-7.2c1.5,4.1,3.7,7.4,8.7,7.6c0.6,4,1.2,8.1,1.8,12.1c0.4,1.2,0.8,2.3,1.1,3.5
		L43,150c0.2,0.7,0.3,1.4,0.5,2.2l6.4,4l7.4,0.7c1,1.1,2.1,2.3,3.1,3.4c0.2,0.8,0.3,1.5,0.5,2.2c-0.2,0.4-2.4-1.4-3.2-2.1
		c-1.8-1.6-3.3-1.8-5.3-0.5c1.2,1.4,2.9,2,4.1,3l1.3,1.2l1.3,6.6c-0.6,0.1-4-6.2-4-6.2c-0.4-0.6-3.4-0.8-3.4-0.8s1.4,2.5,1.4,2.7
		c0.4,1.2,0.6,5.7,0.2,5.4c-0.6-0.4-0.6-3.2-1.7-4c-1.2-0.9-2.3-1.8-3.5-2.7c-0.1,0.2-0.3,0.4-0.4,0.6c0.3,0.9,0.9,2.4,1.3,3.4
		L48.8,171.7z"/>
	<path class="st11" d="M35.6,119.4c1.1,1.6,2.1,2.9,3.3,3.9c-0.7,0.7-1.1,0.2-1.7,0.8l0,0c-5-0.1-7.2-3.4-8.7-7.6
		c0.2-1.3,0.5-1.9,0.8-3.2c1.6,1.2,1.9,1.5,2.6,2.2l1.8,2L35.6,119.4z"/>
</g>
<g id="right_hand">
	<path class="st10" d="M105.2,158c2.5-0.4,5-3,6.2-4.5l1.5-2.2c2.1-5.1,2.1-9.3,0.2-14.2l0,0c-0.2-2.7,0.1-6.5-0.1-9.2l0,0
		c0.7-1,1.6-2.1,2.2-3.2c1.8-3.1,3.9-6,5.8-9.1v0.6c3.1,5.1,5.1,5.9,4.4,9.3c-0.3,1.6-0.8,4.3-1.1,5.9c-1.3,8.9-1.4,12.9-3.4,18
		c-0.8,2.7-4.8,10.5-5.3,11.4c-0.5,0.4-0.5,1.6-4.1,4.1c-3,1.3-6.4,5.1-7.6,6.9c0.2-0.6-0.3-3,0.3-3.5c0.8-0.8,1.6-1.7,1.7-2.7
		c-0.7-0.6-5.5,5.3-5.7,4.7l2.9-4.5c0.7-1.3,2.1-1.6,2.7-2.4l-2.3,0.7c-0.4,0.3-3.8,4-4.4,4.4c0,0,2.7-5.2,2.5-5.3
		c0.4-0.2,3.6-1.7,3.3-1.9c-0.5-0.2-3.3,0.4-3.7,1c0,0.1-2.6,3-2.6,4.2c0,1.3-1.1-2.6-0.3-3.5c0,0,1.5-2,1.5-2.1L105.2,158z"/>
	<path class="st11" d="M114.5,120.8c0,0,4.6-3.2,6.5-5.3c0,0.4,0.1,0.2,0.1,0.6c-1.9,3.2-3.8,6.4-5.8,9.6c-0.7,1.1-1.4,2.1-2.1,3.1
		l-0.2,0.1c0-1.4,0.1-2.7,0.1-4.1c-0.6-1-0.5-0.8-1.1-1.8C112.8,122.2,114.5,120.8,114.5,120.8z"/>
</g>
<g id="left-feet">
	<path class="st12" d="M43.3,285.8c-5.4,2.5-11.3,4.5-17.2,3.6c-1.5-0.2-2.3-0.3-3.4-1.4c-0.2-0.2-1-0.9-1.1-2.2
		c-0.1-2.3,1.2-3.2,1.3-3.3c1.1-0.2,2.1,0.6,2.7-0.6c0.1-0.2,1.3-0.8,1.6-0.9c1.3-0.4,2.2-1.5,3.1-2.4c0.4,0.7-0.7,1-1.2,1.4
		c-0.6,0.5-1.2,0.8-1.9,1c-0.8,0.3-1.4,0.8-1.9,1.7c0.6-0.1,0.8-0.5,1-0.8c0.3-0.4,0.7-0.8,1.2-0.9s1-0.3,1.2,0.2
		c0.2,0.4-0.4,0.6-0.7,0.7c-0.8,0.4-1.3,1-1.8,1.9c0.9,0.1,1.3-0.4,1.5-0.9c0.3-0.6,0.8-1,1.4-1.3c0.3-0.1,0.8-0.4,1,0.1
		c0.2,0.4-0.2,0.6-0.5,0.8c-1.1,0.6-1.6,1.5-1.8,2.7c-0.5,1.2-1,0.9-1.8,0.8c0.4,0.5,0.8,0.9,1.2,0c0.2-0.4,0.5-0.6,0.7-0.9
		c0.6-0.6,1.2-1.1,1.5-1.9c0.2-0.4,0.5-0.6,0.8-0.8c0.4-0.3,1-0.8,1.4-0.3c0.5,0.6-0.3,0.8-0.7,1.1c-0.6,0.5-1,1-0.2,1.7
		c0.6,0.5,0.4,1.2-0.1,1.8c-0.1,0.1-0.2,0.4-0.3,0.5c-0.6,0.2-1.2-0.8-1.8-0.5c1,0.8,2,0.6,3.1,0.3c0.4-0.1,0.5-0.4,0.4-0.8
		c-0.4-1.8,0-2.5,1.5-3.1c0.2,0,0.3,0.2,0.4,0.4c0.2,0.2-0.7,0.7,0.2,0.7c0.6,0,1.1,0.2,1.6,0.5c0.2,0.1,0.6,0.2,0.7-0.1
		c0.2-0.4-0.2-0.5-0.5-0.6s-0.6-0.1-0.9-0.2c-0.4-0.2-0.9-0.5-0.5-1c1-0.4,2,0.1,2.7,0.7c0.5,0.5,0.7,1.1,0.3,1.8
		c-0.4,0.6-0.9,0.9-1.6,0.6c-0.6-0.2-1.3-0.5-2-0.4c-0.3,0-0.6-0.1-0.7,0.4c0.2,1.1,1,1.6,2.1,1.5c1.5-0.1,3-0.5,3.8-2
		c0.1-0.2,0.3-0.5,0.5-0.5c2.1,0,2.6-2.1,3.9-3.3c0.1-0.1,0.5,0.4,0.6,0.4c0.3,0.1,0.4,0.3,0.4,0.6c-0.4,1.7-1.9,2.4-3.2,3.1
		c-0.9,0.5-1.7,1.1-2.6,1.7c-1.5,1.1-3.2,1.7-5.1,0.9c-0.5-0.2-0.9-0.2-1.4,0c-1.2,0.5-2.3,0.4-3.5,0s-2.4-0.3-3.5-1.1
		c-0.6-0.4-1.3-0.8-1.8-1.4c-0.6-0.9-1.2-0.7-1.6,0.2c-0.4,1.3,0.3,2.1,1.3,2.8c1.2,0.7,2.5,0.9,3.8,1c5.8,0.6,11.3-0.7,16.5-3.3
		c3.7-1.8,7.3-3.8,11.2-5.1c1.2-0.4,1.9-1.1,1.9-2.5"/>
	<path class="st13" d="M53.6,275.6c0.3,0.7,1.1,2,0.1,3.2c-1.3,1.6-1.6,3.5-3,3.9c-2.1,0.6-3.2-0.6-5.3,0.2c-0.5-0.2-1-1.7-1.2-2.1
		c-1.3-3.1-3.4-5.3-6.9-5.7c-0.5-0.1-1.3-0.1-1.2-1c3.6-4.7,5.2-10.1,5.6-15.9c0.6-8,1.3-16,1.2-24.1c0-1.8-0.2-3.6-0.2-5.4v-3.2
		c1.6,0.6,4.4,2.1,6.2,2.4l6.8,0.1c0.3,0.1,0.6,0.5,0.4,0.8l-3.3,15.6c-0.8,4.7-2.2,11.8-2.7,16c-0.7,4.7-0.2,7.7,0.8,10.6
		C51.9,273.8,52.6,274.1,53.6,275.6z"/>
	<path class="st14" d="M38,273.5c3.7,0.5,5.5,3,6.8,6.2c0.1,0.3,0.2,0.6,0.3,0.8c0.2,0.1,0.3,0.3,0.2,0.5c0,0.1,0,0.3,0,0.4
		c-0.1,0.7-0.3,1.3-1.3,1.2c0-0.2,0-0.5-0.3-0.6c-0.3,0.1-0.5,0-0.7-0.2c-2-1-4-1.2-6.2-0.6c-0.5,0.1-0.9,0.5-1.2,0.8
		c-0.4,0.2-0.8,0.4-1.1,0.8c-0.3,0.2-0.4,0.7-0.9,0.7c-0.1-0.1-0.1-0.2-0.2-0.2c-1.4-1.5-2.2-3.4-3.1-5.2c-0.4-1.4,0.7-2.1,1.3-3.1
		c1.4-0.2,2.7-0.9,4.3-0.9c3.4,0.1,6.1,1.4,7.8,4.4c-2.1-4.2-7.1-5.3-10.8-3.9c-0.3,0.1-0.6,0.5-0.8-0.1c0.8-0.7,1.7-0.9,2.7-1.1
		L38,273.5z"/>
	<path class="st13" d="M30.3,278.1c1,0.9,1.3,2.3,2.1,3.4c0.4,0.6,0.7,1.3,1,1.9c-1.4,0.6-1.6,1.7-1.3,3.1c-0.5,0.6-1,1-1.8,0.5
		c0.7-0.8,1-1.6-0.4-2c-0.6-0.2-0.2-0.5-0.2-0.8c0.3-0.9,1.3-1,1.8-1.6c-1,0.1-1.7,0.4-2.1,1.3c-0.3,0.8-0.8,1.3-1.5,1.6
		c-0.1,0.1-0.2,0.1-0.2,0c-0.3-0.9,0.5-2.3,1.4-2.9c0.3-0.1,0.7-0.1,0.8-0.6c-0.9,0.1-1.7,0.5-2,1.3c-0.3,0.7-0.7,1-1.4,1.1
		c-0.2,0-0.5,0.2-0.6-0.2c-0.1-0.3-0.3-0.4,0-0.8c0.8-0.9,1.5-1.8,2.7-2c-0.9-0.2-1.6,0.1-2.2,0.8c-0.3,0.3-0.5,0.7-0.9,0.9
		c-0.4,0.2-0.8,0.3-1.1-0.1c-0.3-0.5,0.4-0.4,0.5-0.7c0.6-1.2,1.7-1.4,2.8-1.9c0.8-0.4,1.2-0.8,1.9-1.7
		C30,278.3,30,278.1,30.3,278.1z"/>
	<path class="st15" d="M32.2,274.6c0.2,0.3,0.4,0.1,0.7,0c2.5-1.4,5.1-0.9,7.4,0.1c1.9,0.8,3,2.6,3.7,4.6c-0.5-0.7-0.9-1.3-1.4-1.9
		c-0.5-0.7-1.2-1.1-1.9-1.5c-2.5-1.4-5.1-1.7-7.8-0.8c-0.4,0.1-0.8,0.3-1.2,0.1C31.7,274.8,31.9,274.7,32.2,274.6z"/>
	<path class="st16" d="M44,282.6c0.7-0.1,0.8-0.8,1.3-1.2c1.8-0.7,3.6-1.3,5.5-1.4c1.6-0.1,2.7-0.9,3.3-2.3c0.3-0.5,0.4-0.6,1.1-0.4
		c0.8,0.4,1.4,0.7,1.3,1.6c-0.1,0.6-0.7,0.7-1.2,0.9c-4.5,1.3-8.4,4-12.3,6.4c-5.5,3.3-11.4,4.5-17.7,3c-1.9-0.5-3.6-1.3-4-3.5
		c1.1-1.5,1-1.4,2.2-0.1c1,1.2,2.3,2.1,4,2c0.4,0,0.6,0.2,1,0.3c1.3,0.5,2.5,0.6,3.7-0.1c0.4-0.2,0.7-0.2,1.1,0
		c1.5,0.8,3.9,0.5,5.1-0.7c0.7-0.7,1.6-1.2,2.4-1.6C42.1,284.8,43.2,283.9,44,282.6z"/>
	<path class="st17" d="M21.3,285.7c0.8,0.6,0.9,1.8,2,2.4c2,1,4.1,1.3,6.2,1.5c2.9,0.3,5.7-0.2,8.5-1.1c1.7-0.5,3.2-1.6,4.8-2.5
		c2.7-1.5,5.3-3,7.9-4.6c1.4-0.8,3-1.3,4.5-1.8c0.5-0.2,0.9-0.4,1.3-0.8c0.2,1.3-0.3,2.3-1.5,2.7c-5.4,1.8-10.2,4.9-15.5,7
		c-4.9,1.9-9.9,2.2-15,1.4c-0.9-0.1-1.7-0.6-2.4-1.2C21.2,287.8,20.7,286.9,21.3,285.7z"/>
	<path class="st13" d="M34.5,282.8c0-0.7,0.6-0.6,1-0.8c0.4-0.2,0.9-0.5,1.1-1c2.3-0.7,4.6-0.6,6.7,0.7c0.1,0.7-0.5,0.9-0.9,1
		c-1.5,0.6-2.8,1.5-3.8,2.7c-1.4,1.6-3.7,1.7-5.9,0.4c-0.3-0.6-0.2-0.8,0.5-0.9c0.9-0.1,1.7,0.1,2.5,0.6c0.7,0.4,1.1,0.2,1.5-0.5
		s0.1-1.2-0.4-1.5c-0.6-0.4-1.3-0.6-2.1-0.5C34.4,283.1,34.4,283,34.5,282.8z"/>
	<path class="st11" d="M32.6,286c0.9-0.1,1.7,0.5,2.6,0.5c1.2,0,2.3-0.2,3.1-1.2c1.1-1.3,2.5-2.3,4.1-2.9c0.4-0.1,0.7-0.3,0.9-0.7
		c0.2,0.1,0.3,0.2,0.4,0.3c-0.7,1.7-2,2.9-3.6,3.1c-0.9,0.1-1,0.5-1.3,1c-0.8,1.1-3.5,2-4.8,1.6C33.2,287.4,32.7,286.9,32.6,286z"/>
	<path class="st13" d="M34.5,282.8c0,0.1,0,0.3,0.1,0.4c0.2,0.8,0.9,0.3,1.3,0.5c0.5,0.3,1.2,0.3,0.9,1.1c-0.2,0.8-0.8,0.6-1.3,0.3
		c-0.8-0.5-1.7-0.5-2.6-0.5c-0.1-0.6,0.7-0.6,0.8-1C33.9,283.3,34.2,283.1,34.5,282.8z"/>
	<path class="st11" d="M30.3,287c0.7,0.1,1.2-0.5,1.8-0.5c0.2,0.2,0.4,0.4,0.2,0.7c-0.7,1.1-3.7,0.8-4.3-0.4
		C28.8,286.4,29.5,287.4,30.3,287L30.3,287z"/>
	<path class="st11" d="M27.8,285.4c0.1,0,0.2,0,0.2,0c-0.2,0.3-0.3,0.5-0.5,0.8c-0.2,0.4,0.2,1.1-0.6,1c-0.7,0-1.1-0.4-1.3-1.1
		c0-0.1,0-0.2-0.1-0.5C26.4,286,27.1,286.2,27.8,285.4z"/>
	<path class="st11" d="M23.8,284.4c0.2,0.7,1.8,0,1.3,1.3c-0.1,0.3-0.1,0.6-0.5,0.4C23.9,285.9,23.6,285.2,23.8,284.4z"/>
	<path class="st13" d="M28.2,285.9c0.7-0.4,1.1-0.9,1.7-0.4c0.3,0.2,0.7,0.2,0.5,0.7c-0.2,0.4-0.5,0.4-0.9,0.2
		C29.2,286.2,28.8,286.1,28.2,285.9z"/>
	<path class="st13" d="M24,283.9c0.7-0.2,1.2-0.2,1.5,0.3c0.1,0.2-0.1,0.3-0.2,0.4C24.7,284.8,24.5,284.3,24,283.9z"/>
	<path class="st13" d="M30.3,287c-0.9,0.7-1.5-0.3-2.3-0.2c0-0.4,0.1-0.4,0.4-0.3C29.1,286.6,29.7,286.8,30.3,287z"/>
	<path class="st11" d="M23.5,283.9c-0.1,0.2-0.1,0.6-0.4,0.5c-0.3,0-0.5-0.3-0.5-0.6c0-0.2,0.3-0.5,0.3-0.5
		C23.2,283.4,23.5,283.5,23.5,283.9z"/>
	<path class="st13" d="M25.8,285.2c0.5-0.3,0.9-0.4,1.3-0.1c0.1,0.1,0.1,0.3,0,0.4C26.6,285.9,26.3,285.5,25.8,285.2z"/>
	<path class="st13" d="M37.8,279.4c-1.3,0.2-2.4,1-3.4,1.8c-0.6,0.4-0.9,0.3-1.2-0.3c-0.6-1.2-1.2-2.3-1.8-3.4
		c-0.4-0.7-0.2-1.3,0.6-1.7c3.9-2.4,10.2-0.1,11.7,4.2c0.1,0.2,0.1,0.4,0.1,0.8c-1-1-2-1.2-3.1-1.4
		C39.7,279.3,38.8,279.3,37.8,279.4z"/>
	<path class="st18" d="M43.1,280.9c-2.1-0.8-4.2-0.8-6.3-0.5C38.2,279.4,41.8,279.6,43.1,280.9z"/>
	<path class="st11" d="M42.6,218.9c2.5,0.1,4.9,0.1,7.3,0.2c1,0,2,0.2,3,0.3c1.7,0.2,3.5,0.4,5.2,0.6c-0.4,1.9-1.8,6.7-2.2,8.6
		c-2.1-0.4-5.2,2-7.2,1.3c-2.8-0.9-3.2-3-6-4.2C42.8,225.1,42.5,219.7,42.6,218.9L42.6,218.9z"/>
</g>
<g id="hat-shirt">
	<path class="st19" d="M89.4,98.8L89.4,98.8c0.7,1.1,1.1,2.3,1.2,3.6l0.1,3.9c0,0.2-0.1,0.4-0.1,0.6c-0.6-0.2-1.2-0.2-1.6-0.5
		l-15.3-4.5c-0.7-0.2-1.3-0.3-2-0.3h-1.2c0-0.3,0-0.7-0.1-1.1c0-0.2,0.1-0.4,0.1-0.6c0.2-0.4,0.4-0.8,0.6-1.2l0,0
		c0.2-0.2,0.3-0.4,0.5-0.6c0.1-0.1,0.2-0.2,0.3-0.3c1.4-1.3,3-2.3,4.8-3l0.3-0.1c0.7-0.3,1.4-0.4,2.1-0.4l2,0.1
		c0.9,0.1,1.7,0.2,2.6,0.4h0.1c1.4,0.3,2.8,0.9,3.9,1.8L89.4,98.8z"/>
	<path class="st1" d="M73.5,101.2c1.3,0,2.6,0,3.9,0c2.7,0.8,5.4,1.5,8.1,2.5c1.3,0.5,2.3,1.8,3.6,2.7c0.4,0.3,1.1,0.3,1.6,0.5
		l-0.5,2.8c-0.5-0.2-1-0.4-1.5-0.6c-3.3-1.4-11.9-3.5-15.2-4.9c-1.1-0.5-3-0.1-4.1-0.7c-1-0.5,0.8-1.3,1.1-2.2"/>
	<path class="st19" d="M87.8,116.6c0.9-2.8-0.3-4.4-2.7-6c-3.9-2.6-8.1-3.3-12.7-3.2c-2.4,0.1-2.2,1.8-2.5,3.4c-2-1.1-4.1-2.2-6-3.5
		c-0.5-0.3-1.1-1.4-0.9-1.8c0.3-0.7,1.1-1.3,1.8-1.5c1.4-0.4,2.9-0.5,4.4-0.7c3.1,0.5,6.2,1.1,9.2,1.6c3.3,1.4,6.7,2.7,10,4.1
		c0.5,0.2,1,0.4,1.5,0.6c1.1,0.8,2.2,1.6,3.3,2.4c0.2,1.1,0.5,2.3,0.7,3.4c-0.2,0.4-0.4,0.8-0.7,1.1
		C91.5,116.6,89.7,116.6,87.8,116.6L87.8,116.6z"/>
</g>
<g id="mic">
	<path class="st4" d="M66,123.2c-0.1-0.5-0.1-1.1-0.2-1.6c1.4-3.5,2.6-7.1,4-10.6c0.2-1.5,0.2-3.7,2.6-3.8c4.5-0.1,8.9,0.6,12.9,3.3
		c2.2,1.4,3.7,3.5,2.5,6.1c-0.2,0.2-0.6,0.6-0.8,0.8c-2.4-1.9-5-3.8-7.3-5.9c-1.8-1.5-3-1.4-4.5-0.7c3.8,2.9,7.7,5.8,11.5,8.8
		c-0.2,0.6-0.3,1.2-0.5,1.8c-1.6-1.3-3.2-2.6-4.8-4c-2.2-2-4.6-3.1-7.7-1.9c5.2,0.9,7.8,5.3,11.5,8.1c-0.4,0.6-0.8,1.2-1.3,1.8
		c-2-3.6-7-7.2-10.8-6.6c0.1,0.3,0,0.7,0.2,0.8c2.9,2.1,5.9,4.1,8.9,6.1c0.4,0.2,1.1-0.2,1.7-0.3c0,1.3,0,2.6,0,3.8
		c-1.8-1.4-3.6-2.7-5.3-4.2c-2.5-2.1-3.9-2.4-6.2-1.6c3.4,2.5,6.9,5.2,10.5,7.9c-0.1,1.6-1.9,0.2-2.1,1.8c-0.3,2.1-0.8,6.9-0.9,9
		s-0.4,3.1-1.8,3.3c-2.6,0.4-1.3,2.3-1.1,4.1l-0.2,1.7l-1.1,0.1c-0.7-0.2-1.4-0.4-2.2-0.6l0.3-2.4c0.1-1.1,0.1-1.6,0.1-2.8l0.1-1.7
		l1.1-10.9l-1.6-1.9l-4.3-0.9c-0.8-0.2-1.8-0.4-2.6-0.6c0-0.1-0.1-0.2-0.1-0.4c-0.3-1.4-0.7-2.7-1-4.1"/>
	<path class="st20" d="M86.5,119.5c-3.8-2.9-7.6-5.8-11.5-8.8c1.4-0.7,3.1-0.9,4.9,0.6c2.3,2,4.8,3.9,7.2,5.9
		C86.9,118,86.7,118.7,86.5,119.5L86.5,119.5z"/>
	<path class="st20" d="M82.8,131.2c-3.6-2.7-7.1-5.3-10.5-7.9c2.4-0.9,3.8-0.6,6.2,1.6c1.7,1.5,3.5,2.8,5.3,4.2
		C83.5,129.8,83.1,130.5,82.8,131.2L82.8,131.2z"/>
	<path class="st20" d="M85,123.5c-3.7-2.8-6.3-7.2-11.5-8.1c3.2-1.2,5.6-0.2,7.8,1.8c1.5,1.4,3.2,2.7,4.8,4
		C85.8,121.9,85.3,122.8,85,123.5L85,123.5z"/>
	<path class="st20" d="M65.9,123.2c0-0.2-0.3-0.7-0.3-0.9c0.1-0.3,0.1-0.7,0.2-1.1c0.2,0,0.3-0.2,0.5-0.2c0.9,0.1,1.9,0.3,2.8,0.3
		c0,0.2,0.2,0.8,0.2,1.1C68.2,122.7,67.1,122.9,65.9,123.2z"/>
	<path class="st20" d="M68.1,115.1c0.1-0.3,0.3-0.6,0.4-1c0.2,0,0.3-0.2,0.5-0.2c0.9,0.1,1.9,0.3,2.8,0.3c0,0.2,0.2,0.8,0.2,1.1"/>
	<path d="M77.5,141.1c0.7,0,1.4,0.5,1.6,1.2c0.2,0.9-0.6,2-1.7,2.1c-1,0.1-2-0.9-1.9-1.8C75.7,141.7,76.7,141.1,77.5,141.1z"/>
	<path class="st20" d="M66.9,118.5c0.1-0.3,0.2-0.6,0.4-1l3.3,0.1c0,0.2,0.2,0.8,0.2,1.1L66.9,118.5z"/>
	<path class="st20" d="M70,111.9c0-0.2-0.3-0.7-0.3-0.9c0.1-0.3,0.1-0.7,0.2-1.1c0.2,0,0.3-0.2,0.5-0.2c0.9,0.1,1.9,0.3,2.8,0.3
		c0,0.2,0.2,0.8,0.2,1.1C72.2,111.5,71.2,111.6,70,111.9z"/>
	<path class="st20" d="M83.7,127c-3-1.9-7.9-5.4-10.8-7.5c-0.2-0.1,0.2-0.6,0.1-0.9c3.7-0.6,9.4,3,10.9,6.7L83.7,127z"/>
</g>
<g id="head-neck">
	<path class="st8" d="M62.1,58.5c-0.3-1.3-0.5-2.6-0.6-4l0,0c0.5,0,3.1,0,3.6,0l0.9,5.3c1.5,2,3.5,4.4,5,6.4c-0.4,0.1-2.5,0-2.8,0
		c-1.1-0.1-2.2-0.1-3.4-0.2L62.1,58.5z"/>
	<path class="st21" d="M64.8,66L64.8,66c-5.8-2.6-11.7-5-15.5-10.5c-0.5-0.7-0.5-1.6-0.8-2.3c0.1-0.3,0.2-0.6,0.2-0.8
		c-0.4-7.9,3.8-12.5,9.8-15.6c2.8-1.5,6-2.1,9.1-3.1c1.1-0.3,3.1-0.3,4.1-0.9c0.6-0.3,1.2-0.7,1.8-1c0.3,0,0.7,0,1.1,0
		c0.8,0.2,1.5,0.3,2.3,0.5c1,0.6,2.6,0.2,3.7,0.6c2.3,0.7,4.5,1,6.8,1.6l6,1.2c2.2,1.7,3.7,3.9,6.1,5.3c4.8,2.8,7,7.8,7.3,13.3
		c-0.5,4.3-2.9,7.3-6.6,9.1c-2.7,1.3-5.6,2.1-8.4,3.1l-1-0.1c-0.6-0.1-0.8-0.2-0.8-0.6c0-2.2,0.6-4.1,3.5-4.1
		c-1.1-1.5-1.6-2.6-2.4-3.7c1.3-0.3,2.7-0.6,4.1-1c-0.3-0.9-0.6-1.8-0.9-2.9c1-0.3,2-0.7,2.9-1c-0.3-2.5-4.7-4.3-1.4-7.2
		c-1.4-1.4-2.8-2.8-4.2-4.3c1.2-0.8,1.9-1.2,2.6-1.7c-5.9-1.5-10.9-5.1-17.2-5.1c-6.9,0-10.6,5.4-16.1,7.9c0.5,0.5,1,0.9,1.3,1.2
		c-1.2,1.5-2.4,3-3.6,4.4c0.7,0.1,1.7,0.2,2.8,0.4c-0.6,1.4-1.2,2.7-1.6,4c-0.5,1.5,0.4,1.9,1.7,1.8c0.2,1.4,0.7,2.9,0.9,4.2
		L64.8,66z"/>
	<path class="st22" d="M79.2,31.6c1.7,0.2,3.4,0.4,5.1,0.6c1.9,1,3.9,1.8,6.1,1.3c0.1-0.3,0.2-0.6,0.3-0.9c-1.3-0.6-2.7-1.1-4-1.7
		l0,0c-0.4-0.2-0.8-0.4-1.2-0.6l0,0c-0.8-0.2-1.5-0.4-2.3-0.6c-5.8-1-11.5-1.1-17.2,2.3h4"/>
	<path class="st11" d="M70.4,69.9c-0.4-0.9-0.5-2.1-1-3.1c0.2-0.4,0.5-1.1,0.7-1.4c0.4,0,0.7,0.2,0.9,0.4c3.5,3.4,7.4,3.4,11.6,1.6
		l0,0c-0.2,1.9-0.3,3.8-0.5,5.7c-1.4,0.4-2.7,1.2-4.1,1.7c-2.4-1.6-4.9-3.2-7.3-4.8L70.4,69.9z"/>
	<path class="st10" d="M69.4,66.8c-0.5,0.2-1.1,7.7-1.6,7.9c0.3,1,0.7,1.9,1.1,2.9c0.6,0.6,1.1,1.1,1.7,1.7c2.1,0.7,4.2,1.5,6.3,2.3
		c0.4,0,0.7,0,1.1,0c1.3-0.3,2.7-0.7,4-1c0.2,0,0.4-0.1,0.6-0.1c0.2-0.2,0.4-0.4,0.6-0.6l0.2-0.1c0.7-0.9,1.3-1.9,2-2.8l0,0
		c0.1-0.4-3.2-4.2-3.2-4.6c-2,0.8-4.2,2-4.2,2l-7.2-4.8"/>
	<path class="st22" d="M87.1,35.5c-2.4-0.6-4.8-1-7.1-1.7l-11.2,0.5c-3.1,1-6.5,1.2-9.3,2.7c-6,3.2-11.1,7.3-10.7,15.1
		c0,0.3-0.1,0.6-0.2,0.8c-2.4-3.4,0-10.8,3.7-13.5c2.1-1.5,4.1-3,6.5-4.1c0.5-0.2,1-1.3,1-1.9c-0.6-4.9,3.3-7.3,5.9-10.3
		c2.6-3.1,6.5-4.2,10.2-4.1c3.9,0,7.9,0.7,11.6,1.8c4.3,1.4,7,4.7,8.3,9.1l0,0c0.4,0.8,1.3,2.2,1.3,4.3L97,37.4
		c4.6,1.7,7,5.7,9.2,9.6c1.2,2.1,1.9,4.6,0.6,7.1l0,0c-0.3-5.5-2.9-9.5-7.7-12.3c-1.8-1.1-3.4-2.4-5.1-3.7c-1-0.8-2.1-1.3-3.3-1.6
		L87.1,35.5z"/>
	<path class="st8" d="M89.3,59.5c0.2-0.6,0.9-1,1.3-1.4h0.2l0.3-0.1l0,0c0.8,1.2,1.7,2.3,2.7,3.8c-2.9,0-3.7,1.6-3.7,3.8
		c0,0.1,0,0.3,0,0.4c-0.4,0.1-0.8,0.1-1.2,0.2c-0.6,0.3-1.2,0.7-1.8,1c-1.5,0.2-3,0.4-4.5,0.6l0,0"/>
	<path class="st10" d="M66.3,61.4c-0.2-0.5-1.1-1.6-1.3-2.3c-0.2-0.3-0.5-1.9-0.6-2.1c0-0.1-0.2-0.8-0.1-1c0-0.2,0-0.5,0-0.7
		c0.2-0.9,0.4-1.7,0.6-2.6c0.1-0.7-0.1-1.7,0.3-1.9c3-1.8,3-5.2,4.5-7.8c0.6-1.1,1.8-1.9,2.9-2.9c0.5,2.5,1,4.4,1.6,7
		c1.5-3.3,0.3-6.8,4-8.8c2.3,3.1,4.6,6.1,7,9.4c0.3-1.3,0.5-2.6,0.9-4.4c1.6,2.5,3.3,4.5,4,6.7c0.8,2.5,0.6,5.4,0.8,8.1
		c-0.5,0.5-1.1,0.9-1.3,1.4c-1.3,3.3-2.2,6.6-5.7,8c-0.1,0.1-0.4,0.1-1,0.3c-4.2,1.8-8.1,1.8-11.6-1.6c-0.4-0.2-1.3-1-2.6-2.1
		L66.3,61.4z M82.7,58.7L82.7,58.7"/>
	<path class="st23" d="M90.7,58.3V58c-0.2-2.7,0-5.6-0.8-8.1c-0.7-2.3-2.3-3.6-3.8-6.1c-0.4,1.8-0.5,3-0.8,4.3
		c-2.4-3.3-4.6-5.9-6.9-9c-3.6,2-2.5,4.9-4,8.2c-0.6-2.6-1.2-4.5-1.8-6.9c-1,1-1.8,1.6-2.5,2.7c-1.5,2.6-1.3,5.9-4.3,7.7
		c-0.3,0.2-0.5,1.3-0.6,1.9l-0.6,2.6c-0.4-0.2-1.2-0.7-1.6-0.9c-0.5,0-1.1,0-1.6,0c-1.3,0.1-2.2-0.2-1.7-1.8c0.4-1.3,1-2.6,1.6-4
		c-1.1-0.2-2.1-0.3-2.8-0.4c1.2-1.5,2.4-3,3.6-4.4c-0.3-0.2-0.7-0.7-1.3-1.2c5.5-2.5,9.2-7.9,16.1-7.9c6.4,0,11.8,3.6,17.6,5.1
		c-0.7,0.4-1.4,0.9-2.6,1.7c1.5,1.5,2.7,2.9,4.1,4.3c-3.3,2.9,1.1,4.7,1.4,7.2c-1,0.3-2,0.8-2.9,1.1c0.3,1.1,0.6,2.1,0.9,3
		L90.7,58.3z"/>
	<path class="st0" d="M90.7,32.6L90.7,32.6c0.3,2.4,1.4,2.1,0,1.6C89,34,81,31.8,79.3,31.6c-1.5,0-3.1,0-4.6,0c-0.3,0-0.7,0-1.1,0
		c-1.2,0.2-2.4,0.4-3.6,0.5h-4.3c5.6-3.4,11.6-3.6,17.5-2.6c0.8,0.2,1.7,0.4,2.5,0.6"/>
	<path class="st8" d="M85.5,30.4c-0.8-0.2-1.5-0.4-2.3-0.6C84,30,84.7,30.2,85.5,30.4z"/>
	<path class="st8" d="M86.7,31c-0.4-0.2-0.8-0.4-1.2-0.6C85.9,30.6,86.3,30.8,86.7,31z"/>
	<path class="st24" d="M82.7,64.7c-0.3,0.2-1.8,1.2-2.1,1.3c-2.8,1.1-6.2,1.1-8.3-1.4c-1.2-1.5-2.1-3.1-3.4-5.1
		c4.8,0.6,8.6,1,12.3,1.5c0.3,0,4.1,0.4,5.2,0.4c0,0.3-0.7,1.1-1.9,2L82.7,64.7z"/>
	<path class="st24" d="M82.1,57.9c-0.3-1.2-0.2-1.5-0.4-2.6c-0.2-0.9,0.1-1.8,0.7-2.5l0,0l0.2-0.2c0.4-0.1,1.9-0.2,2.1-0.1
		c1.4,0.5,1.8,1.9,1.8,1.9c0.2,0.7,0.2,2.4-0.9,3.8c-0.4,0.5-1.1,0.7-1.8,0.7l-1-0.2C82.8,58.7,82.1,58,82.1,57.9z"/>
	<path class="st24" d="M71.8,57.1c-0.8,0.3-1.6,0-2.2-0.6c-0.1-0.2-0.3-0.3-0.4-0.5c-1.2-1.8-0.3-4.3,1.7-4.8l0,0
		c2.1-0.1,2.9,1.1,2.9,2.9C73.9,55.4,73.4,56.5,71.8,57.1z"/>
	<path class="st11" d="M81.4,53.4c0.4,1.8,0.8,3.9,1.2,5.6c-1.4,0.1-2.9,0.4-4.9,0.5c1.6-2.5-0.2-6.6,3.7-7.1
		C81.4,52.7,81.4,53,81.4,53.4L81.4,53.4z"/>
	<path class="st22" d="M81.4,53.4c0-0.3,0-0.7,0-1c0-0.4,0.1-0.8,0.3-1.4c0.6,0.5,1,0.8,1.3,1.2C82.6,52.4,81.8,53,81.4,53.4
		L81.4,53.4z"/>
	<circle id="_Path_" cx="71.3" cy="54.5" r="0.9"/>
	<circle id="_Path_-2" cx="84.1" cy="55.5" r="0.9"/>
	<line class="st25" x1="76.6" y1="50.9" x2="69.1" y2="46.5"/>
	<line class="st25" x1="81" y1="50.6" x2="88" y2="47.3"/>
</g>
<g id="left_speaker">
	<path class="st26" d="M54.3,101.4c0.4-4.3,1.4-12.8,1.7-17.1c0.8-3.8,0.8-3.4,1.3-7.2l0,0c0.6-0.2,4-0.9,4.6-1.2
		c-0.4,2.4-1,5.7-1.6,8l-2.5,27.5c0.4,1.3,0.9,2.7,1.3,4c0.7,1.1,0.2,2.8,0,3.8c-1.7,0-4.6,0.7-6.3,0.7c0-0.8,0.4-3.3,0.4-4.1
		L54.3,101.4z"/>
	<path class="st7" d="M58.6,156.9h-1.3c-2.3-0.2-4.6-0.4-6.9-0.6c0.5-0.4,1-0.9,1.5-1.2c7.6-5.9,8.5-19.6-1.4-23.6
		c-0.3-0.6-0.9-1.2-0.8-1.7c0.5-2.3,1.3-4.6,1.9-6.9l-0.2-4c1.9,0.2,6.5,0.1,8.3,0c1.9-0.1,2.6,4.8,2.5,6.7c-0.4,4.5-0.9,9.5-1.1,14
		c-0.2,3-1.3,5.9-1.3,8.9L58.6,156.9z"/>
	<path class="st4" d="M46.8,152.9c-0.7-0.1-1.7-0.1-2.6-0.2l0,0c-0.4-0.1-0.4-0.1-0.7-0.5c2.7-2.1,4.1-4.6,2.5-8.1
		c-0.1-0.1,1.2-1.3,1.9-1.5c0.4-0.1,1.1,0.7,2.3,1.4c-0.4-1.7-0.6-2.7-0.8-3.8c-0.4-1-0.8-1.9-1.2-2.9c-1.7-2.1-3.5-2.1-5.5-0.4
		c-1,0.8-1.7,1.9-2.6,2.8c-0.4-1.2-0.8-2.3-1.2-3.5c0.9-0.4,1.9-0.8,2.8-1.2c0.6-0.4,1.1-0.8,1.7-1.2c2,0.4,4.5,0.5,6.5,1
		c2.7,0.6,4.6,3.1,4.6,5.9c0,1.8,0.1,3.8,0.1,5.6c-0.8-0.3-1.9-0.5-2.3-0.6c-1.5,2.6-2.8,4.7-4.2,7.2H46.8z"/>
	<path class="st5" d="M52,150.3c0.7-1.5,1.3-2.9,1.9-4.4l0,0c0-1.8,0-3.6,0-5.4c0-2.8-1.6-4.9-4.3-5.5c-2-0.4-4-0.8-6-1.2
		c2.3-0.8,4.6-1.5,6.9-2.3c9.9,3.9,9.1,17.6,1.4,23.6c-0.5,0.4-1,0.8-1.5,1.2c-0.2,0-0.4-0.1-0.6-0.1c0.4-1.6,0.8-3.2,1.1-4.8
		L52,150.3z"/>
	<path class="st3" d="M44.2,141.3c-0.8,0.7-1.5,1.4-2.3,2.2c-3.3-0.1-1.3-3-1.9-4.2c0.9-0.9,1.9-1.8,2.8-2.6
		c1.9-1.7,3.8-1.5,5.5,0.6l0,0C44.5,137.4,44.1,137.8,44.2,141.3L44.2,141.3z"/>
	<path class="st3" d="M47.6,152.8c1.1-0.5,2.3-0.9,3.4-1.4l0,0c-0.4,1.6-0.8,3.2-1.1,4.8c-4.1,0.2-5.4-0.5-5.7-3.5L47.6,152.8z"/>
	<path class="st4" d="M41.2,143.3c2.7-0.2,3.8,1.7,3.6,3.5c-0.2,1.3,0.5,3.4-1.7,3.7C42.6,148.5,41.2,145.3,41.2,143.3z"/>
	<path class="st9" d="M57.3,156.9c0-3,2.5-14.4,2.6-17.4c0.2-4.5,0.6-9.1,1-13.6c0.2-1.9-0.6-2.5-2.5-2.5c-1.9,0.1-3.7-0.2-5.6-0.4
		c1.9,0,3.8,0.1,5.7-0.2c0.9-0.1,1.6-1.1,2.4-1.7c0.1-0.8-0.3-2-0.2-2.7c0-0.1,0.7,0.1,0.8,0l0,0c0.9,1,1.8,1.9,2.8,2.9
		c0,1.9,0,3.8,0.1,5.7c0,0.8,0,1.5,0,2.3c-0.2,2.5-0.5,4.9-0.7,7.4s-0.4,5-0.6,7.5c-0.4,2.7-2.3,13.5-2.7,16.1"/>
	<path class="st9" d="M41.9,135c-0.8-2.3-0.8-4.3,1.7-5.8c1.2-0.7,2-2.2,3-3.4c0-0.8,0-1.5,0-2.3c-0.2-0.3-0.4-0.7-0.7-1
		c-0.1-0.1-0.1-0.2,0-0.3c2.2,0.2,3.2-1.7,4.6-2.8c0.2,0,0.3,0.1,0.5,0.1c0.2,1.1,0.5,2.3,0.7,3.4c-0.7,2.3-1.4,4.6-1.9,6.9
		c-0.1,0.5,0.5,1.1,0.8,1.7c-2.3,0.8-4.6,1.5-6.9,2.3C43,134.2,42.5,134.6,41.9,135z"/>
	<path class="st6" d="M48.2,137.3c0.1,0.8,0.2,1.5,0.2,2.3c-1.4,0.6-2.8,1.1-4.3,1.7C44.1,137.8,44.5,137.4,48.2,137.3L48.2,137.3z"
		/>
	<path class="st5" d="M49.4,140.2c0.2,1,0.4,2.1,0.8,3.8c-1.2-0.7-1.8-1.3-2.2-1.2c-0.8,0.2-2.1,1.2-2,1.3c1.6,3.5,0.2,6-2.5,8.1
		c-0.2-0.7-0.3-1.4-0.5-2.2c2.2-0.3,1.5-2,1.7-3.3c0.2-1.8-0.9-2.3-2.3-2.7c-0.2-0.2-0.4-0.4-0.6-0.6c0.8-0.7,1.5-1.4,2.3-2.2
		c1.4-0.6,2.8-1.1,4.3-1.7C48.8,139.8,49.1,140,49.4,140.2L49.4,140.2z"/>
	<path class="st6" d="M51,151.8c-1.2,0.4-2.2,0.5-3.4,1c1.4-2.5,2.7-4.9,4.2-7.5c0.4,0.1,1.2,0.4,2.1,0.6c-0.6,1.4-1.1,2.9-1.7,4.4
		L51,151.8z"/>
	<path class="st3" d="M49.4,140.2c-0.3-0.2-0.6-0.4-1-0.6c-0.1-0.8-0.2-1.5-0.2-2.3l0,0C48.6,138.3,49,139.2,49.4,140.2L49.4,140.2z
		"/>
	<path class="st1" d="M46.6,123.6c0,0.8,0,1.5,0,2.3C46.6,125.1,46.6,124.3,46.6,123.6z"/>
	<path class="st8" d="M53.2,123.5c0-0.1,0-0.4,0-0.7l5.1-0.1l0,0c0,0.3,0,0.6-0.1,0.8"/>
	<path class="st4" d="M51.6,122.9c-0.2-1.1-0.5-2.3-0.7-3.4c1-1.1-0.2-3.6,2.4-3.5c0,0.8,0.1,1.6,0.1,2.4c0.1,0.2,0.3,0.4,0.4,0.6
		c1.4,1.8,2.8,1.7,4.2,0c0.1-0.2,0.3-0.4,0.4-0.6c0.2-1,0.5-1.9,0.7-2.9c0.6,0.2,1.1,0.4,1.7,0.6h0.1c0,0.9,0,1.8,0.1,2.8
		c0,0.8,0,1.5,0,2.3c-0.8,0.6-1.5,1.6-2.4,1.7c-1.9,0.3-3.8,0.2-5.7,0.2C52.4,123,52,123,51.6,122.9L51.6,122.9z"/>
</g>
<g class="music-notes" transform="translate(0,0)">
	<path d="M15.7,141.6c-0.5,0-1.1,0.1-1.7,0.2l3.1,11c-0.7-0.2-1.4-0.3-2.2-0.1c-1.8,0.3-3.1,1.6-2.9,2.8c0.2,1.2,1.9,1.9,3.7,1.6
		c1.8-0.3,3.1-1.6,2.9-2.8c-1-3.7-2-7.5-3.1-11.3c2.3,0.2,3.3,1.5,4.2,2.8C19.7,142.9,18,141.6,15.7,141.6z M35.6,143.2
		c-0.6,0-1.3,0.1-2,0.3l4,10.7c-0.7-0.2-1.5-0.2-2.2,0c-1.8,0.5-3,1.8-2.7,3s2,1.8,3.8,1.3s3-1.8,2.7-3c-1.3-3.6-2.6-7.3-4-11
		c2.3,0,3.5,1.2,4.4,2.4C39.4,144.3,37.7,143.2,35.6,143.2L35.6,143.2z"/>
	<path d="M27.1,150.7c-1.6,0-3.2,0.3-4.1,0.7c-0.6,2-0.8,5.9-0.3,8.3c-0.4-0.2-0.8-0.3-1.3-0.3c-1.3,0-2.4,0.8-2.4,1.8
		s1.1,1.8,2.4,1.8s2.4-0.8,2.4-1.8c-0.3-2.3-0.6-5.3-0.4-7.6c1.7-0.4,3.6-0.8,5.3-0.5c-0.2,1.8-0.1,3.8,0.2,5.4
		c-0.4-0.2-0.8-0.3-1.3-0.3c-1.3,0-2.4,0.8-2.4,1.8s1.1,1.8,2.4,1.8S30,161,30,160c-0.2-3.3-0.9-6.1,0-9.1
		C29.1,150.8,28.1,150.7,27.1,150.7L27.1,150.7z"/>
</g>
<g class="music-notes" transform="translate(0,0)">
	<path d="M121.3,132.6c-0.5,0-1.1,0.1-1.7,0.2l3.1,11c-0.7-0.2-1.4-0.3-2.2-0.1c-1.8,0.3-3.1,1.6-2.9,2.8s1.9,1.9,3.7,1.6
		c1.8-0.3,3.1-1.6,2.9-2.8c-1-3.7-2-7.5-3.1-11.3c2.3,0.2,3.3,1.5,4.2,2.8C125.3,133.9,123.6,132.6,121.3,132.6z M141.2,134.2
		c-0.6,0-1.3,0.1-2,0.3l4,10.7c-0.7-0.2-1.5-0.2-2.2,0c-1.8,0.5-3,1.8-2.7,3s2,1.8,3.8,1.3s3-1.8,2.7-3c-1.3-3.6-2.6-7.3-4-11
		c2.3,0,3.5,1.2,4.4,2.4C145,135.3,143.3,134.2,141.2,134.2L141.2,134.2z"/>
	<path d="M132.7,141.7c-1.6,0-3.2,0.3-4.1,0.7c-0.6,2-0.8,5.9-0.3,8.3c-0.4-0.2-0.8-0.3-1.3-0.3c-1.3,0-2.4,0.8-2.4,1.8
		s1.1,1.8,2.4,1.8s2.4-0.8,2.4-1.8c-0.3-2.3-0.6-5.3-0.4-7.6c1.7-0.4,3.6-0.8,5.3-0.5c-0.2,1.8-0.1,3.8,0.2,5.4
		c-0.4-0.2-0.8-0.3-1.3-0.3c-1.3,0-2.4,0.8-2.4,1.8s1.1,1.8,2.4,1.8c1.3,0,2.4-0.8,2.4-1.8c-0.2-3.3-0.9-6.1,0-9.1
		C134.7,141.8,133.7,141.7,132.7,141.7L132.7,141.7z"/>
</g>
<g id="right-feet">
	<path class="st16" d="M94.7,282.4c-0.1-0.9,0.2-1.6,1-1.9c0.6-0.3,1.2-0.5,1.6,0.6c0.5,1.5,1.8,2.3,3.3,2.4
		c1.9,0.1,3.6,0.8,5.3,1.4c0.5,0.3,0.6,1.1,1.3,1.3c0.3,0.7,0.8,1.4,1.4,1.8c2.6,1.6,4.7,4.6,8.1,4.2c1.5-0.2,2.8,0,4.2,0.1
		c2.2,0.1,4.2-0.7,6.1-1.8c0.4-0.2,0.5-0.6,0.7-0.9c0.8-1.5,1.2-1.5,2.2,0c-0.3,2.1-1.6,3.2-3.3,3.7c-3,0.9-5.9,1.2-9.1,0.7
		c-5.1-0.8-9.2-3.8-13.5-6.4c-2.7-1.7-5.3-3.4-8.3-4.3C95.4,283,95,282.8,94.7,282.4z"/>
	<path class="st27" d="M94.7,282.4c3.8,0.9,7,3.1,10.3,5.2c2.7,1.7,5.3,3.6,8.2,4.8c3.3,1.3,6.6,1.9,10.1,1.2
		c0.5-0.1,1.1-0.1,1.7-0.2c2.2-0.4,3.9-1.6,4.9-3.9c0.5,1.6,0.2,2.6-1.1,3.6c-1.1,0.8-2.4,1.1-3.8,1.3c-7.7,1.2-14.4-2-21-5.8
		c-2.4-1.4-4.9-2.5-7.5-3.5C95.4,284.5,94.8,283.7,94.7,282.4z"/>
	<path class="st13" d="M92.9,224.9c0.5-2,0.7,5.7,5.7,3.8c3.9-1.5,5-3.7,8.5-3.8c0.6,0,0.9-1.1,0.7,1c-0.3,4.7-0.6,8-0.8,12.1
		c0,1-0.1,1.8,0.1,9.5c0.3,10.8-1.8,18.3,2.4,24.6c2.4,3.5,5.3,5.3,5.3,5.3c2.2,1.4,4.5,2,4.4,2.2c-0.1,0.4-6.7-2.9-8.9-0.2
		c-1.7,2.1-0.3,5.7-2.2,6.7c-0.4,0.2-0.7,0.1-5.3-1.3c-2.7-0.9-3.4-1.1-4.5-1.7c-1.3-0.9-2.3-1.4-2.7-2.5c-1-2.3,1.6-4.3,2.8-8.9
		c0.2-0.8,0.4-1.8,0.5-6.1c0.1-5.5-0.3-11.2-1-19.1C96.5,231.2,91.7,229.5,92.9,224.9z"/>
	<path class="st28" d="M128.2,290.1c-1,1.3-2.4,1.9-3.9,2.2c-1.1,0.2-2.1,0.8-3.3,0.5c-1.4-0.3-2.7-0.3-4.1-0.1
		c-1.5,0.2-3.1-0.2-4.3-1.4c-0.6-0.6-1.5-0.8-2.2-1.3c-1.3-0.8-2.7-1.6-3.2-3.2c0-0.2,0.1-0.3,0.3-0.4c1.1,0.6,1.5,1.8,2.7,2.3
		c0.5,0.2,0.9,0.3,1.6-0.1c0.5-0.3,0.6,0.6,0.8,0.9c0.9,1.5,2.9,2.4,4.6,2c0.7-0.1,1.1-0.6,1.3-1.3c0.1-0.9-0.6-0.7-1.1-0.6
		c-0.6,0-1.1,0.5-1.7,0.6c-0.7,0.2-1.3-0.2-1.6-0.8c-0.4-0.8,0.1-1.4,0.7-1.9s1.3-0.6,1.9-0.2c0.5,0.3,0,0.5-0.2,0.6
		c-0.4,0.3-1.1,0.1-1.4,0.9c0.9,0.2,1.7-0.3,2.5-0.5c0.3-0.1-0.5-0.4-0.4-0.7c0.1-0.1,0.6-0.2,0.7-0.2c1.2,0.2,1.7,1,1.7,2.1
		c0,0.6-0.7,1.2,0.2,1.7c0.9,0.6,2.1,0.5,3.2-0.4c-0.2-0.2-0.4,0-0.6,0c-0.7,0.2-1.4,0.5-2-0.3c-0.3-0.5-0.4-1,0.1-1.4
		c1.1-0.8,0.5-1.3-0.2-1.9c-0.3-0.2-0.9-0.5-0.6-1s0.9,0,1.3,0.2c1.2,0.8,2.2,2.5,3.3,3.5c1.9,0,0,1.2,1.1,0.3
		c-0.6-0.1-1.2,0.1-1.5-0.5c-0.5-0.6-0.6-1.3-1.3-1.9c-0.4-0.4-0.8-0.9-1.4-1.2c-0.2-0.1,0-0.3,0.1-0.5c0.1-0.3,0.4-0.4,0.6-0.3
		c0.8,0.1,1.3,0.5,1.8,1.2c0.3,0.5,0.6,1.1,1.5,1c-0.3-0.9-0.8-1.5-1.7-1.8c-0.4-0.2-1.2-0.1-0.9-0.8c0.2-0.6,0.9-0.3,1.4-0.2
		c0.9,0.3,1.3,1.2,2.3,1.7c-0.5-1-1.2-1.5-2.1-1.8c-1.6-0.6-2.8-1.5-3.5-3.1c0.1-0.2,0.2,0.7,0.4,0.8c0.9,1.3,0.1,1.9,1.7,2.2
		c0.7,0.4,2.7,0.6,3,1.6c0,0.1,0.6-0.1,0.7-0.1c2-0.1,3.9,1.4,3.4,2.8"/>
	<path class="st13" d="M117.9,287.7c0.6-1.9,2-3.5,2.8-5.4c1.3,1.4,2.7,2.6,4.6,3.2c0.7,0.2,0.7,1.4,1.8,1.5
		c-1.1,0.9-1.6,0.4-2.1-0.3c-0.6-0.9-1.3-1.4-2.5-1.1c1.3,0.2,2,1,2.7,1.9c0.3,0.4,0.3,0.5,0.1,0.9c-0.2,0.5-0.5,0.1-0.8,0.1
		c-0.6-0.1-1-0.5-1.2-1c-0.4-0.9-1.1-1.3-2.1-1.2c1.6,0.8,2.4,2,2.4,3.8l0,0c-0.9-0.6-1.8-1.2-2.2-2.4c-0.3-0.7-1.1-0.9-1.8-1.2
		c0,0.1,0.1,0.2,0.1,0.2c0.4,0.3,0.7,0.5,1.1,0.8c0.8,0.6,0.8,1.2-0.1,1.8c-0.4,0.3-0.6,0.7-0.3,1.2c0.3,0.3,0.5,0.5,1.2,0.5
		c0.3,0,1-0.3,1.3-0.3s-0.1,0.4-0.3,0.6c-0.8,0.7-1.6,0.5-2.5,0.2c-0.8-0.3-1.1-0.8-0.8-1.6C119.2,288.8,118.9,288,117.9,287.7z"/>
	<path class="st13" d="M107.9,286c2.1-1.3,4.3-1.4,6.6-0.7c0.9,0.3-0.2,0.4-0.1,0.7c1.3,0,2.2,0.7,2.9,1.8c0.3,0.3,0.7,0.5,1.2,1
		c-1.3,0-2.3,0.3-3.3,0.8c-0.5,0.2-0.7-0.1-0.9-0.5c-0.2-0.5,0.2-0.7,0.5-0.9c0.5-0.3,1.2-0.1,1.7-0.6c-0.8-0.1-1.4-0.1-2,0.3
		c-0.5,0.4-0.6,0.8-0.2,1.5s0.6,0.9,1.3,0.5s1.4-0.6,2.2-0.6c0.9,0,1.2,0.3,0.7,1.1c-2.6,1.3-4.4,0.9-6.3-1.2c-1-1-2.3-1.6-3.6-2.2
		C108.3,286.8,107.6,286.8,107.9,286z"/>
	<path class="st11" d="M107.9,286c0.4,1,1.5,0.8,2.2,1.3c1.1,0.8,2.2,1.4,3,2.5c1.1,1.4,2.7,1,4.1,0.8c0.4-0.1,0.8-0.2,1.3-0.2
		c-0.2,1.2-1,1.7-2.2,1.6c-1.9-0.2-3.6-0.4-4.3-2.6c0-0.1-0.1-0.2-0.2-0.3c-2.4-0.3-2.8-0.5-4.2-2.4c-0.1-0.1-0.1-0.2-0.2-0.3
		C107.6,286.3,107.8,286.2,107.9,286z"/>
	<path class="st11" d="M119.2,289.8c-0.2,1.2,0.9,1.3,1.6,1.5c0.5,0.2,1.3,0.5,1.6-0.4c0.3-0.3,0.6-0.3,0.9-0.3
		c-0.2,1.2-1.2,1.8-2.7,1.6C118.9,291.9,118.6,291.5,119.2,289.8z"/>
	<path class="st11" d="M123.7,290.1c0.7,0.2,1.3,0.2,2-0.2c-0.1,0.8-0.3,1.5-1.2,1.5C123.4,291.4,123.9,290.5,123.7,290.1
		L123.7,290.1z"/>
	<path class="st13" d="M123,290.1c-0.5,0.2-0.8,0.3-1,0.4c-0.4,0.1-0.7,0.3-1.1-0.1c-0.2-0.2-0.2-0.4,0-0.5c0.4-0.2,0.7-0.7,1.3-0.4
		C122.4,289.7,122.6,289.9,123,290.1z"/>
	<path class="st11" d="M127.5,288.6c0.2,1-0.3,1.6-1.2,1.9C125.5,289.1,126.9,289.2,127.5,288.6z"/>
	<path class="st13" d="M127.2,288.1c-0.4,0.4-0.7,0.8-1.2,0.6c-0.2-0.1-0.3-0.2-0.2-0.4C126.2,287.8,126.6,287.9,127.2,288.1z"/>
	<path class="st13" d="M125.3,289.4c-0.4,0.3-0.8,0.6-1.2,0.2c-0.1,0-0.1-0.3,0-0.3C124.5,288.9,124.9,289,125.3,289.4z"/>
	<path class="st11" d="M128.2,287.5c0.3,0.1,0.4,0.2,0.4,0.5s-0.1,0.5-0.4,0.5c-0.3,0-0.5-0.3-0.4-0.5
		C127.8,287.8,128.1,287.7,128.2,287.5z"/>
	<path class="st11" d="M96.5,219.2c0.2-0.1,3.3,0.2,3.5,0.2c1.9,0,4.1-0.3,6.1-0.3c0.8,0.1,1.6-0.7,2.4-0.6c0,0.4-0.2,1.8-0.2,2.2
		c0,1.1-0.1,2.3-0.1,3.4c-0.1,0.6-0.1,1.3-0.2,1.8c-4.6,0.4-8.9,8-12.8,4.8c-0.5-0.3-1.2-0.9-1.7-1.8c-0.5-0.9-0.7-1.7-0.9-2.9
		c-0.2-1.3-1-4.2-1.1-6.3C92.8,219.3,94.9,219.4,96.5,219.2z"/>
	<path class="st29" d="M107.4,286.5c-0.1,0.1-0.2,0.2-0.3,0.4c-0.9,0.2-1-0.5-1.4-1c-0.1-0.3,0-0.5,0.1-0.7c0.1-0.3,0.2-0.6,0.3-0.9
		c1.4-4.3,4.2-6.7,8.8-7c0.2,0,0.4,0.1,0.6,0.2c0.6,0.2,1.2,0.4,1.8,0.5c1.8,0.4,2.8,1.7,3.7,3.2c0.2,0.3,0,0.7,0,1
		c-0.1,0.1-0.2,0.2-0.3,0.3c-0.4,2-1.6,4-2.7,5.7c-0.1,0-0.4-0.3-0.5-0.3c-0.9-0.4-1.8-1-2.7-1.5c-1.7-0.9-1.7-1.1-3.1-1
		c-1.2,0.1-2.4,0.2-3.5,0.8C108,286.2,107.7,286.4,107.4,286.5z"/>
	<path class="st13" d="M109.2,281.3c0.9-0.5,1.8-1,2.7-1.4c2.3-1,4.6-1,6.9,0c1.3,0.6,1.4,1,0.8,2.2c-0.5,1-1.1,2-1.6,3.1
		c-0.3,0.7-0.7,0.7-1.2,0.2c-1.9-1.6-4.1-2.2-6.5-1.7c-1,0.2-2,0.5-3,1.4C107.7,283.5,108.6,282.5,109.2,281.3L109.2,281.3z"/>
	<path class="st30" d="M108.7,281.3c0.2-0.9,0.8-1.6,1.7-2c2.4-1.3,6.1-1.9,8.3-0.1c-1.2-0.3-2.5-0.6-3.7-0.4
		c-2.1,0.3-4.2,0.8-5.7,2.6l0,0C109.1,281.3,108.9,281.3,108.7,281.3L108.7,281.3z"/>
</g>
<g id="pant">
	<path class="st31" d="M51.3,220c-1.2-0.1-2.3-0.3-3.5-0.3c-2.9-0.1-5.7-0.1-8.4-0.2c-5.5-0.5-4.9-4.4-1.8-9.6l0,0
		c8.3,0.4,16.6,0.8,24.9,1.2c2.2,0.4,5.5-0.9,7.7-0.5l-0.6,2.4c-1.4,2.2-2.5,7.5-5.4,8L51.3,220z"/>
	<path class="st31" d="M86.4,221.2c-1.9-0.2-2.4-2.5-3.4-5.1c-0.8-2.1-0.9-4-0.9-5.2c9.6-0.1,19.4-2.1,29-2.2c0.8,5,0.5,8.5-0.2,9.1
		c-1.6,1.3-6.4,1.5-11.9,2.3C95.1,220.8,91.6,221.8,86.4,221.2z"/>
	<polygon class="st32" points="46.5,175.3 42.1,191.8 37,210.9 69.6,212.9 76,186.4 78.1,189.2 82.6,214.3 111.3,210.1 105.9,175.4 
			"/>
</g>
</svg>
